<svg xmlns="http://www.w3.org/2000/svg" viewBox="0 0 512 512" xml:space="preserve"><path d="M363.4 384.5c33 0 59.9-26.9 59.9-59.9s-26.9-59.9-59.9-59.9-59.9 26.9-59.9 59.9 26.9 59.9 59.9 59.9zm0-95.4c19.5 0 35.4 15.9 35.4 35.4s-15.9 35.4-35.4 35.4-35.4-15.8-35.4-35.4c0-19.5 15.9-35.4 35.4-35.4z"/><path d="M247.2 292.9c-11.3 0-20.5 9.2-20.5 20.5v22.4c0 11.3 9.2 20.5 20.5 20.5h9c2.2 7.6 5.2 14.9 9 21.8l-6.4 6.4c-3.9 3.9-6 9-6 14.5s2.1 10.6 6 14.5l15.8 15.8c3.9 3.9 9 6 14.5 6s10.6-2.1 14.5-6l6.4-6.4c6.9 3.8 14.2 6.8 21.8 9v9c0 11.3 9.2 20.5 20.5 20.5h22.4c11.3 0 20.5-9.2 20.5-20.5v-9c7.6-2.2 14.9-5.2 21.8-9l6.4 6.4c3.9 3.9 9 6 14.5 6s10.6-2.1 14.5-6l15.8-15.8c8-8 8-21 0-28.9l-6.4-6.4c3.8-6.9 6.8-14.2 9-21.8h9c11.3 0 20.5-9.2 20.5-20.5v-22.4c0-11.3-9.2-20.5-20.5-20.5h-9c-2.2-7.6-5.2-14.9-9-21.8l6.4-6.4c3.9-3.9 6-9 6-14.5s-2.1-10.6-6-14.5l-16-15.8c-3.9-3.9-9-6-14.5-6s-10.6 2.1-14.5 6l-6.4 6.4c-6.9-3.8-14.2-6.8-21.8-9v-9c0-11.3-9.2-20.5-20.5-20.5h-22.4c-11.3 0-20.5 9.2-20.5 20.5v9c-7.6 2.2-14.9 5.2-21.8 9l-6.4-6.4c-3.9-3.9-9-6-14.5-6s-10.6 2.1-14.5 6l-15.8 15.8c-3.9 3.9-6 9-6 14.5s2.1 10.6 6 14.5l6.4 6.4c-3.8 6.9-6.8 14.2-9 21.8h-8.8zm18.6 24.5c5.8 0 10.9-4.1 12-9.9 2.2-11.3 6.6-21.9 13-31.5 3.3-4.9 2.6-11.3-1.5-15.5L279 250.2l10.1-10.1 10.3 10.3c4.1 4.1 10.6 4.8 15.5 1.5 9.6-6.4 20.2-10.8 31.5-13 5.7-1.1 9.9-6.2 9.9-12v-14.6h14.3v14.6c0 5.9 4.1 10.9 9.9 12 11.3 2.2 21.9 6.6 31.5 13 4.9 3.3 11.3 2.6 15.5-1.5l10.3-10.3 10.1 10.1-10.3 10.3c-4.1 4.1-4.8 10.6-1.5 15.5 6.4 9.6 10.8 20.2 13 31.5 1.1 5.7 6.2 9.9 12 9.9h14.6v14.3h-14.6c-5.8 0-10.9 4.1-12 9.9-2.2 11.3-6.6 21.9-13 31.5-3.3 4.9-2.6 11.3 1.5 15.5l10.3 10.3-10.1 10.1-10.3-10.3c-4.1-4.1-10.6-4.8-15.5-1.5a88.24 88.24 0 0 1-31.5 13.1c-5.7 1.1-9.9 6.2-9.9 12v14.6h-14.3v-14.6c0-5.9-4.1-10.9-9.9-12-11.3-2.2-21.9-6.6-31.5-13.1-4.9-3.2-11.3-2.6-15.5 1.5L289.1 409 279 398.9l10.3-10.3c4.1-4.1 4.8-10.6 1.5-15.5-6.4-9.6-10.8-20.2-13-31.5-1.1-5.7-6.2-9.9-12-9.9h-14.6v-14.3h14.6z"/><path d="M11.9 83.7v269.8c0 18.2 14.8 32.9 32.9 32.9h173.8c6.8 0 12.3-5.5 12.3-12.3 0-6.8-5.5-12.3-12.3-12.3H44.8c-4.6 0-8.4-3.8-8.4-8.4V153.1h364.5v24c0 6.8 5.5 12.3 12.3 12.3s12.3-5.5 12.3-12.3V83.7c0-18.2-14.8-32.9-32.9-32.9H44.8c-18.2 0-32.9 14.7-32.9 32.9zm389 0v44.9H36.4V83.7c0-4.6 3.8-8.4 8.4-8.4h347.6c4.7 0 8.5 3.7 8.5 8.4z"/><path d="M63 114.1c3.2 0 6.4-1.3 8.7-3.6 2.3-2.3 3.6-5.4 3.6-8.7 0-3.2-1.3-6.4-3.6-8.7-4.6-4.5-12.8-4.5-17.3.1-2.3 2.3-3.6 5.4-3.6 8.6 0 3.2 1.3 6.4 3.6 8.7 2.2 2.4 5.4 3.6 8.6 3.6zM101.9 114.1c3.2 0 6.4-1.3 8.6-3.6 2.3-2.3 3.6-5.4 3.6-8.7 0-3.2-1.3-6.4-3.6-8.7-4.6-4.5-12.8-4.5-17.3.1-2.3 2.3-3.6 5.4-3.6 8.6 0 3.2 1.3 6.4 3.6 8.7 2.3 2.4 5.5 3.6 8.7 3.6zM140.8 114.1c3.2 0 6.4-1.3 8.7-3.6 2.3-2.3 3.6-5.4 3.6-8.7 0-3.2-1.3-6.4-3.6-8.6-4.6-4.6-12.8-4.6-17.3 0-2.3 2.3-3.6 5.4-3.6 8.6 0 3.2 1.3 6.4 3.6 8.7 2.2 2.4 5.4 3.6 8.6 3.6z"/></svg>