<svg xmlns="http://www.w3.org/2000/svg" xmlns:xlink="http://www.w3.org/1999/xlink" width="384" height="288" viewBox="0 0 288 216"><defs><style>*{stroke-linejoin:round;stroke-linecap:butt}</style></defs><g id="figure_1"><path id="patch_1" d="M0 216h288V0H0z" style="fill:#fff"/><g id="axes_1"><path id="patch_2" d="M42.083 188.522H277.2V10.8H42.083z" style="fill:#fff"/><g id="matplotlib.axis_1"><g id="xtick_1"><path id="line2d_1" d="M43.864 188.522V10.8" clip-path="url(#p66cf05f8d1)" style="fill:none;stroke:#b0b0b0;stroke-width:.8;stroke-linecap:square"/><g id="line2d_2"><defs><path id="m300b8e1ba9" d="M0 0v3.5" style="stroke:#000;stroke-width:.8"/></defs><use xlink:href="#m300b8e1ba9" x="43.864" y="188.522" style="stroke:#000;stroke-width:.8"/></g><g id="text_1" transform="matrix(.1 0 0 -.1 40.683 203.12)"><defs><path id="DejaVuSans-30" d="M2034 4250q-487 0-733-480-245-479-245-1442 0-959 245-1439 246-480 733-480 491 0 736 480 246 480 246 1439 0 963-246 1442-245 480-736 480zm0 500q785 0 1199-621 414-620 414-1801 0-1178-414-1799Q2819-91 2034-91q-784 0-1198 620-414 621-414 1799 0 1181 414 1801 414 621 1198 621z" transform="scale(.015625)"/></defs><use xlink:href="#DejaVuSans-30"/></g></g><g id="xtick_2"><path id="line2d_3" d="M88.394 188.522V10.8" clip-path="url(#p66cf05f8d1)" style="fill:none;stroke:#b0b0b0;stroke-width:.8;stroke-linecap:square"/><use xlink:href="#m300b8e1ba9" id="line2d_4" x="88.394" y="188.522" style="stroke:#000;stroke-width:.8"/><g id="text_2" transform="matrix(.1 0 0 -.1 85.213 203.12)"><defs><path id="DejaVuSans-31" d="M794 531h1031v3560L703 3866v575l1116 225h631V531h1031V0H794v531z" transform="scale(.015625)"/></defs><use xlink:href="#DejaVuSans-31"/></g></g><g id="xtick_3"><path id="line2d_5" d="M132.924 188.522V10.8" clip-path="url(#p66cf05f8d1)" style="fill:none;stroke:#b0b0b0;stroke-width:.8;stroke-linecap:square"/><use xlink:href="#m300b8e1ba9" id="line2d_6" x="132.924" y="188.522" style="stroke:#000;stroke-width:.8"/><g id="text_3" transform="matrix(.1 0 0 -.1 129.742 203.12)"><defs><path id="DejaVuSans-32" d="M1228 531h2203V0H469v531q359 372 979 998 621 627 780 809 303 340 423 576 121 236 121 464 0 372-261 606-261 235-680 235-297 0-627-103-329-103-704-313v638q381 153 712 231 332 78 607 78 725 0 1156-363 431-362 431-968 0-288-108-546-107-257-392-607-78-91-497-524-418-433-1181-1211z" transform="scale(.015625)"/></defs><use xlink:href="#DejaVuSans-32"/></g></g><g id="xtick_4"><path id="line2d_7" d="M177.453 188.522V10.8" clip-path="url(#p66cf05f8d1)" style="fill:none;stroke:#b0b0b0;stroke-width:.8;stroke-linecap:square"/><use xlink:href="#m300b8e1ba9" id="line2d_8" x="177.453" y="188.522" style="stroke:#000;stroke-width:.8"/><g id="text_4" transform="matrix(.1 0 0 -.1 174.272 203.12)"><defs><path id="DejaVuSans-33" d="M2597 2516q453-97 707-404 255-306 255-756 0-690-475-1069Q2609-91 1734-91q-293 0-604 58T488 141v609q262-153 574-231 313-78 654-78 593 0 904 234t311 681q0 413-289 645-289 233-804 233h-544v519h569q465 0 712 186t247 536q0 359-255 551-254 193-729 193-260 0-557-57-297-56-653-174v562q360 100 674 150t592 50q719 0 1137-327 419-326 419-882 0-388-222-655t-631-370z" transform="scale(.015625)"/></defs><use xlink:href="#DejaVuSans-33"/></g></g><g id="xtick_5"><path id="line2d_9" d="M221.983 188.522V10.8" clip-path="url(#p66cf05f8d1)" style="fill:none;stroke:#b0b0b0;stroke-width:.8;stroke-linecap:square"/><use xlink:href="#m300b8e1ba9" id="line2d_10" x="221.983" y="188.522" style="stroke:#000;stroke-width:.8"/><g id="text_5" transform="matrix(.1 0 0 -.1 218.802 203.12)"><defs><path id="DejaVuSans-34" d="M2419 4116 825 1625h1594v2491zm-166 550h794V1625h666v-525h-666V0h-628v1100H313v609l1940 2957z" transform="scale(.015625)"/></defs><use xlink:href="#DejaVuSans-34"/></g></g><g id="xtick_6"><path id="line2d_11" d="M266.513 188.522V10.8" clip-path="url(#p66cf05f8d1)" style="fill:none;stroke:#b0b0b0;stroke-width:.8;stroke-linecap:square"/><use xlink:href="#m300b8e1ba9" id="line2d_12" x="266.513" y="188.522" style="stroke:#000;stroke-width:.8"/><g id="text_6" transform="matrix(.1 0 0 -.1 263.332 203.12)"><defs><path id="DejaVuSans-35" d="M691 4666h2478v-532H1269V2991q137 47 274 70 138 23 276 23 781 0 1237-428 457-428 457-1159 0-753-469-1171Q2575-91 1722-91q-294 0-599 50Q819 9 494 109v635q281-153 581-228t634-75q541 0 856 284 316 284 316 772 0 487-316 771-315 285-856 285-253 0-505-56-251-56-513-175v2344z" transform="scale(.015625)"/></defs><use xlink:href="#DejaVuSans-35"/></g></g></g><g id="matplotlib.axis_2"><g id="ytick_1"><path id="line2d_13" d="M42.083 174.95H277.2" clip-path="url(#p66cf05f8d1)" style="fill:none;stroke:#b0b0b0;stroke-width:.8;stroke-linecap:square"/><g id="line2d_14"><defs><path id="m1a6d811711" d="M0 0h-3.5" style="stroke:#000;stroke-width:.8"/></defs><use xlink:href="#m1a6d811711" x="42.083" y="174.951" style="stroke:#000;stroke-width:.8"/></g><g id="text_7" transform="matrix(.1 0 0 -.1 10.8 178.75)"><defs><path id="DejaVuSans-2212" d="M678 2272h4006v-531H678v531z" transform="scale(.015625)"/><path id="DejaVuSans-2e" d="M684 794h660V0H684v794z" transform="scale(.015625)"/></defs><use xlink:href="#DejaVuSans-2212"/><use xlink:href="#DejaVuSans-31" x="83.789"/><use xlink:href="#DejaVuSans-2e" x="147.412"/><use xlink:href="#DejaVuSans-35" x="179.199"/></g></g><g id="ytick_2"><path id="line2d_15" d="M42.083 149.854H277.2" clip-path="url(#p66cf05f8d1)" style="fill:none;stroke:#b0b0b0;stroke-width:.8;stroke-linecap:square"/><use xlink:href="#m1a6d811711" id="line2d_16" x="42.083" y="149.854" style="stroke:#000;stroke-width:.8"/><g id="text_8" transform="matrix(.1 0 0 -.1 10.8 153.653)"><use xlink:href="#DejaVuSans-2212"/><use xlink:href="#DejaVuSans-31" x="83.789"/><use xlink:href="#DejaVuSans-2e" x="147.412"/><use xlink:href="#DejaVuSans-30" x="179.199"/></g></g><g id="ytick_3"><path id="line2d_17" d="M42.083 124.757H277.2" clip-path="url(#p66cf05f8d1)" style="fill:none;stroke:#b0b0b0;stroke-width:.8;stroke-linecap:square"/><use xlink:href="#m1a6d811711" id="line2d_18" x="42.083" y="124.757" style="stroke:#000;stroke-width:.8"/><g id="text_9" transform="matrix(.1 0 0 -.1 10.8 128.557)"><use xlink:href="#DejaVuSans-2212"/><use xlink:href="#DejaVuSans-30" x="83.789"/><use xlink:href="#DejaVuSans-2e" x="147.412"/><use xlink:href="#DejaVuSans-35" x="179.199"/></g></g><g id="ytick_4"><path id="line2d_19" d="M42.083 99.66H277.2" clip-path="url(#p66cf05f8d1)" style="fill:none;stroke:#b0b0b0;stroke-width:.8;stroke-linecap:square"/><use xlink:href="#m1a6d811711" id="line2d_20" x="42.083" y="99.661" style="stroke:#000;stroke-width:.8"/><g id="text_10" transform="matrix(.1 0 0 -.1 19.18 103.46)"><use xlink:href="#DejaVuSans-30"/><use xlink:href="#DejaVuSans-2e" x="63.623"/><use xlink:href="#DejaVuSans-30" x="95.41"/></g></g><g id="ytick_5"><path id="line2d_21" d="M42.083 74.564H277.2" clip-path="url(#p66cf05f8d1)" style="fill:none;stroke:#b0b0b0;stroke-width:.8;stroke-linecap:square"/><use xlink:href="#m1a6d811711" id="line2d_22" x="42.083" y="74.564" style="stroke:#000;stroke-width:.8"/><g id="text_11" transform="matrix(.1 0 0 -.1 19.18 78.364)"><use xlink:href="#DejaVuSans-30"/><use xlink:href="#DejaVuSans-2e" x="63.623"/><use xlink:href="#DejaVuSans-35" x="95.41"/></g></g><g id="ytick_6"><path id="line2d_23" d="M42.083 49.468H277.2" clip-path="url(#p66cf05f8d1)" style="fill:none;stroke:#b0b0b0;stroke-width:.8;stroke-linecap:square"/><use xlink:href="#m1a6d811711" id="line2d_24" x="42.083" y="49.468" style="stroke:#000;stroke-width:.8"/><g id="text_12" transform="matrix(.1 0 0 -.1 19.18 53.267)"><use xlink:href="#DejaVuSans-31"/><use xlink:href="#DejaVuSans-2e" x="63.623"/><use xlink:href="#DejaVuSans-30" x="95.41"/></g></g><g id="ytick_7"><path id="line2d_25" d="M42.083 24.371H277.2" clip-path="url(#p66cf05f8d1)" style="fill:none;stroke:#b0b0b0;stroke-width:.8;stroke-linecap:square"/><use xlink:href="#m1a6d811711" id="line2d_26" x="42.083" y="24.371" style="stroke:#000;stroke-width:.8"/><g id="text_13" transform="matrix(.1 0 0 -.1 19.18 28.17)"><use xlink:href="#DejaVuSans-31"/><use xlink:href="#DejaVuSans-2e" x="63.623"/><use xlink:href="#DejaVuSans-35" x="95.41"/></g></g></g><path id="line2d_27" d="m52.77 180.444 2.159-10.896 2.159-8.946 2.159-7.591 2.159-6.592 2.16-5.826 2.158-5.22 2.16-4.727 2.158-4.32 2.16-3.979 2.158-3.685 2.16-3.433 2.158-3.214 2.16-3.02 2.158-2.849 2.16-2.695 2.158-2.558 2.16-2.434 2.158-2.322 2.16-2.219 2.158-2.125 2.16-2.038 2.158-1.96 2.16-1.885 2.158-1.817 2.16-1.753 2.158-1.695 2.16-1.639 2.158-1.587 2.16-1.539 2.159-1.493 2.159-1.45 2.159-1.408 2.159-1.37 2.159-1.335 2.159-1.3 2.159-1.266 2.159-1.236 2.159-1.206 2.159-1.177 2.159-1.151 2.159-1.125 2.159-1.1 2.159-1.077 2.159-1.054 2.159-1.032 2.159-1.011 2.159-.992 2.159-.972 2.159-.954 2.159-.936 2.159-.919 2.159-.902 2.159-.887 2.159-.87 2.159-.857 2.159-.842 2.159-.828 2.16-.814 2.158-.802 2.16-.789 2.158-.776 2.16-.765 2.158-.754 2.16-.742 2.158-.731 2.16-.721 2.158-.71 2.16-.702 2.158-.69 2.16-.683 2.158-.672 2.16-.664 2.158-.655 2.16-.647 2.158-.638 2.16-.63 2.158-.623 2.16-.615 2.158-.607 2.16-.6 2.159-.594 2.159-.586 2.159-.58 2.159-.572 2.159-.566 2.159-.56 2.159-.554 2.159-.548 2.159-.542 2.159-.536 2.159-.53 2.159-.526 2.159-.519 2.159-.514 2.159-.51 2.159-.503 2.159-.499 2.159-.494 2.159-.489" clip-path="url(#p66cf05f8d1)" style="fill:none;stroke:#00f;stroke-width:1.5;stroke-linecap:square"/><path id="line2d_28" d="M42.083 99.66H277.2" clip-path="url(#p66cf05f8d1)" style="fill:none;stroke:#000;stroke-width:.5;stroke-linecap:square"/><path id="line2d_29" d="M43.864 188.522V10.8" clip-path="url(#p66cf05f8d1)" style="fill:none;stroke:#000;stroke-width:.5;stroke-linecap:square"/><path id="patch_3" d="M42.083 188.522V10.8" style="fill:none;stroke:#000;stroke-width:.8;stroke-linejoin:miter;stroke-linecap:square"/><path id="patch_4" d="M277.2 188.522V10.8" style="fill:none;stroke:#000;stroke-width:.8;stroke-linejoin:miter;stroke-linecap:square"/><path id="patch_5" d="M42.083 188.522H277.2" style="fill:none;stroke:#000;stroke-width:.8;stroke-linejoin:miter;stroke-linecap:square"/><path id="patch_6" d="M42.083 10.8H277.2" style="fill:none;stroke:#000;stroke-width:.8;stroke-linejoin:miter;stroke-linecap:square"/><g id="legend_1"><path id="patch_7" d="M49.083 33.5h79.2q2 0 2-2V17.8q0-2-2-2h-79.2q-2 0-2 2v13.7q0 2 2 2z" style="fill:#fff;opacity:.8;stroke:#ccc;stroke-linejoin:miter"/><path id="line2d_30" d="M51.083 23.9h20" style="fill:none;stroke:#00f;stroke-width:1.5;stroke-linecap:square"/><g id="text_14" transform="matrix(.1 0 0 -.1 79.083 27.4)"><defs><path id="DejaVuSans-Oblique-79" d="M1588-325q-400-672-652-839t-642-167h-453l96 481h332q240 0 409 131t378 513l178 334-775 3372h610l581-2681 1606 2681h603L1588-325z" transform="scale(.015625)"/><path id="DejaVuSans-3d" d="M678 2906h4006v-525H678v525zm0-1275h4006v-531H678v531z" transform="scale(.015625)"/><path id="DejaVuSans-6c" d="M603 4863h575V0H603v4863z" transform="scale(.015625)"/><path id="DejaVuSans-6f" d="M1959 3097q-462 0-731-361t-269-989q0-628 267-989 268-361 733-361 460 0 728 362 269 363 269 988 0 622-269 986-268 364-728 364zm0 487q750 0 1178-488 429-487 429-1349 0-859-429-1349Q2709-91 1959-91q-753 0-1180 489-426 490-426 1349 0 862 426 1349 427 488 1180 488z" transform="scale(.015625)"/><path id="DejaVuSans-67" d="M2906 1791q0 625-258 968-257 344-723 344-462 0-720-344-258-343-258-968 0-622 258-966t720-344q466 0 723 344 258 344 258 966zm575-1357q0-893-397-1329-396-436-1215-436-303 0-572 45t-522 139v559q253-137 500-202 247-66 503-66 566 0 847 295t281 892v285q-178-310-456-463T1784 0Q1141 0 747 490 353 981 353 1791q0 812 394 1302 394 491 1037 491 388 0 666-153t456-462v531h575V434z" transform="scale(.015625)"/><path id="DejaVuSans-28" d="M1984 4856q-418-718-622-1422-203-703-203-1425 0-721 205-1429t620-1424h-500Q1016-109 783 600T550 2009q0 697 231 1403 232 707 703 1444h500z" transform="scale(.015625)"/><path id="DejaVuSans-Oblique-78" d="M3841 3500 2234 1784 3219 0h-660l-740 1388L531 0h-697l1722 1844-915 1656h659l672-1266 1172 1266h697z" transform="scale(.015625)"/><path id="DejaVuSans-29" d="M513 4856h500q468-737 701-1444 233-706 233-1403 0-700-233-1409T1013-844H513q415 716 620 1424t205 1429q0 722-205 1425-205 704-620 1422z" transform="scale(.015625)"/></defs><use xlink:href="#DejaVuSans-Oblique-79" transform="translate(0 .016)"/><use xlink:href="#DejaVuSans-3d" transform="translate(78.662 .016)"/><use xlink:href="#DejaVuSans-6c" transform="translate(181.934 .016)"/><use xlink:href="#DejaVuSans-6f" transform="translate(209.717 .016)"/><use xlink:href="#DejaVuSans-67" transform="translate(270.898 .016)"/><use xlink:href="#DejaVuSans-28" transform="translate(334.375 .016)"/><use xlink:href="#DejaVuSans-Oblique-78" transform="translate(373.389 .016)"/><use xlink:href="#DejaVuSans-29" transform="translate(432.568 .016)"/></g></g></g></g><defs><clipPath id="p66cf05f8d1"><path d="M42.083 10.8H277.2v177.722H42.083z"/></clipPath></defs></svg>