<svg xmlns="http://www.w3.org/2000/svg" id="svg302" width="370" height="370" version="1.1" viewBox="-3.78 101.47 370 370"><defs id="defs10"><clipPath id="clip-path"><path id="path2" d="M10.448 115.797h34.468v34.468H10.448Z" class="cls-1" transform="rotate(-45.213 27.682 133.032)"/></clipPath><clipPath id="clip-path-2"><path id="path5" d="M84.176 122.635h20.218v20.218H84.176Z" class="cls-1" transform="rotate(-45.213 94.285 132.743)"/></clipPath><style id="style8">.cls-1{fill:none}.cls-2{fill:#244b5a}.cls-4{fill:#75caca}.cls-5{fill:#74cbca}.cls-6{fill:#73cbca}.cls-7{fill:#72c9c9}.cls-8{fill:#70caca}.cls-9{fill:#6fcac8}.cls-10{fill:#6ec8c8}.cls-11{fill:#6cc9c9}.cls-12{fill:#6dc9c8}.cls-13{fill:#69c7c8}.cls-14{fill:#69c8c7}.cls-15{fill:#68c8c7}.cls-16{fill:#67c7c7}.cls-17{fill:#65c7c7}.cls-18{fill:#64c7c7}.cls-19{fill:#63c6c6}.cls-20{fill:#60c6c6}.cls-21{fill:#60c6c5}.cls-22{fill:#5fc6c5}.cls-23{fill:#5cc5c4}.cls-24{fill:#5ac5c4}.cls-25{fill:#57c4c4}.cls-26{fill:#58c4c3}.cls-27{fill:#55c4c3}.cls-28{fill:#53c3c2}.cls-29{fill:#52c3c2}.cls-30{fill:#50c3c2}.cls-31{fill:#50c1c0}.cls-34{fill:#47c1be}.cls-35{fill:#46c0be}.cls-36{fill:#43c0be}.cls-37{fill:#40bfbd}.cls-38{fill:#3bbfbd}.cls-39{fill:#39bfbc}.cls-40{fill:#34bebd}.cls-41{fill:#32bebb}.cls-42{fill:#2dbdbb}.cls-43{fill:#24bcbb}.cls-44{fill:#21bcb9}.cls-45{fill:#18bbb9}.cls-47{fill:#03bbb8}.cls-48{fill:#06b8b6}.cls-49{fill:#03b7b5}.cls-50{fill:#04b7b4}.cls-51{fill:#00b6b5}.cls-52{fill:#03b6b4}.cls-53{fill:#05b6b2}.cls-54{fill:#01b5b1}.cls-55{fill:#00b4b1}.cls-56{fill:#00b3b0}.cls-62{fill:#00afac}</style></defs><path id="rect520" d="M-3.78 101.47h370v370h-370z" style="fill:#fff;fill-rule:evenodd;stroke-width:1.3719"/><path id="path12" d="M43.853 338.522a27.645 27.645 0 0 0 9.905 8.2 29.688 29.688 0 0 0 13.579 3.082 29.168 29.168 0 0 0 11.151-1.902 19.357 19.357 0 0 0 7.412-5.181 19.987 19.987 0 0 0 4.068-7.676 34.278 34.278 0 0 0 1.246-9.38v-11.02h-.262a23.66 23.66 0 0 1-10.234 8.92 31.568 31.568 0 0 1-12.725 2.625 33.097 33.097 0 0 1-12.529-2.361 31.868 31.868 0 0 1-10.168-6.494 29.88 29.88 0 0 1-6.822-9.905 31.084 31.084 0 0 1-2.493-12.463 32.602 32.602 0 0 1 2.362-12.464 32.038 32.038 0 0 1 6.494-10.102 29.29 29.29 0 0 1 9.84-6.756 31.698 31.698 0 0 1 12.529-2.428 35.035 35.035 0 0 1 5.837.525 27.644 27.644 0 0 1 6.166 1.837 28.405 28.405 0 0 1 11.743 9.446h.262v-10.233h8.659v60.874a49.392 49.392 0 0 1-1.247 10.626 26.247 26.247 0 0 1-4.854 10.364 27.642 27.642 0 0 1-10.036 7.872q-6.43 3.147-16.793 3.148a42.18 42.18 0 0 1-16.399-3.017 38.112 38.112 0 0 1-13.12-9.315zm1.574-43.818a23.507 23.507 0 0 0 1.772 9.117 23.952 23.952 0 0 0 4.853 7.479 23.472 23.472 0 0 0 7.216 5.117 21.233 21.233 0 0 0 8.987 1.902 24.066 24.066 0 0 0 16.53-6.494 20.9 20.9 0 0 0 5.051-7.413 23.878 23.878 0 0 0 1.64-9.708 26.12 26.12 0 0 0-1.574-9.118 21.9 21.9 0 0 0-4.592-7.478 22.19 22.19 0 0 0-7.347-5.116 23.914 23.914 0 0 0-9.708-1.902 21.253 21.253 0 0 0-8.987 1.902 23.537 23.537 0 0 0-7.216 5.116 24.006 24.006 0 0 0-4.853 7.478 23.526 23.526 0 0 0-1.772 9.118zm89.735 31.486h-9.445v-92.885h28.6q14.168 0 22.368 6.166 8.198 6.17 8.2 18.63a23.21 23.21 0 0 1-6.1 16.334q-6.102 6.626-17.646 7.674l26.763 44.08h-11.545l-25.452-43.161h-15.743zm0-51.821h16.793a37.748 37.748 0 0 0 10.692-1.312 19.857 19.857 0 0 0 7.02-3.476 12.696 12.696 0 0 0 3.804-5.117 16.977 16.977 0 0 0 1.18-6.363 16.63 16.63 0 0 0-1.18-6.231 13.202 13.202 0 0 0-3.805-5.183 18.556 18.556 0 0 0-7.02-3.476 39.7 39.7 0 0 0-10.69-1.247h-16.794zm69.006-41.064h27.027q14.167 0 22.367 6.166 8.198 6.17 8.2 18.63 0 12.465-8.2 18.695-8.2 6.232-22.367 6.232h-17.58v43.162h-9.447zm9.447 41.064h15.218a37.758 37.758 0 0 0 10.692-1.312 19.868 19.868 0 0 0 7.02-3.476 12.7 12.7 0 0 0 3.803-5.117 16.964 16.964 0 0 0 1.181-6.363 16.618 16.618 0 0 0-1.18-6.231 13.207 13.207 0 0 0-3.805-5.183 18.565 18.565 0 0 0-7.019-3.476 39.71 39.71 0 0 0-10.692-1.247h-15.218zm142.997 37.128a36.025 36.025 0 0 1-5.837 6.69 36.897 36.897 0 0 1-7.938 5.445 45.27 45.27 0 0 1-9.642 3.608 44.556 44.556 0 0 1-10.955 1.312 49.688 49.688 0 0 1-19.22-3.673 46.107 46.107 0 0 1-25.517-25.583 53.854 53.854 0 0 1 0-39.096 46.101 46.101 0 0 1 25.518-25.582 49.676 49.676 0 0 1 19.22-3.674 46.957 46.957 0 0 1 17.316 3.41 34.933 34.933 0 0 1 14.825 11.284l-8.265 6.166a22.616 22.616 0 0 0-3.936-4.46 28.736 28.736 0 0 0-5.706-3.936 35.626 35.626 0 0 0-6.888-2.755 26.65 26.65 0 0 0-7.347-1.05 37.68 37.68 0 0 0-16.005 3.28 36.35 36.35 0 0 0-12.004 8.79 38.667 38.667 0 0 0-7.545 12.79 45.832 45.832 0 0 0 0 30.569 38.65 38.65 0 0 0 7.545 12.79 36.304 36.304 0 0 0 12.004 8.79 37.64 37.64 0 0 0 16.005 3.28 40.558 40.558 0 0 0 7.28-.654 30.242 30.242 0 0 0 7.086-2.23 26.807 26.807 0 0 0 6.56-4.265 31.615 31.615 0 0 0 5.706-6.756z" class="cls-2"/><g id="g152" clip-path="url(#clip-path)" transform="translate(1.612 106.312)"><path id="path14" d="m3.74 108.66-.431 3.816v-3.816z" class="cls-4"/><path id="path16" d="m4.311 108.66-1.002 8.86v-5.044l.431-3.816Z" class="cls-5"/><path id="path18" d="m4.88 108.66-1.571 13.902v-5.042l1.002-8.86z" class="cls-5"/><path id="path20" d="m5.45 108.66-2.141 18.945v-5.043L4.88 108.66Z" class="cls-6"/><path id="path22" d="m6.02 108.66-2.711 23.988v-5.043L5.45 108.66Z" class="cls-6"/><path id="path24" d="m6.59 108.66-3.281 29.032v-5.044L6.02 108.66Z" class="cls-7"/><path id="path26" d="m7.16 108.66-3.851 34.075v-5.043L6.59 108.66Z" class="cls-7"/><path id="path28" d="m7.729 108.66-4.42 39.118v-5.043L7.16 108.66Z" class="cls-8"/><path id="path30" d="m8.299 108.66-4.99 44.161v-5.043l4.42-39.118z" class="cls-8"/><path id="path32" d="m8.87 108.66-5.505 48.714-.056-.006v-4.547l4.99-44.161z" class="cls-9"/><path id="path34" d="m9.439 108.66-5.508 48.744h-.302l-.264-.03L8.87 108.66Z" class="cls-10"/><path id="path36" d="m10.008 108.66-5.507 48.744h-.57l5.508-48.744Z" class="cls-10"/><path id="path38" d="m10.579 108.66-5.508 48.744h-.57l5.507-48.744Z" class="cls-11"/><path id="path40" d="m11.149 108.66-5.508 48.744h-.57l5.508-48.744Z" class="cls-12"/><path id="path42" d="m11.718 108.66-5.507 48.744h-.57l5.508-48.744Z" class="cls-13"/><path id="path44" d="M12.288 108.66 6.78 157.404h-.569l5.507-48.744z" class="cls-13"/><path id="path46" d="M12.858 108.66 7.35 157.404h-.57l5.508-48.744z" class="cls-14"/><path id="path48" d="M13.428 108.66 7.92 157.404h-.57l5.508-48.744z" class="cls-15"/><path id="path50" d="M13.997 108.66 8.49 157.404h-.57l5.508-48.744z" class="cls-16"/><path id="path52" d="M14.567 108.66 9.06 157.404h-.57l5.507-48.744z" class="cls-17"/><path id="path54" d="m15.138 108.66-5.509 48.744H9.06l5.507-48.744z" class="cls-18"/><path id="path56" d="m15.707 108.66-5.508 48.744h-.57l5.509-48.744z" class="cls-19"/><path id="path58" d="m16.277 108.66-5.507 48.744h-.571l5.508-48.744Z" class="cls-20"/><path id="path60" d="m16.846 108.66-5.507 48.744h-.569l5.507-48.744z" class="cls-21"/><path id="path62" d="m17.417 108.66-5.508 48.744h-.57l5.507-48.744z" class="cls-22"/><path id="path64" d="m17.987 108.66-5.508 48.744h-.57l5.508-48.744z" class="cls-23"/><path id="path66" d="m18.556 108.66-5.507 48.744h-.57l5.508-48.744zm.57 0-5.508 48.744h-.569l5.507-48.744z" class="cls-24"/><path id="path68" d="m19.696 108.66-5.508 48.744h-.57l5.508-48.744z" class="cls-25"/><path id="path70" d="m20.266 108.66-5.508 48.744h-.57l5.508-48.744z" class="cls-26"/><path id="path72" d="m20.835 108.66-5.507 48.744h-.57l5.508-48.744z" class="cls-27"/><path id="path74" d="m21.405 108.66-5.508 48.744h-.569l5.507-48.744z" class="cls-28"/><path id="path76" d="m21.975 108.66-5.508 48.744h-.57l5.508-48.744z" class="cls-29"/><path id="path78" d="m22.545 108.66-5.508 48.744h-.57l5.508-48.744z" class="cls-30"/><path id="path80" d="m23.114 108.66-5.507 48.744h-.57l5.508-48.744z" class="cls-31"/><path id="path82" fill="#4bc2c0" d="m23.685 108.66-5.508 48.744h-.57l5.507-48.744z"/><path id="path84" fill="#4cc1c0" d="m24.255 108.66-5.508 48.744h-.57l5.508-48.744z"/><path id="path86" d="m24.824 108.66-5.508 48.744h-.569l5.508-48.744z" class="cls-34"/><path id="path88" d="m25.394 108.66-5.507 48.744h-.571l5.508-48.744z" class="cls-35"/><path id="path90" d="m25.964 108.66-5.508 48.744h-.569l5.507-48.744z" class="cls-36"/><path id="path92" d="m26.534 108.66-5.508 48.744h-.57l5.508-48.744z" class="cls-37"/><path id="path94" d="m27.104 108.66-5.508 48.744h-.57l5.508-48.744z" class="cls-38"/><path id="path96" d="m27.673 108.66-5.507 48.744h-.57l5.508-48.744z" class="cls-39"/><path id="path98" d="m28.243 108.66-5.508 48.744h-.569l5.507-48.744z" class="cls-40"/><path id="path100" d="m28.813 108.66-5.508 48.744h-.57l5.508-48.744z" class="cls-41"/><path id="path102" d="m29.383 108.66-5.507 48.744h-.571l5.508-48.744z" class="cls-42"/><path id="path104" d="m29.952 108.66-5.507 48.744h-.569l5.507-48.744z" class="cls-43"/><path id="path106" d="m30.523 108.66-5.509 48.744h-.569l5.507-48.744z" class="cls-44"/><path id="path108" d="m31.093 108.66-5.509 48.744h-.57l5.509-48.744z" class="cls-45"/><path id="path110" fill="#0fbab9" d="m31.662 108.66-5.507 48.744h-.571l5.509-48.744z"/><path id="path112" d="m32.231 108.66-5.507 48.744h-.569l5.507-48.744z" class="cls-47"/><path id="path114" d="m32.802 108.66-5.508 48.744h-.57l5.507-48.744z" class="cls-48"/><path id="path116" d="m33.372 108.66-5.508 48.744h-.57l5.508-48.744z" class="cls-48"/><path id="path118" d="m33.941 108.66-5.507 48.744h-.57l5.508-48.744z" class="cls-49"/><path id="path120" d="m34.511 108.66-5.507 48.744h-.57l5.507-48.744z" class="cls-50"/><path id="path122" d="m35.081 108.66-5.508 48.744h-.569l5.507-48.744z" class="cls-51"/><path id="path124" d="m35.651 108.66-5.508 48.744h-.57l5.508-48.744z" class="cls-52"/><path id="path126" d="m36.221 108.66-5.508 48.744h-.57l5.508-48.744z" class="cls-53"/><path id="path128" d="m36.79 108.66-5.507 48.744h-.57l5.508-48.744z" class="cls-54"/><path id="path130" d="m37.361 108.66-5.509 48.744h-.569l5.507-48.744Z" class="cls-54"/><path id="path132" d="m37.93 108.66-5.508 48.744h-.57l5.509-48.744z" class="cls-55"/><path id="path134" d="m38.5 108.66-5.507 48.744h-.571l5.508-48.744Z" class="cls-56"/><path id="path136" d="m39.07 108.66-5.508 48.744h-.569L38.5 108.66Z" class="cls-56"/><path id="path138" fill="#00b2af" d="m39.64 108.66-5.508 48.744h-.57l5.508-48.744Z"/><path id="path140" fill="#00b2ae" d="m40.21 108.66-5.509 48.744h-.569l5.508-48.744Z"/><path id="path142" fill="#00b1ae" d="m40.779 108.66-5.507 48.744h-.571l5.509-48.744Z"/><path id="path144" fill="#00b1ad" d="m41.349 108.66-5.508 48.744h-.569l5.507-48.744z"/><path id="path146" fill="#00b0ac" d="m41.919 108.66-5.508 48.744h-.57l5.508-48.744z"/><path id="path148" d="m42.489 108.66-5.507 48.744h-.571l5.508-48.744z" class="cls-62"/><path id="path150" d="m51.735 108.66.319.035v48.709H36.982l5.507-48.744z" class="cls-62"/></g><g id="g298" clip-path="url(#clip-path-2)" transform="translate(1.612 106.312)"><path id="path154" d="m108.581 126.799-.389-8.352h.389z" class="cls-4"/><path id="path156" d="m108.581 135.574-.797-17.127h.408l.389 8.352z" class="cls-5"/><path id="path158" d="m108.581 144.349-1.207-25.902h.41l.797 17.127z" class="cls-5"/><path id="path160" d="m108.298 147.04-1.332-28.593h.408l1.207 25.902v2.691z" class="cls-6"/><path id="path162" d="m107.888 147.04-1.331-28.593h.409l1.332 28.593z" class="cls-7"/><path id="path164" d="m107.48 147.04-1.331-28.593h.408l1.331 28.593z" class="cls-7"/><path id="path166" d="m107.071 147.04-1.331-28.593h.409l1.331 28.593z" class="cls-8"/><path id="path168" d="m106.663 147.04-1.332-28.593h.409l1.331 28.593z" class="cls-9"/><path id="path170" d="m106.254 147.04-1.332-28.593h.409l1.332 28.593zm-.409 0-1.331-28.593h.408l1.332 28.593z" class="cls-10"/><path id="path172" d="m105.437 147.04-1.333-28.593h.41l1.331 28.593z" class="cls-11"/><path id="path174" d="m105.028 147.04-1.332-28.593h.408l1.333 28.593z" class="cls-12"/><path id="path176" d="m104.62 147.04-1.333-28.593h.409l1.332 28.593zm-.41 0-1.331-28.593h.408l1.333 28.593z" class="cls-13"/><path id="path178" d="m103.802 147.04-1.332-28.593h.409l1.331 28.593z" class="cls-14"/><path id="path180" d="m103.393 147.04-1.332-28.593h.409l1.332 28.593z" class="cls-15"/><path id="path182" d="m102.985 147.04-1.333-28.593h.409l1.332 28.593z" class="cls-16"/><path id="path184" d="m102.576 147.04-1.332-28.593h.408l1.333 28.593z" class="cls-17"/><path id="path186" d="m102.167 147.04-1.331-28.593h.408l1.332 28.593z" class="cls-18"/><path id="path188" d="m101.758 147.04-1.331-28.593h.409l1.331 28.593z" class="cls-19"/><path id="path190" d="m101.349 147.04-1.331-28.593h.409l1.331 28.593z" class="cls-20"/><path id="path192" d="m100.94 147.04-1.331-28.593h.409l1.331 28.593z" class="cls-21"/><path id="path194" d="M100.532 147.04 99.2 118.447h.409l1.331 28.593z" class="cls-22"/><path id="path196" d="m100.123 147.04-1.332-28.593h.409l1.332 28.593z" class="cls-22"/><path id="path198" d="m99.715 147.04-1.332-28.593h.408l1.332 28.593z" class="cls-23"/><path id="path200" d="m99.305 147.04-1.331-28.593h.409l1.332 28.593z" class="cls-24"/><path id="path202" d="m98.897 147.04-1.331-28.593h.408l1.331 28.593z" class="cls-24"/><path id="path204" d="m98.489 147.04-1.333-28.593h.41l1.331 28.593z" class="cls-25"/><path id="path206" d="m98.08 147.04-1.332-28.593h.408l1.333 28.593z" class="cls-26"/><path id="path208" d="m97.672 147.04-1.333-28.593h.409l1.332 28.593z" class="cls-27"/><path id="path210" d="m97.262 147.04-1.331-28.593h.408l1.333 28.593z" class="cls-28"/><path id="path212" d="m96.854 147.04-1.332-28.593h.409l1.331 28.593z" class="cls-28"/><path id="path214" d="m96.444 147.04-1.331-28.593h.409l1.332 28.593z" class="cls-29"/><path id="path216" d="m96.036 147.04-1.332-28.593h.409l1.331 28.593z" class="cls-30"/><path id="path218" d="m95.627 147.04-1.331-28.593h.408l1.332 28.593z" class="cls-31"/><path id="path220" fill="#4dc2c1" d="m95.219 147.04-1.332-28.593h.409l1.331 28.593z"/><path id="path222" fill="#4cc2c0" d="m94.81 147.04-1.332-28.593h.409l1.332 28.593z"/><path id="path224" fill="#4bc0bf" d="m94.401 147.04-1.331-28.593h.408l1.332 28.593z"/><path id="path226" d="m93.992 147.04-1.331-28.593h.409l1.331 28.593z" class="cls-34"/><path id="path228" d="m93.584 147.04-1.332-28.593h.409l1.331 28.593z" class="cls-35"/><path id="path230" d="m93.175 147.04-1.332-28.593h.409l1.332 28.593z" class="cls-36"/><path id="path232" fill="#41c0be" d="m92.767 147.04-1.332-28.593h.408l1.332 28.593z"/><path id="path234" d="m92.357 147.04-1.331-28.593h.409l1.332 28.593z" class="cls-37"/><path id="path236" d="m91.949 147.04-1.331-28.593h.408l1.331 28.593z" class="cls-38"/><path id="path238" fill="#3cbfbc" d="m91.54 147.04-1.332-28.593h.41l1.331 28.593z"/><path id="path240" d="M91.132 147.04 89.8 118.447h.408l1.332 28.593z" class="cls-39"/><path id="path242" d="m90.722 147.04-1.331-28.593h.409l1.332 28.593z" class="cls-40"/><path id="path244" d="m90.314 147.04-1.331-28.593h.408l1.331 28.593z" class="cls-41"/><path id="path246" fill="#2fbebc" d="m89.906 147.04-1.332-28.593h.409l1.331 28.593z"/><path id="path248" d="m89.497 147.04-1.332-28.593h.409l1.332 28.593z" class="cls-42"/><path id="path250" fill="#2bbdba" d="m89.088 147.04-1.332-28.593h.409l1.332 28.593z"/><path id="path252" d="m88.679 147.04-1.331-28.593h.408l1.332 28.593z" class="cls-43"/><path id="path254" d="m88.271 147.04-1.333-28.593h.41l1.331 28.593z" class="cls-44"/><path id="path256" d="m87.862 147.04-1.332-28.593h.408l1.333 28.593z" class="cls-45"/><path id="path258" fill="#16bab9" d="m87.453 147.04-1.332-28.593h.409l1.332 28.593z"/><path id="path260" fill="#11bab7" d="m87.044 147.04-1.331-28.593h.408l1.332 28.593z"/><path id="path262" d="m86.636 147.04-1.332-28.593h.409l1.331 28.593z" class="cls-47"/><path id="path264" d="m86.227 147.04-1.332-28.593h.409l1.332 28.593z" class="cls-48"/><path id="path266" d="m85.819 147.04-1.332-28.593h.408l1.332 28.593z" class="cls-48"/><path id="path268" d="m85.409 147.04-1.331-28.593h.409l1.332 28.593z" class="cls-48"/><path id="path270" fill="#00b7b6" d="m85.001 147.04-1.331-28.593h.408l1.331 28.593z"/><path id="path272" d="m84.592 147.04-1.331-28.593h.409l1.331 28.593z" class="cls-49"/><path id="path274" d="m84.183 147.04-1.331-28.593h.409l1.331 28.593z" class="cls-50"/><path id="path276" d="m83.774 147.04-1.331-28.593h.409l1.331 28.593z" class="cls-51"/><path id="path278" d="m83.366 147.04-1.332-28.593h.409l1.331 28.593z" class="cls-51"/><path id="path280" d="m82.957 147.04-1.332-28.593h.409l1.332 28.593z" class="cls-51"/><path id="path282" d="m82.549 147.04-1.332-28.593h.408l1.332 28.593z" class="cls-52"/><path id="path284" d="m82.14 147.04-1.332-28.593h.409l1.332 28.593z" class="cls-52"/><path id="path286" d="M81.731 147.04 80.4 118.447h.408l1.332 28.593z" class="cls-53"/><path id="path288" d="m81.323 147.04-1.333-28.593h.41l1.331 28.593z" class="cls-54"/><path id="path290" d="m80.914 147.04-.925-19.852v-8.741h.001l1.333 28.593z" class="cls-54"/><path id="path292" d="m80.506 147.04-.517-11.077v-8.775l.925 19.852z" class="cls-54"/><path id="path294" d="m80.096 147.04-.107-2.302v-8.775l.517 11.077z" class="cls-55"/><path id="path296" d="m79.989 144.738.107 2.302h-.107z" class="cls-55"/></g><path id="path300" d="m30.275 224.607-14.704 14.815 14.813 14.704 12.533-.046-13.142-13.037 64.895-.24-5.688 5.726 6.267-.023 7.353-7.408-7.408-7.351-6.266.022 5.73 5.685-64.895.24 13.044-13.134z" class="cls-2"/></svg>