<svg height="24" viewBox="0 0 24 24" width="24" xmlns="http://www.w3.org/2000/svg" xmlns:xlink="http://www.w3.org/1999/xlink"><linearGradient id="a" x1="0%" x2="100%" y1="100%" y2="0%"><stop offset="0" stop-color="#1b660f"/><stop offset="1" stop-color="#6cae3e"/></linearGradient><g fill="none" fill-rule="evenodd"><path d="m0 0h24v24h-24z" fill="url(#a)"/><path d="m18.0583781 13.7406928c-.5358876 0-.970811-.4360635-.970811-.9711881s.4349234-.9711881.970811-.9711881.9708109.4360635.9708109.9711881-.4349233.9711881-.9708109.9711881zm-2.9930102 3.7264487c-1.0067309 1.007122-2.3445084 1.5616704-3.7657756 1.5616704-.7747072 0-1.52708567-.1689867-2.21927387-.4865652.1330011-.2447394.21357841-.5166721.22911138-.8099709l7.27137399-3.7186792c.0019417.0029136.0038833.0067983.0067957.0097119-.1504757 1.3159599-.7407287 2.6629977-1.5222316 3.443833zm-8.65672121.1583036c0-.5351246.43492331-.9711881.97081095-.9711881.53588765 0 .97081095.4360635.97081095.9711881 0 .5351247-.4349233.9711881-.97081095.9711881-.53588764 0-.97081095-.4360634-.97081095-.9711881zm1.12322827-7.693752c.77859038-.77986403 2.12607598-1.36840401 3.44637884-1.51893816.0058249.00388475.0116498.0077695.0174746.01262544l-3.72985564 7.26934282c-.29027248.0174814-.56112873.09809-.80286066.2292004-.32133842-.6934283-.49220115-1.450955-.49220115-2.2259631 0-1.4218194.55433305-2.7601165 1.56106401-3.7662674zm4.70163744-3.96050501c.5358876 0 .9708109.43606345.9708109.97118808 0 .53512464-.4349233.97118809-.9708109.97118809-.5358877 0-.970811-.43606345-.970811-.97118809 0-.53512463.4349233-.97118808.970811-.97118808zm-3.87741894 9.98478471c-.03397839-.0194238-.06892758-.0388475-.1058184-.0563289l3.61918324-7.0517967c.1174681.02233733.2388195.03690515.3640541.03690515.3038638 0 .5863698-.07575267.8426639-.20103594.5892822.20880544 1.1397321.52152801 1.6241667.92554225zm9.70228464-9.95662026c.5358876 0 .9708109.43606345.9708109.97118809 0 .53512463-.4349233.97118808-.9708109.97118808s-.970811-.43606345-.970811-.97118808c0-.53512464.4349234-.97118809.970811-.97118809zm-1.7435765 5.93201686c-.123293.2544513-.1980454.5360958-.1980454.8381353 0 .1272256.0145622.2505665.0378616.3709938l-7.05294153 3.6079638c-.0174746-.035934-.03689082-.0728391-.05727785-.1068307l6.34230798-6.345743c.4057989.4875365.7193709 1.0411137.9280952 1.6354808zm1.7435765-1.1042409c-.3737622 0-.7184001.1107155-1.0154683.29427-.2456151-.5467789-.5776325-1.0537391-.9698401-1.51213984l.9834315-.98381353c.2931849.17869861.6339395.28747167 1.0018769.28747167 1.0708045 0 1.9416219-.87115571 1.9416219-1.94237617s-.8708174-1.94237618-1.9416219-1.94237618-1.9416219.87115572-1.9416219 1.94237618c0 .34962771.1009643.67400453.2630898.95856264l-.9931396.99352541c-.457252-.39235998-.9601321-.72256393-1.5037862-.96827452.1825125-.29524118.2922141-.64001295.2922141-1.01197799 0-1.07122046-.8708174-1.94237617-1.9416219-1.94237617s-1.9416219.87115571-1.9416219 1.94237617c0 .20103594.0398032.39041761.0961103.57300097-1.36884346.25250891-2.71438744.90126255-3.54248918 1.72968599-1.19021423 1.18970537-1.84551162 2.77177077-1.84551162 4.45289737 0 1.0236322.26114815 2.0161865.73199146 2.9125931-.18348327.2962123-.29415572.6419553-.29415572 1.0148915 0 1.0712205.87081742 1.9423762 1.9416219 1.9423762.37279141 0 .7184001-.1107154 1.01449744-.29427.89411689.4690839 1.88240242.7264487 2.90563722.7264487 1.6814445 0 3.2609539-.6545808 4.452139-1.8462286.8436347-.8429912 1.4814575-2.1628358 1.7319267-3.5390093.1834833.0573001.3737622.0971188.5747201.0971188 1.0708045 0 1.9416219-.8711557 1.9416219-1.9423762s-.8708174-1.9423762-1.9416219-1.9423762z" fill="#fff"/></g></svg>