<svg height="24" viewBox="0 0 24 24" width="24" xmlns="http://www.w3.org/2000/svg" xmlns:xlink="http://www.w3.org/1999/xlink"><linearGradient id="a" x1="0%" x2="100%" y1="100%" y2="0%"><stop offset="0" stop-color="#b0084d"/><stop offset="1" stop-color="#ff4f8b"/></linearGradient><g fill="none" fill-rule="evenodd"><path d="m0 0h24v24h-24z" fill="url(#a)"/><path d="m10.987 13.484199h3v-2.9998917h-3zm3.5-3.99985566c.277 0 .5.22399191.5.49998196v3.9998557c0 .27699-.223.4999819-.5.4999819h-4c-.276 0-.5-.2229919-.5-.4999819v-3.9998557c0-.27599005.224-.49998196.5-.49998196zm5.513 1.97492876h-1.949l1.337-1.64394071-.776-.62997727-2 2.45891128c-.147.1809935-.149.4399841-.005.6239775l2 2.5409083.786-.6179777-1.363-1.7319375h1.97zm-13.612-2.27391798-.776.62997727 1.337 1.64394071h-1.949v.9999639h1.97l-1.363 1.7319375.786.6179777 2-2.5409083c.144-.1839934.142-.442984-.005-.6239775zm6.599 8.27770138v-1.9629292h-1v1.9559294l-1.674-1.3459514-.626.7799718 2.487 1.9999279c.092.0729973.202.109996.313.109996s.221-.0359987.312-.1089961l2.513-1.9999278-.624-.7819718zm-2.674-9.57265465-.626-.77997186 2.487-1.99992784c.18-.14599473.439-.14799466.624-.00199993l2.513 1.98892824-.622.78397171-1.702-1.3469514v1.96592907h-1v-1.95692939z" fill="#fff"/></g></svg>