<svg height="24" viewBox="0 0 24 24" width="24" xmlns="http://www.w3.org/2000/svg" xmlns:xlink="http://www.w3.org/1999/xlink"><linearGradient id="a" x1="0%" x2="100%" y1="100%" y2="0%"><stop offset="0" stop-color="#b0084d"/><stop offset="1" stop-color="#ff4f8b"/></linearGradient><g fill="none" fill-rule="evenodd"><path d="m0 0h24v24h-24z" fill="url(#a)"/><path d="m9.357 2-3.628 5.411-.184-.689-.967.259.557 2.079 2.093-.131-.063-.998-.607.038 3.333-4.969h3.061l2.021 3.5-2.021 3.5h-1.89v1h2.468l2.598-4.5-2.598-4.5zm-6.76 3.001-2.597 4.5 2.597 4.5h4.173l3.621-5.357.172.641.967-.259-.558-2.079-2.091.131.062.998.653-.041-3.358 4.966h-3.062l-2.022-3.5 2.022-3.5h1.885v-1z" fill="#fff" transform="translate(4 4)"/></g></svg>