<svg height="24" viewBox="0 0 24 24" width="24" xmlns="http://www.w3.org/2000/svg" xmlns:xlink="http://www.w3.org/1999/xlink"><linearGradient id="a" x1="0%" x2="100%" y1="100%" y2="0%"><stop offset="0" stop-color="#4d27a8"/><stop offset="1" stop-color="#a166ff"/></linearGradient><g fill="none" fill-rule="evenodd"><path d="m0 0h24v24h-24z" fill="url(#a)"/><path d="m12.7328436 8.93122493c.4028379.37500042.7182771.85604209.9372763 1.43059287.0622842.1648459.2139763.2843833.3958059.3104116.1838388.0260284.3626546-.0433805.4751679-.1831621.2863063-.3615043.7504238-.51285406 1.179381-.3875326.5193696.1532778.8428454.6574558.8890563 1.3862484.0140642.2188305.1788158.4010287.4028379.4444092 1.3160043.254499 1.9830477.9534072 1.9830477 2.0764805 0 1.3457598-.7222955 2.0273158-2.1498085 2.0273158h-9.67715202c-1.18741759-.000964-2.095561-.7982014-2.15985433-1.8904262l-.00401834-.1590619c0-1.3438318.89106549-1.8364416 1.63948013-2.0138197.2481321-.0578407.41087462-.2863114.37772336-.5302063-.01607333-.1243574-.02411-.2516069-.02411-.3807845 0-1.15392156.8599234-2.3965322 1.95893765-2.82744528.50028254-.19665832.96239091-.27474324 1.38130215-.27474324 1.1894268 0 2.028254.63046343 2.3949269.97172345m7.2671564 5.07744787c0-1.4903616-.8589188-2.5237818-2.4300873-2.9392707-.1637471-.9524432-.7283229-1.64653138-1.5571043-1.88946224-.5796446-.17063001-1.1894267-.084833-1.6907138.21497453-.2400955-.44055319-.5374522-.82808575-.8900609-1.15584961-1.3260502-1.23586257-3.1413324-1.57133852-4.85615626-.89749458-1.47271928.57840682-2.58278395 2.17770166-2.58278395 3.7201198 0 .0327764 0 .0645888.00100458.0964012-.80768506.2901674-1.99409807 1.02378-1.99409807 2.8284093 0 .0703728.00200917.1388176.00502292.2091905.09443084 1.5973668 1.45363219 2.802381 3.16242858 2.804309h9.6781566c1.9760156 0 3.1543919-1.1182532 3.1543919-2.9913272m-7.0983864-.6160033h-1.0045834c0 .3788565-.2260313.761569-.7313367.761569h-2.49438064c-.22904501 0-.7624788-.0636248-.7624788-.6555278 0-.4636894.32749419-.8126615.7624788-.8126615h1.2356376v-.9640114h-1.2356376c-.99051924 0-1.76706222.7798852-1.76706222 1.7766729 0 .9534073.72731839 1.6195391 1.76706222 1.6195391h2.49438064c.9895146 0 1.7359201-.7422887 1.7359201-1.7255803m1.4797514 1.1587416h-.6760847v-.9640113h.6760847c.3194575 0 .855905-.0935091.855905-.7191525 0-.4762216-.2752558-.7181884-.8187354-.7181884h-2.4280781c-.5645759 0-.6087776.6266073-.6087776.8174816h-1.0045834c0-1.0488444.6630251-1.781493 1.613361-1.781493h2.4280781c1.0909775 0 1.8233189.676736 1.8233189 1.6821998 0 1.0064279-.7474101 1.6831638-1.8604885 1.6831638" fill="#fff"/></g></svg>