<svg height="24" viewBox="0 0 24 24" width="24" xmlns="http://www.w3.org/2000/svg" xmlns:xlink="http://www.w3.org/1999/xlink"><linearGradient id="a" x1="0%" x2="100%" y1="100%" y2="0%"><stop offset="0" stop-color="#055f4e"/><stop offset="1" stop-color="#56c0a7"/></linearGradient><g fill="none" fill-rule="evenodd"><path d="m0 0h24v24h-24z" fill="url(#a)"/><path d="m6.00907332 12.0095113h5.02268328v-1.0011889h-5.02268328zm6.05836058 3.0035667h1.0045367v-2.0023778h-1.0045367zm4.0030786 0h1.0045367v-2.0023778h-1.0045367zm-2.0251459 1.0011889h1.0045367v-4.0047556h-1.0045367zm5.8042128 3.8075215c-.1125081.1161379-.2651977.1782116-.4209008.1782116-.0863902 0-.1717758-.0180214-.2531433-.0570678l-2.4289696-1.2114386c-.7242709.3854578-1.5319184.5876979-2.3496113.5876979-2.4791964 0-4.60178241-1.8421876-4.93729765-4.2860897l.99449125-.1361617c.2682113 1.950316 1.9638692 3.4210625 3.9428064 3.4210625.7272846 0 1.4455283-.2012389 2.0743682-.5816907.1486715-.090107.3314971-.0981165.4851912-.0200238l1.5128323.7548964-.7564162-1.4767536c-.082372-.1591891-.0713221-.3514173.0271225-.5015957.4138691-.6297478.6328581-1.3696264.6328581-2.1375383 0-2.1865966-1.7840571-3.9657093-3.9759561-3.9657093-.3546014 0-.7061892.0460547-1.0447181.1371629l-.2611795-.96714847c.4239144-.11413554.862897-.17120331 1.3058976-.17120331 2.7453987 0 4.9804928 2.22764538 4.9804928 4.96689818 0 .8630249-.2209981 1.6980164-.6418989 2.4328891l1.2134803 2.3678117c.09744.1902259.0502268.5116076-.0994492.6657907zm-13.84050608-9.8146549h3.01360998v-1.00118894h-3.01360998zm4.01814668-4.29810403 1.2988659 1.29453727h-1.2988659zm-5.02268334-.70683937 4.01814664-.00100119v2.50297228c0 .27732933.22501621.50059446.50226833.50059446h2.51134167v1.00118891h1.0045366v-1.50178337c0-.13015456-.0512313-.25730555-.1466623-.35341968l-3.01360999-3.00356674c-.09643552-.09611414-.22501621-.14717477-.35560598-.14717477l-5.0226833.00100119c-.27725212 0-.50226833.22426632-.50226833.50059445v12.01326576c0 .2773293.22501621.5005945.50226833.5005945h4.52041497v-1.001189h-4.01814664z" fill="#fff"/></g></svg>