<svg height="24" viewBox="0 0 24 24" width="24" xmlns="http://www.w3.org/2000/svg" xmlns:xlink="http://www.w3.org/1999/xlink"><linearGradient id="a" x1="0%" x2="100%" y1="100%" y2="0%"><stop offset="0" stop-color="#4d27a8"/><stop offset="1" stop-color="#a166ff"/></linearGradient><g fill="none" fill-rule="evenodd"><path d="m0 0h24v24h-24z" fill="url(#a)"/><path d="m9.562 15.574c-1.965 0-3.563-1.598-3.563-3.563s1.598-3.563 3.563-3.563 3.563 1.598 3.563 3.563-1.598 3.563-3.563 3.563m7.013.426c.551 0 1 .449 1 1s-.449 1-1 1c-.552 0-1-.449-1-1s.448-1 1-1m0-10c.551 0 1 .449 1 1s-.449 1-1 1c-.552 0-1-.449-1-1s.448-1 1-1m1 5c.551 0 1 .449 1 1s-.449 1-1 1c-.552 0-1-.449-1-1s.448-1 1-1m-3.505 1.56h1.595c.244.829 1.002 1.44 1.91 1.44 1.102 0 2-.897 2-2s-.898-2-2-2c-.951 0-1.746.669-1.948 1.56h-1.547c-.065-.648-.26-1.251-.568-1.791l1.517-1.516c.367.452.92.747 1.546.747 1.102 0 2-.897 2-2s-.898-2-2-2c-1.103 0-2 .897-2 2 0 .091.015.178.027.266l-1.682 1.681c-.835-.915-2.025-1.499-3.358-1.499-2.516 0-4.562 2.047-4.562 4.563s2.046 4.563 4.562 4.563c1.339 0 2.533-.59 3.368-1.511l1.672 1.671c-.012.088-.027.174-.027.266 0 1.103.897 2 2 2 1.102 0 2-.897 2-2s-.898-2-2-2c-.626 0-1.179.295-1.546.747l-1.509-1.509c.288-.508.477-1.073.55-1.678" fill="#fff"/></g></svg>