<svg height="24" viewBox="0 0 24 24" width="24" xmlns="http://www.w3.org/2000/svg" xmlns:xlink="http://www.w3.org/1999/xlink"><linearGradient id="a" x1="0%" x2="100%" y1="100%" y2="0%"><stop offset="0" stop-color="#b0084d"/><stop offset="1" stop-color="#ff4f8b"/></linearGradient><g fill="none" fill-rule="evenodd"><path d="m0 0h24v24h-24z" fill="url(#a)"/><path d="m8.00538392 12.9850432h1.00165899v-.9907687h-1.00165899zm7.01161298.0009908h1.001659v-.9907687h-1.001659zm-2.226688-1.7625775c-.5078411.1287999-1.0487369.1287999-1.556578 0 .2013334.7817165.2013334 1.6545837 0 2.4363002.2544214-.0644.5148527-.0970953.778289-.0970953s.5238677.0326953.778289.0970953c-.2013334-.7817165-.2013334-1.6545837 0-2.4363002zm1.5796163-.9085349c-.9645976.9541102-.9645976 3.2992597 0 4.25337.0971609.0970953.1462422.2239137.1462422.3507321s-.0490813.2536368-.1462422.3497414c-.0981626.0970953-.2263749.145643-.3545873.145643-.1282123 0-.2564247-.0485477-.3535856-.145643-.9335462-.9224057-2.3659186-.9224057-3.2984631 0-.1963252.1941906-.51284941.1941906-.70817291 0-.09816259-.0961046-.14724388-.222923-.14724388-.3497414s.04908129-.2536368.14724388-.3507321c.96359591-.9541103.96359591-3.2992598 0-4.25337-.09816259-.0961046-.14724388-.222923-.14724388-.34974139 0-.1268184.04908129-.25363679.14724388-.35073212.1953235-.1931999.51184771-.1931999.70817291 0 .9325445.92339641 2.3649169.92339641 3.2984631 0 .1953235-.1931999.5118477-.1931999.7081729 0 .0971609.09709533.1462422.22391372.1462422.35073212 0 .12681839-.0490813.25363679-.1462422.34974139zm4.4463643 1.764559c-.1181958-.1159199-.2744546-.1803199-.44073-.1803199-.167277 0-.3245375.0644-.4427333.1803199-.2434031.2417476-.2434031.6331012 0 .873858.2363916.2318399.6460701.2338214.8834633 0 .2434031-.2407568.2434031-.6321104 0-.873858zm.7081729 1.5743315c-.3075093.3031752-.7151845.4706151-1.1489029.4706151-.4357216 0-.8433969-.1674399-1.1509062-.4706151-.6340501-.6271566-.6340501-1.6476484 0-2.274805.6130153-.6063504 1.6847905-.6073412 2.2998091 0 .6340501.6271566.6340501 1.6476484 0 2.274805zm-13.4582903-1.5683869c-.11819576-.1159199-.27445457-.1803199-.44072996-.1803199-.16727705 0-.32353586.0644-.44173162.1803199-.24440479.2407568-.24440479.6331012 0 .873858.23639152.2318399.64607005.2338214.88246158 0 .24440479-.2407568.24440479-.6331012 0-.873858zm.70917457 1.5743315c-.30750931.3031752-.71518453.4706151-1.14990453.4706151-.43572167 0-.84339688-.1674399-1.14990453-.4706151-.63405015-.6271566-.63405015-1.6476484 0-2.2748049.61401696-.6073413 1.68378877-.6073413 2.29980906 0 .63304848.6271565.63304848 1.6476483 0 2.2748049zm9.10908693 2.7483924c-2.1595768 2.1351065-5.6713933 2.1341158-7.82896673 0-.5789589-.5726643-.94656776-1.071021-1.19397753-1.6159438l-.913513.4042337c.29849438.6598519.73020941 1.2503501 1.39931762 1.9121835 1.27411024 1.2612486 2.94788244 1.8913775 4.62265624 1.8913775 1.6737722 0 3.3485461-.6301289 4.6226563-1.8913775.5118478-.505292 1.0827934-1.126504 1.4473973-1.9072297l-.9105081-.4151321c-.296491.6370643-.7732807 1.1562271-1.2450621 1.6218884zm-9.0049144-6.2358982-.90950637-.41513212c.29749273-.63607351.73521771-1.22855319 1.37928444-1.86660823 2.54721883-2.52051558 6.69408713-2.52051558 9.24130593-.00099077.4657714.46169821 1.048737 1.08984557 1.4233574 1.86066362l-.9014931.4290028c-.2454064-.50331045-.6130153-.97788866-1.2300372-1.58919295-2.1585752-2.13312501-5.6683883-2.13114348-7.82496012 0-.56593733.56077509-.92853789 1.04823329-1.17795098 1.58225765z" fill="#fff"/></g></svg>