<svg height="24" viewBox="0 0 24 24" width="24" xmlns="http://www.w3.org/2000/svg" xmlns:xlink="http://www.w3.org/1999/xlink"><linearGradient id="a" x1="0%" x2="100%" y1="100%" y2="0%"><stop offset="0" stop-color="#2e27ad"/><stop offset="1" stop-color="#527fff"/></linearGradient><g fill="none" fill-rule="evenodd"><path d="m0 0h24v24h-24z" fill="url(#a)"/><path d="m14.4737051 10.7348035c0-.1334451.1051796-.2422542.2341734-.2422542.1289939 0 .2351658.1088091.2351658.2422542 0 .2668902-.4693392.2668902-.4693392 0m-1.2175035 3.0220185c0-.1334452.1061719-.2422542.2351657-.2422542.1289939 0 .2331812.108809.2331812.2422542 0 .2679167-.4683469.2679167-.4683469 0m-2.9212145-.504012c0-.1334451.1061719-.2422541.2341734-.2422541.1289939 0 .2351658.108809.2351658.2422541 0 .2679168-.4693392.2679168-.4693392 0m-1.21651121 2.7705258c0-.1334451.1051796-.2422542.23417345-.2422542.12899384 0 .23318118.1088091.23318118.2422542 0 .2668902-.46735463.2668902-.46735463 0m5.58940261-6.55728731c-.6757293 0-1.2264338.56868141-1.2264338 1.26875501 0 .3551693.1438778.6744111.3711054.9053737l-.3254614.8550752c-.0128994 0-.0238142-.0071855-.0357214-.0071855-.4554475 0-.83846.2699697-1.0508037.6528546l-.6985513-.1642402c-.1260171-.5635489-.5913872-.9926263-1.1728518-.9926263-.67572926 0-1.22643377.5686815-1.22643377 1.268755 0 .2617578.09624926.4927204.22821989.6949411l-.34332209.8324922c-.61520143.0687755-1.10140901.5892115-1.10140901 1.2430925 0 .7000736.54971224 1.268755 1.22643382 1.268755.67672156 0 1.22544156-.5686814 1.22544156-1.268755 0-.3685138-.1577694-.6939146-.4018655-.9259038l.2500497-.6056355c.0486207.0071856.0922802.0297686.1428854.0297686.4088113 0 .7531257-.2206977.9763843-.5378865l.7997618.1878497c.167692.4947734.6122247.8540487 1.1460607.8540487.6757293 0 1.2254416-.569708 1.2254416-1.268755 0-.3089768-.1200635-.5830525-.2986704-.8037502l.3681286-.9659373c.6380234-.0441395 1.1490375-.5809994 1.1490375-1.252331 0-.7000736-.5507045-1.26875501-1.2274261-1.26875501m-2.7078785 9.50745071c-2.64437388 0-4.00773963-.8273597-4.00773963-1.180476v-9.20257992c.96050804.55841645 2.48858903.84686318 4.00773963.84686318s3.0472316-.28844673 4.0077396-.84686318v9.20257992c0 .3531163-1.3633657 1.180476-4.0077396 1.180476m0-12.98112952c2.4866045 0 4.0077396.78322013 4.0077396 1.21024448 0 .42599784-1.5211351 1.20819147-4.0077396 1.20819147-2.48660449 0-4.00773963-.78219363-4.00773963-1.20819147 0-.42702435 1.52113514-1.21024448 4.00773963-1.21024448m5 1.21024448c0-2.93681888-10-2.93681888-10 0 0 .002053.00099226.004106.00099226.006159h-.00099226v10.58425004c0 1.4494192 2.51538004 2.2069768 5 2.2069768 2.48462 0 5-.7575576 5-2.2069768v-10.58425004h-.0009923c0-.002053.0009923-.004106.0009923-.006159" fill="#fff"/></g></svg>