<svg height="24" viewBox="0 0 24 24" width="24" xmlns="http://www.w3.org/2000/svg" xmlns:xlink="http://www.w3.org/1999/xlink"><linearGradient id="a" x1="0%" x2="100%" y1="100%" y2="0%"><stop offset="0" stop-color="#1b660f"/><stop offset="1" stop-color="#6cae3e"/></linearGradient><g fill="none" fill-rule="evenodd"><path d="m0 0h24v24h-24z" fill="url(#a)"/><path d="m6 16.9863014h3v-.9988585h-3zm10 0h3v-.9988585h-3zm-5 2.0136986h3v-.9988584h-3zm1.5-3.0125571c-.275 0-.5-.2237443-.5-.4994292s.225-.4994292.5-.4994292.5.2237443.5.4994292-.225.4994292-.5.4994292zm-5-1.9977169c-.275 0-.5-.2237443-.5-.4994292s.225-.4994292.5-.4994292.5.2237443.5.4994292-.225.4994292-.5.4994292zm5-7.99086755c1.103 0 2 .89597602 2 1.99771689s-.897 1.9977169-2 1.9977169-2-.89597603-2-1.9977169.897-1.99771689 2-1.99771689zm5.5 7.49143835c0 .2756849-.225.4994292-.5.4994292s-.5-.2237443-.5-.4994292.225-.4994292.5-.4994292.5.2237443.5.4994292zm-5 .5913242v-3.1394121c.329-.0549372.636-.1678082.92-.3226313l2.23 2.2284532c-.093.1957763-.15.4115297-.15.642266 0 .8260559.673 1.4982877 1.5 1.4982877s1.5-.6722318 1.5-1.4982877-.673-1.4982877-1.5-1.4982877c-.23 0-.447.056935-.643.1498288l-2.143-2.1405537c.483-.53239151.786-1.23159242.786-2.00470886 0-1.65211187-1.346-2.99657534-3-2.99657534s-3 1.34446347-3 2.99657534c0 .77311644.303 1.47231735.786 2.00470886l-2.143 2.1405537c-.196-.0928938-.413-.1498288-.643-.1498288-.827 0-1.5.6722318-1.5 1.4982877s.673 1.4982877 1.5 1.4982877 1.5-.6722318 1.5-1.4982877c0-.2307363-.057-.4464897-.15-.642266l2.23-2.2284532c.284.1538242.591.2676941.92.3226313v3.1394121c-.581.2067637-1 .7561358-1 1.4063927 0 .8260559.673 1.4982877 1.5 1.4982877s1.5-.6722318 1.5-1.4982877c0-.6502569-.419-1.199629-1-1.4063927z" fill="#fff"/></g></svg>