<svg height="24" viewBox="0 0 24 24" width="24" xmlns="http://www.w3.org/2000/svg" xmlns:xlink="http://www.w3.org/1999/xlink"><linearGradient id="a" x1="0%" x2="100%" y1="100%" y2="0%"><stop offset="0" stop-color="#2e27ad"/><stop offset="1" stop-color="#527fff"/></linearGradient><g fill="none" fill-rule="evenodd"><path d="m0 0h24v24h-24z" fill="url(#a)"/><path d="m13.392 12.3286703c-.138.0790012-.288.1405605-.453.1846781-.164.0430915-.328.0656633-.49.0656633-.283 0-.497-.0800272-.642-.2400815-.145-.1600544-.219-.3950059-.219-.7017768 0-.289329.076-.5212026.228-.6945948s.354-.2595753.606-.2595753c.634 0 .956.5170986.97 1.5533479zm-.957-2.1853574c-.295 0-.556.0666893-.782.2000679-.227.1344046-.402.3170307-.524.5468523-.121.2298217-.182.492475-.182.7869339 0 .4432274.121.7920638.362 1.0465092.242.2544454.57.3816681.985.3816681.197 0 .389-.0297537.577-.0892611.189-.0584814.36-.1405606.514-.2462375-.03.5437744-.15.9459622-.362 1.2045116-.212.2585493-.524.38885-.934.38885-.296 0-.618-.0810532-.968-.2441855v.5006828c.282.1887821.634.2831731 1.058.2831731.59 0 1.046-.2216137 1.366-.6648412.322-.4432274.482-1.0772888.482-1.9032103 0-.7151146-.136-1.258889-.407-1.6323491-.272-.3734601-.667-.5591642-1.185-.5591642zm4.44 5.8306977h-8.793c-1.107-.001026-2.02-.8228435-2.078-1.8683267l-.004-.1538984c0-1.3645659.967-1.8129233 1.544-1.9586138.246-.0615593.408-.3036928.376-.5612161-.014-.1231188-.022-.2482895-.022-.3755122 0-1.11012049.804-2.35054167 1.792-2.76606738.458-.192886.882-.26880922 1.264-.26880922 1.09 0 1.859.61764562 2.194.95109217.371.36833019.659.84028531.859 1.40252753.063.1764701.214.3036928.395.3313945.181.0297537.361-.0451435.472-.1949379.258-.3457585.673-.491449 1.054-.3703822.467.1456905.759.6340614.8 1.3399421.014.2318736.178.4257856.4.4719552 1.243.2575233 1.872.9367283 1.872 2.0201731 0 1.8057413-1.486 2.0006793-2.125 2.0006793zm.808-4.9391129c-.159-.9449363-.688-1.63337516-1.463-1.87550866-.535-.16621028-1.097-.08823509-1.562.19698996-.22-.4257856-.493-.80027173-.814-1.11935443-1.24-1.23426524-2.936-1.56873778-4.533-.89568874-1.376.57763203-2.413 2.17509752-2.413 3.71510757 0 .0225718 0 .0451436.001.0687413-1.197.4565653-1.899 1.4876846-1.899 2.8266008 0 .0707933.002.1385086.006.2093018.087 1.5902836 1.438 2.8368607 3.075 2.8389127h8.794c1.442 0 3.125-.7920638 3.125-3.0266687 0-1.4805027-.819-2.512648-2.317-2.9384336z" fill="#fff"/></g></svg>