<svg height="24" viewBox="0 0 24 24" width="24" xmlns="http://www.w3.org/2000/svg" xmlns:xlink="http://www.w3.org/1999/xlink"><linearGradient id="a" x1="0%" x2="100%" y1="100%" y2="0%"><stop offset="0" stop-color="#c8511b"/><stop offset="1" stop-color="#f90"/></linearGradient><g fill="none" fill-rule="evenodd"><path d="m0 0h24v24h-24z" fill="url(#a)"/><path d="m13.2993128 8.913-4.87500002-.067-.067 10.087 4.87500002.067c.037 0 .067-.03.067-.067zm1 0v10.02c0 .588-.479 1.067-1.067 1.067h-4.80800002c-.589 0-1.067-.479-1.067-1.067v-10.02c0-.588.478-1.067 1.067-1.067h4.80800002c.588 0 1.067.479 1.067 1.067zm-5.00300002 2.078h2.97400002v-1h-2.97400002zm0 1.992h2.97400002v-1h-2.97400002zm-.467-7.946h.001c1.87300002 0 2.23700002 1.541 2.27200002 1.713.04.213.212.375.426.403.211.028.422-.084.516-.28.184-.385.687-.337.693-.337.447.087.455.66.454.721l1 .027c.012-.511-.234-1.529-1.262-1.73-.29-.058-.741-.022-1.139.199-.433-.821-1.344-1.716-2.96000002-1.716h-.001c-1.257 0-2.045.601-2.484 1.106-.537.616-.858 1.453-.875 2.228-.741.307-1.639 1.116-1.443 2.746.081.672.614 1.942 2.051 1.942h.712v-1h-.712c-.891 0-1.045-.956-1.059-1.062-.174-1.453.854-1.73 1.057-1.77.265-.046.446-.294.409-.56-.069-.5.094-1.271.614-1.867.304-.348.849-.763 1.73-.763zm10.41400002 9.24-1-2c-.124-.248-.423-.347-.671-.224l-2 1 .448.895.898-.45c-.673 1.848-1.115 2.52-1.614 2.52v1c1.129 0 1.761-.971 2.576-3.231l.469.937zm-2.483-4.967c.517-1.397.756-2.965.27-3.75-.233-.376-.636-.56-1.234-.56v-1c1.195 0 1.793.563 2.085 1.034.719 1.164.394 2.991-.104 4.417l.795-.398.448.895-2 1c-.073.035-.149.052-.224.052-.183 0-.359-.101-.447-.276l-1-2 .894-.447z" fill="#fff"/></g></svg>