<svg height="24" viewBox="0 0 24 24" width="24" xmlns="http://www.w3.org/2000/svg" xmlns:xlink="http://www.w3.org/1999/xlink"><linearGradient id="a" x1="0%" x2="100%" y1="100%" y2="0%"><stop offset="0" stop-color="#bd0816"/><stop offset="1" stop-color="#ff5252"/></linearGradient><g fill="none" fill-rule="evenodd"><path d="m0 0h24v24h-24z" fill="url(#a)"/><path d="m11.116 17.558c0-.612-.498-1.11-1.11-1.11-.613 0-1.111.498-1.111 1.11s.498 1.11 1.111 1.11c.612 0 1.11-.498 1.11-1.11zm.934-.5h3.924v1h-1.001v.948h-1v-.948h-1.923c-.226.922-1.053 1.61-2.044 1.61-1.164 0-2.111-.946-2.111-2.11s.947-2.11 2.111-2.11c.991 0 1.818.688 2.044 1.61zm2.106-9.046 1.376 1.306 1.444-1.298-1.477-1.323zm1.023 2.35-2.087-1.982c-.099-.093-.156-.223-.1570136-.359-.0009864-.135.0530136-.266.1510136-.361l2.049-2.006c.187-.183.485-.19.683-.015l2.24 2.008c.106.095.166.23.166.372s-.06.277-.166.372l-2.201 1.98c-.095.085-.215.128-.334.128-.124 0-.248-.046-.344-.137zm-5.602-1.362-1.133-1.723-1.066 1.723zm.927 1h-4.024c-.181 0-.348-.098-.436-.256-.089-.159-.084-.353.011-.507l1.952-3.153c.089-.145.247-.234.418-.237.189.021.331.083.424.226l2.073 3.153c.1.153.109.35.022.512-.088.161-.257.262-.44.262zm-1.998 3.989c.551 0 1-.449 1-1 0-.552-.449-1-1-1-.552 0-1 .448-1 1 0 .551.448 1 1 1zm0 1c-1.103 0-2-.897-2-2s.897-2 2-2c1.102 0 2 .897 2 2s-.898 2-2 2zm6.468-.981h2v-2.038h-2zm3-2.538v3.038c0 .276-.223.5-.5.5h-3c-.276 0-.5-.224-.5-.5v-3.038c0-.277.224-.5.5-.5h3c.277 0 .5.223.5.5zm2.038-6.97v13.939c0 .277-.224.5-.5.5h-1.506v-1h1.006v-12.939h-14.012v12.939h1.006v1h-1.506c-.277 0-.5-.223-.5-.5v-13.939c0-.276.223-.5.5-.5h15.012c.276 0 .5.224.5.5z" fill="#fff"/></g></svg>