<svg height="24" viewBox="0 0 24 24" width="24" xmlns="http://www.w3.org/2000/svg" xmlns:xlink="http://www.w3.org/1999/xlink"><linearGradient id="a" x1="0%" x2="100%" y1="100%" y2="0%"><stop offset="0" stop-color="#b0084d"/><stop offset="1" stop-color="#ff4f8b"/></linearGradient><g fill="none" fill-rule="evenodd"><path d="m0 0h24v24h-24z" fill="url(#a)"/><path d="m10 6.971h1v-1h-1zm-2 0h1v-1h-1zm-2 0h1v-1h-1zm-1 1.029h14v-3h-14zm14.5-4h-15c-.276 0-.5.224-.5.5v3.5 1 10.5c0 .276.224.5.5.5h9.5v-1h-9v-10h14v10h-1v1h1.5c.276 0 .5-.224.5-.5v-15c0-.276-.224-.5-.5-.5zm-4.612 11.602-.969-.194c-.139-.027-.28.003-.395.087l-.497.364c-.111.082-.184.207-.2.345l-.115.976-1.433-.001-.112-.968c-.017-.138-.089-.262-.199-.344l-.504-.373c-.115-.085-.258-.117-.397-.089l-.959.193-.442-1.363.901-.413c.127-.059.224-.167.267-.3l.188-.58c.043-.132.029-.277-.04-.399l-.483-.862 1.159-.841.664.722c.095.102.229.161.368.161h.003l.627-.004c.139-.001.271-.059.366-.161l.659-.716 1.158.843-.482.857c-.069.122-.083.265-.042.397l.187.586c.043.135.14.245.268.304l.897.411zm1.265-2.085-1.101-.505-.054-.169.594-1.056c.125-.221.063-.5-.142-.649l-1.878-1.367c-.203-.148-.488-.121-.662.066l-.813.883-.189.001-.815-.886c-.173-.186-.455-.214-.662-.066l-1.88 1.363c-.205.149-.267.429-.142.65l.595 1.059-.053.163-1.106.507c-.231.106-.345.368-.267.609l.716 2.21c.077.24.32.387.574.336l1.179-.237.151.113.139 1.194c.029.252.243.442.496.442l2.322.003h.001c.254 0 .467-.19.496-.442l.142-1.202.144-.105 1.189.238c.251.052.495-.095.574-.336l.719-2.208c.078-.241-.036-.503-.267-.609zm-4.153 1.092c-.376 0-.683-.306-.683-.683 0-.376.307-.682.683-.682s.683.306.683.682c0 .377-.307.683-.683.683zm0-2.365c-.928 0-1.683.755-1.683 1.682 0 .928.755 1.683 1.683 1.683s1.683-.755 1.683-1.683c0-.927-.755-1.682-1.683-1.682z" fill="#fff"/></g></svg>