<svg height="24" viewBox="0 0 24 24" width="24" xmlns="http://www.w3.org/2000/svg" xmlns:xlink="http://www.w3.org/1999/xlink"><linearGradient id="a" x1="0%" x2="100%" y1="100%" y2="0%"><stop offset="0" stop-color="#bd0816"/><stop offset="1" stop-color="#ff5252"/></linearGradient><g fill="none" fill-rule="evenodd"><path d="m0 0h24v24h-24z" fill="url(#a)"/><path d="m5.00075056 18.9992494v-13.29096819l6.64598454 6.64498369c.0970728.0980736.2251688.1471104.3532649.1471104s.2561921-.0490368.3542657-.1471104l6.6449837-6.64498369v13.29096819zm13.29096824-13.99849884-6.2917188 6.29171884-6.29171879-6.29171884zm1.2079059-1.00075056h-14.99924942c-.27620715 0-.50037528.22316738-.50037528.50037528v14.99924942c0 .2762072.22416813.5003753.50037528.5003753h14.99924942c.2772079 0 .5003753-.2241681.5003753-.5003753v-14.99924942c0-.2772079-.2231674-.50037528-.5003753-.50037528z" fill="#fff"/></g></svg>