<svg height="24" viewBox="0 0 24 24" width="24" xmlns="http://www.w3.org/2000/svg" xmlns:xlink="http://www.w3.org/1999/xlink"><linearGradient id="a" x1="0%" x2="100%" y1="100%" y2="0%"><stop offset="0" stop-color="#055f4e"/><stop offset="1" stop-color="#56c0a7"/></linearGradient><g fill="none" fill-rule="evenodd"><path d="m0 0h24v24h-24z" fill="url(#a)"/><path d="m11.997 8.5c-.827 0-1.5.673-1.5 1.5s.673 1.5 1.5 1.5 1.5-.673 1.5-1.5-.673-1.5-1.5-1.5m-.021 4c-2.093 0-2.622 1.645-2.755 2.5h5.555c-.129-.868-.657-2.5-2.8-2.5m.021-5c1.379 0 2.5 1.122 2.5 2.5 0 .736-.325 1.392-.834 1.85.363.165.696.376.98.66 1.166 1.17 1.174 2.918 1.174 2.991-.001.276-.224.499-.5.499h-6.641c-.277 0-.5-.224-.5-.5 0-1.082.491-2.913 2.14-3.662-.5-.457-.819-1.109-.819-1.838 0-1.378 1.121-2.5 2.5-2.5m-5.997 4.5h-1c0 2.612 1.437 4.988 3.752 6.202l.465-.886c-1.985-1.04-3.217-3.077-3.217-5.316m6-6v-1c-2.607 0-4.982 1.435-6.198 3.744l.884.465c1.043-1.979 3.08-3.209 5.314-3.209m6 6h1c0-2.603-1.431-4.976-3.734-6.193l-.467.884c1.974 1.043 3.201 3.078 3.201 5.309m-.691 2.799.884.467c-1.217 2.303-3.591 3.734-6.193 3.734v-1c2.231 0 4.266-1.227 5.309-3.201" fill="#fff"/></g></svg>