<svg height="24" viewBox="0 0 24 24" width="24" xmlns="http://www.w3.org/2000/svg" xmlns:xlink="http://www.w3.org/1999/xlink"><linearGradient id="a" x1="0%" x2="100%" y1="100%" y2="0%"><stop offset="0" stop-color="#055f4e"/><stop offset="1" stop-color="#56c0a7"/></linearGradient><g fill="none" fill-rule="evenodd"><path d="m0 0h24v24h-24z" fill="url(#a)"/><path d="m18.8181756 6.04404247-.772261-.64097523-1.4864498 1.66633897.7722611.64097523zm-1.0829993 5.34604793h2.0376282v-.9830908h-2.0376282zm.2271955-2.01730235 2.0376282-.98309084-.4554099-.8798663-2.0376282.98309084zm.7264145 8.59614625-3.1776812-2.9836807c-.2964749.2968935-.6214766.5672435-.9780616.7992529l3.1766624 3.1370429c.213951.206449.5695171.0609516.8038443-.1651593.2455342-.2369249.3840929-.583956.1752361-.7874558zm-7.5759017-2.1549351c2.8078517 0 5.0940705-2.2050727 5.0940705-4.9154542 0-2.70939832-2.2862188-4.91545416-5.0940705-4.91545416-2.80887047 0-5.0940705 2.20605584-5.0940705 4.91545416 0 2.7103815 2.28520003 4.9154542 5.0940705 4.9154542zm8.2911092 1.4559575c.597025.5770744.5216328 1.5129768-.170142 2.1814786-.3759424.3627605-.8354276.5485647-1.2724988.5485647-.3606602 0-.707057-.1278018-.9760239-.3873378l-3.37635-3.3346441c-.7630917.3313016-1.6066698.519072-2.4960945.519072-3.37125586 0-6.1128846-2.6454975-6.1128846-5.8985451 0-3.25206447 2.74162874-5.898545 6.1128846-5.898545 3.370237 0 6.1128846 2.64648053 6.1128846 5.898545 0 1.2318128-.3952999 2.3761306-1.0666984 3.3238301zm-8.2911092-4.40523c-.2822115 0-.509407.2202123-.509407.4915454 0 .2723162.2271955.4915454.509407.4915454.2811927 0 .5094071-.2192292.5094071-.4915454 0-.2713331-.2282144-.4915454-.5094071-.4915454zm-.509407-.9830908h1.0188141v-3.93236339h-1.0188141z" fill="#fff"/></g></svg>