<svg height="24" viewBox="0 0 24 24" width="24" xmlns="http://www.w3.org/2000/svg" xmlns:xlink="http://www.w3.org/1999/xlink"><linearGradient id="a" x1="0%" x2="100%" y1="100%" y2="0%"><stop offset="0" stop-color="#bd0816"/><stop offset="1" stop-color="#ff5252"/></linearGradient><g fill="none" fill-rule="evenodd"><path d="m0 0h24v24h-24z" fill="url(#a)"/><path d="m15.188 16.891-1.25-1 .625-.781.824.659 1.697-2.546.833.555-2 3c-.079.116-.202.195-.339.217-.027.003-.052.005-.078.005-.112 0-.222-.038-.312-.109zm-9.188-4.891h2v-1h-2zm.001-2h3v-1h-3zm12-3v-.5c0-.276-.224-.5-.5-.5h-7c-.277 0-.5.224-.5.5v.5h-5.001v-1.4c0-.319.198-.6.422-.6h13.156c.225 0 .423.281.423.6v1.4zm-2.376 5c1.862 0 3.376 1.571 3.376 3.5 0 1.93-1.514 3.5-3.376 3.5-1.861 0-3.375-1.57-3.375-3.5 0-1.929 1.514-3.5 3.375-3.5zm4.375 0v-6.4c0-.882-.638-1.6-1.422-1.6h-13.156c-.784 0-1.422.718-1.422 1.6v8.8c0 .883.638 1.6 1.422 1.6h5.877c.246 2.244 2.08 4 4.326 4 2.413 0 4.375-2.018 4.375-4.5 0-2.481-1.962-4.5-4.375-4.5-2.246 0-4.08 1.757-4.326 4h-5.877c-.224 0-.422-.28-.422-.6v-6.4h5.001v4h1v-4-1h5.999v1 2h1.001v-2h1v4z" fill="#fff"/></g></svg>