<svg height="24" viewBox="0 0 24 24" width="24" xmlns="http://www.w3.org/2000/svg" xmlns:xlink="http://www.w3.org/1999/xlink"><linearGradient id="a" x1="0%" x2="100%" y1="100%" y2="0%"><stop offset="0" stop-color="#055f4e"/><stop offset="1" stop-color="#56c0a7"/></linearGradient><g fill="none" fill-rule="evenodd"><path d="m0 0h24v24h-24z" fill="url(#a)"/><path d="m9.99949962 13.9994996h3.99699778v-4.01000748h-3.99699778zm-1.00075056.3522642v-4.71453588c0-.35726795.29121842-.64848636.64948712-.64848636h4.70052542c.3572679 0 .6484863.29121841.6484863.64848636v4.71453588c0 .357268-.2912184.6484864-.6484863.6484864h-4.70052542c-.3582687 0-.64948712-.2912184-.64948712-.6484864zm10.96622464-5.35201399h-2.9612209v1.00075059h1.9954966v8.998749h-8.998749v-1.9954966h-1.00075059v2.4608456l.03502627.5354016h10.42982232l.5354016-.036027v-10.42782089zm-14.96422314 4.99974979h1.99549663v1.0007506h-2.95821867l-.03802852-.5384038v-10.42381788l.5384038-.03802852h10.4238179l.0380285.5384038v2.45784339h-1.0007506v-1.99549663h-8.99874904z" fill="#fff"/></g></svg>