<svg height="24" viewBox="0 0 24 24" width="24" xmlns="http://www.w3.org/2000/svg" xmlns:xlink="http://www.w3.org/1999/xlink"><linearGradient id="a" x1="0%" x2="100%" y1="100%" y2="0%"><stop offset="0" stop-color="#c8511b"/><stop offset="1" stop-color="#f90"/></linearGradient><g fill="none" fill-rule="evenodd"><path d="m0 0h24v24h-24z" fill="url(#a)"/><path d="m14.9985007 13.6428238c0-.2688328-.2248875-.487016-.4997501-.487016-.2748625 0-.4997501.2181832-.4997501.487016 0 .2688329.2248876.487016.4997501.487016.2748626 0 .4997501-.2181831.4997501-.487016m-3.9980009-3.8961281c0 .2688328.2248875.487016.4997501.487016.2748625 0 .4997501-.2181832.4997501-.487016 0-.26883284-.2248876-.48701602-.4997501-.48701602-.2748626 0-.4997501.21818318-.4997501.48701602m-2.9985008 2.9220961c0 .2688328.22488756.487016.49975013.487016.27486256 0 .49975012-.2181832.49975012-.487016s-.22488756-.487016-.49975012-.487016c-.27486257 0-.49975013.2181832-.49975013.487016m7.996002.974032c0 .6340949-.4187906 1.1698125-.9995003 1.3714371v1.550659c0 .2688329-.223888.487016-.4997501.487016h-2.4987506v1.9480641h-.9995002v-2.9220961h-2.49875067c-.27586207 0-.49975013-.2181832-.49975013-.487016v-1.550659c-.58070964-.2016246-.99950025-.7373423-.99950025-1.3714371 0-.8055245.67266367-1.4610481 1.49925038-1.4610481.8265867 0 1.49925037.6555236 1.49925037 1.4610481 0 .6340948-.4187906 1.1698125-.99950025 1.3714371v1.063643h1.99900055v-3.9857391c-.5807097-.2016246-.9995003-.7373422-.9995003-1.3714371 0-.80552449.6726637-1.46104805 1.4992504-1.46104805s1.4992503.65552356 1.4992503 1.46104805c0 .6340949-.4187906 1.1698125-.9995002 1.3714371v4.9597711h1.9990005v-1.063643c-.5807096-.2016246-.9995003-.7373422-.9995003-1.3714371 0-.8055245.6726637-1.461048 1.4992504-1.461048s1.4992504.6555235 1.4992504 1.461048m4.001999-1.5837761c0 1.7464395-1.1034483 2.8802128-2.9495252 3.0302137l-.0839581-.9701359c.9275363-.0759745 2.0339831-.4948083 2.0339831-2.0600778 0-1.1220849-.6856572-1.825336-2.0369816-2.08929866-.2228885-.04383145-.3868066-.2279235-.4007996-.44902877-.063968-1.06266895-.6746626-1.43864531-1.1784108-1.43864531-.3368315 0-.6536731.15681916-.8675662.43149619-.109945.14123464-.2948525.21136495-.4717641.18701415-.1809095-.0272729-.3318341-.14707884-.3948026-.31363832-.2188905-.57954905-.5327336-1.06461701-.9315342-1.44059337-.4907546-.46461328-1.8390805-1.46104805-3.74112946-.70130306-1.08945527.43247022-1.94302848 1.68312735-1.94302848 2.84806966 0 .12857223.007996.25811849.023988.38474265.03098451.24448204-.12993503.47240554-.37581209.53279554-.62868566.1509749-1.68315842.6165623-1.68315842 2.0269606l.0049975.1275982c.05797102 1.0198116.92753623 1.8467648 2.02398801 1.9529343l-.09795103.9691618c-1.58320839-.151949-2.83958021-1.3733851-2.92253873-2.8402774l-.007996-.2094169c0-1.3548785.75262369-2.39611876 2.03598201-2.85293978-.0009995-.03019499-.0009995-.06136402-.0009995-.09155901 0-1.55845125 1.10244877-3.16950023 2.56471764-3.75002332 1.69915045-.67695227 3.49925035-.33993718 4.81359325.90292769.349825.32922283.6456771.71980967.8845577 1.16396828.3238381-.19675447.6966516-.30194993 1.0864567-.30194993.9015493 0 1.906047.62532856 2.1349326 1.98897341 1.6031984.42370393 2.4807596 1.46494416 2.4807596 2.96203136" fill="#fff"/></g></svg>