<svg height="24" viewBox="0 0 24 24" width="24" xmlns="http://www.w3.org/2000/svg" xmlns:xlink="http://www.w3.org/1999/xlink"><linearGradient id="a" x1="0%" x2="100%" y1="100%" y2="0%"><stop offset="0" stop-color="#055f4e"/><stop offset="1" stop-color="#56c0a7"/></linearGradient><g fill="none" fill-rule="evenodd"><path d="m0 0h24v24h-24z" fill="url(#a)"/><path d="m15.9802284 15.452442c.3376528-.3642049.6021642-.7974486.8025516-1.3157401h-1.6361632c.2043952.5052842.4839356.947533.8336116 1.3157401zm-2.0900407 1.1806641c.6632823-.1891064 1.2013226-.4452504 1.6421749-.7794384-.4228175-.4652617-.7634761-1.0425865-1.0119565-1.7169658h-.5520673c-.0771492 0-.1392693-.0630355-.1392693-.1410794v-.2901632c0-.0780439.0621201-.1400788.1392693-.1400788h1.7083027v-.6313551c0-.039022.0170329-.0750422.0450872-.1020574.0290562-.0260147.0671298-.0380214.1052034-.0370208l.3917574.0260146c.0390755.0030017.0751452.0210118.1001937.0510287.0240465.0310174.0350678.0700394.0300581.1080608-.0050097.032018-.0210407.0940529-.0871685.1380776v.4472516h1.7403647c.0771491 0 .1392692.0620349.1392692.1400788v.2901632c0 .0780439-.0621201.1410794-.1392692.1410794h-.5009686c-.0220426.0360203-.0591143.0730411-.1242402.0920518-.2394629.6463636-.5550731 1.178663-.9638634 1.61791.4719123.3612032 1.033999.6173473 1.6732349.7624289.048093.0110062.0881704.0490276.1031995.0980552.0140271.0490275 0 .1010568-.0360697.1380776-.0561085.0560316-.1422751.1750985-.1873623.2611469-.0240465.0470265-.0721394.0750422-.1232382.0750422-.0110213 0-.0230446-.0020011-.0350678-.0050028-.7244005-.1861047-1.3305725-.4852729-1.847572-.9135138-.4859395.3852167-1.082092.6823838-1.8185158.9075105-.0691337.0210118-.143277-.0140079-.1703293-.0810456-.0230446-.0560316-.0991918-.1680946-.1512925-.2331312-.0300581-.0370208-.0380736-.0860484-.0250484-.1310737.015029-.0440248.0500968-.0790445.095184-.0920518zm-4.172066-6.5967106-.73742569-2.13920333-.73141406 2.13920333zm-.37873221-2.71752864 1.61311871 4.36045274h-.668292l-.40277875-1.1576512h-1.79547125l-.3917574 1.1576512h-.66127847l1.61412064-4.36045274zm3.64705101 11.68057034h6.0116224v-8.0235132h-6.0116224zm7.0135595-8.5237947v9.0240761c0 .2761553-.2244339.5002814-.5009685.5002814h-7.0135596c-.2775366 0-.5009685-.2241261-.5009685-.5002814v-9.0240761c0-.2761553.2234319-.50028136.5009685-.50028136h7.0135596c.2765346 0 .5009685.22412606.5009685.50028136zm-13.99806292 3.5219812h4.90247812v1.0005628h-5.40344666c-.27653463 0-.50096854-.2241261-.50096854-.5002814v-9.99762369c0-.13307486.05310267-.2611469.14628281-.35419924.09418209-.0940529.2214281-.14608217.35468573-.14608217h.00100194l6.98450332.01801013c.2765347 0 .4999667.22412607.4999667.50028141v4.47651804h-1.0019371v-3.97823776l-5.98256632-.01500844z" fill="#fff"/></g></svg>