<svg height="24" viewBox="0 0 24 24" width="24" xmlns="http://www.w3.org/2000/svg" xmlns:xlink="http://www.w3.org/1999/xlink"><linearGradient id="a" x1="0%" x2="100%" y1="100%" y2="0%"><stop offset="0" stop-color="#2e27ad"/><stop offset="1" stop-color="#527fff"/></linearGradient><g fill="none" fill-rule="evenodd"><path d="m0 0h24v24h-24z" fill="url(#a)"/><path d="m9.5 5.03225806c2.747 0 4.5.91664517 4.5 1.5483871 0 .63174194-1.753 1.5483871-4.5 1.5483871s-4.5-.91664516-4.5-1.5483871c0-.63174193 1.753-1.5483871 4.5-1.5483871zm0 7.74193544c1.019 0 2.007-.1218064 2.859-.352l-.254-.9992258c-.77.2095484-1.67.3189678-2.605.3189678-2.747 0-4.5-.9166452-4.5-1.5483871v-2.08619356c1.061.69058064 2.813 1.05393548 4.5 1.05393548s3.439-.36335484 4.5-1.05393548v1.05393548h1v-2.58477419c-.006-1.67329032-2.836-2.57651613-5.5-2.57651613-2.605 0-5.364.86606452-5.488 2.47019355h-.012v11.17419355c0 1.5463226 2.552 2.3556129 5.073 2.3556129 1.167 0 2.298-.1723871 3.182-.4851613l-.324-.9775484c-.784.2776774-1.798.4304516-2.858.4304516-2.636 0-4.073-.8743225-4.073-1.3233548v-1.7950968c1.061.6905807 2.813 1.0539355 4.5 1.0539355 1.019 0 2.007-.1218064 2.859-.352l-.254-.9992258c-.77.2095484-1.67.3189677-2.605.3189677-2.747 0-4.5-.9166451-4.5-1.5483871v-2.6023225c1.061.6905806 2.813 1.0539354 4.5 1.0539354zm9.5-.516129h-1v-1.032258h.1l.9.8846451zm0 6.1935484h-5v-7.2258064h3v1.548387c0 .2849033.224.5161291.5.5161291h1.5zm.845-6.9357419-1.2-1.179871c-.093-.091871-.217-.1424516-.345-.1424516h-4.8c-.276 0-.5.2312258-.5.516129v8.2580645c0 .2849033.224.5161291.5.5161291h6c.276 0 .5-.2312258.5-.5161291v-6.7096774-.3685161c0-.1414194-.056-.2766452-.155-.3736774z" fill="#fff"/></g></svg>