<svg height="24" viewBox="0 0 24 24" width="24" xmlns="http://www.w3.org/2000/svg" xmlns:xlink="http://www.w3.org/1999/xlink"><linearGradient id="a" x1="0%" x2="100%" y1="100%" y2="0%"><stop offset="0" stop-color="#2e27ad"/><stop offset="1" stop-color="#527fff"/></linearGradient><g fill="none" fill-rule="evenodd"><path d="m0 0h24v24h-24z" fill="url(#a)"/><path d="m19 12c0 3.86-3.141 7-7 7s-7-3.14-7-7 3.141-7 7-7 7 3.14 7 7zm1 0c0-4.411-3.589-8-8-8s-8 3.589-8 8 3.589 8 8 8 8-3.589 8-8zm-6.04-3.303-.92-.394-3 7 .92.394zm3.747 2.803-2.353-2.354-.708.708 1.647 1.646-1.647 1.646.708.708zm-8.061 2.354-2.353-2.354 2.353-2.354.708.708-1.647 1.646 1.647 1.646z" fill="#fff"/></g></svg>