<svg height="24" viewBox="0 0 24 24" width="24" xmlns="http://www.w3.org/2000/svg" xmlns:xlink="http://www.w3.org/1999/xlink"><linearGradient id="a" x1="0%" x2="100%" y1="100%" y2="0%"><stop offset="0" stop-color="#1b660f"/><stop offset="1" stop-color="#6cae3e"/></linearGradient><g fill="none" fill-rule="evenodd"><path d="m0 0h24v24h-24z" fill="url(#a)"/><path d="m16 11.1407541c-1.037-.718101-2.512-1.14216061-4-1.14216061-1.66 0-3.036.38905471-4 1.12715851v7.8741073h1v-6.5009142c0-.1500211.066-.2910409.182-.3860543.055-.0460064 1.369-1.1141567 2.818-1.1141567 1.365 0 2.748 1.059149 2.807 1.1051555.122.0950133.193.2400337.193.3950555v6.5009142h1zm.806-.6490913c.122.0940132.194.2410339.194.3960557v8.6122112c0 .2760388-.224.5000703-.5.5000703h-2c-.276 0-.5-.2240315-.5-.5000703v-6.7419482c-.375-.2510353-1.228-.7591067-2-.7591067-.769 0-1.586.4590645-2 .7491053v6.7519496c0 .2760388-.224.5000703-.5.5000703h-2c-.276 0-.5-.2240315-.5-.5000703v-8.6122112c0-.1460205.063-.2850401.175-.3800534 1.151-.98713884 2.82-1.50921226 4.825-1.50921226 1.798 0 3.594.55807848 4.806 1.49320996zm3.194.6030848c0 1.7042397-.708 2.7613884-1.943 2.9014081l-.114-.9941398c.873-.099014 1.057-1.0911535 1.057-1.9072683 0-1.11515679-.684-1.81825566-2.032-2.0872935-.223-.04500633-.387-.23303277-.402-.45906456-.066-1.05614853-.676-1.43120127-1.178-1.43120127-.341 0-.659.15802222-.874.4330609-.113.14302012-.292.21503024-.471.1870263-.179-.02800393-.329-.15002109-.393-.320045-.212-.57008018-.532-1.06815022-.924-1.4392024-.494-.46706569-1.843-1.47020676-3.753-.70509916-1.087.43606132-1.939 1.685237-1.939 2.84339987 0 .13101843.009.25603601.025.38105359.003.02200309.003.04300605.003.06500914 0 .24803488-.18.455064-.416.49506962-.631.16102265-1.646.63408918-1.646 2.01328317l.005.1620228c.056.9641355.773 1.721242 1.01 1.7672485l-.015.9991405c-.81 0-1.91-1.2771796-1.993-2.7133816-.004-.0740104-.007-.1430201-.007-.2150302 0-1.36419188.752-2.41133915 2.035-2.87140385-.001-.02800393-.001-.05500773-.001-.08301167 0-1.56321984 1.104-3.18444783 2.567-3.7715304 1.698-.68109578 3.496-.34004782 4.811.90712758.345.32504571.645.72310169.885 1.1711647.325-.19902799.699-.30604304 1.091-.30604304.898 0 1.898.62608805 2.133 1.99328032 1.602.43006048 2.479 1.48020816 2.479 2.98441966z" fill="#fff"/></g></svg>