<svg height="24" viewBox="0 0 24 24" width="24" xmlns="http://www.w3.org/2000/svg" xmlns:xlink="http://www.w3.org/1999/xlink"><linearGradient id="a" x1="0%" x2="100%" y1="100%" y2="0%"><stop offset="0" stop-color="#4d27a8"/><stop offset="1" stop-color="#a166ff"/></linearGradient><g fill="none" fill-rule="evenodd"><path d="m0 0h24v24h-24z" fill="url(#a)"/><path d="m9.57127746 16.3296148v1.5354161h4.85744504v-1.5354161c0-.0200185-.0577437-.078072-.1612843-.078072h-4.53487644c-.10354054 0-.1612843.0580535-.1612843.078072m6.82770204 2.7275156v.9428696h-.9955821v-.9428696c0-.117108-.0527658-.1841699-.0706863-.19518l-6.68433825.0040037c.00099558.0070064-.05177027.0740683-.05177027.1911763v.9428696h-.99558211v-.9428696c0-.6275788.43307822-1.1300423.97467488-1.1750838v-1.5524318c0-.5354939.42810031-.9608862.97567046-1.0449638v-4.2289003h.99558209v4.1948689h.9547633v-6.48197831h.9955821v6.48197831h.9547632v-4.1948689h.9955821v4.2289003c.5485657.0840776.976666.5094699.976666 1.0449638v1.5524318c.5415967.0450415.9746749.547505.9746749 1.1750838m3.6010205-7.8732615c0 1.8947475-1.115052 2.8556337-3.3113061 2.8556337h-1.3689254v-1.0009231h1.3689254c1.6447017 0 2.315724-.5374958 2.315724-1.8547106 0-1.16007-.6859561-1.88573926-2.0389522-2.15799036-.2220148-.04504154-.3852902-.23421602-.3992284-.46142558-.0637172-1.09701177-.6760002-1.4873718-1.1807604-1.4873718-.3375023 0-.6540974.16315047-.8701387.44741265-.1115052.14513385-.2917056.21519847-.4699148.19217724-.1802003-.02802585-.3305332-.15113939-.3922593-.32229725-.1901562-.51647635-.4778794-.94387054-.933856-1.3872795-.4918176-.48044311-1.8378446-1.51139396-3.74438432-.72667021-1.10808289.45642096-1.94437185 1.67754721-1.94437185 2.83961899 0 .13612555.00896023.26924833.02488955.40036926.03086304.25223264-.13042126.48744958-.37533445.54750497-.62920789.15414217-1.68452493.63158251-1.68452493 2.09393119l.00497791.1631505c.06769959 1.1830912 1.18573829 1.7135805 2.26395371 1.7135805h1.41671333v1.0009231h-1.41671333c-1.82987991 0-3.16893784-1.094009-3.25754465-2.6604537l-.00696907-.2172004c0-1.40129237.75266007-2.47628383 2.0359654-2.94371495-.00099558-.03202954-.00099558-.06506-.00099558-.09809047 0-1.57044843 1.07821542-3.15490978 2.56262834-3.7654729 1.70045424-.69964529 3.50046664-.35132403 4.81463504.9338613.3713521.36133326.6560886.71866282.8751167 1.10802193.3265509-.20719109.7038765-.32029541 1.098127-.32029541.9019974 0 1.9055442.64559544 2.1335325 2.05289339 1.6038828.4364025 2.4809906 1.51039304 2.4809906 3.05481751" fill="#fff"/></g></svg>