<svg height="24" viewBox="0 0 24 24" width="24" xmlns="http://www.w3.org/2000/svg" xmlns:xlink="http://www.w3.org/1999/xlink"><linearGradient id="a" x1="0%" x2="100%" y1="100%" y2="0%"><stop offset="0" stop-color="#2e27ad"/><stop offset="1" stop-color="#527fff"/></linearGradient><g fill="none" fill-rule="evenodd"><path d="m0 0h24v24h-24z" fill="url(#a)"/><path d="m13.3619281 15.0201236h-1.0212418v-.9949691h-1.0212419v.9949691.9949691h1.0212419 1.0212418 1.0212418v-.9949691-1.9899382h-1.0212418zm3.0637255-.4974845c0-1.9202904-1.6033497-3.4823918-3.5743464-3.4823918s-3.57434642 1.5621014-3.57434642 3.4823918c0 1.9202903 1.60334972 3.4823918 3.57434642 3.4823918s3.5743464-1.5621015 3.5743464-3.4823918zm1.0212418 0c0 2.4685183-2.0618872 4.4773609-4.5955882 4.4773609s-4.59558825-2.0088426-4.59558825-4.4773609 2.06188725-4.4773609 4.59558825-4.4773609 4.5955882 2.0088426 4.5955882 4.4773609zm2.5531046-2.8804355c0 1.5989153-.903799 2.638658-2.4785539 2.8535713l-.1409314-.9850194c1.0610703-.1452655 1.5982435-.773091 1.5982435-1.8685519 0-1.0268081-.6260213-1.67055314-1.8617239-1.91233063-.2277369-.04477361-.3962418-.23381774-.409518-.45967572-.055147-.96014518-.6015114-1.30042461-1.0539215-1.30042461-.3012664 0-.5821079.13929568-.7730801.38206814-.1123366.14427051-.2920752.21292338-.4810049.19103406-.1838235-.02785913-.338031-.14924536-.4033905-.32038005-.2001634-.52832858-.4963235-.98700934-.8558007-1.32728876-.4503676-.42883168-1.685049-1.35116803-3.43954246-.64871985-.98345588.39301279-1.78308823 1.56906626-1.78308823 2.62074859 0 .12138623.00816993.24177749.02144608.35818887.03165849.24874227-.13276144.48256001-.38398693.54225815-.69955065.16914475-1.53288399.62782551-1.53288399 1.85462241l.00408497.1383007c.04289216.7551815.72303921 1.448675 1.65543301 1.6914474l-.2634804.9611402c-1.35416666-.3512241-2.34477124-1.417831-2.41115196-2.5928895l-.00714869-.1979988c0-1.2755504.7005719-2.25857986 1.89644608-2.69636626v-.05870317c0-1.46757941 1.03962418-2.98988213 2.41625817-3.541095 1.60232845-.64374501 3.30167485-.32236999 4.54044115.85666839.3104575.29451085.5831291.65170475.8057598 1.05466723 1.0171569-.58106195 2.7093546-.20794854 3.0249183 1.60289521 1.4787582.40594739 2.3161765 1.4118611 2.3161765 2.801833z" fill="#fff"/></g></svg>