<svg height="24" viewBox="0 0 24 24" width="24" xmlns="http://www.w3.org/2000/svg" xmlns:xlink="http://www.w3.org/1999/xlink"><linearGradient id="a" x1="0%" x2="100%" y1="100%" y2="0%"><stop offset="0" stop-color="#4d27a8"/><stop offset="1" stop-color="#a166ff"/></linearGradient><g fill="none" fill-rule="evenodd"><path d="m0 0h24v24h-24z" fill="url(#a)"/><path d="m15.9998861 10h.9999451v-1h-.9999451zm-8.99950603 0h-.99994511v-1h.99994511v-1h.99994511v1h.99994512v1h-.99994512v1h-.99994511zm11.63636123 6.718c-.1829899.189-.4379759.282-.7769573.282-1.0039449 0-1.7939015-1.985-2.3708699-3.434-.1179935-.297-.2329872-.576-.344981-.84.4169771.176.8749519.274 1.3559255.274.9789463 0 1.8638977-.408 2.4998636-1.059v3.721c0 .006.002999.677-.3629809 1.056zm-12.49731397.282c-.3369815 0-.59096756-.091-.77295757-.279-.37597936-.383-.36600542-1.054-.36600542-1.075v-3.705c.63499065.651 1.51994208 1.059 2.49988829 1.059.47997365 0 .93794851-.098 1.35492562-.274-.11199385.264-.22698754.543-.34498106.84-.57696833 1.449-1.36692497 3.434-2.37086986 3.434zm1.3609253-10c1.37792436 0 2.49986277 1.121 2.49986277 2.5 0 1.378-1.12193841 2.5-2.49986277 2.5-1.37892431 0-2.49986278-1.122-2.49986278-2.5 0-1.379 1.12093847-2.5 2.49986278-2.5zm6.55764007 5h-4.11677405c.65096425-.636 1.05894185-1.521 1.05894185-2.5 0-.54-.1329927-1.044-.3519807-1.5h2.7028517c-.218988.456-.3509808.96-.3509808 1.5 0 .979.4069777 1.864 1.057942 2.5zm2.4418659-5c1.3779244 0 2.4998628 1.121 2.4998628 2.5 0 1.378-1.1219384 2.5-2.4998628 2.5-1.3789243 0-2.4998627-1.122-2.4998627-2.5 0-1.379 1.1209384-2.5 2.4998627-2.5zm3.4998079 8.646v-5.646-.5c0-1.93-1.5709137-3.5-3.4998079-3.5-.9509478 0-1.8109006.383-2.4418659 1h-4.11677405c-.63096537-.617-1.49091817-1-2.44086602-1-1.92989407 0-3.49980789 1.57-3.49980789 3.5v.5 5.631c-.00299984.111-.01499918 1.103.64396465 1.783.37697931.389.8799517.586 1.49491794.586 1.68190768 0 2.57885844-2.253 3.29981887-4.063.1329927-.333.25898578-.652.38297898-.937h4.35476092c.1239932.285.2499863.604.382979.937.7209604 1.81 1.6179112 4.063 3.2998189 4.063.6149662 0 1.1179386-.197 1.4949179-.586.6589639-.68.6469645-1.672.6449646-1.768z" fill="#fff"/></g></svg>