<svg height="24" viewBox="0 0 24 24" width="24" xmlns="http://www.w3.org/2000/svg" xmlns:xlink="http://www.w3.org/1999/xlink"><linearGradient id="a" x1="0%" x2="100%" y1="100%" y2="0%"><stop offset="0" stop-color="#b0084d"/><stop offset="1" stop-color="#ff4f8b"/></linearGradient><g fill="none" fill-rule="evenodd"><path d="m0 0h24v24h-24z" fill="url(#a)"/><path d="m13.668 5.96925446c-.015.245.15.464.39.518.551.124 1.073.338 1.549.639.209.131.478.092.64-.091l.356-.399 1.051 1.048-.398.357c-.183.162-.22.433-.089.64.301.476.518.997.644 1.54900004.053.238.272.404.516.388l.533-.031.001 1.485-.53-.03c-.28-.024-.463.152-.517.39-.123.551-.338 1.073-.639 1.552l.846.532c.286-.454.507-.942.662-1.453l.651.036c.156.01.273-.042.372-.135.1-.095.156-.227.156-.364l-.003-2.544c0-.13700004-.056-.26900004-.157-.36300004-.099-.095-.231-.141-.372-.135l-.654.038c-.113-.376-.264-.737-.449-1.082l.488-.437c.102-.091.163-.221.167-.359s-.05-.27-.147-.368l-1.8-1.796c-.099-.098-.24-.144-.369-.146-.137.004-.267.065-.358.167l-.436.49c-.345-.183-.707-.333-1.082-.446l.036-.595c.007-.138-.041-.272-.135-.372-.095-.101-.227-.158-.364-.158h-1.31v1h.779zm-2.71 11.62600004v-4.956l-1.244 1.218-.699-.715 1.943-1.902v-.533l-1.101-1.07800004.7-.715.401.393v-3.463l-1.541-.737v2.246h-1v-1.66l-1.7 1.133v1.96l1.492.986c.141.092.225.24900004.225.41700004v2.31h-1v-2.041l-1.242-.82100004-1.191.65400004-.001 1.334.001 1.803 1.401.561c.191.076.315.26.315.464v2.12l.682.409 1.955-1.466.599.8-1.628 1.221 1.331.799zm1-12.06600004v12.35700004c0 .179-.097.345-.253.434l-1.808 1.03c-.077.043-.163.065-.248.065-.088 0-.177-.024-.256-.071l-3.433-2.06c-.151-.09-.243-.252-.243-.428v-2.064l-1.402-.561c-.189-.076-.314-.26-.314-.464l-.001-2.143.001-1.63000004c0-.182.1-.35.26-.438l1.456-.798v-2.199c0-.167.084-.323.222-.416l3.089-2.06c.147-.097.336-.11.494-.035l2.152 1.03c.174.083.284.259.284.451zm6.926 11.91500004c0-.315-.185-.507-.548-.57-.271-.046-.453-.303-.408-.574-.005-.043-.032-.173-.111-.198-.039-.015-.099-.003-.138.05-.11.149-.29.224-.477.198-.183-.028-.336-.154-.397-.329-.069-.194-.169-.361-.291-.485-.133-.133-.373-.313-.703-.313-.124 0-.262.026-.412.089-.309.132-.571.546-.571.904l.011.153c.016.24-.143.456-.375.516-.426.109-.426.43-.426.55 0 .247.102.436.302.562l4.031.002c.167-.02.513-.114.513-.555zm1 0c0 1.062-.867 1.511-1.451 1.554-.012.001-.025.001-.036.001h-4.008c-.222 0-.418-.052-.583-.156-.287-.182-.768-.605-.768-1.408 0-.61.298-1.109.8-1.374.072-.72.551-1.406 1.171-1.669.782-.333 1.609-.169 2.214.439.092.094.176.197.252.308.21-.061.438-.059.655.013.309.101.635.371.75.842.52.205 1.004.665 1.004 1.45zm-6.967-3.445v-1c.827 0 1.5-.673 1.5-1.5s-.673-1.50000004-1.5-1.50000004v-1c1.379 0 2.5 1.12200004 2.5 2.50000004 0 1.379-1.121 2.5-2.5 2.5z" fill="#fff"/></g></svg>