<svg height="24" viewBox="0 0 24 24" width="24" xmlns="http://www.w3.org/2000/svg" xmlns:xlink="http://www.w3.org/1999/xlink"><linearGradient id="a" x1="0%" x2="100%" y1="100%" y2="0%"><stop offset="0" stop-color="#1b660f"/><stop offset="1" stop-color="#6cae3e"/></linearGradient><g fill="none" fill-rule="evenodd"><path d="m0 0h24v24h-24z" fill="url(#a)"/><path d="m19 16.5h1v3.5h-3.5v-1h1.793l-1.647-1.646.708-.708 1.646 1.647zm-12.293 2.5h1.793v1h-3.5v-3.5h1v1.793l1.646-1.647.708.708zm13.293-15v3.5h-1v-1.793l-1.646 1.647-.708-.708 1.647-1.646h-1.793v-1zm-15 0h3.5v1h-1.793l1.647 1.646-.708.708-1.646-1.647v1.793h-1zm7.561 11.5c-1.557 0-2.391-.344-2.469-.504l-.01-4.943c.793.289 1.87.338 2.479.338.6 0 1.655-.054 2.441-.34l.009 4.895c-.115.194-1.056.554-2.45.554zm2.382-6.506c-.235.157-.987.397-2.382.397-1.53 0-2.29-.283-2.442-.382.203-.2 1.097-.509 2.442-.509 1.219 0 2.123.296 2.382.494zm-2.382-1.494c-1.289 0-3.469.314-3.469 1.492v6.004c0 1.396 2.655 1.504 3.469 1.504 1.277 0 3.439-.317 3.439-1.504v-6.004c0-1.18-2.25-1.492-3.439-1.492z" fill="#fff"/></g></svg>