<svg height="24" viewBox="0 0 24 24" width="24" xmlns="http://www.w3.org/2000/svg" xmlns:xlink="http://www.w3.org/1999/xlink"><linearGradient id="a" x1="0%" x2="100%" y1="100%" y2="0%"><stop offset="0" stop-color="#b0084d"/><stop offset="1" stop-color="#ff4f8b"/></linearGradient><g fill="none" fill-rule="evenodd"><path d="m0 0h24v24h-24z" fill="url(#a)"/><path d="m6.4951189 11.5607705c0 .4136287-.33541928.748949-.74693367.748949s-.74693367-.3353203-.74693367-.748949c0-.4136286.33541928-.748949.74693367-.748949s.74693367.3353204.74693367.748949zm5.9444305 7.4352764c-3.15093864 0-5.91939921-2.395432-6.7133917-5.6843822.00700876 0 .01401752.0020079.02202753.0020079.96420526 0 1.74818523-.7860953 1.74818523-1.7529021 0-.9166091-.7068836-1.66254624-1.6020025-1.73784272.94718398-2.82713183 3.57647059-4.81897471 6.54518144-4.81897471 1.3086358 0 2.4320401.2309092 3.339174.68569994l.4485607-.89853799c-1.0483104-.52506746-2.3229036-.79111502-3.7877347-.79111502-3.61752187 0-6.81652061 2.56610403-7.69361698 6.1291335-.44956196.3172491-.74593242.8393047-.74593242 1.431637 0 .535107.24530663 1.0089729.62377972 1.3302378.67083855 4.06601 3.99299124 7.1089917 7.81576968 7.1089917 1.1444306 0 2.4901127-.3604192 3.788736-1.0149965l-.4505632-.8975341c-1.1614519.5863086-2.3469337.9085775-3.3381728.9085775zm-3.67959946-9.03557755h3.47934916l-1.2175219 2.84520295c-.0270338.0632491-.0410513.1305139-.0410513.1977788v1.7027044l-.935169.4849093v-2.1876137c0-.0692728-.0150187-.1375416-.0420525-.2017946zm.52465582 6.48453285c.07909887.0481897.17021276.0722846.2603254.0722846.07909888 0 .1571965-.0180711.22928661-.0552174l1.93742173-1.0039531c.1662078-.0863399.270338-.2580159.270338-.4457551v-1.9055029l1.476846-3.44958278c.0660826-.15561272.0510639-.33431637-.0410513-.4748698-.0931164-.14055343-.2503129-.22588944-.4185231-.22588944h-5.00625786c-.16921152 0-.32640801.08633997-.41952441.22789735-.09211514.14155738-.10613266.32126498-.03904881.47587375l1.50988736 3.44857882v2.9064441c0 .1756918.09111389.3383322.24030038.4296919zm8.96720904-1.6213842c.4115144 0 .7469336.3353203.7469336.748949 0 .4136286-.3354192.7499529-.7469336.7499529s-.7469337-.3363243-.7469337-.7499529c0-.4136287.3354193-.748949.7469337-.748949zm0-8.06977474c.4115144 0 .7469336.33632427.7469336.74894898 0 .41362867-.3354192.74995294-.7469336.74995294s-.7469337-.33632427-.7469337-.74995294c0-.41262471.3354193-.74894898.7469337-.74894898zm0 4.05797824c.4115144 0 .7469336.3353204.7469336.748949 0 .4136287-.3354192.748949-.7469336.748949s-.7469337-.3353203-.7469337-.748949c0-.4136286.3354193-.748949.7469337-.748949zm-2.248811 1.2509256h.5827284c.2172716.7208383.8770963 1.2509255 1.6660826 1.2509255.9642052 0 1.7481852-.7860953 1.7481852-1.7529021s-.78398-1.75290202-1.7481852-1.75290202c-.7889863 0-1.448811.53008722-1.6660826 1.25092552h-.5827284v-3.05402522h.5827284c.2172716.72184225.8770963 1.25192947 1.6660826 1.25192947.9642052 0 1.7481852-.7870992 1.7481852-1.75390601 0-.96580284-.78398-1.75290205-1.7481852-1.75290205-.7889863 0-1.448811.53008722-1.6660826 1.25092552h-1.0833542c-.2763455 0-.5006258.22488549-.5006258.50197653v3.55600176h-1.0012516v1.0039531h1.0012516v3.5098199c0 .277091.2242803.5019765.5006258.5019765h1.0833542c.2172716.7208383.8770963 1.2519295 1.6660826 1.2519295.9642052 0 1.7481852-.7870992 1.7481852-1.753906s-.78398-1.7529021-1.7481852-1.7529021c-.7889863 0-1.448811.5300872-1.6660826 1.2509255h-.5827284z" fill="#fff"/></g></svg>