<svg height="24" viewBox="0 0 24 24" width="24" xmlns="http://www.w3.org/2000/svg" xmlns:xlink="http://www.w3.org/1999/xlink"><linearGradient id="a" x1="0%" x2="100%" y1="100%" y2="0%"><stop offset="0" stop-color="#bd0816"/><stop offset="1" stop-color="#ff5252"/></linearGradient><g fill="none" fill-rule="evenodd"><path d="m0 0h24v24h-24z" fill="url(#a)"/><path d="m15.7477853 16.8434953c.6077384 0 1.1031136-.4949462 1.1031136-1.1043365 0-.6084121-.4953752-1.1043365-1.1031136-1.1043365s-1.1031136.4959244-1.1031136 1.1043365c0 .6093903.4953752 1.1043365 1.1031136 1.1043365zm3.5643564 3.1565047-.6370505-.6309097-.6272798.6289534-.6917666-.6915553.6253257-.6260189-1.1715086-1.1610694c-.3116858.1878056-.6732022.3022497-1.0620766.3022497-1.1470818 0-2.080185-.9341376-2.080185-2.082491 0-1.1483535.9331032-2.082491 2.080185-2.082491s2.080185.9341375 2.080185 2.082491c0 .4039778-.1201798.7776329-.3195023 1.0965112l2.491532 2.4688621zm-6.2239447-8.6596022c0-1.01239-.6272799-1.64134335-1.6385487-1.64134335-1.0112689 0-1.63854877.62895335-1.63854877 1.64134335 0 1.0114118.62727987 1.6403652 1.63854877 1.6403652 1.0112688 0 1.6385487-.6289534 1.6385487-1.6403652zm.9340802.4890773c-.205185 1.2735572-1.2027749 2.1294424-2.5726289 2.1294424-1.54084163 0-2.61562016-1.0769481-2.61562016-2.6185197 0-1.54254974 1.07477853-2.6194979 2.61562016-2.6194979 1.369854 0 2.3674439.85588523 2.5726289 2.1304206h2.7025795v.9781546zm-7.05054713 4.8721878h5.84484103v.9781545h-5.86242832c-.42795727 0-.9594841 0-.9594841-.7551353v-2.6351484h-.99465868v-1.9563091h.99465868v-3.02738828h-.99465868v-1.95630909h.99465868v-1.59341376c0-.75611347.53152683-.75611347.9594841-.75611347h10.74778532c.4553153 0 .971209 0 .971209.75611347v7.04858163h-.9770714v-6.82654055h-10.72335856z" fill="#fff"/></g></svg>