<svg height="24" viewBox="0 0 24 24" width="24" xmlns="http://www.w3.org/2000/svg" xmlns:xlink="http://www.w3.org/1999/xlink"><linearGradient id="a" x1="0%" x2="100%" y1="100%" y2="0%"><stop offset="0" stop-color="#bd0816"/><stop offset="1" stop-color="#ff5252"/></linearGradient><g fill="none" fill-rule="evenodd"><path d="m0 0h24v24h-24z" fill="url(#a)"/><path d="m16.103283 17.9360099-4.392-8.93200003.999-1.504 5.138 10.43600003zm-2.88-11.65800003c-.079-.16-.237-.266-.416-.27800987-.174-.00099013-.35.07400987-.449.22300987l-1.639 2.468c-.097.148-.11.337-.031.497l4.655 9.46900003c.084.171.258.279.448.279h2.861c.173 0 .333-.089.425-.236.09-.146.099-.33.023-.485zm-6.84200003 11.65800003 3.535-5.913.65300003 1.366-1.55900003 2.601c-.093.154-.094.346-.006.503s.255.254.435.254h2.69200003l.575 1.189zm6.51500003-1.907c-.083-.173-.258-.282-.45-.282h-2.124l1.243-2.075c.087-.144.095-.321.022-.473l-1.171-2.448c-.081-.166-.245-.275-.42800003-.283-.183-.016-.359.084-.452.243l-4.465 7.469c-.093.154-.095.346-.006.503.089.156.255.253.434.253h8.00200003c.172 0 .332-.088.424-.234.091-.146.102-.328.027-.483z" fill="#fff"/></g></svg>