<svg height="24" viewBox="0 0 24 24" width="24" xmlns="http://www.w3.org/2000/svg" xmlns:xlink="http://www.w3.org/1999/xlink"><linearGradient id="a" x1="0%" x2="100%" y1="100%" y2="0%"><stop offset="0" stop-color="#c8511b"/><stop offset="1" stop-color="#f90"/></linearGradient><g fill="none" fill-rule="evenodd"><path d="m0 0h24v24h-24z" fill="url(#a)"/><path d="m11.604 5.032 3.121 1.136-3.121 1.149-3.121-1.149zm3.667 6.296c-.628.282-1.688.597-3.167.662v-3.39-.401l3.575-1.317v3.823c0 .267-.16.513-.408.623zm-7.742-.623v-3.823l3.575 1.317v.401 3.39c-1.479-.065-2.539-.38-3.166-.661-.249-.111-.409-.357-.409-.624zm0 1.536c.789.353 2.137.775 4.075.775s3.286-.422 4.076-.775c.607-.272.999-.876.999-1.536v-4.54-.001c0-.21-.132-.397-.329-.469l-4.575-1.665c-.109-.04-.233-.04-.342 0l-4.575 1.665c-.197.072-.329.259-.329.469v.001 4.54c0 .66.392 1.264 1 1.536zm11.679-.724c0 2.015-3.269 3.533-7.604 3.533s-7.604-1.518-7.604-3.533c0-.524.229-1.302 1.321-2.036l.558.83c-.401.269-.879.698-.879 1.206 0 1.198 2.711 2.533 6.604 2.533s6.604-1.335 6.604-2.533c0-.506-.475-.934-.875-1.203l.561-.829c1.086.734 1.314 1.51 1.314 2.032zm-5.604 6.473h1v-1h-1zm-2.5 1h1v-1h-1zm-2.5-1h1v-1h-1zm6.5-2h-2c-.276 0-.5.224-.5.5v.5h-2v-.5c0-.276-.224-.5-.5-.5h-2c-.276 0-.5.224-.5.5v2c0 .276.224.5.5.5h2v.5c0 .276.224.5.5.5h2c.276 0 .5-.224.5-.5v-.5h2c.276 0 .5-.224.5-.5v-2c0-.276-.224-.5-.5-.5z" fill="#fff"/></g></svg>