<svg height="24" viewBox="0 0 24 24" width="24" xmlns="http://www.w3.org/2000/svg" xmlns:xlink="http://www.w3.org/1999/xlink"><linearGradient id="a" x1="0%" x2="100%" y1="100%" y2="0%"><stop offset="0" stop-color="#bd0816"/><stop offset="1" stop-color="#ff5252"/></linearGradient><g fill="none" fill-rule="evenodd"><path d="m0 0h24v24h-24z" fill="url(#a)"/><path d="m12 18c-3.309 0-6-2.691-6-6s2.691-6 6-6 6 2.691 6 6-2.691 6-6 6zm0-13c-3.859 0-7 3.14-7 7s3.141 7 7 7 7-3.14 7-7-3.141-7-7-7zm2.446 7.563c0 .107-.027 2.432-1.946 2.78v-6.721l1.946.843zm-4.892-.009v-3.089l1.946-.843v6.721c-1.906-.351-1.945-2.683-1.946-2.789zm5.592-3.876-2.947-1.277c-.127-.055-.271-.055-.398 0l-2.947 1.277c-.182.079-.3.259-.3.459v3.417c0 1.327.72 3.837 3.446 3.837s3.446-2.504 3.446-3.828v-3.426c0-.2-.118-.38-.3-.459z" fill="#fff"/></g></svg>