<svg height="24" viewBox="0 0 24 24" width="24" xmlns="http://www.w3.org/2000/svg" xmlns:xlink="http://www.w3.org/1999/xlink"><linearGradient id="a" x1="0%" x2="100%" y1="100%" y2="0%"><stop offset="0" stop-color="#bd0816"/><stop offset="1" stop-color="#ff5252"/></linearGradient><g fill="none" fill-rule="evenodd"><path d="m0 0h24v24h-24z" fill="url(#a)"/><path d="m10.938 15.099h3.117v-2.132h-3.117zm.576-3.132h1.972c-.06-1.059-.344-1.467-.972-1.467-.647 0-.937.408-1 1.467zm3.041 0c.276 0 .5.223.5.5v3.132c0 .276-.224.5-.5.5h-4.118c-.276 0-.5-.224-.5-.5v-3.132c0-.277.224-.5.5-.5h.077c.049-.944.332-2.467 2-2.467 1.645 0 1.924 1.523 1.972 2.467zm-7.536 4.443.81-.586c-.61-.844-.955-1.825-1.043-2.857h1.214v-1h-1.213c.091-1.025.436-2 1.042-2.839l-.81-.586c-.731 1.011-1.139 2.188-1.232 3.425h-.787v1h.786c.09 1.244.498 2.428 1.233 3.443zm8.795.704c-.839.608-1.834.938-2.847 1.024v-1.138h-1v1.138c-1.015-.086-2.009-.416-2.848-1.024l-.586.81c1.012.733 2.194 1.141 3.434 1.232v.844h1v-.844c1.24-.091 2.421-.499 3.433-1.232zm-6.695-9.276c.839-.607 1.833-.938 2.848-1.023v1.185h1v-1.185c1.013.086 2.008.416 2.847 1.024l.586-.811c-1.01-.731-2.212-1.121-3.433-1.209v-.819h-1v.819c-1.223.088-2.424.478-3.434 1.21zm10.027 4.129c-.093-1.238-.501-2.416-1.232-3.425l-.81.587c.606.838.951 1.812 1.042 2.838h-1.146v1h1.146c-.087 1.033-.432 2.014-1.042 2.856l.81.587c.734-1.014 1.143-2.198 1.232-3.443h.854v-1zm-2.369-3.094 1.979-1.979-.707-.707-1.979 1.979zm-8.622 7.207-1.978 1.979.707.707 1.978-1.979zm2.343-6.279-4.142-4.141-.707.707 4.142 4.141zm5.726 5.716 3.38 3.38-.708.707-3.379-3.38z" fill="#fff"/></g></svg>