<svg height="24" viewBox="0 0 24 24" width="24" xmlns="http://www.w3.org/2000/svg" xmlns:xlink="http://www.w3.org/1999/xlink"><linearGradient id="a" x1="0%" x2="100%" y1="100%" y2="0%"><stop offset="0" stop-color="#c8511b"/><stop offset="1" stop-color="#f90"/></linearGradient><g fill="none" fill-rule="evenodd"><path d="m0 0h24v24h-24z" fill="url(#a)"/><path d="m11.1991144 11.534159c-.1979717.115861-.3209541.3306033-.3209541.5603276v6.660008l-4.87830314-2.7247303v-6.65900921l5.78917294-3.3379944 4.823311 2.37914502zm6.7990287-3.14522572c0-.23471834-.1269818-.45245705-.356949-.58230124l-5.6861877-2.80663204-.3999428.01398322-6.23410945 3.59468638c-.19797172.11586096-.32095415.33060327-.32095415.5593288v7.0685178c0 .2307231.12498215.4464642.32995286.5643228l5.57320384 3.1122653c.1009856.0579305.2129696.0868957.3249536.0868957.1129838 0 .2249678-.0289652.3249535-.0858969.1999715-.115861.3249536-.3306033.3249536-.5613264v-7.0565322l5.7901729-3.3389932c.202971-.11685977.3299528-.33459848.3299528-.56831802zm.0019997 7.38913302-4.0014283 2.892529v-2.1434279l1.9587202-1.3863364.0329952-.2077507c.0059992-.0389533.0099986-.0389533.0099986-.2167399v-2.4350779l1.9997143-1.0956852zm.6249108-5.6282461c-.2359663-.1418298-.5209256-.1488214-.7638909-.0209748l-2.3916583 1.3024371c-.2899586.1528166-.4689331.4504594-.4689331.7770675l.0019998 2.3851378-1.7047565 1.2055534c-.1849736.1198561-.2989573.326608-.2989573.5473431v3.003396c0 .2317219.1249822.4484618.3269533.5643228.0949864.0539353.2009713.0829005.3109556.0829005.1249821 0 .2539637-.0359569.3819454-.1118658l4.6543351-3.3639632c.2009713-.115861.3269533-.3316021.3269533-.5643228v-5.1438274c0-.2736716-.1409799-.5213744-.3749464-.6632042z" fill="#fff"/></g></svg>