<svg height="24" viewBox="0 0 24 24" width="24" xmlns="http://www.w3.org/2000/svg" xmlns:xlink="http://www.w3.org/1999/xlink"><linearGradient id="a" x1="0%" x2="100%" y1="100%" y2="0%"><stop offset="0" stop-color="#055f4e"/><stop offset="1" stop-color="#56c0a7"/></linearGradient><g fill="none" fill-rule="evenodd"><path d="m0 0h24v24h-24z" fill="url(#a)"/><path d="m4.51750533 7.96887941h2.00778015v-1.00389008h-2.00778015zm3.43531184 5.59969879h1.00389007v-2.0077801h-1.00389007zm0-6.0233404v2.00778014h1.00389007v-1.58413853h6.03940266v7.02723049h-13.99221983v-7.02723049h1.50583512v-1.00389008h-1.50583512v-5.96109926h6.9489271v6.4630443zm1.00389007-5.84063245 5.31961346 5.26038398h-5.31961346zm7.04329276 5.76232902c0-.1315096-.0511984-.26101142-.1495796-.35738487l-7.04329278-6.96398544c-.09536956-.09536956-.2228636-.14556406-.35236542-.14556406h-7.95281716c-.27707366 0-.50194504.22487138-.50194504.50194504v14.99610996c0 .2770736.22487138.501945.50194504.501945h14.99610996c.2770736 0 .501945-.2248714.501945-.501945z" fill="#fff" transform="translate(4 4)"/></g></svg>