<svg height="24" viewBox="0 0 24 24" width="24" xmlns="http://www.w3.org/2000/svg" xmlns:xlink="http://www.w3.org/1999/xlink"><linearGradient id="a" x1="0%" x2="100%" y1="100%" y2="0%"><stop offset="0" stop-color="#2e27ad"/><stop offset="1" stop-color="#527fff"/></linearGradient><g fill="none" fill-rule="evenodd"><path d="m0 0h24v24h-24z" fill="url(#a)"/><path d="m5 10.291c.868.464 2.183.709 3.5.709s2.632-.245 3.5-.709v1.709c0 .29-1.227 1-3.5 1s-3.5-.71-3.5-1zm3.5-2.291c2.273 0 3.5.71 3.5 1s-1.227 1-3.5 1-3.5-.71-3.5-1 1.227-1 3.5-1zm3.5 10c0 .29-1.227 1-3.5 1s-3.5-.71-3.5-1v-1.709c.868.464 2.183.709 3.5.709 1.351 0 2.602-.239 3.432-.657l-.45-.893c-.685.344-1.8.55-2.982.55-2.273 0-3.5-.71-3.5-1v-1.709c.868.464 2.183.709 3.5.709 1.568 0 3.133-.345 3.937-1h.563v-4c0-2.626-9-2.626-9 0v9c0 1.313 2.264 2 4.5 2s4.5-.687 4.5-2v-1.5h-1zm8-9v1h-1v1h-1v-1h-1v-1h1v-1h1v1zm-6-2h-1v-1h1v-1h1v1h1v1h-1v1h-1zm1.5 9.884c-.498-.96-1.317-1.826-2.227-2.353.919-.481 1.733-1.285 2.227-2.2.494.915 1.308 1.719 2.227 2.2-.91.527-1.729 1.393-2.227 2.353zm4-2.884c-1.636 0-3.5-1.864-3.5-3.5 0-.276-.224-.5-.5-.5s-.5.224-.5.5c0 1.636-1.864 3.5-3.5 3.5-.276 0-.5.224-.5.5s.224.5.5.5c1.57 0 3.5 2.068 3.5 3.75 0 .276.224.5.5.5s.5-.224.5-.5c0-1.682 1.93-3.75 3.5-3.75.276 0 .5-.224.5-.5s-.224-.5-.5-.5z" fill="#fff"/></g></svg>