<svg height="24" viewBox="0 0 24 24" width="24" xmlns="http://www.w3.org/2000/svg" xmlns:xlink="http://www.w3.org/1999/xlink"><linearGradient id="a" x1="0%" x2="100%" y1="100%" y2="0%"><stop offset="0" stop-color="#055f4e"/><stop offset="1" stop-color="#56c0a7"/></linearGradient><g fill="none" fill-rule="evenodd"><path d="m0 0h24v24h-24z" fill="url(#a)"/><path d="m14.826 18.802121c-.138-.841-.617-1.594-1.319-2.036-.424-.268-.911-.409-1.408-.409-1.365 0-2.502 1.058-2.726 2.445zm-4.115-5.143c0 .769.626 1.395 1.394 1.395.769 0 1.395-.626 1.395-1.395s-.626-1.394-1.395-1.394c-.768 0-1.394.625-1.394 1.394zm5.156 5.643c0 .276-.224.5-.5.5h-6.534c-.277 0-.5-.224-.5-.5 0-1.676 1.007-3.102 2.417-3.672-.626-.432-1.039-1.154-1.039-1.971 0-1.32 1.074-2.394 2.394-2.394 1.321 0 2.395 1.074 2.395 2.394 0 .818-.413 1.539-1.039 1.971.199.081.394.174.579.29 1.144.72 1.827 1.985 1.827 3.382zm3.424-6.338-.989 2.587c-.049.128-.15.231-.277.284-.126.051-.271.05-.395-.007l-.658-.297c-.234.382-.457.742-.948 1.112l-.601-.799c.342-.258.485-.491.701-.843.073-.118.15-.244.24-.38.136-.205.399-.281.622-.179l.571.256.611-1.596-.601-.191c-.233-.074-.379-.306-.344-.548.089-.611.073-1.231-.05-1.842-.048-.24.084-.479.313-.56600003l.586-.222-.7-1.56-.557.289c-.216.114-.482.053-.63-.143-.376-.498-.827-.925-1.34-1.266-.205-.135-.281-.398-.18-.621l.258-.574-1.685-.642-.238.435v2.162c1.768.613 2.989 2.29200003 2.989 4.18900003 0 .435-.065.871-.194 1.298l-.957-.29c.1-.332.151-.671.151-1.008 0-1.353-.796-2.56900003-1.989-3.12500003v1.92500003h-1v-4.92900003l-1.676-.806-1.324.79v1.945h-1v-1.349l-1 .597v1.561l1.548.704 1.734-.84.436.901-1.718.83200003v1.594h-1v-1.637l-1.584-.72200003-1.416.51v1.05600003l.821-.492.514.858-1.335.8v1.044l1.344.765 1.543-.925.513.857-1.4.841v1.581l1.178.883-.6.8-1.378-1.033c-.126-.095-.2-.243-.2-.4v-1.649l-1.747-.994c-.156-.089-.253-.255-.253-.435v-3.90800003c0-.211.132-.399.33-.47l1.67-.601v-1.766c0-.176.093-.339.244-.429l3.799-2.265c.142-.087.322-.094.472-.022l1.758.846.298-.542c.122-.218.387-.313.616-.226l2.587.985c.129.049.232.149.284.276.053.127.051.271-.005.396l-.308.684c.354.271.68.578.972.918l.664-.345c.121-.064.266-.074.394-.029.13.045.236.142.292.268l1.134 2.528c.057.125.059.26900003.006.39600003s-.156.227-.285.276l-.699.265c.06.445.072.892.038 1.337l.714.227c.131.041.24.136.299.26.06.123.067.267.017.395z" fill="#fff"/></g></svg>