<svg height="24" viewBox="0 0 24 24" width="24" xmlns="http://www.w3.org/2000/svg" xmlns:xlink="http://www.w3.org/1999/xlink"><linearGradient id="a" x1="0%" x2="100%" y1="100%" y2="0%"><stop offset="0" stop-color="#2e27ad"/><stop offset="1" stop-color="#527fff"/></linearGradient><g fill="none" fill-rule="evenodd"><path d="m0 0h24v24h-24z" fill="url(#a)"/><path d="m19.0003749 19h-5.9977509v-1.835l.698738-.907 1.5514182.892c.1539423.09.3448707.089.498813-.001.1549418-.089.2499062-.253.2499062-.432v-.717h2.9988755zm.4998125-4h-3.9985005c-.2758966 0-.4998126.224-.4998126.5v.353l-1.1805573-.68c-.2169186-.125-.4918156-.07-.6437586.129l-1.0705985 1.387c-.0679745.088-.103961.195-.103961.306v2.505c0 .276.223916.5.4998125.5h6.997376c.2758966 0 .4998126-.224.4998126-.5v-4c0-.276-.223916-.5-.4998126-.5zm-14.49456451-7h-.99962514v-2.5c0-.276.22391603-.5.49981257-.5h2.49906285v1h-1.2805198l1.17855804 1.164-.70273648.712-1.19455204-1.18zm.72672748 9h1.2725228v1h-2.49906285c-.27589654 0-.49981257-.224-.49981257-.5v-2.5h.99962514v1.312l1.19655129-1.169.69873798.714zm10.55704113-11h-1.2875172v-1h2.4990628c.2758966 0 .4998126.224.4998126.5v2.5h-.9996251v-1.298l-1.1785581 1.173-.7047357-.709zm1.034612 5.181c0-.551-.9046608-1.174-2.4820692-1.707l.31988-.948c2.1282019.72 3.1618143 1.589 3.1618143 2.655 0 1.072-1.1525677 2.078-3.1618143 2.757l-.31988-.947c1.4844433-.502 2.4820692-1.23 2.4820692-1.81zm-12.32437836 0c0 .6.83368737 1.274 2.17518431 1.758l-.33987255.94c-1.82831438-.66-2.8349369-1.618-2.8349369-2.698 0-1.065.98063226-1.981 2.8349369-2.651l.33987255.94c-1.36148945.492-2.17518431 1.132-2.17518431 1.711zm6.00374856 2.841c-1.12757712 0-1.8343121-.284-1.99925025-.429l.00299888-3.55c.85068099.284 1.96526307.299 2.16018997.299.7507184 0 1.3634886-.09 1.8323128-.248l.0029989 3.499c-.1649381.145-.8716731.429-1.9992503.429zm.1639386-5.271c.9316506 0 1.4914407.183 1.7293515.314-.2449082.122-.8096964.277-1.7293515.277-.8876672 0-1.58440589-.143-1.94826944-.279.3658628-.149 1.07359744-.312 1.94826944-.312zm2.8349369 4.914-.0039985-4.593c0-.802-1.1105836-1.321-2.8309384-1.321-1.0925903 0-3.15781586.276-3.15881549 1.321l-.0039985 4.594c0 .932 1.5544171 1.356 2.99887539 1.356 1.4444584 0 2.9988755-.424 2.9988755-1.357z" fill="#fff"/></g></svg>