<svg height="24" viewBox="0 0 24 24" width="24" xmlns="http://www.w3.org/2000/svg" xmlns:xlink="http://www.w3.org/1999/xlink"><linearGradient id="a" x1="0%" x2="100%" y1="100%" y2="0%"><stop offset="0" stop-color="#1b660f"/><stop offset="1" stop-color="#6cae3e"/></linearGradient><g fill="none" fill-rule="evenodd"><path d="m0 0h24v24h-24z" fill="url(#a)"/><path d="m6.5035631 6.00150113c.27539194 0 .50071262.22416812.50071262.50037528 0 .27620715-.22532068.50037528-.50071262.50037528s-.50071262-.22416813-.50071262-.50037528c0-.27620716.22532068-.50037528.50071262-.50037528zm0 2.00150112c.2303278 0 .44763708-.05704278.64391643-.15011258l7.15217907 7.15536653h-1.2868314v1.0007506h2.5035631c.2763933 0 .5007126-.2241682.5007126-.5003753v-2.5018764h-1.0014253v1.3019764l-7.16019043-7.16337248c.09313255-.19614711.15021379-.41230923.15021379-.64348261 0-.82762072-.67395919-1.50112585-1.50213786-1.50112585s-1.50213786.67350513-1.50213786 1.50112585c0 .82762071.67395919 1.50112584 1.50213786 1.50112584zm8.5121145 3.00225165h1.0014253v-3.00225165h-1.0014253zm-7.00997664 5.0037529h3.00427574v-1.0007506h-3.00427574zm-2.5035631 0c-.27539194 0-.50071262-.2241682-.50071262-.5003753 0-.2762072.22532068-.5003753.50071262-.5003753s.50071262.2241681.50071262.5003753c0 .2762071-.22532068.5003753-.50071262.5003753zm10.01425244-10.00750567c-.275392 0-.5007127-.22416813-.5007127-.50037529 0-.27620715.2253207-.50037528.5007127-.50037528.2753919 0 .5007126.22416813.5007126.50037528 0 .27620716-.2253207.50037529-.5007126.50037529zm1.3389055.16612459c.1011439-.20215161.1632323-.42631974.1632323-.66649988 0-.82762071-.6739592-1.50112584-1.5021378-1.50112584-.8281787 0-1.5021379.67350513-1.5021379 1.50112584 0 .82762072.6739592 1.50112585 1.5021379 1.50112585.2193121 0 .4266071-.05003753.6138736-.13410058 1.4801065 1.17688267 2.7769522 2.49086815 2.8620734 5.06079559.073104 2.2136603-.5537882 4.0430323-1.8145826 5.2929697-1.2577901 1.2469352-3.0954054 1.8603953-5.2945352 1.7683263-2.538613-.1030773-3.84647436-1.3900425-5.02014474-2.8571429.08812542-.1901426.14120096-.401301.14120096-.6244683 0-.8276207-.67395919-1.5011259-1.50213786-1.5011259s-1.50213786.6735052-1.50213786 1.5011259.67395919 1.5011258 1.50213786 1.5011258c.23633636 0 .45664991-.060045.65593353-.1571178 1.26379865 1.5611709 2.79197357 3.0202652 5.68408961 3.1383537.1562224.0060045.3104419.0090068.4626585.0090068 2.2882567 0 4.2099917-.7105329 5.57894-2.0685514 1.4620809-1.4500876 2.1921199-3.5366525 2.110003-6.0355267-.0981397-2.92519385-1.5652277-4.46134597-3.1384667-5.72829618z" fill="#fff"/></g></svg>