<svg height="24" viewBox="0 0 24 24" width="24" xmlns="http://www.w3.org/2000/svg" xmlns:xlink="http://www.w3.org/1999/xlink"><linearGradient id="a" x1="0%" x2="100%" y1="100%" y2="0%"><stop offset="0" stop-color="#055f4e"/><stop offset="1" stop-color="#56c0a7"/></linearGradient><g fill="none" fill-rule="evenodd"><path d="m0 0h24v24h-24z" fill="url(#a)"/><path d="m15.682 10.682c-.195.195-.512.195-.707 0l-1.121-1.121c-.143-.143-.359-.185-.545-.108-.187.077-.309.259-.309.461v5.086c0 1.103-.897 2-2 2-1.102 0-2-.897-2-2s.898-2 2-2c.137 0 .272.015.402.041.143.029.3-.008.415-.104.116-.094.183-.236.183-.386v-5.051c0-.064.013-.128.039-.19.051-.124.148-.219.271-.271.123-.049.263-.048.38 0 .063.026.12.063.164.108l2.828 2.828c.195.195.195.512 0 .707zm-2.12-4.241c-.138-.138-.302-.248-.488-.325-.366-.152-.782-.151-1.147 0-.37.153-.658.441-.811.811-.077.184-.116.377-.116.573v4.5c-1.654 0-3 1.346-3 3 0 1.655 1.346 3 3 3 1.655 0 3-1.345 3-3v-3.878l.268.268c.586.583 1.537.584 2.121 0 .585-.585.585-1.537 0-2.122zm5.438 5.743c-.879.628-1.933.955-3 .954v1.007c.004 0 .009.001.013.001 1.042 0 2.072-.269 2.987-.776v4.13c0 .828-.672 1.5-1.5 1.5h-11c-.827 0-1.5-.672-1.5-1.5v-3.793l.354-.353c.969-.968 2.295-1.498 3.646-1.494v-.999c-1.457-.001-2.884.52-4 1.472v-5.833c0-.827.673-1.5 1.5-1.5h11c.828 0 1.5.673 1.5 1.5zm-1.5-8.184h-11c-1.379 0-2.5 1.122-2.5 2.5v11c0 1.379 1.121 2.5 2.5 2.5h11c1.379 0 2.5-1.121 2.5-2.5v-11c0-1.378-1.121-2.5-2.5-2.5z" fill="#fff"/></g></svg>