<svg height="24" viewBox="0 0 24 24" width="24" xmlns="http://www.w3.org/2000/svg" xmlns:xlink="http://www.w3.org/1999/xlink"><linearGradient id="a" x1="0%" x2="100%" y1="100%" y2="0%"><stop offset="0" stop-color="#4d27a8"/><stop offset="1" stop-color="#a166ff"/></linearGradient><g fill="none" fill-rule="evenodd"><path d="m0 0h24v24h-24z" fill="url(#a)"/><path d="m14.2426188 12.1331716c.2024552.1864655.3051936.438446.3051936.7488858 0 .3376538-.1238905.6118085-.3676424.8144007-.2417375.1995685-.5650614.3003606-.9639283.3003606-.311237 0-.6234812-.0675307-.9276676-.2005764l-.0453258-.0191505v-.540246l.0987095.0322535c.6647781.218719 1.1502676.2227507 1.3909978.0231822.1148253-.0947446.1702235-.2298061.1702235-.4102241 0-.218719-.0684923-.5090004-.6617564-.5090004-.1551149 0-.3031791.0080634-.4512433.0241901l-.0836009.0090713v-.4334063l.9175952-.9998583h-1.3325779v-.5483093h2.1162103v.487834l-.8924142.9444226c.3001574.0141109.5439093.1068397.7272269.2761705m-2.8031476-.0836574c.2105131.1965447.3172805.4696914.3172805.8133927 0 .3366458-.1238905.6138243-.3686497.823472-.2407303.205616-.5620397.3104398-.9518414.3104398-.3374252 0-.65873463-.0675307-.95385582-.2005764l-.04431854-.0201584v-.5392381l.09971672.0322535c.66779984.2156953 1.16537614.2267824 1.40711364.0211664.1138181-.0967605.1692162-.2348458.1692162-.4223192 0-.2046081-.0523764-.3527726-.1571293-.4404617-.1913755-.1602596-.5952786-.1642913-1.29027388-.0886971l-.08360088.0090713v-.4031687l.09770223-1.5199458h1.90771173v.5483093h-1.3607807l-.0523764.8144007c.1440352-.0231822.2769909-.0342693.3958451-.0342693.3666352 0 .6587347.0997842.8682405.296329m3.5545483 3.3714978c-1.198615.2156952-2.2552093.6874026-2.9945231 1.093595-.7383066-.4061924-1.7949009-.8778998-2.99452315-1.093595-.19137552-.0342693-1.8724583-.359828-1.8724583-1.1792683 0-.3830102.12288322-.6309589.45124331-1.1933792.37469311-.6470857.88838527-1.5320409.88838527-2.777832 0-.77106008-.17525968-1.51389833-.52175008-2.21339594 1.36279509.56242027 2.86257475.44650928 4.04910295-.25097249 1.1865282.69748177 2.6853006.81339276 4.0501101.25097249-.3464904.69949761-.52175 1.44233586-.52175 2.21339594 0 1.2457911.5136921 2.1307463.8883852 2.777832.3273529.5624203.4502361.810369.4502361 1.1933792 0 .8194403-1.6800755 1.144999-1.8724583 1.1792683m1.5410765-5.1504795c0-.75594126.2135348-1.48164484.6345609-2.15493649.1158326-.18344173.0997167-.4192954-.0372679-.58661039l-.3968523-.48884199c-.1541077-.19049719-.4230406-.24089327-.6355682-.12397436-1.2973245.7176402-2.7245829.63196686-3.8124016-.12195852-.1732452-.11994267-.4018886-.11994267-.5751338 0-1.0878187.75392538-2.51709158.8385908-3.81240162.12195852-.21152031-.11691891-.48045326-.06652283-.63556815.12397436l-.39685238.48884199c-.13698457.16731499-.15310041.40316866-.03726786.58661039.42102613.67329165.63456091 1.39899523.63456091 2.15493649 0 .9746602-.3998741 1.6640786-.75341517 2.2708474-.31425874.5422618-.58621341 1.0099375-.58621341 1.7003638 0 1.0563019 1.01026125 1.8676788 2.70141643 2.1710632 1.19962225.2156952 2.25017315.7257036 2.91998745 1.1157693.0785646.0453564.1661945.0685386.2528171.0685386.0876298 0 .1752597-.0231822.2528171-.0685386.6698143-.3900657 1.7203651-.9000741 2.9199874-1.1157693 1.6921624-.3033844 2.7014164-1.1147613 2.7014164-2.1710632 0-.6904263-.2709474-1.158102-.5862134-1.6993559-.3525338-.6077767-.7524079-1.2971951-.7524079-2.2718553m-.96695 7.1028237c-1.6095687.2892735-2.9794145 1.1097217-3.5686496 1.5058349-.5892351-.3961132-1.9580737-1.2165614-3.56764245-1.5058349-.80276991-.1441328-3.42461442-.7831551-3.42461442-2.9380915 0-.9091454.34951212-1.5098666.71816179-2.1468731.36562795-.630959.74435002-1.2830843.74435002-2.1912217 0-1.26594953-.65067674-2.2013008-1.07976078-2.67905566.41196097-.50093705 1.16235442-1.41814574 1.64180044-2.0269304.75744413.64910153 1.62064841 1.00086618 2.47780925 1.00086618.96090655 0 1.76468365-.35982803 2.48989615-1.12181678.7262197.76198875 1.5299968 1.12181678 2.4909033 1.12181678.8571609 0 1.7203652-.35176465 2.4778093-1.00086618.479446.60878466 1.2298395 1.52599335 1.6418004 2.0269304-.429084.47775486-1.0797607 1.41310613-1.0797607 2.67905566 0 .9081374.378722 1.5602627.74435 2.1912217.3686496.6370065.7181618 1.2377277.7181618 2.1468731 0 2.1549364-2.6218445 2.7939587-3.4246145 2.9380915m3.5767076-5.5909413c-.3253383-.5624203-.6073654-1.0482385-.6073654-1.685245 0-1.35565455 1.0606232-2.24464143 1.0696884-2.25169689.1047529-.08466541.1712307-.20763185.1843248-.34168543s-.0271955-.26709923-.1128108-.37091516c-.0181303-.02217428-1.8341832-2.22347513-2.2461442-2.78992708-.0886371-.12195852-.2266289-.19755264-.3767076-.20662394-.1420207-.00604753-.2961284.04938816-.3988668.1582437-.6567202.70252138-1.4262512 1.08956328-2.1665723 1.08956328-.8229147 0-1.4484104-.35781218-2.0910292-1.1974109-.1893611-.24895664-.6103872-.24895664-.798741 0-.6426188.83959872-1.2681145 1.1974109-2.09102925 1.1974109-.7413283 0-1.50985206-.3870419-2.16757948-1.08956328-.10173119-.10885554-.2447592-.16328331-.39785961-.1582437-.15108593.0090713-.28807051.08466542-.37670759.20662394-.41196097.56645195-2.22801385 2.7677528-2.2471514 2.78992708-.08561536.10381593-.12590494.23686158-.11180359.37091516.01309412.13405358.07957193.25702002.18432484.34168543.01007239.00806338 1.06968838.88092351 1.06968838 2.25169689 0 .6370065-.28202707 1.1228247-.60736544 1.685245-.40188857.6904263-.85514636 1.4725735-.85514636 2.6528498 0 1.9815739 1.59043122 3.4511236 4.25457979 3.9308943 1.85936421.3336221 3.42360721 1.51793 3.43871581 1.5300251.0906515.0695466.1984262.1038159.3062008.1038159.1087818 0 .2165565-.0342693.307208-.1038159.0161159-.0120951 1.5702865-1.1943872 3.439723-1.5300251 2.6631414-.4797707 4.2535726-1.9493204 4.2535726-3.9308943 0-1.1802763-.4532578-1.9624235-.8551464-2.6528498" fill="#fff"/></g></svg>