<svg height="24" viewBox="0 0 24 24" width="24" xmlns="http://www.w3.org/2000/svg" xmlns:xlink="http://www.w3.org/1999/xlink"><linearGradient id="a" x1="0%" x2="100%" y1="100%" y2="0%"><stop offset="0" stop-color="#4d27a8"/><stop offset="1" stop-color="#a166ff"/></linearGradient><g fill="none" fill-rule="evenodd"><path d="m0 0h24v24h-24z" fill="url(#a)"/><path d="m14.146 15.146.707.707-2 2c-.098.098-.226.147-.353.147-.128 0-.256-.049-.354-.147l-2-2 .707-.707 1.147 1.146v-1.792h1v1.792zm-1.646 3.854c-3.584 0-6.5-2.917-6.5-6.5 0-3.584 2.916-6.5 6.5-6.5 3.583 0 6.5 2.916 6.5 6.5 0 3.583-2.917 6.5-6.5 6.5zm0-14c-4.136 0-7.5 3.364-7.5 7.5 0 4.135 3.364 7.5 7.5 7.5 4.135 0 7.5-3.365 7.5-7.5 0-4.136-3.365-7.5-7.5-7.5zm1.035 6.298c-.035.07-.053.146-.053.224v1.478h-1.965v-1.478c0-.078-.018-.154-.053-.224l-1.154-2.298h4.379zm1.965-3.298h-6c-.174 0-.335.089-.426.237s-.099.332-.022.487l1.465 2.917v1.859c0 .276.224.5.5.5h2.965c.276 0 .5-.224.5-.5v-1.859l1.465-2.917c.077-.155.069-.339-.022-.487s-.252-.237-.425-.237z" fill="#fff"/></g></svg>