<svg height="24" viewBox="0 0 24 24" width="24" xmlns="http://www.w3.org/2000/svg" xmlns:xlink="http://www.w3.org/1999/xlink"><linearGradient id="a" x1="0%" x2="100%" y1="100%" y2="0%"><stop offset="0" stop-color="#1b660f"/><stop offset="1" stop-color="#6cae3e"/></linearGradient><g fill="none" fill-rule="evenodd"><path d="m0 0h24v24h-24z" fill="url(#a)"/><path d="m14.378 12.6117619h-.901l-.87-1.245 1.574-2.23200002h.866l-1.571 2.19200002zm-1.916-1.044.404.57-.04.058-1.078 1.575h-.876zm-.011-.406-1.437-2.02700002h.899l.03.042.965 1.37700002zm-1.544 1.059c0 .492-.183.896-.547 1.201-.357.3-.833.453-1.411.453-.59 0-1.125-.114-1.59-.339l-.055-.027v-.603l.134.048c1.023.372 1.948.401 2.444.008.235-.184.35-.43.35-.749 0-.188-.061-.345-.185-.478-.13-.14-.346-.268-.642-.381l-.905-.351c-.415-.162-.725-.359-.922-.586-.203-.234-.305-.52500002-.305-.86600002 0-.46.168-.838.499-1.126.472-.408 1.191-.523 2.031-.341.258.056.504.135.732.236l.06.026v.605l-.133-.047c-1.007-.354-1.838-.362-2.237-.037-.192.156-.284.375-.284.669 0 .164.028.295.083.39.058.09800002.154.18800002.288.27000002.142.088.35.183.618.284l.837.321c.389.151.678.341.86.565.187.227.28.515.28.855zm-6.907-4.21900002h3.236v.614h-2.576v1.86900002h2.178v.613h-2.178v2.514h-.66zm15 7.11000002c0 .276-.225.5-.5.5h-3c-.275 0-.5-.224-.5-.5v-.5h4zm-3-1.5h2v-2h-2zm3.5 0h-.5v-2.5c0-.276-.224-.5-.5-.5h-3c-.276 0-.5.224-.5.5v2.5h-.5c-.276 0-.5.224-.5.5v1c0 .827.673 1.5 1.5 1.5h3c.827 0 1.5-.673 1.5-1.5v-1c0-.276-.224-.5-.5-.5z" fill="#fff"/></g></svg>