<svg height="24" viewBox="0 0 24 24" width="24" xmlns="http://www.w3.org/2000/svg" xmlns:xlink="http://www.w3.org/1999/xlink"><linearGradient id="a" x1="0%" x2="100%" y1="100%" y2="0%"><stop offset="0" stop-color="#b0084d"/><stop offset="1" stop-color="#ff4f8b"/></linearGradient><g fill="none" fill-rule="evenodd"><path d="m0 0h24v24h-24z" fill="url(#a)"/><path d="m11.979 5c-3.849 0-6.979 3.131-6.979 6.979s3.13 6.979 6.979 6.979c1.668 0 3.275-.607 4.532-1.68l-1.18-.29.238-.971 2.064.506-.004.015c.022.005.044-.004.066.004.192.075.319.26.319.467v1.97h-1v-.811c-1.414 1.148-3.194 1.79-5.035 1.79-4.4 0-7.979-3.58-7.979-7.979s3.579-7.979 7.979-7.979 7.979 3.58 7.979 7.979h-1c0-3.848-3.13-6.979-6.979-6.979zm-.558 6.41c.149-.155.348-.242.562-.246h.016c.208 0 .404.079.554.224.155.148.241.347.246.561.004.214-.075.416-.223.571-.308.318-.814.327-1.132.022-.319-.306-.328-.814-.023-1.132zm.578 2.354c.472 0 .945-.184 1.297-.551.334-.347.512-.803.502-1.284-.008-.481-.205-.929-.551-1.262-.716-.688-1.859-.666-2.546.049-.689.716-.666 1.858.049 2.547.349.335.798.501 1.249.501zm-2.256-3.272-.547-.974 1.328-.963.751.815c.096.103.251.164.371.161l.683-.004c.138-.001.27-.059.364-.161l.746-.809 1.327.965-.545.97c-.068.121-.083.265-.041.398l.204.638c.043.134.141.243.268.303l1.014.465-.508 1.56-1.095-.219c-.139-.027-.28.004-.394.086l-.543.397c-.112.083-.185.208-.202.346l-.129 1.103-1.64-.001-.127-1.095c-.017-.137-.089-.262-.199-.344l-.549-.407c-.113-.083-.256-.116-.396-.088l-1.086.217-.506-1.561 1.017-.466c.127-.058.224-.167.268-.3l.206-.632c.043-.133.029-.278-.04-.4zm-2.272 1.074c-.23.106-.346.368-.267.609l.78 2.408c.077.241.327.386.573.336l1.306-.261.196.146.153 1.321c.03.252.244.442.497.442l2.532.002c.254 0 .467-.19.497-.442l.155-1.328.189-.138 1.315.263c.25.05.495-.094.574-.335l.783-2.407c.079-.241-.036-.503-.266-.609l-1.218-.559-.07-.222.656-1.167c.125-.222.063-.501-.142-.65l-2.047-1.489c-.204-.149-.489-.121-.661.066l-.901.977-.244.001-.903-.98c-.172-.187-.455-.214-.662-.066l-2.048 1.486c-.206.149-.267.428-.142.65l.658 1.171-.07.215z" fill="#fff"/></g></svg>