<svg height="24" viewBox="0 0 24 24" width="24" xmlns="http://www.w3.org/2000/svg" xmlns:xlink="http://www.w3.org/1999/xlink"><linearGradient id="a" x1="0%" x2="100%" y1="100%" y2="0%"><stop offset="0" stop-color="#b0084d"/><stop offset="1" stop-color="#ff4f8b"/></linearGradient><g fill="none" fill-rule="evenodd"><path d="m0 0h24v24h-24z" fill="url(#a)"/><path d="m9.658 6.8615 2.003-.668v7.09c-1.856-.29-2.003-2.09-2.003-2.11zm5.007 4.312c0 .02-.148 1.82-2.004 2.11v-7.09l2.004.668zm-2.504 3.169c2.647 0 3.504-2.135 3.504-3.169v-4.672c0-.216-.138-.407-.342-.474l-3.004-1.002c-.103-.034-.213-.034-.316 0l-3.003 1.002c-.204.067-.342.258-.342.474v4.672c0 1.034.856 3.169 3.503 3.169zm5.729 2.274c-.238 0-.432-.193-.432-.432s.194-.433.432-.433c.239 0 .433.194.433.433s-.194.432-.433.432zm-5.729 1.866c-.238 0-.433-.194-.433-.433s.195-.433.433-.433.433.194.433.433-.195.433-.433.433zm-5.729-1.866c-.238 0-.432-.193-.432-.432s.194-.433.432-.433c.239 0 .433.194.433.433s-.194.432-.433.432zm11.458-1.865c-.283 0-.545.085-.767.227l-.496-.498c.787-.701 1.464-1.579 1.963-2.598l-.899-.439c-1.142 2.333-3.313 3.841-5.53 3.841-2.274 0-4.636-1.58-5.743-3.841l-.899.439c.438.893 1.118 1.781 1.967 2.53l-.477.462c-.177-.078-.372-.123-.577-.123-.79 0-1.432.643-1.432 1.433s.642 1.432 1.432 1.432 1.433-.642 1.433-1.432c0-.219-.054-.425-.142-.611l.56-.541c.973.662 2.117 1.109 3.378 1.208v.471c-.543.204-.933.725-.933 1.338 0 .79.643 1.433 1.433 1.433s1.433-.643 1.433-1.433c0-.613-.39-1.134-.933-1.338v-.468c1.114-.095 2.203-.485 3.172-1.142l.687.688c-.037.126-.062.257-.062.395 0 .79.642 1.432 1.432 1.432s1.433-.642 1.433-1.432-.643-1.433-1.433-1.433z" fill="#fff"/></g></svg>