<svg height="24" viewBox="0 0 24 24" width="24" xmlns="http://www.w3.org/2000/svg" xmlns:xlink="http://www.w3.org/1999/xlink"><linearGradient id="a" x1="0%" x2="100%" y1="100%" y2="0%"><stop offset="0" stop-color="#2e27ad"/><stop offset="1" stop-color="#527fff"/></linearGradient><g fill="none" fill-rule="evenodd"><path d="m0 0h24v24h-24z" fill="url(#a)"/><path d="m13.000369 20h.9841309v-2.0645161h-.9841309zm-2.8402017 0h.9841309v-2.0645161h-.9841309zm4.8094477-1.0322581h.9841308v-2.0645161h-.9841308zm-6.86431299 0h.98413088v-2.0645161h-.98413088zm3.94046009-9.27690319c-2.11981795 0-3.06163121-.58941936-3.06163121-.81341936v-1.67329032c.61311354.28903226 1.57559351.48412903 3.06163121.48412903 1.2823225 0 2.2890884-.18477419 2.970107-.51716129v1.70632258c0 .23122581-.8837495.81341936-2.970107.81341936zm0 3.06890319c-1.8737852 0-3.06163121-.8134193-3.06163121-1.1571613v-1.4379354c.7902571.3912258 1.94169021.5584516 3.06163121.5584516 1.2724812 0 2.2851519-.1961291 2.970107-.5419355v1.4214193c0 .3354839-1.0412105 1.1571613-2.970107 1.1571613zm0 2.6116129c-1.8737852 0-3.06163121-.8381935-3.06163121-1.192258v-1.1612903c.74301882.4696774 1.83245171.7741935 3.06163121.7741935 1.1888301 0 2.2448025-.2983226 2.970107-.7597419v1.1468387c0 .3643871-1.1219092 1.192258-2.970107 1.192258zm0-10.33909674c2.0863575 0 2.970107.60593549 2.970107.84645162 0 .22916129-.8542256.77729032-2.970107.77729032-2.23004061 0-3.06163121-.47690323-3.06163121-.77729032 0-.19716129.95460696-.84645162 3.06163121-.84645162zm0-1.03225806c-2.0145159 0-4.0457621.58116129-4.0457621 1.87870968v8.30038712c0 1.2056774 1.85311846 2.2245161 4.0457621 2.2245161 2.1798499 0 3.9542379-.9981935 3.9542379-2.2245161v-8.30038712c0-1.14167742-1.5519744-1.87870968-3.9542379-1.87870968z" fill="#fff"/></g></svg>