<svg height="24" viewBox="0 0 24 24" width="24" xmlns="http://www.w3.org/2000/svg" xmlns:xlink="http://www.w3.org/1999/xlink"><linearGradient id="a" x1="0%" x2="100%" y1="100%" y2="0%"><stop offset="0" stop-color="#c8511b"/><stop offset="1" stop-color="#f90"/></linearGradient><g fill="none" fill-rule="evenodd"><path d="m0 0h24v24h-24z" fill="url(#a)"/><path d="m18.9951095 14.0569914-1.9585315-1.5207665v-2.82896346c0-.17184364-.0894352-.33176749-.2371541-.42215923l-2.8036444-1.71744305v-2.18330818l4.99933 2.92630841zm.7586923-6.45655282-6.0042205-3.5153447c-.1547531-.09039174-.348697-.09237837-.5054599-.00397326-.155758.08840511-.2532324.25230222-.2532324.43109906v3.33158128c0 .17184363.0904401.33176748.2371541.42215922l2.8036444 1.71744306v2.79419736c0 .1519774.0713473.2960082.192939.3903732l2.9624171 2.302506c.0904402.0705255.1989683.1062848.3105112.1062848.0743619 0 .1497286-.0168863.2190661-.0506591.1728411-.0824452.2833791-.2562755.2833791-.4459988v-7.05254232c0-.1758169-.0934548-.33872069-.2461982-.4271258zm-7.2191331 11.35856642-6.52977823-3.2888687v-7.36047022l4.98224693-2.93822821v2.1843015l-2.73933141 1.71446311c-.14470423.09138505-.23313459.24932227-.23313459.42017259v4.56627283c0 .18873.10752328.3605737.27935955.4450055l3.96228315 1.9409391c.1406846.0695321.3085013.0675455.4501909-.0029799l3.110136-1.5644725 2.0891673 1.7402894zm3.6738796-4.8553277c-.1527434-.1281378-.3728144-.1519773-.5516849-.0625789l-3.1814832 1.6002318-3.45581833-1.6926102v-3.98617639l2.73832653-1.71446311c.1457091-.09138506.2341395-.24932228.2341395-.4201726v-3.33058795c0-.17879685-.0974744-.34368728-.2542373-.43209239-.1587727-.08939842-.3527166-.08641847-.5054599.0059599l-5.98713743 3.52925112c-.15173846.08939842-.24519327.2513089-.24519327.4271258v7.94652662c0 .1867433.1055135.3575937.2743351.4420255l7.0081061 3.5302444c.0703423.0357594.1487238.0536391.2281101.0536391.0633081 0 .1266162-.0119198.1879146-.0357594l6.357942-2.5359353c.1627922-.0655588.2803644-.2105829.3085013-.3834199.0271321-.1718436-.0381858-.3456739-.1728411-.4579186z" fill="#fff"/></g></svg>