<svg height="24" viewBox="0 0 24 24" width="24" xmlns="http://www.w3.org/2000/svg" xmlns:xlink="http://www.w3.org/1999/xlink"><linearGradient id="a" x1="0%" x2="100%" y1="100%" y2="0%"><stop offset="0" stop-color="#c8511b"/><stop offset="1" stop-color="#f90"/></linearGradient><g fill="none" fill-rule="evenodd"><path d="m0 0h24v24h-24z" fill="url(#a)"/><path d="m8.35471698 19h-3.02094344l3.54300539-7.194 1.51253517 3.026zm.98221932-8.565c-.08666641-.173-.26722143-.282-.46428434-.282h-.00206349c-.19706291 0-.37761793.111-.46325259.284l-4.35705061 8.848c-.07634898.154-.06499981.337.0288888.482.09492036.145.25896749.233.43642728.233h4.16514642c.20015813 0 .3817449-.111.46737957-.286l2.28015196-4.671c.0660316-.136.0649998-.295-.0020635-.432zm9.6313207 8.565h-3.1695144l-5.624031-11.711c-.0846029-.176-.26722143-.289-.46737957-.289h-2.09134302l.00206349-2h4.1703051l5.5982374 11.71c.084603.177.2682532.29.4684113.29h1.1132507zm.5158715-3h-1.2999961l-5.5972057-11.71c-.0846029-.177-.2682532-.29-.4694431-.29h-5.01427085c-.28476106 0-.51587149.224-.51587149.5l-.00309523 3c0 .132.05468238.259.15166622.354.09595209.093.22698345.146.36420527.146h2.2780885l5.62403098 11.711c.0846029.176.2672214.289.4673796.289h4.0145119c.2847611 0 .5158715-.224.5158715-.5v-3c0-.276-.2311104-.5-.5158715-.5z" fill="#fff"/></g></svg>