<svg height="24" viewBox="0 0 24 24" width="24" xmlns="http://www.w3.org/2000/svg" xmlns:xlink="http://www.w3.org/1999/xlink"><linearGradient id="a" x1="0%" x2="100%" y1="100%" y2="0%"><stop offset="0" stop-color="#2e27ad"/><stop offset="1" stop-color="#527fff"/></linearGradient><g fill="none" fill-rule="evenodd"><path d="m0 0h24v24h-24z" fill="url(#a)"/><path d="m15.3 12.9-1.467 1.1 1.467 1.1-.6.8-2-1.5c-.126-.094-.2-.243-.2-.4s.074-.306.2-.4l2-1.5zm-8.3-6.4c0-.276.224-.5.5-.5h2.5v1h-1.278l1.634 1.648-.711.704-1.645-1.659v1.307h-1zm11.464 5.686-2 5-.928-.371 2-5zm1.536-3.686v11c0 .276-.223.5-.5.5h-8.004c-.133 0-.259-.053-.353-.146-.094-.095-.147-.222-.147-.355l.004-2.5 1 .002-.003 1.999h7.003v-10h-6v-1h6.5c.277 0 .5.224.5.5zm-8.5 1.5c.276 0 .5.224.5.5s-.224.5-.5.5c-.275 0-.5-.224-.5-.5s.225-.5.5-.5zm-6 9c-.275 0-.5-.224-.5-.5s.225-.5.5-.5c.276 0 .5.224.5.5s-.224.5-.5.5zm0-7c.276 0 .5.224.5.5s-.224.5-.5.5c-.275 0-.5-.224-.5-.5s.225-.5.5-.5zm0-7c.276 0 .5.224.5.5s-.224.5-.5.5c-.275 0-.5-.224-.5-.5s.225-.5.5-.5zm6.5 8.798v-1.89c.581-.207 1-.757 1-1.408 0-.827-.673-1.5-1.5-1.5s-1.5.673-1.5 1.5c0 .651.419 1.201 1 1.408v1.89c0 .19-.13.365-.265.424-.06.014-1.486.365-2.712 1.075-.592.325-1.432 1.224-1.895 1.845-.042-.019-.085-.034-.128-.05v-3.184c.581-.207 1-.757 1-1.408s-.419-1.201-1-1.408v-4.184c.581-.207 1-.757 1-1.408 0-.827-.673-1.5-1.5-1.5s-1.5.673-1.5 1.5c0 .651.419 1.201 1 1.408v4.184c-.581.207-1 .757-1 1.408s.419 1.201 1 1.408v3.184c-.581.207-1 .757-1 1.408 0 .827.673 1.5 1.5 1.5s1.5-.673 1.5-1.5c0-.234-.058-.454-.155-.651.308-.43 1.148-1.395 1.669-1.681 1.108-.642 2.443-.971 2.523-.996.585-.232.963-.771.963-1.374z" fill="#fff"/></g></svg>