<svg height="24" viewBox="0 0 24 24" width="24" xmlns="http://www.w3.org/2000/svg" xmlns:xlink="http://www.w3.org/1999/xlink"><linearGradient id="a" x1="0%" x2="100%" y1="100%" y2="0%"><stop offset="0" stop-color="#2e27ad"/><stop offset="1" stop-color="#527fff"/></linearGradient><g fill="none" fill-rule="evenodd"><path d="m0 0h24v24h-24z" fill="url(#a)"/><path d="m18.43 9.92.9 1.01c-.066.133-.156.241-.27.324-.113.084-.24.136-.38.156l-.7-1.21-.701 1.21c-.138-.02-.265-.072-.379-.156-.113-.083-.203-.191-.27-.324l.899-1.01-1.149-.27c-.013-.066-.021-.12-.021-.16 0-.227.088-.427.261-.6l1.08.53-.14-1.291c.133-.059.274-.089.42-.089.153 0 .293.03.42.089l-.14 1.291 1.08-.53c.174.173.26.373.26.6 0 .04-.006.094-.02.16zm-2.48 5.82v.993c-.542.281-1.167.42-1.876.42-1.101 0-1.943-.315-2.527-.944-.584-.63-.875-1.542-.875-2.737 0-1.186.301-2.103.903-2.751.602-.649 1.454-.973 2.555-.973.626 0 1.214.131 1.764.392v.993c-.533-.168-1.054-.252-1.568-.252-.784 0-1.35.199-1.694.596-.345.397-.519 1.028-.519 1.897v.182c0 .849.176 1.472.526 1.868.349.397.903.596 1.659.596.504 0 1.054-.094 1.652-.28zm-1.95-9.24c0 .611-1.753 1.5-4.5 1.5s-4.5-.889-4.5-1.5c0-.612 1.753-1.5 4.5-1.5s4.5.888 4.5 1.5zm-9 10.717v-1.738c1.06.669 2.812 1.021 4.5 1.021.176 0 .349-.004.519-.011l-.039-.999c-.157.006-.318.01-.48.01-2.747 0-4.5-.889-4.5-1.5v-2.521c1.06.669 2.812 1.021 4.5 1.021.176 0 .349-.004.519-.011l-.039-.999c-.157.006-.318.01-.48.01-2.747 0-4.5-.889-4.5-1.5v-2.021c1.06.669 2.812 1.021 4.5 1.021 1.687 0 3.439-.352 4.5-1.021v1.021h1v-2.505c-.006-1.621-2.836-2.495-5.5-2.495-2.606 0-5.364.838-5.488 2.393h-.012v10.824c0 1.499 2.552 2.283 5.073 2.283 1.167 0 2.298-.167 3.182-.471l-.324-.946c-.784.269-1.798.417-2.858.417-2.636 0-4.073-.848-4.073-1.283z" fill="#fff"/></g></svg>