<svg height="24" viewBox="0 0 24 24" width="24" xmlns="http://www.w3.org/2000/svg" xmlns:xlink="http://www.w3.org/1999/xlink"><linearGradient id="a" x1="0%" x2="100%" y1="100%" y2="0%"><stop offset="0" stop-color="#055f4e"/><stop offset="1" stop-color="#56c0a7"/></linearGradient><g fill="none" fill-rule="evenodd"><path d="m0 0h24v24h-24z" fill="url(#a)"/><path d="m18.9917449 18.6483558-1.7291575-1.6963588c-.0998172.111881-.2046757.2167065-.3145756.3164924l1.6747117 1.7145017c.0373055.0342698.1522466-.016127.2470225-.1088573.090743-.0907144.1219989-.1784049.1219989-.225778zm-4.7287164-1.3435807c1.6706787 0 3.0298066-1.3597077 3.0298066-3.0298601 0-1.6711604-1.3591279-3.0298602-3.0298066-3.0298602-1.6716869 0-3.0308147 1.3586998-3.0308147 3.0298602 0 1.6701524 1.3591278 3.0298601 3.0308147 3.0298601zm5.7369715 1.3425728c0 .3316114-.1512383.6733022-.4174176.9393977-.2742454.274159-.6099943.4132544-.9316277.4132544-.2732371 0-.5384082-.1018017-.7451005-.3074209l-1.8027601-1.8445257c-.5545403.2862543-1.1736089.4646592-1.8400656.4646592-2.2272354 0-4.0390698-1.8112637-4.0390698-4.0377976 0-2.226534 1.8118344-4.0377977 4.0390698-4.0377977 2.2272355 0 4.0380617 1.8112637 4.0380617 4.0377977 0 .6622149-.1744282 1.2780647-.4597643 1.8304145l1.846115 1.7951367c.2036676.2015875.3125591.4656671.3125591.7468817zm-13.98348982-5.5759103v1.0079375h2.96628647c.01310731-.3457226.05444577-.6823737.13107316-1.0079375zm-1.00825509-6.04762508h13.10731611v-2.01587501h-13.10731611zm5.62001391 11.08731258h-6.12414146c-.27928666 0-.50412754-.225778-.50412754-.5039687v-10.07937512-2.51984377c0-.55537357.45169828-1.00793751 1.00825509-1.00793751h13.10731611c.5565568 0 1.0082551.45256394 1.0082551 1.00793751v2.51984377 4.64860782c-.245006-.565453-.592854-1.0724455-1.0082551-1.515938v-2.62870107h-13.10731611v9.07143757h4.79021992c.23492339.3699131.51320189.7065642.82979399 1.0079375zm-4.61175882-8.0635001h5.08664692c-.3851534.2882702-.7249354.6269372-1.0193459 1.0079376h-4.06730102z" fill="#fff"/></g></svg>