<svg height="24" viewBox="0 0 24 24" width="24" xmlns="http://www.w3.org/2000/svg" xmlns:xlink="http://www.w3.org/1999/xlink"><linearGradient id="a" x1="0%" x2="100%" y1="100%" y2="0%"><stop offset="0" stop-color="#1b660f"/><stop offset="1" stop-color="#6cae3e"/></linearGradient><g fill="none" fill-rule="evenodd"><path d="m0 0h24v24h-24z" fill="url(#a)"/><path d="m18.5 18c-.275 0-.5-.224-.5-.5s.225-.5.5-.5.5.224.5.5-.225.5-.5.5zm-9.996-4c-.817-.001-1.489-.588-1.531-1.331l-.004-.117c0-.927.618-1.274 1.136-1.402.246-.06.408-.295.376-.546-.01-.091-.016-.183-.016-.277 0-.813.604-1.723 1.347-2.026.346-.142.666-.198.956-.198.822 0 1.402.454 1.656.701.279.27.499.619.651 1.037.063.171.214.295.395.322.181.028.361-.045.472-.19.175-.229.455-.328.716-.248.323.099.526.44.556.935.014.226.178.415.4.46 1.391.281 1.391 1.16 1.391 1.448 0 1.246-.984 1.432-1.569 1.432zm-2.504-7.5c0-.276.225-.5.5-.5s.5.224.5.5-.225.5-.5.5-.5-.224-.5-.5zm5.5 12.5c-.275 0-.5-.224-.5-.5s.225-.5.5-.5.5.224.5.5-.225.5-.5.5zm-6-1c-.275 0-.5-.224-.5-.5s.225-.5.5-.5.5.224.5.5-.225.5-.5.5zm11-12c.275 0 .5.224.5.5s-.225.5-.5.5-.5-.224-.5-.5.225-.5.5-.5zm2 10c-.161 0-.313.032-.459.08l-1.087-1.491c.601-.368 1.051-1.004 1.051-2.021 0-1.151-.665-1.989-1.84-2.34-.085-.429-.28-.778-.546-1.042l.836-1.19c.016 0 .029.004.045.004.827 0 1.5-.673 1.5-1.5s-.673-1.5-1.5-1.5-1.5.673-1.5 1.5c0 .443.196.837.503 1.112l-.78 1.111c-.344-.054-.69-.003-.994.154-.169-.298-.374-.563-.609-.791-1.007-.979-2.386-1.244-3.687-.711-.337.138-.644.354-.915.615l-.702-.786c.114-.211.184-.448.184-.704 0-.827-.673-1.5-1.5-1.5s-1.5.673-1.5 1.5.673 1.5 1.5 1.5c.206 0 .402-.042.582-.118l.814.912c-.265.47-.427.993-.431 1.513-.944.38-1.496 1.194-1.496 2.245l.005.167c.049.879.596 1.617 1.368 2l-1.179 1.443c-.2-.1-.424-.162-.663-.162-.827 0-1.5.673-1.5 1.5s.673 1.5 1.5 1.5 1.5-.673 1.5-1.5c0-.22-.05-.427-.136-.615l1.547-1.894c.032.008.062.009.093.009h3.346l-.49 2.014c-.76.071-1.36.707-1.36 1.486 0 .827.673 1.5 1.5 1.5s1.5-.673 1.5-1.5c0-.52-.266-.977-.668-1.247l.547-2.253h2.557c.178 0 .361-.02.543-.051l1.265 1.736c-.153.235-.244.514-.244.815 0 .827.673 1.5 1.5 1.5s1.5-.673 1.5-1.5-.673-1.5-1.5-1.5z" fill="#fff"/></g></svg>