<svg height="24" viewBox="0 0 24 24" width="24" xmlns="http://www.w3.org/2000/svg" xmlns:xlink="http://www.w3.org/1999/xlink"><linearGradient id="a" x1="0%" x2="100%" y1="100%" y2="0%"><stop offset="0" stop-color="#055f4e"/><stop offset="1" stop-color="#56c0a7"/></linearGradient><g fill="none" fill-rule="evenodd"><path d="m0 0h24v24h-24z" fill="url(#a)"/><path d="m11.0004998 17.0945099h1.9990004v-1.0085005h-1.9990004zm2.9995002-1.7346209-2-1.2767617-2 1.2767617v3.6316104h4zm.7666167-.7029249c.1449275.0917735.2328835.2531336.2328835.4255872v4.4131984c0 .2793547-.223888.5042503-.4997501.5042503h-4.99950022c-.27586207 0-.49975013-.2248956-.49975013-.5042503v-4.4131984c0-.1724536.08795602-.3338137.23188406-.4255872l2.49975009-1.5964564c.1639181-.1038755.3708146-.1038755.5347327 0zm5.2333833-4.6169155v4.0340022c0 .1916151-.107946.3670942-.2788606.4518082l-1.7401299.870336v1.7033574c0 .1684196-.0829585.3247372-.2198901.4185277l-1.4842578 1.0085006-.5577212-.8370555 1.2623688-.8582339v-1.74874c0-.1916151.1079461-.3670942.2788606-.4518082l1.3143428-.6575424-1.8900549-1.5218273.6246876-.7886475 1.6911545 1.3634928v-2.6745435l-1.7271365-.86932744c-.1689155-.08471405-.2758621-.26019315-.2758621-.45079975v-.94597352h-1.9990005v-1.00850055h1.9990005v-.70695888l-4.0009995-1.33525473-1.0274862.33179668v3.42083387l2.3388306 1.86572602-.6186907.7906644-2.5297351-2.01700107c-.11994-.09580756-.1899051-.24103164-.1899051-.39533222v-3.67094201l-.9495252-.31868617-1.01849075.42861273v2.51620888h-.99950025v-2.09667265l-1.07746127.45180825v2.3730018l1.53723139.7462904 1.26236881-.84915746.55372317.83907246-1.27636185.85924246v1.4764448l1.27636185.8592425-.55372317.8390724-1.2223888-.8219279-1.22238881.8219279-.55372314-.8390724 1.27636182-.8592425v-1.4300538l-1.56821589-.76141788-1.43428286.75133288v.7059504l.75262369-.4407147.50174912.8733614-1.25437281.7341885v1.5409888l1.74012993.870336c.17091455.084714.27886057.2601931.27886057.4518082v1.74874l1.26236882.8582339-.55772114.8370555-1.48425787-1.0085006c-.13693153-.0937905-.21989006-.2501081-.21989006-.4185277v-1.7033574l-1.74112943-.870336c-.17091454-.084714-.27786107-.2601931-.27786107-.4518082v-4.0340022c0-.18858964.10394803-.36104324.26986507-.44777428l1.65517241-.86731048v-2.71891748c0-.20371711.12093953-.38726421.30684658-.46491876l3.57721139-1.50165732c.11194403-.04739952.23588205-.05143353.34982505-.0131105l1.3143429.44071474 1.3743128-.44273175c.09995-.03328051.2088956-.03227201.3088456.00201701l4.4977511 1.50064882c.2038981.06857803.3428286.26120164.3428286.47903776v2.71387498l1.7261369.86932747c.1689156.08471405.2768616.26019315.2768616.45079979z" fill="#fff"/></g></svg>