<svg height="24" viewBox="0 0 24 24" width="24" xmlns="http://www.w3.org/2000/svg" xmlns:xlink="http://www.w3.org/1999/xlink"><linearGradient id="a" x1="0%" x2="100%" y1="100%" y2="0%"><stop offset="0" stop-color="#b0084d"/><stop offset="1" stop-color="#ff4f8b"/></linearGradient><g fill="none" fill-rule="evenodd"><path d="m0 0h24v24h-24z" fill="url(#a)"/><path d="m19.0010655 19.0025519h-1.0608684v-1.05929h.061934.9989344zm-5.9936068 0h-1.0149174v-1.05929h.0159829.9989345zm-5.99360681 0h-1.01491742v-1.05929h.01598295.99893447zm12.48668091-2.0577355h-.4994673v-1.4961723c0-.2752956-.2237613-.4977266-.4994672-.4977266h-5.4941396v-.5615633h-.9989345v.5615633h-5.49413954c-.27570592 0-.49946724.222431-.49946724.4977266v1.4961723h-.51545019c-.27570591 0-.49946723.2234283-.49946723.4997215v2.056738c0 .2752957.22376132.4987241.49946723.4987241h2.0138519c.27570591 0 .49946723-.2234284.49946723-.4987241v-2.056738c0-.2762932-.22376132-.4997215-.49946723-.4997215h-.49946724v-.9974482h4.99467231v.9974482h-.5154501c-.275706 0-.4994673.2234283-.4994673.4997215v2.056738c0 .2752957.2237613.4987241.4994673.4987241h2.0138518c.275706 0 .4994673-.2234284.4994673-.4987241v-2.056738c0-.2762932-.2237613-.4997215-.4994673-.4997215h-.4994672v-.9974482h4.9946724v.9974482h-.5614012c-.2767049 0-.5004662.2234283-.5004662.4997215v2.056738c0 .2752957.2237613.4987241.5004662.4987241h2.0598029c.2757059 0 .4994672-.2234284.4994672-.4987241v-2.056738c0-.2762932-.2237613-.4997215-.4994672-.4997215zm-7.0015317-10.90310564 2.7021177 1.16302453-2.7121071 1.21788417-2.7161028-1.21688673zm.4984683 6.56819594-.0079915-3.31850991 2.9518513-1.32461113v2.95743374zm-3.96976562-4.64511593 2.96283962 1.32660602.0079915 3.31950741-2.97083112-1.6876823zm-.74620405 3.68158103 3.97176347 2.2572252c.075919.0428903.1618274.0648341.2467368.0648341.0859084 0 .1718167-.0219438.2487347-.0658316l3.9417954-2.2562277c.1548348-.0887728.2497336-.2543492.2497336-.4328924v-4.01772115c0-.19948962-.1188732-.38002774-.3006793-.45782869l-3.9417954-1.69665929c-.1268647-.05485964-.2687133-.05485964-.3935802-.00099744l-3.97276234 1.69665928c-.18380395.0787984-.30267715.25833907-.30267715.45882614v4.01772115c0 .1795406.09589771.345117.25273042.4328924z" fill="#fff"/></g></svg>