<svg height="24" viewBox="0 0 24 24" width="24" xmlns="http://www.w3.org/2000/svg" xmlns:xlink="http://www.w3.org/1999/xlink"><linearGradient id="a" x1="0%" x2="100%" y1="100%" y2="0%"><stop offset="0" stop-color="#bd0816"/><stop offset="1" stop-color="#ff5252"/></linearGradient><g fill="none" fill-rule="evenodd"><path d="m0 0h24v24h-24z" fill="url(#a)"/><path d="m10.0378696 13.4568788h2.9873768v-.9679174h-2.9873768zm0-1.9358347h5.9747536v-.9679174h-5.9747536zm0-1.9358347h4.9789614v-.96791734h-4.9789614zm2.5621735-3.61517127c-1.5514443 0-3.04812008.61656334-4.14847053 1.77999999-1.2487235 1.32023925-2.11406698 3.60162038-.7976296 6.04270798.90617095 1.6783687 2.55619873 2.3665579 3.03915793 2.5378793.1971669.06969.340561.2555301.340561.4587928v2.0945731c1.8063672-.5371941 6.9705458-2.5359434 6.9705458-7.8469059 0-2.90084826-1.9567318-4.13591079-3.1228045-4.61309404-.7458484-.30586188-1.519579-.45395323-2.2813601-.45395323zm-2.0642773 14.02996187c-.1125246 0-.2230575-.0367809-.3126788-.1064709-.1175035-.0919522-.1852174-.2313323-.1852174-.3774878v-2.3984991c-.8563813-.3561936-2.35305707-1.1866667-3.26420699-2.8747146-1.30349208-2.4139858-.94102369-5.15319188.94500685-7.14806952 1.92685803-2.03746601 4.88834424-2.65209352 7.55009694-1.56318651 1.1222579.45976074 3.7312336 1.91647634 3.7312336 5.50551383 0 7.0832191-8.2740379 8.9338771-8.3576845 8.9512996-.0348527.0077433-.0707012.011615-.1065497.011615z" fill="#fff"/></g></svg>