<svg height="24" viewBox="0 0 24 24" width="24" xmlns="http://www.w3.org/2000/svg" xmlns:xlink="http://www.w3.org/1999/xlink"><linearGradient id="a" x1="0%" x2="100%" y1="100%" y2="0%"><stop offset="0" stop-color="#b0084d"/><stop offset="1" stop-color="#ff4f8b"/></linearGradient><g fill="none" fill-rule="evenodd"><path d="m0 0h24v24h-24z" fill="url(#a)"/><path d="m16.33575 11.5-1.877-3.25c-.089-.155-.254-.25-.433-.25h-4.041c-.178 0-.343.095-.432.25l-1.877 3.25h-2.31l3.176-5.5h6.928l3.176 5.5zm-.654 6.134-1.156-2 1.81-3.134h2.31zm-3.64.366-1.155-2h2.696l1.155 2zm-3.482-6.03 1.714-2.97h3.463l1.733 3-1.733 3h-3.427zm-.018 6.03-3.176-5.5h2.31l1.877 3.25c.029.052.068.097.112.134l1.222 2.116zm11.402-6.25-3.753-6.5c-.088-.155-.253-.25-.432-.25h-7.506c-.179 0-.344.095-.433.25l-3.753 6.5c-.089.155-.089.345 0 .5l3.753 6.5c.089.155.254.25.433.25h7.506c.179 0 .344-.095.432-.25l3.753-6.5c.09-.155.09-.345 0-.5z" fill="#fff"/></g></svg>