<svg height="24" viewBox="0 0 24 24" width="24" xmlns="http://www.w3.org/2000/svg" xmlns:xlink="http://www.w3.org/1999/xlink"><linearGradient id="a" x1="0%" x2="100%" y1="100%" y2="0%"><stop offset="0" stop-color="#bd0816"/><stop offset="1" stop-color="#ff5252"/></linearGradient><g fill="none" fill-rule="evenodd"><path d="m0 0h24v24h-24z" fill="url(#a)"/><path d="m13.694 14.8194562c.682-.682.682-1.79 0-2.472-.341-.34-.788-.51-1.235-.51-.449 0-.896.17-1.237.51-.68.681-.68 1.791 0 2.472.683.682 1.791.68 2.472 0m1.024.318 3.985 3.983-.707.707-1.128-1.128-1.075 1.076-.707-.707 1.075-1.076-2.15-2.148c-.466.321-1.008.485-1.553.485-.703 0-1.407-.267-1.943-.803-1.07-1.071-1.07-2.814 0-3.886 1.071-1.069 2.814-1.071 3.886 0 .95.95 1.054 2.427.317 3.497m5.282-3.036c0 2.067-1.495 2.992-2.977 2.992v-1c.464 0 1.977-.144 1.977-1.992 0-1.097-.647-1.712-2.095-1.993-.225-.043-.391-.23300005-.404-.46000005-.055-.904-.514-1.536-1.117-1.536-.3 0-.53.13-.768.434-.11.142-.292.213-.469.186-.179-.027-.329-.148-.392-.318-.178-.471-.544-.981-1.032-1.437-.492-.468-1.84-1.47-3.751-.704-1.087.432-1.938 1.676-1.938 2.834 0 .128.009.255.024.381.003.021.004.042.004.063 0 .248-.18.45500005-.417.49500005-.759.193-1.645.699-1.645 2.009l.005.155c.064 1.115 1.247 1.785 2.353 1.788h.642v1h-.643c-1.821-.004-3.262-1.179-3.351-2.734-.003-.07-.006-.14-.006-.209 0-1.361.752-2.40700005 2.035-2.86700005-.001-.027-.001-.054-.001-.081 0-1.564 1.104-3.182 2.568-3.764 1.696-.678 3.493-.34 4.807.906.297.278.667.677.963 1.164.301-.201.636-.301 1.012-.301.873 0 1.847.659 2.074 2.095 1.687.425 2.542 1.39800005 2.542 2.89400005" fill="#fff"/></g></svg>