<svg height="24" viewBox="0 0 24 24" width="24" xmlns="http://www.w3.org/2000/svg" xmlns:xlink="http://www.w3.org/1999/xlink"><linearGradient id="a" x1="0%" x2="100%" y1="100%" y2="0%"><stop offset="0" stop-color="#055f4e"/><stop offset="1" stop-color="#56c0a7"/></linearGradient><g fill="none" fill-rule="evenodd"><path d="m0 0h24v24h-24z" fill="url(#a)"/><path d="m11.9998904 12v6.293l-6.29308628-6.293zm.6910094 7.962c.1870026-.077.3090043-.26.3090043-.462v-8c0-.276-.2240031-.5-.5000069-.5h-8.00010962c-.20200277 0-.38500528.122-.46200634.309-.07700105.187-.03400046.401.10800148.545l8.00010968 8c.0960013.095.224003.146.3540048.146.0640009 0 .1300018-.012.1910026-.038zm6.8091002.038c-.1300086 0-.2580104-.051-.3540117-.146l-5.0000685-5 .7080097-.708 4.1460568 4.147v-13.293h-13.29318218l4.14705683 4.146-.7080097.708-5.00006853-5c-.14200194-.144-.18500253-.358-.10800148-.545.07700106-.187.26000357-.309.46200634-.309h15.00021242c.2759969 0 .5.224.5.5v15c0 .202-.1220017.385-.3090042.462-.0610009.026-.1270018.038-.1909958.038z" fill="#fff"/></g></svg>