<svg height="24" viewBox="0 0 24 24" width="24" xmlns="http://www.w3.org/2000/svg" xmlns:xlink="http://www.w3.org/1999/xlink"><linearGradient id="a" x1="0%" x2="100%" y1="100%" y2="0%"><stop offset="0" stop-color="#055f4e"/><stop offset="1" stop-color="#56c0a7"/></linearGradient><g fill="none" fill-rule="evenodd"><path d="m0 0h24v24h-24z" fill="url(#a)"/><path d="m10.4958528 9.80844542c1.4863689 0 2.6962972 1.20913358 2.6962972 2.69452608 0 1.4853926-1.2099283 2.6945262-2.6962972 2.6945262-1.48636894 0-2.69529566-1.2091336-2.69529566-2.6945262 0-1.4853925 1.20892672-2.69452608 2.69529566-2.69452608zm0 6.38999058c1.8679771 0 3.4004194-1.3953081 3.6478137-3.1949953h3.885192v-1.0009384h-3.885192c-.2473943-1.7996872-1.7798366-3.19499526-3.6478137-3.19499526-1.86697553 0-3.40041945 1.39530806-3.64681214 3.19499526h-1.46633698l1.04266175-1.7456365-.86137282-.51248044-1.49338007 2.50234594c-.09415005.1581483-.09415005.3543322 0 .5124805l1.49338007 2.5023459.86137282-.5124804-1.04266175-1.7456366h1.46633698c.24639269 1.7996872 1.77983661 3.1949953 3.64681214 3.1949953zm-.50079818-4.1629027h-.99558672v-1.0009384h3.0047889v1.0009384h-1.0076059v2.5463873h-1.00159628zm5.99956178-6.33193618 2.2896491 2.274132h-2.2896491zm3.8581489 2.41926807-4.0053835-3.97672819c-.0941501-.09308727-.2213528-.146137-.3535635-.146137h-6.02460174c-.27744217 0-.50079814.2242102-.50079814.50046919v2.76258993h1.00159629v-2.26212074h5.02300539v3.47725993c0 .27625899.2243576.50046919.5007982.50046919h3.5045854v10.0203941h-9.02838899v-1.5194244h-1.00159629v2.0198936c0 .276259.22335597.5004692.50079814.5004692h10.02998534c.2774421 0 .5007981-.2242102.5007981-.5004692v-11.02133249c0-.1331248-.052083-.26124492-.1472347-.35533312z" fill="#fff"/></g></svg>