<svg height="24" viewBox="0 0 24 24" width="24" xmlns="http://www.w3.org/2000/svg" xmlns:xlink="http://www.w3.org/1999/xlink"><linearGradient id="a" x1="0%" x2="100%" y1="100%" y2="0%"><stop offset="0" stop-color="#c8511b"/><stop offset="1" stop-color="#f90"/></linearGradient><g fill="none" fill-rule="evenodd"><path d="m0 0h24v24h-24z" fill="url(#a)"/><path d="m13.276 15.219-1.276.73-1.277-.73v-1.453l1.277-.73 1.276.73zm1-1.743c0-.179-.096-.345-.252-.434l-1.776-1.016c-.155-.088-.342-.088-.496 0l-1.777 1.016c-.156.089-.252.255-.252.434v.524h-4.723v1h4.723v.509c0 .179.096.345.252.434l1.525.873v2.184h1v-2.184l1.524-.873c.156-.089.252-.255.252-.434v-.509h4.724v-1h-4.724zm-8.276-4.476h2v-1h-2zm7 0h5v-1h-5zm-8 1h14v-4h-14zm14.5-5h-15c-.277 0-.5.224-.5.5v5c0 .277.223.5.5.5h15c.276 0 .5-.223.5-.5v-5c0-.276-.224-.5-.5-.5z" fill="#fff"/></g></svg>