<svg height="24" viewBox="0 0 24 24" width="24" xmlns="http://www.w3.org/2000/svg" xmlns:xlink="http://www.w3.org/1999/xlink"><linearGradient id="a" x1="0%" x2="100%" y1="100%" y2="0%"><stop offset="0" stop-color="#1b660f"/><stop offset="1" stop-color="#6cae3e"/></linearGradient><g fill="none" fill-rule="evenodd"><path d="m0 0h24v24h-24z" fill="url(#a)"/><path d="m13 8.98381208c0 .55261467-.448 1.00293043-1 1.00293043s-1-.45031576-1-1.00293043c0-.55261468.448-1.00293044 1-1.00293044s1 .45031576 1 1.00293044zm3 5.01465222c0 .5526146-.448 1.0029304-1 1.0029304s-1-.4503158-1-1.0029304c0-.5526147.448-1.0029305 1-1.0029305s1 .4503158 1 1.0029305zm-2.722-1.0029305h-2.556c-.184-.3149201-.449-.5726733-.768-.749189l1.377-1.3810352c.21.0762227.433.1243634.669.1243634s.459-.0481407.669-.1243634l1.377 1.3810352c-.319.1765157-.584.4342689-.768.749189zm-4.278 2.0058609c-.552 0-1-.4503158-1-1.0029304 0-.5526147.448-1.0029305 1-1.0029305s1 .4503158 1 1.0029305c0 .5526146-.448 1.0029304-1 1.0029304zm1-6.01758262c0 .50046228.189.95278391.493 1.30380952l-1.723 1.7280492c-.994.1163399-1.77.9557927-1.77 1.9827935 0 1.1062322.897 2.0058608 2 2.0058608s2-.8996286 2-2.0058608h2c0 1.1062322.897 2.0058608 2 2.0058608s2-.8996286 2-2.0058608c0-1.0270008-.776-1.8664536-1.77-1.9827935l-1.723-1.7280492c.304-.35102561.493-.80334724.493-1.30380952 0-1.10623228-.897-2.00586088-2-2.00586088s-2 .8996286-2 2.00586088zm8 6.72063682-6 3.2254243-6-3.2254243v-7.42268813l6-3.21138326 6 3.21138326zm.735-8.16585958-6.5-3.47916569c-.146-.07923151-.324-.07923151-.47 0l-6.5 3.47916569c-.163.08725494-.265.25675019-.265.44229232v8.02344346c0 .1845392.102.3550374.264.4412894l6.5 3.4952126c.074.0401172.155.0591729.236.0591729s.162-.0190557.236-.0591729l6.5-3.4952126c.162-.086252.264-.2567502.264-.4412894v-8.02344346c0-.18554213-.102-.35503738-.265-.44229232z" fill="#fff"/></g></svg>