<svg height="24" viewBox="0 0 24 24" width="24" xmlns="http://www.w3.org/2000/svg" xmlns:xlink="http://www.w3.org/1999/xlink"><linearGradient id="a" x1="0%" x2="100%" y1="100%" y2="0%"><stop offset="0" stop-color="#055f4e"/><stop offset="1" stop-color="#56c0a7"/></linearGradient><g fill="none" fill-rule="evenodd"><path d="m0 0h24v24h-24z" fill="url(#a)"/><path d="m5 8.16450347v5.28300003l1.004.583-.502.865-1.253-.727c-.154-.09-.249-.254-.249-.433v-6.37800003c0-.172.09-.334.236-.424.023-.015.05-.013.074-.023l-.005-.013 4.38-1.858c.126-.053.267-.053.393.002l1.387.6-.397.918-1.19-.515-3.182 1.349.703.35-.445.895zm8.991 10.23800003v-6.266l4.985-2.46400003v5.78200003zm-6.031-2.949v-5.80800003l5.031 2.49100003v6.269zm5.529-8.63100003 4.797 2.075-4.795 2.37100003-4.834-2.39300003zm6.487 2.032c-.005-.195-.123-.369-.302-.446l-5.985-2.589c-.126-.054-.268-.055-.393-.001l-6.031 2.562c-.18.076-.299.25-.305.446 0 .005.004.009.004.014h-.004v6.89900003c0 .177.094.341.247.431l6.031 3.539c.078.046.165.0689965.253.0689965.086 0 .172-.0219965.248-.0659965.002-.001.004-.004.006-.006l.001.002 5.984-3.539c.152-.09.246-.254.246-.43v-6.87200003h-.004c0-.005.004-.009.004-.013z" fill="#fff"/></g></svg>