<svg height="24" viewBox="0 0 24 24" width="24" xmlns="http://www.w3.org/2000/svg" xmlns:xlink="http://www.w3.org/1999/xlink"><linearGradient id="a" x1="0%" x2="100%" y1="100%" y2="0%"><stop offset="0" stop-color="#b0084d"/><stop offset="1" stop-color="#ff4f8b"/></linearGradient><g fill="none" fill-rule="evenodd"><path d="m0 0h24v24h-24z" fill="url(#a)"/><path d="m16.059 15.04c-.048-.263-.278-.448-.537-.448-.032 0-.065.003-.098.009-.143.026-.268.106-.351.226s-.115.265-.088.408c.053.297.338.501.635.44.295-.053.493-.339.439-.635zm.984-.178c.152.839-.407 1.645-1.245 1.797-.093.017-.185.025-.276.025-.733 0-1.386-.524-1.522-1.27-.074-.406.016-.817.251-1.157.236-.339.589-.567.996-.64.833-.151 1.644.405 1.796 1.245zm1.546.908-.003-1.297-.899-.103c-.139-.016-.266-.089-.348-.203l-.338-.463c-.082-.113-.113-.255-.086-.392l.176-.889-1.235-.399-.372.816c-.059.128-.169.226-.304.269l-.562.179c-.13.042-.276.027-.396-.04l-.778-.436-.761 1.052.663.608c.103.094.161.226.162.365l.004.58c.001.141-.057.275-.16.371l-.664.615.766 1.048.786-.445c.075-.043.16-.065.246-.065.052 0 .105.008.156.025l.551.18c.132.044.239.14.298.266l.378.818 1.233-.404-.178-.873c-.027-.136.003-.277.083-.39l.343-.481c.082-.114.208-.189.348-.206zm1.0010039.443c.0009961.253-.1880039.467-.4400039.497l-1.114.133-.088.124.222 1.096c.05.249-.093.496-.335.575l-2.078.681c-.051.017-.103.025-.155.025-.19 0-.37-.109-.454-.29l-.474-1.025-.135-.044-.981.555c-.219.125-.5.065-.649-.14l-1.29-1.766c-.151-.205-.123-.49.063-.662l.828-.768v-.143l-.831-.761c-.187-.172-.216-.456-.067-.662l1.282-1.772c.15-.206.428-.266.649-.143l.978.546.145-.046.465-1.019c.105-.231.365-.35.609-.268l2.081.672c.241.078.386.324.337.572l-.219 1.111.08.111 1.123.128c.252.028.442.241.443.495zm-3.6010039-6.26v-1.969h1.011v-1h-1.011v-1.031h-1v1.031h-.957v1h.957v1.969zm-3.94 2v-1.957h.951v-1h-.951v-3.043h-1v3.043h-1.017v1h1.017v1.957zm-4.023 3v-6.043h.974v-1h-.974v-1.957h-1v1.957h-.994v1h.994v6.043zm-3.026 1.031h5v1h-5.5c-.276 0-.5-.223-.5-.5v-11.984c0-.276.224-.5.5-.5h14.047c.277 0 .5.224.5.5v5.453h-1v-4.953h-13.047z" fill="#fff"/></g></svg>