<svg height="24" viewBox="0 0 24 24" width="24" xmlns="http://www.w3.org/2000/svg" xmlns:xlink="http://www.w3.org/1999/xlink"><linearGradient id="a" x1="0%" x2="100%" y1="100%" y2="0%"><stop offset="0" stop-color="#055f4e"/><stop offset="1" stop-color="#56c0a7"/></linearGradient><g fill="none" fill-rule="evenodd"><path d="m0 0h24v24h-24z" fill="url(#a)"/><path d="m16 14.7046904v-4.2626641l-3.52 1.8541588v4.4057536zm-8 .0010007 3.48 1.9932457v-4.4047529l-3.48-1.8491558zm.621-5.0621639 3.36 1.7851157 3.394-1.78711695-3.375-1.57198249zm8.126 5.7876173-4.519 2.5656035c-.078.0430269-.163.06404-.248.06404s-.171-.0210131-.248-.0650407l-4.48-2.5656035c-.156-.0890556-.252-.2551594-.252-.4342714v-5.38236396c0-.19412132.112-.37123202.289-.4532833l4.5-2.09631019c.133-.06203878.289-.06203878.422 0l4.5 2.09631019c.177.08205128.289.25916198.289.4532833v5.38236396c0 .1801126-.097.3462164-.253.4352721zm-4.747-10.43051911c2.306 0 4.478 1.21976235 5.81 3.26404003l.837-.54734209c-1.517-2.32745466-4.002-3.71732333-6.647-3.71732333-2.647 0-5.134 1.39186992-6.651 3.72332708l.838.54634146c1.332-2.04727955 3.505-3.26904315 5.813-3.26904315zm7 7.29155721c-.079 3.2550344-2.435 6.0838024-5.6 6.7272045l.2.9806129c3.617-.7354597 6.309-3.966479 6.4-7.6828018zm-8.4 6.7272045-.2.9806129c-3.617-.7354597-6.309-3.966479-6.4-7.6828018l1-.0250156c.079 3.2550344 2.435 6.0838024 5.6 6.7272045z" fill="#fff"/></g></svg>