<svg height="24" viewBox="0 0 24 24" width="24" xmlns="http://www.w3.org/2000/svg" xmlns:xlink="http://www.w3.org/1999/xlink"><linearGradient id="a" x1="0%" x2="100%" y1="100%" y2="0%"><stop offset="0" stop-color="#bd0816"/><stop offset="1" stop-color="#ff5252"/></linearGradient><g fill="none" fill-rule="evenodd"><path d="m0 0h24v24h-24z" fill="url(#a)"/><path d="m13.9695489 14.018873c-.322246 0-.585263.2620131-.585263.585263 0 .322246.263017.585263.585263.585263s.5842592-.263017.5842592-.585263c0-.3232499-.2620132-.585263-.5842592-.585263m-4.39900948.585263c0-.3232499-.263017-.585263-.58526302-.585263s-.58526301.2620131-.58526301.585263c0 .322246.26301699.585263.58526301.585263s.58526302-.263017.58526302-.585263m1.26890648-4.5606345c0 .3644091.2961451.6605542.6605541.6605542s.6605541-.2961451.6605541-.6605542c0-.36440901-.2961451-.6605541-.6605541-.6605541s-.6605541.29614509-.6605541.6605541m2.0117788 3.4332754-1.0209476-1.8019676c-.1064115.0220854-.2168385.0331281-.3302771.0331281-.1124347 0-.2228617-.0110427-.3282693-.0331281l-1.0339981 1.8421228c.1566055.1646366.2740597.3644091.347343.5852631h1.9846741c.0793067-.23792.2067996-.4527507.381475-.6254183m1.1183242-.4617856c.8753848 0 1.5881408.712756 1.5881408 1.5891447s-.712756 1.5891447-1.5881408 1.5891447c-.6997055 0-1.288984-.4587739-1.4997992-1.0872039h-1.9846741c-.2108151.62843-.80009367 1.0872039-1.4997992 1.0872039-.8763887 0-1.58914469-.712756-1.58914469-1.5891447s.71275599-1.5891447 1.58914469-1.5891447c.09235712 0 .1806987.0120466.26904029.0271048l1.04202921-1.8561772c-.2840985-.2981529-.46078172-.6997055-.46078172-1.1424174 0-.91754781.74688792-1.66443578 1.66443582-1.66443578s1.6644358.74688797 1.6644358 1.66443578c0 .441708-.1766832.8412529-.45777 1.1404096l1.0480524 1.8521617c.0702718-.0090349.1415474-.0210815.2148307-.0210815m4.0486548-4.22634186-.8723732.49692143c.5561505.97476913.8502878 2.08606613.8502878 3.21442913 0 3.5818498-2.9142685 6.4961183-6.4961183 6.4961183-1.3431937 0-2.63217775-.4075759-3.72741266-1.1765493l-.57622808.8211752c1.26388703.8894392 2.75264355 1.3592558 4.30364074 1.3592558 4.1349886 0 7.5-3.3650114 7.5-7.5 0-1.3020345-.339312-2.58499532-.9817963-3.71135056m-13.01432202 3.71135056c0 1.1665105.31321108 2.3109356.90550127 3.3077901l-.86333824.5129836c-.68364343-1.1524562-1.04604471-2.4745684-1.04604471-3.8207737 0-4.1359925 3.36501138-7.5 7.5-7.5 1.1293669 0 2.2155669.24494713 3.2284835.7288181l-.4336769.90650515c-.8763887-.41962254-1.816022-.63144157-2.7948066-.63144157-3.58184982 0-6.49611832 2.91326462-6.49611832 6.49611832" fill="#fff"/></g></svg>