<svg height="24" viewBox="0 0 24 24" width="24" xmlns="http://www.w3.org/2000/svg" xmlns:xlink="http://www.w3.org/1999/xlink"><linearGradient id="a" x1="0%" x2="100%" y1="100%" y2="0%"><stop offset="0" stop-color="#c8511b"/><stop offset="1" stop-color="#f90"/></linearGradient><g fill="none" fill-rule="evenodd"><path d="m0 0h24v24h-24z" fill="url(#a)"/><path d="m16.0290614 8.88730189-4.7333255-.0671553-.0650529 10.11038021 4.7333255.0671553c.0359248 0 .0650529-.0300695.0650529-.0671553zm.9709386 0v10.04322491c0 .5893629-.4650796 1.0694732-1.0359915 1.0694732h-4.6682726c-.5718828 0-1.0359914-.4801103-1.0359914-1.0694732v-10.04322491c0-.58936291.4641086-1.06947316 1.0359914-1.06947316h4.6682726c.5709119 0 1.0359915.48011025 1.0359915 1.06947316zm-4.8576057 2.08281651h2.8875713v-1.00231786h-2.8875713zm0 1.9966172h2.8875713v-1.0023179h-2.8875713zm-2.133152-7.19964921c-.50488805.59738144-.66315103 1.37016851-.59615627 1.87132744.03592473.26661655-.13981516.51519138-.39711388.561298-.19710053.04009272-1.19522537.31773477-1.02628206 1.77410262.01359314.10624565.16311768 1.06446155 1.02822394 1.06446155h.69130826v1.0023179h-.69130826c-1.39523872 0-1.91274898-1.2729437-1.991395-1.9465013-.19030396-1.63377812.68159887-2.44465327 1.40106435-2.75236485.01650596-.77679635.32817724-1.61573639.84957125-2.2331642.42624203-.50617052 1.19134167-1.10856355 2.41181137-1.10856355h.000971c1.5690367 0 2.4535617.89707448 2.8739781 1.71997745.3864336-.22151225.8243269-.25759569 1.1058991-.19946126.9981248.20146589 1.2369757 1.22182548 1.2253244 1.7340099l-.9709385-.02706258c.0009709-.06114139-.0067966-.63546952-.4408061-.72267118-.0038838 0-.4942078-.04811126-.6728605.33778112-.0902973.1964543-.2932234.3087139-.5010043.280649-.2077808-.0280649-.3747823-.19044039-.4136198-.4039341-.0339829-.17239867-.3874045-1.71697049-2.2059724-1.71697049h-.000971c-.8553968 0-1.3845584.41596191-1.6797237.76476853z" fill="#fff"/></g></svg>