<svg height="24" viewBox="0 0 24 24" width="24" xmlns="http://www.w3.org/2000/svg" xmlns:xlink="http://www.w3.org/1999/xlink"><linearGradient id="a" x1="0%" x2="100%" y1="100%" y2="0%"><stop offset="0" stop-color="#4d27a8"/><stop offset="1" stop-color="#a166ff"/></linearGradient><g fill="none" fill-rule="evenodd"><path d="m0 0h24v24h-24z" fill="url(#a)"/><path d="m6.7337492 17.8414023h.99241512c0-.9075125 0-3.0340567 11.27383568-3.0340567v-1.0016695c-10.78060537 0-12.2662508 1.9392321-12.2662508 4.0357262m1.30403346 2.1585977h.99241511c0-1.0367279 0-3.4657763 9.96980223-3.4657763v-1.0016694c-9.6591763 0-10.96221734 2.2577629-10.96221734 4.4674457m-2.04536755-10.61068447h-.99241511c0 1.43939897.99340753 2.52120197 4.81718296 3.11018367-3.82377543.5899833-4.81718296 1.6717863-4.81718296 3.1101836h.99241511c0-1.2140234 1.47869852-2.6093489 13.00758489-2.6093489v-1.0016695c-11.52888637 0-13.00758489-1.3943238-13.00758489-2.60934887m1.73374921-2.23071787h-.99241512c0 2.09549249 1.48564543 4.03572624 12.2662508 4.03572624v-1.0016695c-11.27383568 0-11.27383568-2.12654422-11.27383568-3.03405674m11.27383568 1.30717863v1.00166945c-9.6591763 0-10.96221734-2.2587646-10.96221734-4.46744574h.99241511c0 1.03672788 0 3.46577629 9.96980223 3.46577629" fill="#fff"/></g></svg>