<svg height="24" viewBox="0 0 24 24" width="24" xmlns="http://www.w3.org/2000/svg" xmlns:xlink="http://www.w3.org/1999/xlink"><linearGradient id="a" x1="0%" x2="100%" y1="100%" y2="0%"><stop offset="0" stop-color="#4d27a8"/><stop offset="1" stop-color="#a166ff"/></linearGradient><g fill="none" fill-rule="evenodd"><path d="m0 0h24v24h-24z" fill="url(#a)"/><path d="m9.22 13.897c.13.383.285.729.459 1.036-.431-.207-.824-.474-1.171-.796.223-.092.46-.17.712-.24zm-.471-2.834c.02.666.091 1.296.211 1.872-.414.114-.795.253-1.14.417-.452-.661-.719-1.447-.784-2.289zm.239-2.71c-.118.528-.198 1.101-.23 1.71h-1.692c.107-.777.393-1.492.833-2.1.333.152.695.283 1.089.39zm.274-.958c-.227-.062-.447-.127-.65-.206.321-.283.676-.523 1.067-.711-.156.275-.296.581-.417.917zm3.884.206c-.463.067-.942.113-1.44.113s-.976-.046-1.439-.113c.386-.996.926-1.601 1.439-1.601.514 0 1.054.605 1.44 1.601zm1.005-.206c-.121-.337-.261-.642-.417-.917.39.188.746.428 1.067.711-.204.079-.424.144-.65.206zm.504 2.668c-.033-.609-.113-1.182-.23-1.71.393-.107.755-.238 1.088-.39.439.608.727 1.323.834 2.1zm-.203 2.872c.121-.576.192-1.206.211-1.872h1.712c-.065.843-.332 1.629-.783 2.29-.346-.164-.726-.303-1.14-.418zm-.259.962c.252.07.489.149.711.24-.346.322-.74.589-1.17.796.173-.307.329-.652.459-1.036zm-1-.21c-.279.768-.646 1.312-1.032 1.559v-1.657c.355.016.698.048 1.032.098zm-2.032-.093v1.585c-.353-.27-.684-.784-.941-1.492.306-.046.618-.077.941-.093zm-1.39-3.531c.032-.543.101-1.044.205-1.499.556.089 1.133.15 1.73.15.598 0 1.174-.061 1.731-.15.103.455.173.956.205 1.499zm3.885 1c-.021.6-.082 1.159-.188 1.658-.566-.092-1.153-.155-1.763-.155-.608 0-1.195.063-1.76.155-.106-.499-.167-1.058-.188-1.658zm3.755-.358c0-3.146-2.559-5.705-5.705-5.705s-5.706 2.559-5.706 5.705c0 2.962 2.27 5.402 5.161 5.678v.504h-2.988v1.963h1v-.963h1.988v1.963h1v-1.963h1.981v.963h1v-1.963h-2.981v-.499c2.933-.234 5.25-2.691 5.25-5.683z" fill="#fff"/></g></svg>