<svg height="24" viewBox="0 0 24 24" width="24" xmlns="http://www.w3.org/2000/svg" xmlns:xlink="http://www.w3.org/1999/xlink"><linearGradient id="a" x1="0%" x2="100%" y1="100%" y2="0%"><stop offset="0" stop-color="#4d27a8"/><stop offset="1" stop-color="#a166ff"/></linearGradient><g fill="none" fill-rule="evenodd"><path d="m0 0h24v24h-24z" fill="url(#a)"/><path d="m12.5088141 18.003v-1.503h-1.0016026v1.497l-.6019631-.798-.7992788.602 1.5074118 2c.0951523.125.2433894.199.400641.199h.0010016c.1572516 0 .3064904-.075.3996395-.201l1.4963942-2-.8012821-.598zm2.6181891-7.878c-1.1227965.26-2.4569311.363-3.1270032.363-.6690705 0-1.9991987-.103-3.12099359-.361l2.54306889 3.773c.0560898.083.0851362.18.0851362.28v.908c.3135016.053.7051282.054 1.0016026.006v-.914c0-.099.0290465-.196.0851362-.279zm1.7848558-.872.0030048.002-3.4044471 5.077v1.139c0 .197-.1161859.376-.2964744.456-.3135016.14-.7421875.201-1.1698718.201-.458734 0-.9154647-.071-1.2229567-.192-.1903045-.076-.3155048-.26-.3155048-.465v-1.139l-3.42047278-5.076.00300481-.002c-.05108174-.087-.08814103-.178-.08814103-.277 0-.322 0-.992 3.4685497-1.139l.0430689.999c-.86338142.037-1.47636219.111-1.89202725.187.76322115.227 2.02824515.464 3.38040865.464 1.2790465 0 2.4789663-.212 3.2502003-.426-.2313702-.04-.4947916-.075-.7752404-.096l.0741186-.997c1.6266026.121 2.4509215.46 2.4509215 1.008 0 .099-.0360577.189-.088141.276zm-7.90865387-2.253h1.00160257c.2764423 0 .5008013-.224.5008013-.5v-1c0-.276-.224359-.5-.5008013-.5h-1.00160257c-.27644231 0-.50080128.224-.50080128.5v1c0 .276.22435897.5.50080128.5zm2.50400637 1.5v-1c0-.276.224359-.5.5008013-.5h1.0016026c.2764423 0 .5008013.224.5008013.5v1c0 .276-.224359.5-.5008013.5h-1.0016026c-.2764423 0-.5008013-.224-.5008013-.5z" fill="#fff"/></g></svg>