<svg height="24" viewBox="0 0 24 24" width="24" xmlns="http://www.w3.org/2000/svg" xmlns:xlink="http://www.w3.org/1999/xlink"><linearGradient id="a" x1="0%" x2="100%" y1="100%" y2="0%"><stop offset="0" stop-color="#1b660f"/><stop offset="1" stop-color="#6cae3e"/></linearGradient><g fill="none" fill-rule="evenodd"><path d="m0 0h24v24h-24z" fill="url(#a)"/><path d="m8.57387257 11.9007512c.27272156 0 .49411913.2179983.49411913.4853175 0 .2673193-.22139757.4843312-.49411913.4843312-.27272155 0-.49512548-.2170119-.49512548-.4843312 0-.2673192.22240393-.4853175.49512548-.4853175zm2.16365813-2.14249944c.1761117.27718344.4427951.49024964.7597962.60368764l.0070444 4.8107596c-.1670545-.0276197-.3280709-.0739813-.4850619-.1311936v-2.705744c0-.2722513-.225423-.4932089-.5031763-.4932089h-.55047488c-.11975596-.2949389-.33511542-.5405569-.60884333-.7062751.28580414-.6066469.76784701-1.0880188 1.38071581-1.37802564zm1.2720296-1.25866909c.2727216 0 .4941192.21701191.4941192.48433113s-.2213976.48531755-.4941192.48531755c-.2727215 0-.4951254-.21799833-.4951254-.48531755s.2224039-.48433113.4951254-.48433113zm2.6517392 2.63669473c-.276747.167691-.4931128.4172547-.6128688.7181122h-.5454431c-.2777533 0-.5031763.2209575-.5031763.4932089v2.6939069c-.1579973.0581987-.3210265.1035739-.4890874.13218l-.0070444-4.8068139c.3260582-.1114652.5977734-.3265042.7769042-.60861974.6128687.29000684 1.0949116.77137874 1.3807158 1.37802564zm1.2780678 1.2497913c0 .2673193-.2213976.4843312-.4951255.4843312-.2717152 0-.4941192-.2170119-.4941192-.4843312 0-.2673192.222404-.4853175.4941192-.4853175.2737279 0 .4951255.2179983.4951255.4853175zm-1.9332034 2.0418849v-1.5871463h.0181144c.1076797.3215722.3200201.5957964.6048179.7772973-.1579974.3048031-.3673187.5760679-.6229323.809849zm-4.29813195-.2988846c-.12981948-.1578269-.23448015-.3284771-.32605824-.5070188.2908359-.1834737.50820806-.4636163.61488144-.7930799h.01610165v1.5851734c-.10264798-.0937097-.20932135-.1716367-.30492485-.2850747zm-1.32134096-.2900069c.13887666.3215722.30593119.6263753.51927794.8848168.00704447.0098642.06843198.0858183.0764828.0946961.28982955.3413006.64205296.6263753 1.03050507.8493057v1.2547234h1.0063526v-.8552242c.1590037.0414296.3200201.0720085.4860683.0927233l.0010063.7625009 1.0063527-.0009864-.0010064-.7615145c.1670545-.0207148.3290773-.0512937.488081-.0927233v.8552242h1.0063526v-1.2754382c.7215548-.4192275 1.287125-1.0544806 1.6162023-1.8071173.7436946-.0877912 1.3233537-.7023295 1.3233537-1.4539799 0-.731922-.5474559-1.3346232-1.2619662-1.4480613-.3954966-.99825476-1.1854834-1.78541616-2.1968677-2.18491536-.1147242-.70035663-.730612-1.23992716-1.4773257-1.23992716-.7567771 0-1.3766903.55140755-1.4803446 1.26458761-1.00031451.40048562-1.77822507 1.17087791-2.17372164 2.15828211-.72457388.1035739-1.28309957.7112072-1.28309957 1.4500341 0 .7486911.57563369 1.3612566 1.3142965 1.4529934zm-2.40317001 4.1745201h12.05006602v-11.02716441h-12.05006602zm14.01647902-7.9406632v-.98641775h-.9600604v-1.03277942h.9298698v-.98641779h-.9298698v-.57409515c0-.27225131-.2244166-.49320889-.5031763-.49320889h-13.05541227c-.27875967 0-.5031763.22095758-.5031763.49320889v.58987784l-.9469778-.00098642-.0020127.98641779.9489905.00098641v.98740421h-.97817473v.98641778h.97817473v1.0169967h-.97817473v.9864178h.97817473v.9735944h-.97817473v.9864178h.97817473v.9449882h-.97817473v.9864178h.97817473v1.0288337h-.94798415v.9864178h.94798415v.5533804c0 .2722513.22441663.4932089.5031763.4932089h13.05541227c.2787597 0 .5031763-.2209576.5031763-.4932089v-.5228014h.9429524v-.9864178h-.9429524v-.9874042h.9479842v-.9864178h-.9479842v-1.0169967h.9298698v-.9864178h-.9298698v-1.0337659h.9479842v-.9864177h-.9479842v-.9272328z" fill="#fff"/></g></svg>