<svg height="24" viewBox="0 0 24 24" width="24" xmlns="http://www.w3.org/2000/svg" xmlns:xlink="http://www.w3.org/1999/xlink"><linearGradient id="a" x1="0%" x2="100%" y1="100%" y2="0%"><stop offset="0" stop-color="#4d27a8"/><stop offset="1" stop-color="#a166ff"/></linearGradient><g fill="none" fill-rule="evenodd"><path d="m0 0h24v24h-24z" fill="url(#a)"/><path d="m18.987013 18.0085688-.954046-.0406487v-6.9320869l.968032-.0694002zm-12.97302699 0-1.01498501-.0406487.01598401-7.0084271.99000999.00694.04795205 7.0391615s-.01198801.0029743-.03896104.0029743zm.99000999-.9944055h10.02997v-4.9997875h-10.02997zm4.0539461-5.9912187h1.9320679v-1.04199424h-1.9320679zm-2.0529471-2.03342544h5.974026v-.97953403h-5.974026zm2.0529471-1.97195666h1.9320679v-1.0261313h-1.9320679zm7.9430569 3.0298137h-.999001c-.5704296 0-.968032.3777353-.968032.9190568v.0565116h-3.045954v-1.04199424h1.4905095c.2767233 0 .4995005-.22208059.4995005-.4957156v-1.97096523c0-.27462645-.2227772-.4957156-.4995005-.4957156h-1.4905095v-1.52283833c0-.27363501-.2237762-.4957156-.4995005-.4957156h-2.9310689c-.2757243 0-.4995005.22208059-.4995005.4957156v1.52283833h-1.55244759c-.27672328 0-.4995005.22108915-.4995005.4957156v1.97096523c0 .27363501.22277722.4957156.4995005.4957156h1.55244759v1.04199424h-3.0539461v-.0565116c0-.5690815-.42557442-.99837125-.99000999-.99837125h-.999001c-.56943056 0-1.01498501.43920405-1.01498501.99837125v7.0014871c0 .6374903.38961039 1.0320799 1.01498501 1.0320799h.999001c.58941059 0 .96703297-.3906239.98401599-.9944055h10.042957c.0169831.5680901.4215785.9944055.961039.9944055h.999001c.5504496 0 .999001-.4620069.999001-1.0320799v-7.0014871c0-.5323986-.4205794-.9190568-.999001-.9190568z" fill="#fff"/></g></svg>