<svg height="24" viewBox="0 0 24 24" width="24" xmlns="http://www.w3.org/2000/svg" xmlns:xlink="http://www.w3.org/1999/xlink"><linearGradient id="a" x1="0%" x2="100%" y1="100%" y2="0%"><stop offset="0" stop-color="#1b660f"/><stop offset="1" stop-color="#6cae3e"/></linearGradient><g fill="none" fill-rule="evenodd"><path d="m0 0h24v24h-24z" fill="url(#a)"/><path d="m10.0022508 10.9768783c-.55320741 0-1.0003751.4491509-1.0003751 1.002569 0 .5534182.44716769 1.0025691 1.0003751 1.0025691.5532075 0 1.0003752-.4491509 1.0003752-1.0025691 0-.5534181-.4471677-1.002569-1.0003752-1.002569zm6.5024385 1.002569c0-.8291246-.6732525-1.5038536-1.5005628-1.5038536-.8273102 0-1.5005627.674729-1.5005627 1.5038536 0 .8291247.6732525 1.5038537 1.5005627 1.5038537.8273103 0 1.5005628-.674729 1.5005628-1.5038537zm1.0003751 0c0 1.3815402-1.1214205 2.5064227-2.5009379 2.5064227-1.3795173 0-2.5009378-1.1248825-2.5009378-2.5064227s1.1214205-2.50642267 2.5009378-2.50642267c1.3795174 0 2.5009379 1.12488247 2.5009379 2.50642267zm1.4295361 0c0-1.6021054-1.3745155-3.00670465-2.9421033-3.00670465l-8.00300114-.00100257c-1.5815931.00100257-2.91809428 1.37853252-2.91809428 3.00770722 0 1.6291748 1.33650118 3.0067047 2.91809428 3.0067047l8.00300114.0010026c1.5675878-.0010026 2.9421033-1.4066044 2.9421033-3.0077073zm-2.9421033 4.0092738-8.00300114.0010026c-2.12379642-.0010026-3.91846943-1.8377092-3.91846943-4.0102764 0-2.17356974 1.79467301-4.00927373 3.91846943-4.00927373l8.00300114-.00100257c2.1368013.00100257 3.9424784 1.83770913 3.9424784 4.0102763 0 2.1725672-1.8056771 4.0092738-3.9424784 4.0092738zm-10.99212206-10.98615202h3.00112542v-1.00256908h-3.50131299c-.27610354 0-.50018757.22457547-.50018757.50128454v3.46788646h1.00037514zm14.49943726-1.00256908h-3.4953107v1.00256908h2.9951232v2.96660192h1.0003751v-3.46788646c0-.27670907-.2230837-.50128454-.5001876-.50128454zm-14.49943726 11.9897237h-1.00037514v3.5089918c0 .276709.22408403.5012845.50018757.5012845h3.50131299v-1.0025691h-3.00112542zm13.99924976 0h1.0003751v3.5089918c0 .276709-.2230837.5012845-.5001876.5012845h-3.4953107v-1.0025691h2.9951232z" fill="#fff"/></g></svg>