<svg height="24" viewBox="0 0 24 24" width="24" xmlns="http://www.w3.org/2000/svg" xmlns:xlink="http://www.w3.org/1999/xlink"><linearGradient id="a" x1="0%" x2="100%" y1="100%" y2="0%"><stop offset="0" stop-color="#055f4e"/><stop offset="1" stop-color="#56c0a7"/></linearGradient><g fill="none" fill-rule="evenodd"><path d="m0 0h24v24h-24z" fill="url(#a)"/><path d="m17.441 9.31470447c-.165-1.022-.74-1.761-1.583-2.008-.559-.162-1.143-.072-1.624.232-.235-.466-.527-.874-.872-1.221-1.312-1.315-3.108-1.671-4.802-.954-1.449.614-2.542 2.307-2.542 3.937 0 .038 0 .076.001.113-1.272.48-2.019 1.57200003-2.019 2.99400003 0 .106.003.21.011.311.11 1.39.678 2.463 1.519 2.869.079.038.17.082.859.082.315 0 .756-.009 1.377-.033l-.037-.999c-.713.026-1.57.041-1.817.022-.482-.274-.826-1.039-.905-2.019-.005-.076-.007-.153-.007-.233 0-1.501 1.046-1.992 1.67-2.151.244-.062.403-.29500003.373-.54400003-.016-.135-.025-.272-.025-.412 0-1.212.867-2.565 1.933-3.016 1.882-.796 3.216.252 3.702.739.398.4.71.913.927 1.525.062.175.215.301.398.328.182.023.365-.049.476-.198.273-.37.713-.532 1.124-.412.514.151.852.696.905 1.377-.044.271.139.52600003.408.57200003.604.104 1.857.527 1.857 2.215 0 1.968-1.674 2.19-1.838 2.207h-1.162v.997l1.201.001c1.019-.083 2.799-.859 2.799-3.205 0-1.816-1.059-2.77800003-2.307-3.11600003zm-2.693 5.32300003h-1v-2.232l-5.62 6.557-.76-.65 5.721-6.675h-2.341v-1h4z" fill="#fff"/></g></svg>