<svg height="24" viewBox="0 0 24 24" width="24" xmlns="http://www.w3.org/2000/svg" xmlns:xlink="http://www.w3.org/1999/xlink"><linearGradient id="a" x1="0%" x2="100%" y1="100%" y2="0%"><stop offset="0" stop-color="#055f4e"/><stop offset="1" stop-color="#56c0a7"/></linearGradient><g fill="none" fill-rule="evenodd"><path d="m0 0h24v24h-24z" fill="url(#a)"/><path d="m5.03225806 5h8.25806454v3h1.032258v-3.5c0-.133-.0547096-.26-.1507096-.354-.0970323-.093-.2281291-.146-.3654194-.146l-9.29032257.001c-.28490322 0-.51612903.225-.51612903.5v12.999c0 .276.23122581.5.51612903.5h7.74193547v-1h-7.22580644zm9.29032254 10h1.0322581v1h1.0322581v-1h1.032258v-1h-3.0967742zm4.6451613-1.5c0-2.061-1.2727742-3.5-3.0967742-3.5s-3.0967742 1.439-3.0967742 3.5c0 1.545 1.1726452 2.934 2.3349678 3.624.1517419.091.2456774.252.2456774.426v1.45h1.0322581v-1.45c0-.174.0939355-.335.2456774-.426 1.1623226-.69 2.3349677-2.079 2.3349677-3.624zm1.0322581 0c0 1.819-1.2593548 3.44-2.5806452 4.321v1.679c0 .276-.2312258.5-.516129.5h-2.0645161c-.2849032 0-.5161291-.224-.5161291-.5v-1.679c-1.3212903-.881-2.5806451-2.502-2.5806451-4.321 0-2.607 1.7372903-4.5 4.1290322-4.5 2.391742 0 4.1290323 1.893 4.1290323 4.5zm-13.93548387-5.5h3.09677419v-1h-3.09677419zm0 6h4.12903227v-1h-4.12903227zm0-2h4.12903227v-1h-4.12903227zm0-2h4.12903227v-1h-4.12903227z" fill="#fff"/></g></svg>