<svg height="24" viewBox="0 0 24 24" width="24" xmlns="http://www.w3.org/2000/svg" xmlns:xlink="http://www.w3.org/1999/xlink"><linearGradient id="a" x1="0%" x2="100%" y1="100%" y2="0%"><stop offset="0" stop-color="#c8511b"/><stop offset="1" stop-color="#f90"/></linearGradient><g fill="none" fill-rule="evenodd"><path d="m0 0h24v24h-24z" fill="url(#a)"/><path d="m10 14.6623v-2.562l2.219 1.281zm-.25-3.861c-.154-.089-.346-.089-.5 0-.154.09-.25.255-.25.433v4.294c0 .179.096.344.25.433.077.045.164.067.25.067s.173-.022.25-.067l3.719-2.147c.154-.089.25-.254.25-.433 0-.178-.096-.344-.25-.433zm5.25-1.506-2.219-1.281 2.219-1.281zm-8 1.073v-4.707l4.076 2.353zm-1-6.44-2.219-1.281 2.219-1.281zm0 10.735-2.219-1.281 2.219-1.281zm9.75-9.229c-.154-.089-.346-.089-.5 0l-3.321 1.917-4.929-2.845v-4.007c0-.178-.096-.343-.25-.433-.154-.089-.346-.089-.5 0l-3.719 2.148c-.154.089-.25.254-.25.433s.096.344.25.433l3.469 2.002v5.865l-3.469 2.002c-.154.089-.25.255-.25.433 0 .179.096.344.25.433l3.719 2.148c.077.044.164.067.25.067s.173-.023.25-.067c.154-.09.25-.255.25-.433v-4.008l4.929-2.845 3.321 1.917c.154.089.346.089.5 0s.25-.254.25-.433v-4.294c0-.179-.096-.344-.25-.433zm-14.75 3.861v-2.562l2.219 1.281zm3.719-1.281c0-.179-.096-.344-.25-.433l-3.719-2.148c-.154-.088-.346-.088-.5 0-.154.09-.25.255-.25.434v4.294c0 .179.096.344.25.433.077.045.164.067.25.067s.173-.022.25-.067l3.719-2.147c.154-.089.25-.254.25-.433zm5.281-6.648 2.219 1.281-2.219 1.281zm-.5 3.928c.086 0 .173-.023.25-.067l3.719-2.147c.154-.089.25-.254.25-.433s-.096-.344-.25-.433l-3.719-2.148c-.154-.089-.346-.089-.5 0-.154.09-.25.255-.25.433v4.295c0 .179.096.344.25.433.077.044.164.067.25.067z" fill="#fff" transform="translate(4 4)"/></g></svg>