<svg height="24" viewBox="0 0 24 24" width="24" xmlns="http://www.w3.org/2000/svg" xmlns:xlink="http://www.w3.org/1999/xlink"><linearGradient id="a" x1="0%" x2="100%" y1="100%" y2="0%"><stop offset="0" stop-color="#055f4e"/><stop offset="1" stop-color="#56c0a7"/></linearGradient><g fill="none" fill-rule="evenodd"><path d="m0 0h24v24h-24z" fill="url(#a)"/><path d="m19.0003335 18.2542846c.0169291-.1275409-.0159332-.229175-.097591-.3118773l-3.2882212-3.2024711c-.2619025.3228378-.5566674.617776-.8783195.8798326l3.2095508 3.2871662c.2091237.2102432.5566674.0617776.7857076-.1673973.1493741-.1484656.247961-.3258271.2688733-.4852531zm-8.0253708-2.2927461c2.7464912 0 4.9801315-2.2349542 4.9801315-4.983061 0-2.74711042-2.2336403-4.98206459-4.9801315-4.98206459-2.74449951 0-4.97913558 2.23495417-4.97913558 4.98206459 0 2.7481068 2.23463607 4.983061 4.97913558 4.983061zm9.0112397 2.4242726c-.0497914.3786369-.2459693.7542846-.5506924 1.0581905-.3674602.3676764-.8165783.5559984-1.2437881.5559984-.3525228 0-.691104-.1285373-.9540024-.3925867l-3.3390083-3.4196891c-.8653738.4882423-1.8612009.7702272-2.9237485.7702272-3.29419608 0-5.9749627-2.6823436-5.9749627-5.9794739 0-3.29613394 2.68076662-5.9784775 5.9749627-5.9784775 3.295192 0 5.9759586 2.68234356 5.9759586 5.9784775 0 1.0621761-.2808232 2.0585891-.7687785 2.9244719l3.4196703 3.3300119c.3087064.308888.4441389.7164209.3843893 1.1528498zm-10.92223191-6.4159028h-.99582712v1.9928259h1.99165423v-.996413h-.99582711zm-.99582712-1.9928258h.99582712v-.99641291h.99582711v-.99641291h-1.99165423zm3.98330853-.99641291h.9958271v.99641291h.9958271v-1.99282582h-1.9916542zm.9958271 2.98923871h.9958271v1.9928259h-1.9916542v-.996413h.9958271z" fill="#fff"/></g></svg>