<svg height="24" viewBox="0 0 24 24" width="24" xmlns="http://www.w3.org/2000/svg" xmlns:xlink="http://www.w3.org/1999/xlink"><linearGradient id="a" x1="0%" x2="100%" y1="100%" y2="0%"><stop offset="0" stop-color="#b0084d"/><stop offset="1" stop-color="#ff4f8b"/></linearGradient><g fill="none" fill-rule="evenodd"><path d="m0 0h24v24h-24z" fill="url(#a)"/><path d="m10.9695489 10.018873c-.322246 0-.585263.2620131-.585263.585263 0 .322246.263017.585263.585263.585263s.5842592-.263017.5842592-.585263c0-.3232499-.2620132-.585263-.5842592-.585263m-4.39900948.585263c0-.3232499-.263017-.585263-.58526302-.585263s-.58526301.2620131-.58526301.585263c0 .322246.26301699.585263.58526301.585263s.58526302-.263017.58526302-.585263m1.26890644-4.56063446c0 .36440905.29614509.66055414.66055414.66055414s.66055414-.29614509.66055414-.66055414-.29614509-.66055414-.66055414-.66055414-.66055414.29614509-.66055414.66055414m2.01177888 3.43327533-1.02094767-1.80196761c-.10641146.0220854-.21683844.0331281-.33027707.0331281-.11243475 0-.22286173-.0110427-.32826931-.0331281l-1.03399812 1.84212288c.15660554.16463659.27405969.36440905.34734306.58526306h1.98467407c.07930665-.23792.20679962-.45275068.38147504-.62541833m1.11832416-.46178557c.8753848 0 1.5881408.71275599 1.5881408 1.5891447 0 .8763887-.712756 1.5891447-1.5881408 1.5891447-.6997055 0-1.28898405-.4587739-1.4997992-1.0872039h-1.98467407c-.21081516.62843-.8000937 1.0872039-1.49979923 1.0872039-.8763887 0-1.58914469-.712756-1.58914469-1.5891447 0-.87638871.71275599-1.5891447 1.58914469-1.5891447.09235712 0 .1806987.01204658.26904029.0271048l1.04202918-1.85617721c-.28409851-.29815286-.46078169-.69970553-.46078169-1.14241735 0-.91754785.74688797-1.66443582 1.66443582-1.66443582s1.6644358.74688797 1.6644358 1.66443582c0 .44170794-.17668316.84125284-.45777003 1.14040958l1.04805243 1.85216169c.0702718-.00903493.1415474-.02108151.2148307-.02108151m4.0486548-4.22634186-.8723732.49692143c.5561505.97476911.8502878 2.08606613.8502878 3.21442913 0 3.5818498-2.9142685 6.4961183-6.4961183 6.4961183-1.34319368 0-2.63217775-.4075759-3.72741266-1.1765493l-.57622808.8211752c1.26388703.8894392 2.75264355 1.3592558 4.30364074 1.3592558 4.1349886 0 7.5-3.3650114 7.5-7.5 0-1.30203453-.339312-2.58499532-.9817963-3.71135056m-13.01432202 3.71135056c0 1.16651051.31321108 2.3109356.90550127 3.3077901l-.86333824.5129836c-.68364343-1.1524562-1.04604471-2.47456837-1.04604471-3.8207737 0-4.1359925 3.36501138-7.5 7.5-7.5 1.12936689 0 2.2155669.24494713 3.2284835.7288181l-.4336769.90650515c-.8763887-.41962254-1.81602197-.63144157-2.7948066-.63144157-3.58184982 0-6.49611832 2.91326462-6.49611832 6.49611832" fill="#fff" transform="translate(4 4)"/></g></svg>