<svg height="24" viewBox="0 0 24 24" width="24" xmlns="http://www.w3.org/2000/svg" xmlns:xlink="http://www.w3.org/1999/xlink"><linearGradient id="a" x1="0%" x2="100%" y1="100%" y2="0%"><stop offset="0" stop-color="#c8511b"/><stop offset="1" stop-color="#f90"/></linearGradient><g fill="none" fill-rule="evenodd"><path d="m0 0h24v24h-24z" fill="url(#a)"/><path d="m9.106 13.841h.012c-1.165.549-1.371 1.194-1.371 1.824h-1c0-1.361.74-2.279 2.359-2.91zm9 3.771c0 .126-.103.229-.229.229h-6.542c-.126 0-.229-.103-.229-.229v-4.542c0-.126.103-.229.229-.229h6.542c.126 0 .229.103.229.229zm-.229-5.771h-6.542c-.678 0-1.229.551-1.229 1.229v4.542c0 .678.551 1.229 1.229 1.229h6.542c.678 0 1.229-.551 1.229-1.229v-4.542c0-.678-.551-1.229-1.229-1.229zm1.23-2.008v1c-11.617 0-13.107 1.392-13.107 2.605h-1c0-1.436 1.001-2.517 4.854-3.105-3.853-.589-4.854-1.669-4.854-3.105h1c0 1.213 1.49 2.605 13.107 2.605zm0-1.804v1c-10.863 0-12.36-1.937-12.36-4.029h1c0 .906 0 3.029 11.36 3.029zm-5.038 7.769v-.914l.913.457zm2.255-.904-2.531-1.266c-.156-.078-.339-.068-.487.022-.147.091-.237.252-.237.425v2.532c0 .173.09.334.237.425.08.05.171.075.263.075.076 0 .153-.018.224-.053l2.531-1.266c.169-.085.276-.258.276-.447s-.107-.362-.276-.447z" fill="#fff"/></g></svg>