<svg height="24" viewBox="0 0 24 24" width="24" xmlns="http://www.w3.org/2000/svg" xmlns:xlink="http://www.w3.org/1999/xlink"><linearGradient id="a" x1="0%" x2="100%" y1="100%" y2="0%"><stop offset="0" stop-color="#b0084d"/><stop offset="1" stop-color="#ff4f8b"/></linearGradient><g fill="none" fill-rule="evenodd"><path d="m0 0h24v24h-24z" fill="url(#a)"/><path d="m0 10h6v-1h-6zm3-2h4v-1h-4zm5.507.602c0-.103 0-.343.372-.432.248-.06.411-.296.379-.549-.004-.034-.007-.067-.007-.101 0-.257.21-.626.511-.747.138-.055.266-.077.382-.077.327 0 .556.176.657.271.109.104.199.245.26.408.063.169.257.275.436.303.189.029.405-.061.515-.203.048.014.083.084.095.184-.001.105.03.208.09.294.078.11.197.185.33.207.314.051.473.202.473.449 0 .308-.235.382-.417.391h-3.565c-.245 0-.498-.125-.511-.398zm4.086 1.398c.565-.011 1.407-.391 1.407-1.391 0-.73-.463-1.154-.96-1.342-.121-.367-.385-.642-.736-.749-.197-.06-.397-.062-.583-.013-.071-.095-.148-.183-.233-.264-.574-.544-1.359-.693-2.097-.396-.594.237-1.054.859-1.129 1.494-.474.249-.755.72-.7530106 1.349.0390106.747.6870106 1.311 1.5090106 1.312zm1.907 5h-7c-.275 0-.5-.224-.5-.5v-.5h8v.5c0 .276-.225.5-.5.5zm-7.5-13v-.5c0-.276.225-.5.5-.5h7c.275 0 .5.224.5.5v.5zm7.5-2h-7c-.827 0-1.5.673-1.5 1.5v4.5h1v-3h8v10h-8v-2h-1v3.5c0 .827.673 1.5 1.5 1.5h7c.827 0 1.5-.673 1.5-1.5v-13c0-.827-.673-1.5-1.5-1.5z" fill="#fff" transform="translate(4 4)"/></g></svg>