<svg height="24" viewBox="0 0 24 24" width="24" xmlns="http://www.w3.org/2000/svg" xmlns:xlink="http://www.w3.org/1999/xlink"><linearGradient id="a" x1="0%" x2="100%" y1="100%" y2="0%"><stop offset="0" stop-color="#bd0816"/><stop offset="1" stop-color="#ff5252"/></linearGradient><g fill="none" fill-rule="evenodd"><path d="m0 0h24v24h-24z" fill="url(#a)"/><path d="m10.0551629 10.8101076.846582.834626c.1240854.1220915.1751204.2982236.1360936.4673505l-.1651135.7215411.8725999-.517388c.1631122-.0960721.3662518-.0920691.5243605.008006l.7275002.4643482-.1501032-.6815111c-.0380262-.1741306.019013-.3562672.1501032-.477358l.9066233-.8286215-1.1457878-.1861396c-.1651135-.0270202-.3052098-.1351013-.375258-.2862146l-.3862655-.84663502-.3952718.85063802c-.0690474.1501125-.2091437.2561921-.3712552.2832124zm-.41728686 2.9392044.36224906-1.5881912-1.34592534-1.327996c-.13509287-.132099-.1831259-.3282461-.12608668-.5073805.05603852-.1801351.20914378-.3112334.39427106-.34225668l1.88329476-.31223418.7415098-1.5951964c.0820564-.17713285.2751892-.30022517.455313-.28921691.1961349 0 .3722559.11508631.4533117.29221916l.7264994 1.59019265 1.9003065.30923192c.1901307.03102324.3442367.16712534.4002752.35126344.0550378.1831374-.0010007.3822867-.1420977.5113835l-1.4539996 1.331999.3482394 1.5771829c.0440303.1971479-.0360248.401301-.2011383.5173881-.1651135.1150863-.3852649.1210908-.5563825.012009l-1.485021-.9457093-1.6121083.9567175c-.0780536.0460346-.1671149.0700526-.2551754.0700526-.1030709 0-.20714243-.032024-.29520297-.0960721-.16111076-.1180885-.23716305-.3212409-.19213209-.5153865zm9.34542496-7.67675758-.0010007-1.07180386h-13.98161233v1.07180386zm1.016699 13.42506878c0 .1320991-.0530365.2591944-.1471011.3542657-.0940647.0930698-.2211521.1461096-.3532429.1461096h-2.4957158v-1.0007506h1.9943711l-.0140096-11.92394292h-13.98361373v11.92594442h9.00118833v1.0007506h-9.50153231c-.27618988 0-.50034399-.2241681-.50034399-.5003753v-14.99924942c0-.2772079.22415411-.50037528.50034399-.50037528h14.98129961c.2761899 0 .500344.22316738.500344.49937453zm-13.00293952-1.4811108h2.00137595v-1.0007506h-2.00137595zm4.00275192.012009h4.0027519v-1.0007506h-4.0027519zm-4.00275192-2.0085064h2.00137595v-1.0007506h-2.00137595zm4.00275192 0h6.0041278v-1.0007506h-6.0041278z" fill="#fff"/></g></svg>