<svg height="24" viewBox="0 0 24 24" width="24" xmlns="http://www.w3.org/2000/svg" xmlns:xlink="http://www.w3.org/1999/xlink"><linearGradient id="a" x1="0%" x2="100%" y1="100%" y2="0%"><stop offset="0" stop-color="#b0084d"/><stop offset="1" stop-color="#ff4f8b"/></linearGradient><g fill="none" fill-rule="evenodd"><path d="m0 0h24v24h-24z" fill="url(#a)"/><path d="m9.00031252 15.0235082h2.00012498v-.9613286h-2.00012498zm9.04156508-3.8308948c-.1270079-1.0930307-.7880492-1.6909771-1.4090881-1.88997214-.4560285-.14708329-.9300581-.10766881-1.344084.09132623-.1640102-.44028854-.4340271-.93729547-.9420588-1.4045012-1.0900682-1.00074316-3.4732171-1.29779372-5.10431905-.63447693-1.27807988.52104014-2.65616601 1.9611105-2.73817114 3.42521404-.864054.2845533-1.50409401 1.2535726-1.50409401 1.9207347h1.00006251c0-.2826306.48603037-1.0411189 1.0000625-1.0411189.27601725 0 .50003125-.2143763.50003125-.4806644v-.2614814c0-.94594738 1.01706357-2.22259186 2.13313332-2.67730033 1.26007872-.51431084 3.21520092-.29801189 4.02125132.44413385.6050378.55564798.752047 1.16513036.8700544 1.65348538.0440027.1816911.1950122.3230064.384024.3614595.1900119.0403758.3860241-.0317238.5030314-.1807298.2300144-.2932052.575036-.409526.9030565-.3047411.3620226.1163207.7490468.53546.7490468 1.3650867 0 .2355255.176011.4354819.4170261.473935 1.0220638.1634259 1.5190949.830588 1.5190949 2.0409008 0 1.7832647-1.3810863 1.9341933-1.5050941 1.9447679h-6.4884055v.9613287h5.2123258l1.3050815-.0009613c.8570536-.0480665 2.4761548-.7171512 2.4761548-2.9051353 0-1.9572652-1.0930683-2.6551898-1.9581224-2.90129zm-10.04162758 5.8073866h2.00012498v-.9613287h-2.00012498zm-3.00018752 0h2.00012501v-.9613287h-2.00012501zm-1.0000625-1.9764918h3.00018751v-.9613286h-3.00018751z" fill="#fff"/></g></svg>