<svg height="24" viewBox="0 0 24 24" width="24" xmlns="http://www.w3.org/2000/svg" xmlns:xlink="http://www.w3.org/1999/xlink"><linearGradient id="a" x1="0%" x2="100%" y1="100%" y2="0%"><stop offset="0" stop-color="#055f4e"/><stop offset="1" stop-color="#56c0a7"/></linearGradient><g fill="none" fill-rule="evenodd"><path d="m0 0h24v24h-24z" fill="url(#a)"/><path d="m7.99181414 12.029029h3.00588416v-1.001001h-3.00588416zm10.91336336 5.3223224-4.0409103-3.8048049c-.3667178.4974975-.8085828.935936-1.3095635 1.3023023l3.8174729 3.982983c.0691353.0700701.2765413.1351352.5641042.1051051.2875629-.027027.5621004-.1401401.7143985-.2922923.1593118-.1591591.2905688-.4504504.3326512-.7417417.0420823-.2832833-.0110216-.4854855-.078153-.5515515zm-8.94951906-2.3253254c2.80148406 0 5.08094616-2.2522522 5.08094616-5.021021 0-2.75975975-2.2794621-5.004004-5.08094616-5.004004-2.77743694 0-4.95369706 2.1981982-4.95369706 5.004004 0 2.8158158 2.17626012 5.021021 4.95369706 5.021021zm10.01961376 3.022022c-.0741451.5055056-.3035943.992993-.6162062 1.3053054-.3176218.3173173-.8015691.5295295-1.3255949.5805805-.078153.007007-.155304.011011-.2314531.011011-.4689179 0-.8797221-.1451451-1.1462438-.4124124l-3.9767847-4.1501501c-.8196044.4084084-1.7434128.6446446-2.72333106.6446446-3.33953728 0-5.95565844-2.6446446-5.95565844-6.022022 0-3.36736736 2.61612116-6.005005 5.95565844-6.005005 3.35456666 0 6.08290756 2.69369369 6.08290756 6.005005 0 .95996-.234459 1.8648649-.6392514 2.6706707l4.203228 3.9569569c.3246355.3243244.4568944.8358359.3727296 1.4154154zm-7.4586005-11.09209204h-4.52485756v1.001001h4.02387686v5.03603604h1.0019614v-5.53653654c0-.27727728-.2244393-.5005005-.5009807-.5005005zm-1.4979322 12.04304304h-4.02888674v-3.003003h-1.00196138v3.5035035c0 .2772773.22443935.5005005.50098069.5005005h5.03084813c.2765413 0 .5009806-.2232232.5009806-.5005005v-2.5025025h-1.0019613zm-4.02888674-8.977978h4.00784554v-1.00100098h-4.00784554z" fill="#fff"/></g></svg>