<svg height="24" viewBox="0 0 24 24" width="24" xmlns="http://www.w3.org/2000/svg" xmlns:xlink="http://www.w3.org/1999/xlink"><linearGradient id="a" x1="0%" x2="100%" y1="100%" y2="0%"><stop offset="0" stop-color="#bd0816"/><stop offset="1" stop-color="#ff5252"/></linearGradient><g fill="none" fill-rule="evenodd"><path d="m0 0h24v24h-24z" fill="url(#a)"/><path d="m6 12.5c0 1.711.659 3.327 1.857 4.549l-.714.7c-1.382-1.41-2.143-3.274-2.143-5.249 0-1.126.243-2.208.723-3.215l.902.43c-.415.872-.625 1.809-.625 2.785zm2.786-5.335-.572-.82c1.261-.88 2.743-1.345 4.286-1.345 2.032 0 3.935.8 5.357 2.251l-.714.701c-1.233-1.259-2.882-1.952-4.643-1.952-1.337 0-2.621.403-3.714 1.165zm11.214 5.335c0 1.975-.761 3.839-2.143 5.249l-.714-.7c1.198-1.222 1.857-2.838 1.857-4.549zm-4.54 4.265c-.441 1.703-2.726 2.068-3.165 2.124-.686-.255-1.341-.585-1.813-.914-.906-.63-1.195-1.867-.642-2.842l.06-.097c.46-.721.452-1.643.338-2.361.261.275.488.612.605.828.094.174.292.274.479.261.198-.015.367-.145.433-.332.341-.969.331-1.777.178-2.415 1.077.802 2.275 2.13 1.983 3.949-.032.204.064.408.243.512.18.104.404.086.565-.043.061-.049.47-.401.751-1.193.196.489.305 1.284-.015 2.523zm-.008-4.088c-.148-.081-.324-.083-.473-.005-.129.069-.222.191-.254.332-.862-2.474-3.78-3.745-3.934-3.81-.227-.098-.489-.011-.619.198-.13.21-.085.484.102.645.041.035.818.717.752 2.017-.393-.43-.93-.837-1.547-.837-.166 0-.319.082-.413.218-.092.135-.113.309-.054.462.178.464.534 1.834.047 2.599l-.104.17c-.79 1.394-.37 3.208.956 4.129.567.395 1.319.772 2.124 1.063.061.026.127.039.194.039.015 0 .031-.001.045-.002.358-.032 3.508-.388 4.155-2.88.849-3.295-.902-4.297-.977-4.338z" fill="#fff"/></g></svg>