<svg height="24" viewBox="0 0 24 24" width="24" xmlns="http://www.w3.org/2000/svg" xmlns:xlink="http://www.w3.org/1999/xlink"><linearGradient id="a" x1="0%" x2="100%" y1="100%" y2="0%"><stop offset="0" stop-color="#4d27a8"/><stop offset="1" stop-color="#a166ff"/></linearGradient><g fill="none" fill-rule="evenodd"><path d="m0 0h24v24h-24z" fill="url(#a)"/><path d="m6 6.76751613 2-1.33304875v13.13148022l-2-1.3330488zm-1-.2680098v11.00040227c0 .1670061.084.3240118.223.4160152l3 2.0000731c.084.0560021.18.0840031.277.0840031.081 0 .162-.0190007.236-.0590022.162-.0870031.264-.2560093.264-.4410161v-2.5000914h1v-1.0000366h-1v-8.00029252h1v-1.00003657h-1v-2.50009142c0-.18400673-.102-.35401294-.264-.44001609-.162-.08700318-.359-.07800285-.513.02400088l-3 2.00007314c-.139.0930034-.223.2490091-.223.41601521zm14 10.73339247-2 1.3330488v-13.13148022l2 1.33304875zm.777-11.14940768-3-2.00007314c-.154-.10200373-.351-.11100406-.513-.02400088-.162.08600315-.264.25600936-.264.44001609v2.50009142h-1v1.00003657h1v8.00029252h-1v1.0000366h1v2.5000914c0 .1850068.102.354013.264.4410161.074.0400015.155.0590022.236.0590022.097 0 .193-.028001.277-.0840031l3-2.0000731c.139-.0920034.223-.2490091.223-.4160152v-11.00040227c0-.16700611-.084-.32301181-.223-.41601521zm-6.777 1.91607006h1v-1.00003657h-1zm-2 0h1v-1.00003657h-1zm2 9.00032912h1v-1.0000366h-1zm-2 0h1v-1.0000366h-1zm2.18-2.1150773-3-2.5000915c-.115-.0960035-.18-.2360086-.18-.385014 0-.1480055.065-.2890106.18-.3840141l3-2.50009141.64.76902812-2.539 2.11507739 2.539 2.1160773z" fill="#fff"/></g></svg>