<svg height="24" viewBox="0 0 24 24" width="24" xmlns="http://www.w3.org/2000/svg" xmlns:xlink="http://www.w3.org/1999/xlink"><linearGradient id="a" x1="0%" x2="100%" y1="100%" y2="0%"><stop offset="0" stop-color="#b0084d"/><stop offset="1" stop-color="#ff4f8b"/></linearGradient><g fill="none" fill-rule="evenodd"><path d="m0 0h24v24h-24z" fill="url(#a)"/><path d="m6.5 8c.275 0 .5.224.5.5s-.225.5-.5.5-.5-.224-.5-.5.225-.5.5-.5zm-.5 3.5c0-.52.076-1.03.197-1.531.098.02.199.031.303.031.827 0 1.5-.673 1.5-1.5s-.673-1.5-1.5-1.5-1.5.673-1.5 1.5c0 .336.115.644.303.894-.199.682-.303 1.391-.303 2.106 0 3.132 1.975 5.962 4.913 7.042l.346-.938c-2.548-.937-4.259-3.389-4.259-6.104zm13-3c0 .276-.225.5-.5.5s-.5-.224-.5-.5.225-.5.5-.5.5.224.5.5zm-6.5-3.5c1.969 0 3.773.868 5.014 2.379-.313.275-.514.673-.514 1.121 0 .827.673 1.5 1.5 1.5s1.5-.673 1.5-1.5-.673-1.5-1.5-1.5h-.002c-1.413-1.878-3.65-3-5.998-3-1.869 0-3.66.692-5.043 1.949l.672.74c1.198-1.089 2.751-1.689 4.371-1.689zm0 14c-.275 0-.5-.224-.5-.5s.225-.5.5-.5.5.224.5.5-.225.5-.5.5zm6.465-8.187c.023.226.035.455.035.687 0 3.098-2.157 5.713-5.158 6.343-.245-.497-.752-.843-1.342-.843-.827 0-1.5.673-1.5 1.5s.673 1.5 1.5 1.5c.705 0 1.294-.491 1.454-1.147 3.515-.69 6.046-3.744 6.046-7.353 0-.267-.014-.531-.041-.791zm-8.465 4.128-1.5-.75v-1.882l1.258-.629c.008.005.011.013.018.017l1.724.862v1.632zm2-6.632 1.5.75v1.632l-1.5.75-1.5-.75v-1.632zm3.5 5.882-1.5.75-1.5-.75v-1.632l1.724-.862c.007-.004.01-.012.018-.017l1.258.629zm-1.724 1.756c.071.035.148.053.224.053s.153-.018.224-.053l2-1c.169-.085.276-.258.276-.447v-2.5c0-.189-.107-.362-.276-.447l-1.724-.862v-1.941c0-.189-.107-.362-.276-.447l-2-1c-.141-.071-.307-.071-.448 0l-2 1c-.169.085-.276.258-.276.447v1.941l-1.724.862c-.169.085-.276.258-.276.447v2.5c0 .189.107.362.276.447l2 1c.071.035.148.053.224.053s.153-.018.224-.053l1.776-.888z" fill="#fff"/></g></svg>