<svg height="24" viewBox="0 0 24 24" width="24" xmlns="http://www.w3.org/2000/svg" xmlns:xlink="http://www.w3.org/1999/xlink"><linearGradient id="a" x1="0%" x2="100%" y1="100%" y2="0%"><stop offset="0" stop-color="#c8511b"/><stop offset="1" stop-color="#f90"/></linearGradient><g fill="none" fill-rule="evenodd"><path d="m0 0h24v24h-24z" fill="url(#a)"/><path d="m12 16.9128383c-.274 0-.543-.0248323-.808-.060591l.808-3.6096349.808 3.6096349c-.265.0357587-.534.060591-.808.060591zm.053-9.43133842c1.883.04271169 3.414 1.59920536 3.414 3.46958032 0 1.4402781-.915 2.7256022-2.232 3.2331761l-.747-3.3384654c-.051-.2274646-.254-.3893717-.488-.3893717s-.437.1619071-.488.3893717l-.751 3.357338c-1.364-.4896946-2.294-1.7740253-2.294-3.2520487 0-1.87037496 1.529-3.42686863 3.465-3.4745468zm5.564 1.37174075c.254.669481.383 1.37571397.383 2.09982617 0 2.6689844-1.775 4.9336975-4.215 5.6905885l-.333-1.4899429c1.77-.6148497 3.015-2.3004718 3.015-4.2026322 0-2.4057611-1.97-4.40725105-4.334-4.4579091-.059-.00893966-.109-.00993296-.168-.00993296l-.111.00496648c-2.419.05562453-4.387 2.05711448-4.387 4.46287558 0 1.9438788 1.254 3.6295009 3.076 4.2244847l-.328 1.4680904c-2.44-.756891-4.215-3.0216041-4.215-5.6905885 0-3.28681401 2.691-5.95977154 6-5.95977154 1.181 0 2.304.33871368 3.268.96448969h-.408v.99329526h2.32v-2.30543829h-1v.73901167c-1.201-.89396573-2.649-1.38465359-4.18-1.38465359-3.859 0-7 3.11894711-7 6.9530668 0 3.1427862 2.111 5.8018376 4.998 6.6600447l-.486 2.1723367.976.2145518.488-2.1763099c.335.0486715.675.0824435 1.024.0824435s.689-.033772 1.024-.0824435l.488 2.1763099.976-.2145518-.486-2.1723367c2.887-.8582071 4.998-3.5172585 4.998-6.6600447 0-.844301-.15-1.66873603-.447-2.4504594z" fill="#fff"/></g></svg>