<svg height="24" viewBox="0 0 24 24" width="24" xmlns="http://www.w3.org/2000/svg" xmlns:xlink="http://www.w3.org/1999/xlink"><linearGradient id="a" x1="0%" x2="100%" y1="100%" y2="0%"><stop offset="0" stop-color="#055f4e"/><stop offset="1" stop-color="#56c0a7"/></linearGradient><g fill="none" fill-rule="evenodd"><path d="m0 0h24v24h-24z" fill="url(#a)"/><path d="m16 14.9833825v5.0166175h-.99614v-5.0166175c0-.4454757-.733159-1.8019691-1.0588967-1.9695241h-2.9416013v.0010033h-.99614c-.25899637.1304321-1.01108204 1.5170252-1.01108204 1.9685208v.0290963h3.51737014v1.0033235h-3.51737014v3.9841977h-.99613996v-5.0166175c0-.3802597.32274935-1.2882674.78695057-2.0036371-.53193874-.1585251-.77698917-.8748981-.77698917-1.5491315v-5.94669843c0-.71436634.31278795-1.48391547 1.00112066-1.48391547h2.98841984v1.00332351h-2.90075953c-.04482629.09029911-.09264101.28193391-.09264101.48059196v5.94669843c0 .2277544.05877225.4685521.11156767.579921h3.87797287.9961399.0019923.8855684c.0517993-.1123722.1085793-.3521666.1085793-.579921v-5.94669843c0-.19765473-.0458224-.38928952-.0896526-.48059196h-.9064874v-1.00332351h.99614c.6853443 0 .99614.76954913.99614 1.48391547v5.94669843c0 .6732301-.2430582 1.3896031-.7710124 1.5491315.4651974.7153697.7869506 1.6233774.7869506 2.0036371m-3.0481883-6.506553c0 .52875149-.4263479.95917727-.9523098.95917727-.5249657 0-.9523098-.43042578-.9523098-.95917727 0-.52975482.4273441-.95917728.9523098-.95917728.5259619 0 .9523098.42942246.9523098.95917728m-2.9007595 0c0 1.08158274.8746109 1.9625008 1.9484497 1.9625008 1.0738389 0 1.9484498-.88091806 1.9484498-1.9625008 0-1.08258607-.8746109-1.96250079-1.9484498-1.96250079-1.0738388 0-1.9484497.87991472-1.9484497 1.96250079" fill="#fff"/></g></svg>