<svg height="24" viewBox="0 0 24 24" width="24" xmlns="http://www.w3.org/2000/svg" xmlns:xlink="http://www.w3.org/1999/xlink"><linearGradient id="a" x1="0%" x2="100%" y1="100%" y2="0%"><stop offset="0" stop-color="#c8511b"/><stop offset="1" stop-color="#f90"/></linearGradient><g fill="none" fill-rule="evenodd"><path d="m0 0h24v24h-24z" fill="url(#a)"/><path d="m12 6.92503688v1.80333914h1v-1.80333914l.646.64972509.708-.71107684-1.854-1.86368513-1.854 1.86368513.708.71107684zm8 4.82063832h-2.293l.647-.6507309-.708-.7110768-1.853 1.8646909 1.853 1.8636851.708-.7110768-.647-.6497251h2.293zm-13.354-.6507309.647.6507309h-2.293v1.0057664h2.293l-.647.6497251.708.7110768 1.853-1.8636851-1.853-1.8646909zm4.354 2.6622637h3v-3.0172992h-3zm-1 1.0057664h5v-5.02883198h-5zm3.646 2.6612579.708.7110768-1.854 1.8646909-1.854-1.8646909.708-.7110768.646.6507308v-2.3062223h1v2.3062223z" fill="#fff"/></g></svg>