<svg height="24" viewBox="0 0 24 24" width="24" xmlns="http://www.w3.org/2000/svg" xmlns:xlink="http://www.w3.org/1999/xlink"><linearGradient id="a" x1="0%" x2="100%" y1="100%" y2="0%"><stop offset="0" stop-color="#bd0816"/><stop offset="1" stop-color="#ff5252"/></linearGradient><g fill="none" fill-rule="evenodd"><path d="m0 0h24v24h-24z" fill="url(#a)"/><path d="m17.0080604 12.5178188c-.1238207.0561899-.2199056.1598506-.2634905.2857934l-.3526414 1.0317625c-.0435849.129818-.029717.2722303.038632.3913916l1.0232545 1.780638-2.6220277 1.8629853-1.4293865-1.5151893c-.0921227-.0997854-.2248585-.1559753-.3635377-.1559753l-1.0826885-.0009688c-.1376886 0-.2704244.0571587-.3645282.1559753l-1.4254242 1.5142205-2.62301835-1.8629853 1.02424508-1.7835443c.06834904-.1181926.08221696-.2596361.03863206-.3894541l-.3506603-1.0317625c-.0435849-.1278804-.13867922-.2325098-.26448108-.2886997l-1.88801848-.8467234 1.00245262-3.01487788 2.05641468.4020483c.13372639.02615736.27438673-.00290638.38632067-.08137845l.8855659-.62390146c.113915-.07944087.1872169-.20150855.203066-.3371393l.2426886-2.04124282h3.242122l.2456603 2.04414919c.015849.13466196.0891509.25672964.2020754.33617051l.8885376.62487025c.1119339.07944087.2506131.10947339.3863207.08234724l2.0524524-.40301709 1.0004715 3.01584661zm2.9677353-.7382188-1.2728771-3.83544389c-.0782547-.23347865-.3189622-.37589094-.5685848-.3255138l-2.2733486.4456439-.5358961-.37685973-.2714151-2.25922082c-.029717-.24413535-.2407075-.42820566-.4923112-.42820566h-4.122735c-.2516037 0-.46358482.18407031-.49231123.42917445l-.26745278 2.25728323-.53391498.37492216-2.27731086-.4456439c-.24367919-.05037714-.49033009.09203515-.56858479.3255138l-1.27485823 3.83447516c-.07726413.2344474.03566037.4873019.26547165.5899937l2.09306561.9387586.21396222.6297142-1.13221675 1.9724587c-.12382073.2141028-.06240565.4843955.14066035.6287454l3.33523516 2.3706318c.20306603.1453186.48438673.1181925.65575463-.0639402l1.5769808-1.6750398.6488206.0009688 1.5799525 1.6760085c.0970754.1026919.2298113.1559754.3635377.1559754.1020282 0 .203066-.0300325.2912263-.0920352l3.3362257-2.369663c.2040566-.1453186.2644811-.4156113.1406604-.6297142l-1.1322168-1.9695522.2149528-.6287455 2.0950468-.9416649c.2288207-.1017231.3417452-.3555463.2644811-.589025zm-6.0117441.7517819c0 .1627569-.0416038 1.5888174-1.4858488 1.5888174-1.430377 0-1.4838676-1.4338108-1.4858487-1.5946301v-1.9298319l1.4858487-.62971419 1.4858488.62971419zm.6924055-2.69808317-1.9811317-.83994187c-.1258018-.05231472-.2694339-.05231472-.3942452 0l-1.9811316.83994187c-.1812736.07750329-.2981603.25188567-.2981603.44467507v2.2475954c0 .8864438.5170753 2.5634212 2.4764145 2.5634212 1.9583487 0 2.4764146-1.6731022 2.4764146-2.5576085v-2.2534081c0-.1927894-.1168867-.36717178-.2981603-.44467507z" fill="#fff"/></g></svg>