<svg height="24" viewBox="0 0 24 24" width="24" xmlns="http://www.w3.org/2000/svg" xmlns:xlink="http://www.w3.org/1999/xlink"><linearGradient id="a" x1="0%" x2="100%" y1="100%" y2="0%"><stop offset="0" stop-color="#2e27ad"/><stop offset="1" stop-color="#527fff"/></linearGradient><g fill="none" fill-rule="evenodd"><path d="m0 0h24v24h-24z" fill="url(#a)"/><path d="m17 15.17575-5.5 3.176-5.5-3.176v-6.127l5.5-2.979 5.5 2.979zm.738-6.865-6-3.25c-.148-.081-.328-.081-.476 0l-6 3.25c-.161.088-.262.256-.262.44v6.714c0 .178.096.343.25.433l6 3.464c.077.044.164.067.25.067s.173-.023.25-.067l6-3.464c.154-.09.25-.255.25-.433v-6.714c0-.184-.101-.352-.262-.44zm-4.372 2.035-1.741 1.007-1.861-1.076 1.736-.933zm-1.366 4.818v-2.873l2-1.156v2.955zm-3-4.173 2 1.156v3.017l-2-1.074zm2.264-2.655-3 1.612c-.162.087-.264.256-.264.44v4c0 .184.102.354.264.441l3 1.612c.073.04.155.06.236.06s.163-.02.236-.06l3-1.612c.162-.087.264-.257.264-.441v-4c0-.184-.102-.353-.264-.44l-3-1.612c-.146-.079-.326-.079-.472 0z" fill="#fff"/></g></svg>