<svg height="24" viewBox="0 0 24 24" width="24" xmlns="http://www.w3.org/2000/svg" xmlns:xlink="http://www.w3.org/1999/xlink"><linearGradient id="a" x1="0%" x2="100%" y1="100%" y2="0%"><stop offset="0" stop-color="#055f4e"/><stop offset="1" stop-color="#56c0a7"/></linearGradient><g fill="none" fill-rule="evenodd"><path d="m0 0h24v24h-24z" fill="url(#a)"/><path d="m17.0174582 9.89592537c-.1611914-1.63677817-1.1273387-2.18505854-1.563857-2.35135682-.5326325-.20056579-1.1243352-.17637695-1.6219261.03729113-.2072461-.59061084-.5666729-1.19432397-.9651461-1.5752982-1.2735123-1.21548921-4.21500532-1.46040121-5.70677679-.00705508-1.11532445 1.08748993-1.1473625 3.24735176-1.1473625 3.49024803v.39004505c-.885051.06147996-2.01238971.42229682-2.01238971 2.54587542h1.00118891c0-1.5501015.60171454-1.5501015 1.51179526-1.5501015.27632814 0 .50059445-.2247547.50059445-.5039342v-.88188477c0-.67224818.17620925-2.11551562.84300107-2.7655907 1.13434704-1.10764729 3.49515051-.77505074 4.32013011.01310229.3994744.3819821.7979476 1.20037118.8349916 1.71639977.0150178.20258153.148176.37593488.3404042.44144633.1902259.06450357.402478.00806294.5356361-.14513304.2733246-.31445492.778925-.42532044 1.213441-.2610379.5967085.2257625.938114.91615231.938114 1.89378462 0 .2791795.2242663.5039341.5005944.5039341 1.2154434 0 2.45892.2439042 2.45892 2.0479885 0 1.8716115-1.3836431 1.982477-1.5258119 1.9895321h-1.971341v1.0078683h1.9843564c.869032-.0221731 2.5139854-.6762796 2.5139854-2.9974004 0-1.3122446-.5326325-2.8623461-2.9825418-3.03872303zm-2.2476691 4.07985103c.1381641.0937317.2202616.2509592.2202616.4182653 0 .1673062-.0830987.3235258-.2212628.4172575l-3.0305988 2.0550435c-.1541831.1038105-.3514173.1138892-.5156123.0272125-.1631938-.0876846-.2653151-.2580143-.2653151-.4454778v-.5311466h-3.45510289c-.27632814 0-.50059445-.2257625-.50059445-.5039342v-.0604721l-1.552844 1.0753955 1.56686064 1.1016001v-.1088498c0-.2781716.22326513-.5039341.50059446-.5039341h2.01038733v1.0078683h-1.50979288v.5714613c0 .1874635-.10412364.359809-.26931981.4464857-.07308679.038299-.15218072.0574485-.23127464.0574485-.10112008 0-.20123897-.0312439-.28634003-.091716l-2.94549778-2.0701616c-.1351605-.0947396-.21525562-.2499513-.2142637-.4142339.00101046-.1662982.08110558-.3205021.21726727-.4142338l2.93148113-2.0308547c.15418309-.1068341.3524185-.1179206.51661348-.0312439.16519617.0866766.26731744.2590221.26731744.4454778v.5160285h3.45510293c.2773293 0 .5005945.2257626.5005945.5039342v.0886924l1.6359426-1.109663-1.6359426-1.1126866v.1491645c0 .2791795-.2232652.5039341-.5005945.5039341h-1.97033977v-1.0078683h1.46974527v-.5946423c0-.1864557.1031225-.3577933.2663163-.4444699.1621926-.0886925.3614292-.0786138.5156123.0272124z" fill="#fff"/></g></svg>