<svg height="24" viewBox="0 0 24 24" width="24" xmlns="http://www.w3.org/2000/svg" xmlns:xlink="http://www.w3.org/1999/xlink"><linearGradient id="a" x1="0%" x2="100%" y1="100%" y2="0%"><stop offset="0" stop-color="#2e27ad"/><stop offset="1" stop-color="#527fff"/></linearGradient><g fill="none" fill-rule="evenodd"><path d="m0 0h24v24h-24z" fill="url(#a)"/><path d="m16 10.596026c0 .5421602-.448.9839567-1 .9839567-.086 0-.164-.0285347-.244-.0482139l-1.305 1.2840635c.021.0787165.049.1554651.049.2400854 0 .5421602-.448.9839567-1 .9839567s-1-.4417965-1-.9839567c0-.0846203.028-.1613689.049-.2400854l-2.049-2.0161272-1.549 1.5241489c.021.0787165.049.1554651.049.2400854 0 .5421601-.448.9839567-1 .9839567s-1-.4417966-1-.9839567.448-.9839567 1-.9839567c.086 0 .164.0285348.244.0482139l1.466-1.4424805c-.123-.1633368-.21-.35520836-.21-.57364674 0-.54216013.448-.98395668 1-.98395668s1 .44179655 1 .98395668c0 .21843838-.087.41030994-.21.57364674l1.966 1.9344588c.08-.0196791.158-.0482139.244-.0482139s.164.0285348.244.0482139l1.305-1.2840634c-.021-.0787166-.049-.1554652-.049-.2400855 0-.5421601.448-.98395664 1-.98395664s1 .44179654 1 .98395664m.5 3.9358267h-2c-.104 0-.204.0314867-.289.0905241l-4.211 2.9341588v-2.5327045c0-.2715721-.224-.4919784-.5-.4919784h-2.49c-.126 0-.312-.0236149-.475-.134802l-.107-.0728128c-.691-.4634436-1.428-1.0380743-1.428-1.9866085 0-1.8518065 1.983-2.58485424 2.067-2.61535689.198-.07084488.33-.25582874.33-.46245964 0-1.20731484.812-2.55139966 1.81-2.99713203.45-.20072717.866-.28042766 1.244-.28042766 1.08 0 1.845.65334724 2.179 1.00658768.37.39161476.672.91507971.872 1.51430933.059.1771122.216.30601052.403.33257735.196.02755079.375-.05313366.484-.20761486.251-.35914418.68-.51952912 1.068-.40145432.484.14857746.773.67991406.773 1.38836287-.034.25976456.145.49984997.406.54707987.554.1003636 2.364.5559356 2.364 2.1981593 0 1.9836566-2.429 2.1656886-2.5 2.1715923m.712-5.25039278c-.12-1.16992449-.809-1.79572094-1.458-1.99448018-.54-.16432077-1.115-.07970049-1.586.21155068-.218-.44868424-.487-.84325087-.806-1.17976405-1.245-1.31751799-2.951-1.67371031-4.569-.95148611-1.272.56872696-2.254 2.06040528-2.382 3.56290712-.722.34143297-2.411 1.35884422-2.411 3.40744202 0 1.5477638 1.259 2.3939665 1.864 2.7993567l.101.067893c.298.203679.659.3109303 1.045.3109303h1.99v2.9922123c0 .1839999.104.3522565.271.4368767.072.0364064.151.0551016.229.0551016.102 0 .203-.0305027.289-.090524l4.87-3.3936666 1.872-.0009839c1.199-.0728128 3.469-.8255397 3.469-3.1545651 0-1.7465231-1.376-2.71375256-2.788-3.07880048" fill="#fff"/></g></svg>