<svg height="24" viewBox="0 0 24 24" width="24" xmlns="http://www.w3.org/2000/svg" xmlns:xlink="http://www.w3.org/1999/xlink"><linearGradient id="a" x1="0%" x2="100%" y1="100%" y2="0%"><stop offset="0" stop-color="#c8511b"/><stop offset="1" stop-color="#f90"/></linearGradient><g fill="none" fill-rule="evenodd"><path d="m0 0h24v24h-24z" fill="url(#a)"/><path d="m18.0105471 18.966c-.5379037 0-.9591298-.407-.9591298-.927 0-.535.4301252-.97.9591298-.97s.9601187.435.9601187.97c0 .52-.4222149.927-.9601187.927m-.9996704-6.448c0-.558.4479236-1.011.9996704-1.011.5517469 0 1.0006592.453 1.0006592 1.011 0 .557-.4489123 1.011-1.0006592 1.011-.5517468 0-.9996704-.454-.9996704-1.011m-4.3912327.971c-.5290046 0-.9601186-.435-.9601186-.97s.431114-.97.9601186-.97.9601187.435.9601187.97-.4311141.97-.9601187.97m-1.3338826-6.14c0-.693.6476598-1.349 1.3338826-1.349.685234 0 1.3338827.656 1.3338827 1.349 0 .694-.6486487 1.349-1.3338827 1.349-.6862228 0-1.3338826-.655-1.3338826-1.349m-3.26796311 10.683c0 .525-.4222149.936-.96011866.936s-.96011865-.411-.96011865-.936c0-.535.43111404-.97.96011865-.97.52900462 0 .96011866.435.96011866.97m10.48714571-1.891v-1.682c.8572841-.224 1.495056-1.006 1.495056-1.941 0-1.109-.8928807-2.011-1.9894529-2.011-.9255108 0-1.6977587.645-1.9182597 1.512h-1.595913c-.1809492-.695-.7247857-1.239-1.4179301-1.409v-.962c1.035267-.229 1.8638761-1.205 1.8638761-2.299 0-1.251-1.0847067-2.349-2.3226764-2.349-1.2369808 0-2.3226763 1.098-2.3226763 2.349 0 1.068.7920237 2.017 1.7926829 2.275v1.008c-.6585366.19-1.1727093.716-1.3477257 1.387h-1.68094929c-.21753461-.944-1.02933421-1.649-1.9993408-1.649-1.13711273 0-2.06163481.965-2.06163481 2.15 0 .995.65853659 1.801 1.56723797 2.021v1.592c-.83651945.221-1.45847067.985-1.45847067 1.899 0 1.086.85530653 1.936 1.94891233 1.936 1.09261701 0 1.94891233-.85 1.94891233-1.936 0-.911-.61799605-1.672-1.45056032-1.897v-1.594c.7504944-.181 1.32498352-.763 1.50296638-1.522h1.68292688c.1750164.671.6891891 1.197 1.3477257 1.387v1.499c-.8899143.233-1.5316414 1.029-1.5316414 2.01 0 1.169.905735 2.085 2.0616348 2.085s2.0616348-.916 2.0616348-2.085c0-1.008-.6763348-1.825-1.6028345-2.032v-1.455c.6931444-.17 1.2369809-.713 1.4179301-1.409h1.5969018c.1799605.705.7257746 1.257 1.4228741 1.439v1.683c-.8335531.223-1.4535267.986-1.4535267 1.898 0 1.081.8562953 1.927 1.9479235 1.927 1.092617 0 1.9489124-.846 1.9489124-1.927 0-.912-.6199737-1.676-1.4545155-1.898" fill="#fff"/></g></svg>