<svg height="24" viewBox="0 0 24 24" width="24" xmlns="http://www.w3.org/2000/svg" xmlns:xlink="http://www.w3.org/1999/xlink"><linearGradient id="a" x1="0%" x2="100%" y1="100%" y2="0%"><stop offset="0" stop-color="#4d27a8"/><stop offset="1" stop-color="#a166ff"/></linearGradient><g fill="none" fill-rule="evenodd"><path d="m0 0h24v24h-24z" fill="url(#a)"/><path d="m16.997 11.8210743-1.923-1.018v7.658c1.884-.378 1.922-2.829 1.923-2.942zm-4.146 6.054c.327.327.73.525 1.223.602v-7.695l-2.093 1.047v3.691c0 .017.007 1.49.87 2.355zm5.146-6.355v4c0 1.382-.717 3.994-3.43 3.994-.994 0-1.811-.315-2.429-.938-1.157054-1.165-1.158-2.983-1.157054-3.06v-3.996c0-.19.108054-.363.277054-.448l3.093-1.54599998c.144-.073.316-.07.457.005l2.922 1.54699998c.164.086.267.257.267.442zm1.693-1.78499998-.937.34599998c-.206-.55699998-.554-.78499998-1.198-.78499998-.265 0-.484-.206-.499-.47-.07-1.163-.667-1.72-1.194-1.747-.673-.031-.894.257-.968.352-.111.146-.294.218-.472.193-.181-.028-.333-.151-.396-.323-.215-.588-.517-1.059-.95-1.481-.932-.902-2.669-1.089-4.225-.451-1.062.435-1.749 1.558-1.749 2.861 0 .144.019.368.036.507.03.25-.131.483-.376.544-1.186.294-1.762.97399998-1.762 2.07599998 0 .05-.001.101.004.151.057 1.009.609 2.069 1.991 2.069h2.002v1h-2.002c-1.686 0-2.888-1.204-2.988-2.996-.006-.064-.007-.144-.007-.224 0-1.42399998.745-2.44899998 2.109-2.92399998-.004-.073-.007-.144-.007-.203 0-1.711.931-3.197 2.371-3.787 1.913-.781 4.091-.51 5.299.659.373.364.675.767.914 1.221.3-.162.696-.272 1.227-.243 1.055.054 1.873.955 2.091 2.248.82.121 1.386.593 1.686 1.407z" fill="#fff"/></g></svg>