<svg height="24" viewBox="0 0 24 24" width="24" xmlns="http://www.w3.org/2000/svg" xmlns:xlink="http://www.w3.org/1999/xlink"><linearGradient id="a" x1="0%" x2="100%" y1="100%" y2="0%"><stop offset="0" stop-color="#bd0816"/><stop offset="1" stop-color="#ff5252"/></linearGradient><g fill="none" fill-rule="evenodd"><path d="m0 0h24v24h-24z" fill="url(#a)"/><path d="m8.409 8.27786176c.373.135.781.3 1.213.474 1.066.43 2.275.918 2.935.918.691 0 1.871-.493 2.912-.927.402-.168.783-.327 1.133-.459l-.602-.296h-7zm1.388-1.29h5.421l-1.042-2.02-1.105.712c-.316.191-.711.19-1.027.001l-1.126-.676c-.01-.006-.031-.008-.053-.003zm5.519 2.898c-1.007.41300004-2.003.78400004-2.759.78400004-.754 0-1.817-.395-2.887-.82300004.484 1.40300004 1.908 3.28800004 2.82 3.28800004.909 0 2.325-1.85 2.826-3.24900004zm-8.803-1.332c-.053-.225.053-.458.259-.563l1.862-.95 1.42-2.642c.028-.052.065-.099.109-.138.287-.253.826-.378 1.269-.114l1.125.676 1.126-.676c.461-.277 1.074-.131 1.361.327l1.326 2.569 1.857.948c.206.105.313.338.259.563-.055.224-.255.383-.486.383-.303 0-.91.222-1.543.479-.292 1.67500004-2.206 4.71900004-3.967 4.71900004-1.67 0-3.683-2.963-3.956-4.74000004-.637-.247-1.237-.458-1.534-.458-.232 0-.432-.159-.487-.383zm11.542 6.09000004.3-.304c.114-.114.164-.275.138-.433s-.126-.294-.27-.366l-2-1-.447.895 1.384.692-2.02 2.044c-.1.102-.153.242-.143.385s.081.275.194.363l1.084.832-1.363 1.573.756.654 1.71-1.974c.09-.104.134-.241.119-.377-.014-.138-.083-.263-.192-.347l-1.055-.81.962-.973c1.533.11 1.784 1.393 1.784 2.18v2.31h1v-2.31c0-1.268-.541-2.591-1.941-3.034zm-9.055.344c0-1.103-.898-2-2-2-1.103 0-2 .897-2 2s.897 2 2 2c1.102 0 2-.897 2-2zm.44 1.733 1.913 1.914-.707.707-1.913-1.914c-.491.35-1.087.56-1.733.56-1.654 0-3-1.345-3-3 0-1.654 1.346-3 3-3s3 1.346 3 3c0 .647-.211 1.243-.56 1.733zm4.198-2.07.723.691-1.521 1.589c-.095.099-.225.155-.362.155h-.004c-.137-.001-.268-.059-.362-.16l-1.478-1.589.732-.681 1.117 1.201z" fill="#fff"/></g></svg>