<svg height="24" viewBox="0 0 24 24" width="24" xmlns="http://www.w3.org/2000/svg" xmlns:xlink="http://www.w3.org/1999/xlink"><linearGradient id="a" x1="0%" x2="100%" y1="100%" y2="0%"><stop offset="0" stop-color="#bd0816"/><stop offset="1" stop-color="#ff5252"/></linearGradient><g fill="none" fill-rule="evenodd"><path d="m0 0h24v24h-24z" fill="url(#a)"/><path d="m19 13.495-4-1.156v-1.139l4 1.164zm-2.151 3.887-.75.751-1.987-3.561.756-.756zm-3.579-3.382h-1.986c-.149 0-.287.066-.38.175l-.904-.904v-1.986c0-.15-.066-.288-.175-.38l.905-.905h1.986c.149 0 .287-.067.38-.175l.904.904v1.986c0 .15.066.287.175.38zm-1.633 5h-1.132l1.155-4h1.141zm-5.019-2.151-.751-.751 3.561-1.986.756.756zm-1.618-5.213v-1.131l4 1.156v1.139zm2.151-5.018.75-.751 1.987 3.561-.756.755zm5.212-1.618h1.132l-1.155 4h-1.141zm5.019 2.151.751.751-3.561 1.986-.756-.756zm2.258 4.357-3.891-1.132 3.448-1.923c.138-.077.231-.213.252-.368.022-.155-.03-.312-.141-.423l-1.486-1.485c-.157-.158-.401-.192-.596-.083l-3.58 1.989.995-3.444c.044-.151.013-.314-.081-.439-.095-.126-.243-.2-.4-.2h-2.172c-.222 0-.418.147-.48.36l-1.132 3.89-1.924-3.448c-.076-.137-.213-.23-.367-.251-.16-.025-.312.03-.423.141l-1.484 1.485c-.158.158-.193.401-.084.596l1.989 3.582-3.444-.996c-.15-.042-.314-.013-.44.081-.125.095-.199.242-.199.4v2.172c0 .222.146.418.36.48l3.891 1.131-3.448 1.924c-.138.076-.231.213-.252.368-.022.155.03.311.141.422l1.486 1.486c.158.158.402.192.596.083l3.58-1.989-.995 3.444c-.044.151-.013.314.081.439.095.126.243.2.4.2h2.172c.222 0 .418-.147.48-.36l1.132-3.891 1.924 3.449c.076.136.213.23.367.251.161.024.313-.031.423-.142l1.484-1.484c.158-.158.193-.402.084-.597l-1.989-3.581 3.444.996c.153.044.314.013.44-.082.125-.094.199-.242.199-.399v-2.172c0-.222-.146-.418-.36-.48z" fill="#fff"/></g></svg>