<svg height="24" viewBox="0 0 24 24" width="24" xmlns="http://www.w3.org/2000/svg" xmlns:xlink="http://www.w3.org/1999/xlink"><linearGradient id="a" x1="0%" x2="100%" y1="100%" y2="0%"><stop offset="0" stop-color="#2e27ad"/><stop offset="1" stop-color="#527fff"/></linearGradient><g fill="none" fill-rule="evenodd"><path d="m0 0h24v24h-24z" fill="url(#a)"/><path d="m6.2827 10.6499 2.555-5.708.912.408-2.555 5.708zm4.936-2.556-1.296-1.314.713-.702 1.702 1.727c.101.104.153.247.141.392-.011.145-.086.277-.203.363l-1.938 1.415-.59-.807zm-5.087-1.27-1.493 1.09 1.3 1.314-.711.703-1.708-1.727c-.102-.103-.154-.246-.142-.391.011-.145.086-.278.203-.364l1.961-1.432zm7.724 4.633-5.958 3.388-5.897-3.456v-6.848l5.887-3.386 5.968 3.46zm-5.966-11.457-6.889 3.962v8l6.889 4.038 6.966-3.961v-8z" fill="#fff" transform="translate(4 4)"/></g></svg>