<svg height="24" viewBox="0 0 24 24" width="24" xmlns="http://www.w3.org/2000/svg" xmlns:xlink="http://www.w3.org/1999/xlink"><linearGradient id="a" x1="0%" x2="100%" y1="100%" y2="0%"><stop offset="0" stop-color="#b0084d"/><stop offset="1" stop-color="#ff4f8b"/></linearGradient><g fill="none" fill-rule="evenodd"><path d="m0 0h24v24h-24z" fill="url(#a)"/><path d="m6.94783451 7.15400262c.52885014 0 .95793552.41537009.95793552.9271299 0 .53858993-.44748859 1.0106014-.95793552 1.0106014-.51238412 0-.9792445-.48194855-.9792445-1.0106014 0-.51175981.43877127-.9271299.9792445-.9271299zm0 2.93143968c1.04414003 0 1.92652553-.91818654 1.92652553-2.00430978 0-1.05929312-.86398229-1.92083827-1.92652553-1.92083827-1.07319773 0-1.94783451.86154515-1.94783451 1.92083827 0 1.08612324.8920714 2.00430978 1.94783451 2.00430978zm5.33693099 7.6267117v-6.0496965l5.7466445-2.80225763v6.00994813zm6.4004427-10.10303296-6.7152345-2.57767949c-.118168-.04471687-.2450533-.04173575-.3612841.00894338l-2.44084679 1.07221132.38259306.91321799 2.26165763-.99370837 5.4638163 2.09672465-5.4609105 2.66115098-2.22388265-1.24014802-.46395462.87346962 2.18901347 1.2202739v5.93542l-4.9010655-3.3279293v-3.1957661h-.96859001v3.4630737c0 .166943.08136157.3219615.21696417.4143764l5.86868684 3.9847705c.0813616.0556477.1743462.0824778.2682995.0824778.0716756 0 .1433513-.0158993.210184-.0486917l6.7152345-3.3219671c.1675661-.0824778.274111-.2563767.274111-.4471687v-7.10799594c0-.20669134-.1259167-.3925148-.3147918-.46505552z" fill="#fff"/></g></svg>