<svg height="24" viewBox="0 0 24 24" width="24" xmlns="http://www.w3.org/2000/svg" xmlns:xlink="http://www.w3.org/1999/xlink"><linearGradient id="a" x1="0%" x2="100%" y1="100%" y2="0%"><stop offset="0" stop-color="#055f4e"/><stop offset="1" stop-color="#56c0a7"/></linearGradient><g fill="none" fill-rule="evenodd"><path d="m0 0h24v24h-24z" fill="url(#a)"/><path d="m11.646 11.026-3 3 .707.707 2.647-2.646 2.646 2.646.707-.707-3-3c-.195-.195-.512-.195-.707 0zm-2.293.707 2.647-2.646 2.646 2.646.707-.707-3-3c-.195-.195-.512-.195-.707 0l-3 3zm2.647 6.087-3.777-1.888-.447.895 4 2c.07.035.147.053.224.053.076 0 .153-.018.223-.053l4-2-.447-.895zm6.825-9.82-3.5-3-.651.759 3.326 2.85v3.771h1v-4c0-.146-.064-.285-.175-.38zm-9.5-2.241-3.325 2.85v3.771h-1v-4c0-.146.063-.285.174-.38l3.5-3z" fill="#fff"/></g></svg>