<svg height="24" viewBox="0 0 24 24" width="24" xmlns="http://www.w3.org/2000/svg" xmlns:xlink="http://www.w3.org/1999/xlink"><linearGradient id="a" x1="0%" x2="100%" y1="100%" y2="0%"><stop offset="0" stop-color="#2e27ad"/><stop offset="1" stop-color="#527fff"/></linearGradient><g fill="none" fill-rule="evenodd"><path d="m0 0h24v24h-24z" fill="url(#a)"/><path d="m8.4995717 18.9677419h8.0002979v-4.1290322h-8.0002979zm8.5003166-5.1612903h-9.00033522c-.27601028 0-.50001862.2312258-.50001862.516129v5.1612904c0 .2849032.22400834.516129.50001862.516129h9.00033522c.2760102 0 .5000186-.2312258.5000186-.516129v-5.1612904c0-.2849032-.2240084-.516129-.5000186-.516129zm0-4.12903225c-.3690138 0-1.0270383.00412904-1.6330608.21780646-.1510057-1.83019355-.589022-3.54787097-1.262047-4.62554839 2.2930854.62348387 4.1231535 2.5156129 4.7021751 4.93212908-.4940184-.30658069-1.1130415-.52438715-1.8070673-.52438715zm-4.5001676 0c-.7530281 0-1.2630471.19509678-1.6310608.45522585.1760066-3.10296778 1.0110377-4.97135488 1.6310608-4.97135488.6960259 0 1.7070636 2.03767742 1.8890703 5.18296778-.3660136-.36748391-.9420351-.66683875-1.8890703-.66683875zm-2.63809827.50374195c-.48401803-.29625807-1.09804089-.50374195-1.82206786-.50374195-.35401318 0-1.08604044 0-1.74506499.27974194.68402548-2.31225806 2.47609222-4.10425806 4.66517372-4.69677419-.645024 1.1272258-1.00003722 2.96774193-1.09804087 4.9207742zm10.13837757 1.5504516c-.0620023-4.2632258-3.4261276-7.7316129-7.5002793-7.7316129-3.96514769 0-7.32027264 3.44154839-7.49827927 7.6996129-.01200045.1507097.05200194.2910968.15200566.3984516l-.0080003.0092903 2.00007449 2.0645162.70802637-.7308387-1.80606727-1.8632258c.14100526-.4593549.56702112-.8681291 1.99207419-.8681291.89003315 0 1.51105628.4242581 1.79206674.7576774l.00300011.1713549c0 .0454193.00700027.1021935.01900071.1465806l.33301237 1.2738065.965036-.2683871-.214008-.8165162c.0350013-.0670967.0590022-.1393548.0620023-.2188387.0090003-.2456774.1450054-1.0456774 1.5000559-1.0456774 1.3550504 0 1.4910555.8 1.5020559 1.0807742.0160006.164129.107004.2972903.2340087.379871l-.1380051.6183226.9650359.2725161.3370126-1.2748387c.001-.0030968.0020001-.0082581.0030001-.0123871.0090003-.036129.0150006-.0743226.0160006-.1114839l.0080003-.3447742c0-.1052903-.0040002-.2116129-.0060002-.3179355.2840105-.1744516.7570282-.2900645 1.5790588-.2900645.9920369 0 1.6560616.5987097 1.9000707.9207742l-1.7540653 1.8105807.7080264.7308387 2.0000745-2.0645162c.0890033-.0939354.1460054-.2229677.1460054-.3654193z" fill="#fff"/></g></svg>