<svg height="24" viewBox="0 0 24 24" width="24" xmlns="http://www.w3.org/2000/svg" xmlns:xlink="http://www.w3.org/1999/xlink"><linearGradient id="a" x1="0%" x2="100%" y1="100%" y2="0%"><stop offset="0" stop-color="#1b660f"/><stop offset="1" stop-color="#6cae3e"/></linearGradient><g fill="none" fill-rule="evenodd"><path d="m0 0h24v24h-24z" fill="url(#a)"/><path d="m18.2336646 14.6277327c0-.2681658-.2292793-.4858075-.5095097-.4858075s-.5095098.2176417-.5095098.4858075c0 .2681657.2292794.4858074.5095098.4858074s.5095097-.2176417.5095097-.4858074m1.0190196 0c0 .8035255-.6858002 1.4574224-1.5285293 1.4574224-.6633817 0-1.2238425-.4071067-1.4347795-.971615h-.0937498v3.8864599h-1.0190195v-4.3722673c0-.2681658.2282604-.4858075.5095098-.4858075h.6032595c.210937-.5645083.7713978-.971615 1.4347795-.971615.8427291 0 1.5285293.6538969 1.5285293 1.4574225m-5.0950976-2.8342009c0-.2671941-.2292794-.4858075-.5095098-.4858075s-.5095097.2186134-.5095097.4858075c0 .2681658.2292793.4858075.5095097.4858075s.5095098-.2176417.5095098-.4858075m0 1.3680339v5.8384343h-1.0190195v-5.8384343c-.5920504-.2011243-1.0190196-.7355125-1.0190196-1.3680339 0-.8035256.6858002-1.4574224 1.5285293-1.4574224.8427292 0 1.5285293.6538968 1.5285293 1.4574224 0 .6325214-.4269692 1.1669096-1.0190195 1.3680339m-4.0760781 1.466167c0-.2681658-.2292794-.4858075-.50950977-.4858075-.28023036 0-.50950976.2176417-.50950976.4858075 0 .2681657.2292794.4858074.50950976.4858074.28023037 0 .50950977-.2176417.50950977-.4858074m2.038039 0v4.3722673h-1.0190195v-3.8864599h-.0937498c-.210937.5645083-.7713978.971615-1.43477947.971615-.84272914 0-1.52852928-.6538969-1.52852928-1.4574224 0-.8035256.68580014-1.4574225 1.52852928-1.4574225.66338167 0 1.22384247.4071067 1.43477947.971615h.6032596c.2812494 0 .5095097.2176417.5095097.4858075m7.880078-2.7904782c.002038.1515719-.0040761.2924561-.0224185.431397l-1.0108673-.1165938c.0112092-.0952182.0163043-.1923797.0142663-.2895412 0-1.1241585-.8610715-2.02970367-2.0044114-2.13172325-.2771733-.02429037-.4819963-.25553473-.4616159-.519814.0050951-.75688806-.5686129-1.30779374-1.2747934-1.30779374-.3301623 0-.6430013.12145187-.8824709.34006524-.1243204.11367895-.2985727.15837324-.4667109.12436671-.1671192-.03692137-.3036679-.15060032-.36379-.30411548-.4911674-1.25046846-1.7537326-2.09188702-3.1416372-2.09188702-1.8535965 0-3.36072637 1.44673468-3.36072637 3.22381845 0 .20986883-.14164371.3964189-.35054271.46151711-.98946795.30994517-1.6548877 1.18828508-1.6548877 2.18613368 0 1.1426192.887566 2.1220071 2.06453355 2.2774655l-.13960568.9618988c-1.67832515-.2215282-2.94394739-1.6138525-2.94394739-3.2393643 0-1.3029357.79789228-2.46207233 2.01969669-2.98382957.17934743-2.15698522 2.06962864-3.85925463 4.36547961-3.85925463 1.5947656 0 3.0621537.84919148 3.8264183 2.16378652.314877-.15157193.6664388-.23221597 1.0281907-.23221597 1.1616823 0 2.1246557.82878756 2.2785276 1.90145048 1.4419127.32354778 2.4813126 1.54681097 2.4813126 3.00423347" fill="#fff"/></g></svg>