<svg height="24" viewBox="0 0 24 24" width="24" xmlns="http://www.w3.org/2000/svg" xmlns:xlink="http://www.w3.org/1999/xlink"><linearGradient id="a" x1="0%" x2="100%" y1="100%" y2="0%"><stop offset="0" stop-color="#2e27ad"/><stop offset="1" stop-color="#527fff"/></linearGradient><g fill="none" fill-rule="evenodd"><path d="m0 0h24v24h-24z" fill="url(#a)"/><path d="m5.707 5 2.146 2.146-.707.708-2.146-2.147v1.793h-1v-3c0-.276.224-.5.5-.5h3v1zm2.146 11.854-2.146 2.146h1.793v1h-3c-.276 0-.5-.224-.5-.5v-3h1v1.793l2.146-2.147zm-2.853-4.854c0 .75.966 1.542 2.519 2.069l-.32.947c-2.033-.688-3.199-1.788-3.199-3.016s1.166-2.328 3.199-3.016l.32.947c-1.553.527-2.519 1.319-2.519 2.069zm14 4.5h1v3c0 .276-.224.5-.5.5h-3v-1h1.793l-2.147-2.146.707-.708 2.147 2.147zm1-12v3h-1v-1.793l-2.147 2.147-.707-.708 2.147-2.146h-1.793v-1h3c.276 0 .5.224.5.5zm0 7.5c0 1.228-1.166 2.328-3.199 3.016l-.321-.947c1.554-.527 2.52-1.319 2.52-2.069s-.966-1.542-2.52-2.069l.321-.947c2.033.688 3.199 1.788 3.199 3.016zm-8 3.402c-1.19 0-1.913-.298-2-.37v-4.381c.564.235 1.294.349 2 .349.708 0 1.439-.114 2.004-.35l.016 4.302c-.107.152-.83.45-2.02.45zm0-6.402c1.174 0 1.858.336 1.987.5-.129.164-.813.5-1.987.5-1.229 0-1.92-.368-2-.469v-.01c.08-.153.771-.521 2-.521zm0-1c-1.445 0-3 .469-3 1.5v5.532c0 .947 1.507 1.37 3 1.37s3-.423 3-1.37v-5.532c0-1.031-1.555-1.5-3-1.5z" fill="#fff"/></g></svg>