<svg height="24" viewBox="0 0 24 24" width="24" xmlns="http://www.w3.org/2000/svg" xmlns:xlink="http://www.w3.org/1999/xlink"><linearGradient id="a" x1="0%" x2="100%" y1="100%" y2="0%"><stop offset="0" stop-color="#2e27ad"/><stop offset="1" stop-color="#527fff"/></linearGradient><g fill="none" fill-rule="evenodd"><path d="m0 0h24v24h-24z" fill="url(#a)"/><path d="m14.3871979 13.0634319 1.0346976-3.44604499c.0465715-.15264089.0172112-.31842305-.0779567-.44680313-.0951679-.12838009-.2460191-.20318423-.4059821-.20318423h-.6995852l1.0124243-2.02173364h2.5290358l-.7917157 2.36745009c-.0506213.15365175-.0253107.32347738.0708697.45489007.0941554.13242355.2470315.21026029.4100318.21026029h.6266906zm5.5825074-3.76345717c-.0728945-.19914076-.2622178-.33257518-.4758394-.33257518h-1.3232385l.7917158-2.36745009c.0506212-.15365176.0253106-.32347739-.0708697-.45590094-.0951679-.13141268-.2470315-.20924943-.4100318-.20924943h-3.543485c-.1923606 0-.3664976.10816275-.4525537.27899924l-1.5186364 3.03260046c-.0779566.15668435-.0708697.34268385.0212609.49128127.0931431.14960829.2561434.2405863.4312928.2405863h.8382873l-1.3232385 4.40333584c-.0637828.2143038.019236.4437706.2065345.5670963.0850436.0555977.1812239.083902.2784167.083902.1154163 0 .2298203-.0394239.3239757-.1172606l6.0745457-5.05433409c.1630003-.13646702.2247582-.35986858.1518636-.56103108zm-5.1350159 8.32853167c0 .4619662-1.5571085 1.3606268-4.4111326 1.3606268-2.85402399 0-4.41113252-.8986606-4.41113252-1.3606268v-1.0664644c1.03672245.6166287 2.73050827.93303 4.41113252.93303 1.6806243 0 3.3744102-.3164013 4.4111326-.93303zm0-2.5049279c0 .4619661-1.5571085 1.3606267-4.4111326 1.3606267-2.85402399 0-4.41113252-.8986606-4.41113252-1.3606267 0-.0960324.07390697-.2102603.19944758-.3285317 1.00027518.5216072 2.53511039.8289107 4.21168494.8289107.0202485 0 1.5712825-.0323477 1.5712825-.0323477v-1.0108668c-.0202485 0-1.5712825.0323477-1.5712825.0323477-1.65227637 0-3.17698733-.3244882-3.97781493-.8450846-.27031729-.1779126-.43230517-.3699773-.43331759-.5155421v-1.0664645c1.03672245.6166288 2.73050827.9340409 4.41113252.9340409.2662676 0 1.4113195-.0808693 1.7687053-.106141l.0212609-.508466-.0931431-.5003791c-.3442242.0242608-1.4416921.1041193-1.6968231.1041193-2.85402399 0-4.41113252-.8996715-4.41113252-1.3616376 0-.1000758.07896909-.2193581.21260909-.341673.79374064.3507708 2.34679948.7450089 6.09276933.7904979l.0121491-1.0108668c-3.05043439-.0363912-4.9861896-.30326008-5.88420993-.79454136-.27031729-.17791256-.43230517-.36997725-.43331759-.51554208v-1.06545362c1.03672245.61662876 2.73050827.93303007 4.41113252.93303007.0779567 0 2.0572462-.0363912 2.1352028-.0394238l-.0435342-1.00985596c-.107317.00404347-1.9965007.03841294-2.0916686.03841294-2.85402399 0-4.41113252-.8986606-4.41113252-1.36062673 0-.46196614 1.55710853-1.36062674 4.41113252-1.36062674 1.3212137 0 2.5766198.2072277 3.443255.57012888l.3918082-.93303007c-1.0012876-.417488-2.3629983-.64796563-3.8350632-.64796563-2.69406095 0-5.42254438.81374779-5.4235568 2.36947182v2.51200405s.09213061.57922668.40092001.925954c-.3128391.34773823-.40092001.68637853-.40092001.93909523v2.5160476c.00101242.2476623.09213061.5812484.39788274.9249431-.30980183.3467273-.39788274.6843568-.39788274.9360627v2.5099823c.00506212 1.5537023 2.7315207 2.3664392 5.4235568 2.3664392 2.6950735 0 5.4235569-.8137478 5.4235569-2.3694718v-2.5069497z" fill="#fff"/></g></svg>