<svg height="24" viewBox="0 0 24 24" width="24" xmlns="http://www.w3.org/2000/svg" xmlns:xlink="http://www.w3.org/1999/xlink"><linearGradient id="a" x1="0%" x2="100%" y1="100%" y2="0%"><stop offset="0" stop-color="#1b660f"/><stop offset="1" stop-color="#6cae3e"/></linearGradient><g fill="none" fill-rule="evenodd"><path d="m0 0h24v24h-24z" fill="url(#a)"/><path d="m11 8h2v-1h-2zm-2 5h6v-1h-6zm6.5-2h-7c-.276 0-.5.224-.5.5v2c0 .276.224.5.5.5h7c.276 0 .5-.224.5-.5v-2c0-.276-.224-.5-.5-.5zm3.5 5.027c0 .973-.351.973-.5.973h-13c-.149 0-.5 0-.5-.973v-9.054c0-.536.39-.973.869-.973h12.262c.479 0 .869.437.869.973zm-.869-11.027h-12.262c-1.03 0-1.869.885-1.869 1.973v9.054c0 1.781 1.049 1.973 1.5 1.973h13c.451 0 1.5-.192 1.5-1.973v-9.054c0-1.088-.839-1.973-1.869-1.973zm-1.228 10h-9.806c-.056 0-.091-.026-.096-.026h-.001l-.003-5.935c.006-.01.041-.039.1-.039h2.196l.853.854c.094.093.221.146.354.146h3c.133 0 .26-.053.354-.146l.853-.854h2.196c.068 0 .099.027.097.026l.003 5.935c-.006.01-.041.039-.1.039zm0-7h-2.403c-.133 0-.26.053-.354.146l-.853.854h-2.586l-.853-.854c-.094-.093-.221-.146-.354-.146h-2.403c-.605 0-1.097.46-1.097 1.026v5.948c0 .566.492 1.026 1.097 1.026h9.806c.605 0 1.097-.46 1.097-1.026v-5.948c0-.566-.492-1.026-1.097-1.026z" fill="#fff"/></g></svg>