<svg height="24" viewBox="0 0 24 24" width="24" xmlns="http://www.w3.org/2000/svg" xmlns:xlink="http://www.w3.org/1999/xlink"><linearGradient id="a" x1="0%" x2="100%" y1="100%" y2="0%"><stop offset="0" stop-color="#c8511b"/><stop offset="1" stop-color="#f90"/></linearGradient><g fill="none" fill-rule="evenodd"><path d="m0 0h24v24h-24z" fill="url(#a)"/><path d="m14.996 13.1338691v-2.7302094c0-.1874951-.104-.3599505-.271-.44517558l-2.502-1.28639689c-.145-.07319328-.315-.07319328-.457 0l-2.495 1.28639689c-.167.08522508-.271.25768048-.271.44517558v2.7302094l-3 1.7125222v-6.08607108l1.731 1.10692297.537-.84523194-1.765-1.12797857 4.988-2.57179114v1.66439505h1v-1.66539769l5.004 2.57279378-1.772 1.13198916.537.84623459 1.74-1.11193621v6.08607108zm-4.996.003008v-2.4264073l1.994-1.02871642 2.002 1.02871642v2.4264073l-2.002 1.1650765zm1.491 2.873588v2.6169103l-4.989-2.9146966 2.995-1.7085115 2.245 1.311463c.078.0451192.165.0681801.252.0681801s.174-.0230609.251-.0681801l2.253-1.3124657 2.999 1.7095142-5.006 2.9146966v-2.6169103zm7.237-8.60973505-6.508-3.34583509c-.145-.07319328-.315-.07319328-.457 0l-6.492 3.34583509c-.167.0862277-.271.25868309-.271.44617819v7.86075736c0 .1784712.095.3439081.248.4341464l6.491 3.790008c.078.0461218.165.06818.252.06818s.174-.0220582.251-.06818l6.509-3.790008c.154-.0902383.249-.2546725.249-.4341464v-7.86075736c0-.1874951-.105-.35995049-.272-.44617819z" fill="#fff"/></g></svg>