<svg height="24" viewBox="0 0 24 24" width="24" xmlns="http://www.w3.org/2000/svg" xmlns:xlink="http://www.w3.org/1999/xlink"><linearGradient id="a" x1="0%" x2="100%" y1="100%" y2="0%"><stop offset="0" stop-color="#bd0816"/><stop offset="1" stop-color="#ff5252"/></linearGradient><g fill="none" fill-rule="evenodd"><path d="m0 0h24v24h-24z" fill="url(#a)"/><path d="m.789 8h-.789v-1h.785c.087-1.249.496-2.438 1.233-3.458l.811.586c-.613.848-.959 1.835-1.044 2.872h1.215v1h-1.211c.092 1.02.437 1.989 1.04 2.824l-.811.586c-.727-1.006-1.134-2.178-1.229-3.41zm10.611 4.924c-1.004.726-2.173 1.133-3.4 1.229v.847h-1v-.841c-1.253-.086-2.445-.496-3.467-1.235l.586-.81c.848.615 1.855.946 2.881 1.027v-1.141h1v1.135c1.003-.09 1.984-.42 2.814-1.021zm-7.867-10.895c1.019-.738 2.233-1.13 3.467-1.213v-.816h1v.822c1.211.093 2.398.482 3.4 1.206l-.586.811c-.83-.601-1.811-.931-2.814-1.022v1.183h-1v-1.187c-1.026.081-2.033.412-2.881 1.025zm11.467 4.971v1h-.856c-.095 1.233-.502 2.405-1.23 3.41l-.811-.587c.604-.833.949-1.802 1.041-2.823h-1.144v-1h1.147c-.085-1.038-.43-2.024-1.044-2.871l.811-.587c.737 1.019 1.146 2.208 1.233 3.458zm-3.93-3.834 1.979-1.979.707.707-1.979 1.979zm-7.208 8.621-1.978 1.979-.707-.707 1.978-1.979zm.212-7.005-3.745-3.745.707-.707 3.745 3.745zm7.15 5.735 3.379 3.38-.707.707-3.379-3.38zm-5.53-2.784c.001-.001.053-.087.054-.088.285-.448.349-.98.322-1.458.071.099.134.199.183.29.094.173.291.276.479.261.198-.016.368-.146.433-.332.188-.536.24-1.01.212-1.42.259.639.17 1.488-.241 2.245-.545 1.002-.569 2.041-.478 2.781-.181-.095-.348-.197-.501-.304-.637-.443-.84-1.311-.463-1.975zm3.067.262c.177.103.401.087.564-.043.04-.032.267-.226.472-.638.068.351.068.843-.108 1.521-.251.97-1.355 1.331-1.964 1.459-.122-.553-.243-1.607.29-2.586.263-.485.409-.995.468-1.496.081.36.115.772.035 1.271-.033.205.064.408.243.512zm-3.936-.756c-.63 1.109-.296 2.554.76 3.29.449.313.989.583 1.606.803.055.02.112.029.167.029.012 0 .023-.006.035-.007v.006c.112-.009 2.738-.237 3.265-2.275.667-2.585-.737-3.39-.798-3.423-.146-.081-.324-.082-.472-.004-.002.001-.005.003-.008.004-.387-1.181-1.279-1.864-1.908-2.137-.34-.256-.748-.435-1.212-.517-.228-.042-.442.076-.537.279-.097.203-.044.448.127.595.025.022.457.406.522 1.139-.287-.254-.642-.456-1.046-.456-.165 0-.319.082-.413.218-.093.136-.112.31-.053.464.121.311.389 1.32.045 1.86z" fill="#fff" transform="translate(5 5)"/></g></svg>