<svg height="24" viewBox="0 0 24 24" width="24" xmlns="http://www.w3.org/2000/svg" xmlns:xlink="http://www.w3.org/1999/xlink"><linearGradient id="a" x1="0%" x2="100%" y1="100%" y2="0%"><stop offset="0" stop-color="#1b660f"/><stop offset="1" stop-color="#6cae3e"/></linearGradient><g fill="none" fill-rule="evenodd"><path d="m0 0h24v24h-24z" fill="url(#a)"/><path d="m14.1894248 12.0454545h3.8233585v-.9968102h-3.8233585zm.0009684-2.0055821h3.8233585v-.9968102h-3.8233585zm-7.26418751 8.4708932c0-.2352473-.25082316-.4944179-.47937245-.4944179-.22758087 0-.47840403.2591706-.47840403.4944179 0 .2342503.25082316.4924242.47840403.4924242.22854929 0 .47937245-.2581739.47937245-.4924242zm0-4.0191388c0-.2352472-.25082316-.4924242-.47937245-.4924242-.22758087 0-.47840403.257177-.47840403.4924242s.25082316.493421.47840403.493421c.22854929 0 .47937245-.2581738.47937245-.493421zm0-4.0121611c0-.2352472-.25082316-.49342104-.47937245-.49342104-.22758087 0-.47840403.25817384-.47840403.49342104s.25082316.4934211.47840403.4934211c.22854929 0 .47937245-.2581739.47937245-.4934211zm0-3.99023125c0-.22029506-.26438117-.49242424-.47937245-.49242424-.21499129 0-.47840403.27212918-.47840403.49242424 0 .22129187.26341274.49342105.47840403.49342105.21499128 0 .47937245-.27212918.47937245-.49342105zm3.41855511 8.50079745v3.5207337c0 .2751196-.2169281.4984051-.48421461.4984051h-2.06469107c-.21402285.5592105-.75828007.9908293-1.34902188.9908293-.75731164 0-1.44683324-.7097289-1.44683324-1.4892344 0-.7805024.6895216-1.4912281 1.44683324-1.4912281.59074181 0 1.13499903.4336124 1.34902188.9928229h1.58047647v-3.0223285h-1.58047647c-.21402285.5592105-.75828007.9918262-1.34902188.9918262-.75731164 0-1.44683324-.7097289-1.44683324-1.4902313 0-.7795056.6895216-1.4892345 1.44683324-1.4892345.59074181 0 1.13499903.4316189 1.34902188.9908294h1.58047647v-3.0153509h-1.58047647c-.21402285.5592105-.75828007.9918262-1.34902188.9918262-.75731164 0-1.44683324-.7107257-1.44683324-1.4902313 0-.77950557.6895216-1.49023125 1.44683324-1.49023125.59074181 0 1.13499903.43261563 1.34902188.99182616h1.58047647v-2.99342106h-1.58338175c-.21983343.55422648-.76796437.99182616-1.3461166.99182616-.74278521 0-1.44683324-.72368421-1.44683324-1.49023126 0-.76555024.70404803-1.48923445 1.44683324-1.48923445.57815223 0 1.12628317.43759968 1.3461166.99082935h2.06759635c.26728651 0 .48421461.22328548.48421461.4984051v7.50398725h5.7621538v.9968102zm9.6552392-8.50079745v12.02153115c0 .2751196-.2159597.4984051-.4842146.4984051h-6.7790045c-.2672864 0-.4842146-.2232855-.4842146-.4984051v-1.534091h.9684292v1.0356858h5.8105753v-11.02472085h-5.8105753v5.00498405h-.9684292v-5.50338915c0-.27511962.2169282-.4984051.4842146-.4984051h6.7790045c.2682549 0 .4842146.22328548.4842146.4984051z" fill="#fff"/></g></svg>