<svg height="24" viewBox="0 0 24 24" width="24" xmlns="http://www.w3.org/2000/svg" xmlns:xlink="http://www.w3.org/1999/xlink"><linearGradient id="a" x1="0%" x2="100%" y1="100%" y2="0%"><stop offset="0" stop-color="#4d27a8"/><stop offset="1" stop-color="#a166ff"/></linearGradient><g fill="none" fill-rule="evenodd"><path d="m0 0h24v24h-24z" fill="url(#a)"/><path d="m9.276 12.859-1.287 1.287c-.094.093-.147.22-.147.353s.053.26.147.354l1.287 1.286.707-.707-.934-.933.934-.933zm5.375-2.106 1.287-1.287c.094-.094.147-.221.147-.354 0-.132-.053-.259-.147-.353l-1.287-1.287-.707.707.934.933-.934.934zm-3.651 5.158v1h9v-1h-7v-4.5c0-.277-.224-.5-.5-.5h-7c-.277 0-.5.223-.5.5v7c0 .276.223.5.5.5h7c.276 0 .5-.224.5-.5v-.5h-7v-6h6v4zm3.65-9.911c1.829 0 3.316 1.487 3.316 3.316s-1.487 3.316-3.316 3.316c-.304 0-.604-.04-.893-.12l-.267.963c.375.104.765.157 1.16.157 2.38 0 4.316-1.936 4.316-4.316s-1.936-4.316-4.316-4.316c-.732 0-1.457.187-2.096.541l.487.874c.489-.272 1.046-.415 1.609-.415zm-4.064 1.911h-6.586v-1h9v1h-1.341c-.167.403-.326.967-.326 1.405 0 .293.038.585.114.865l-.965.261c-.1-.365-.149-.744-.149-1.126 0-.484.096-.953.253-1.405z" fill="#fff"/></g></svg>