<svg height="24" viewBox="0 0 24 24" width="24" xmlns="http://www.w3.org/2000/svg" xmlns:xlink="http://www.w3.org/1999/xlink"><linearGradient id="a" x1="0%" x2="100%" y1="100%" y2="0%"><stop offset="0" stop-color="#b0084d"/><stop offset="1" stop-color="#ff4f8b"/></linearGradient><g fill="none" fill-rule="evenodd"><path d="m0 0h24v24h-24z" fill="url(#a)"/><path d="m7.031 9.26845833c0 .137.009.274.024.406.018.142-.026.285-.122.39199997-.072.082-.17.138-.276.159-.629.164-1.657.657-1.657 2.125 0 1.132.811 1.921 1.54 1.921h3.497v1h-3.497c-1.227 0-2.54-1.174-2.54-2.921 0-1.415.751-2.49999997 2.032-2.97599997-.001-.035-.001-.07-.001-.106 0-1.62 1.1-3.299 2.559-3.907 1.7-.712 3.501-.359 4.817.943.348.345.643.752.881 1.214.321-.201.691-.311 1.077-.311.903 0 1.915.651 2.147 2.071 1.256.334 2.47 1.28799997 2.47 3.09299997h-1c0-1.67-1.411-2.087-2.017-2.189-.133-.023-.251-.098-.328-.20799997-.077-.11-.106-.247-.081-.379-.077-.999-.689-1.388-1.191-1.388-.332 0-.645.164-.857.449-.11.147-.293.222-.474.195-.182-.027-.334-.152-.397-.325-.219-.606-.534-1.114-.934-1.511-.489-.485-1.835-1.525-3.728-.731-1.09.454-1.944 1.765-1.944 2.984zm8.674 6.83599997c-.125.13-.293.204-.473.207-.208.028-.351-.064-.481-.188-.13-.125-.204-.293-.207-.473-.004-.18.063-.351.188-.482.125-.129.293-.203.473-.206.005 0 .01-.001.014-.001.175 0 .34.067.467.189.13.125.204.293.207.473.004.18-.063.351-.188.481zm-.52-2.142c-.447.009-.864.191-1.174.514-.31.322-.476.746-.467 1.193.008.448.191.865.513 1.175.315.302.726.467 1.161.467h.034c.447-.009.864-.191 1.174-.514.31-.322.476-.746.467-1.194-.008-.447-.191-.864-.513-1.174-.323-.31-.722-.465-1.195-.467zm2.942 3.389-.985-.198c-.137-.026-.28.004-.393.087l-.504.369c-.112.082-.186.207-.202.345l-.116.992-1.459-.001-.115-.985c-.016-.137-.089-.262-.2-.344l-.51-.377c-.112-.083-.255-.115-.394-.088l-.978.195-.449-1.388.915-.42c.127-.058.224-.167.268-.299l.191-.587c.043-.133.029-.278-.04-.4l-.492-.877 1.18-.857.676.734c.095.103.229.162.368.162h.003l.634-.004c.139-.001.271-.059.364-.162l.672-.728 1.18.859-.49.873c-.069.121-.083.265-.041.397l.189.593c.043.134.141.243.268.302l.912.419zm1.274-2.11-1.116-.514-.056-.175.602-1.07c.125-.221.063-.5-.142-.65l-1.899-1.382c-.203-.149-.488-.122-.661.066l-.827.895-.196.001-.827-.898c-.172-.187-.455-.214-.662-.066l-1.901 1.379c-.206.149-.267.428-.142.65l.603 1.074-.055.169-1.121.514c-.232.106-.346.368-.268.609l.725 2.235c.077.241.327.388.573.336l1.196-.239.158.116.14 1.211c.029.252.243.443.497.443l2.35.002c.254 0 .467-.19.497-.442l.142-1.218.15-.11 1.205.242c.25.052.495-.095.574-.336l.728-2.233c.078-.242-.036-.503-.267-.609z" fill="#fff"/></g></svg>