<svg height="24" viewBox="0 0 24 24" width="24" xmlns="http://www.w3.org/2000/svg" xmlns:xlink="http://www.w3.org/1999/xlink"><linearGradient id="a" x1="0%" x2="100%" y1="100%" y2="0%"><stop offset="0" stop-color="#1b660f"/><stop offset="1" stop-color="#6cae3e"/></linearGradient><g fill="none" fill-rule="evenodd"><path d="m0 0h24v24h-24z" fill="url(#a)"/><path d="m16.815 16.109-.94-.941-.707.707.94.941-3.597 1.49-3.599-1.49.941-.941-.707-.707-.94.941-1.492-3.597 1.491-3.6.972.973.707-.707-.972-.972 3.596-1.491 3.601 1.49-.952.952.707.707.951-.951 1.49 3.596zm3.142-3.098v-1h-.776l-1.6-3.863 1.261-1.263-.707-.707-1.26 1.262-3.865-1.599v-.841h-1v.839l-3.863 1.602-1.283-1.284-.707.707 1.282 1.283-1.6 3.864h-.839v1h.839l1.601 3.863-1.294 1.294.707.707 1.294-1.293 3.863 1.599v.755h1v-.754l3.864-1.601 1.261 1.262.707-.707-1.261-1.261 1.598-3.864zm-7.447.802c-.718 0-1.302-.584-1.302-1.302s.584-1.303 1.302-1.303 1.302.585 1.302 1.303-.584 1.302-1.302 1.302zm0-3.605c-1.269 0-2.302 1.033-2.302 2.303 0 1.269 1.033 2.302 2.302 2.302 1.27 0 2.302-1.033 2.302-2.302 0-1.27-1.032-2.303-2.302-2.303z" fill="#fff"/></g></svg>