<svg height="24" viewBox="0 0 24 24" width="24" xmlns="http://www.w3.org/2000/svg" xmlns:xlink="http://www.w3.org/1999/xlink"><linearGradient id="a" x1="0%" x2="100%" y1="100%" y2="0%"><stop offset="0" stop-color="#bd0816"/><stop offset="1" stop-color="#ff5252"/></linearGradient><g fill="none" fill-rule="evenodd"><path d="m0 0h24v24h-24z" fill="url(#a)"/><path d="m17.9877079 15.4553818-5.9877079 3.4550025-5.98770788-3.4550025v-6.91101657l5.98770788-3.45500245 5.9877079 3.45500245zm.7592191-7.6414739-6.493854-3.74637601c-.155893-.09004252-.350253-.09004252-.506146 0l-6.49385397 3.74637601c-.15589299.09105424-.25307303.25798701-.25307303.43807206v7.49578714c0 .1800851.09718004.3470178.25307303.4380721l6.49385397 3.746376c.0779465.0455271.1660159.0677848.253073.0677848s.1751265-.0222577.253073-.0677848l6.493854-3.746376c.155893-.0910543.253073-.257987.253073-.4380721v-7.49578714c0-.18008505-.09718-.34701782-.253073-.43807206zm-3.184671 1.68956196c.1650036 0 .2976138.13354622.2976138.29744384 0 .16389763-.1326102.2974438-.2976138.2974438-.1639914 0-.2966016-.13354617-.2966016-.2974438 0-.16389762.1326102-.29744384.2966016-.29744384zm-3.5642806 6.84222004c-.1639913 0-.2976139-.1325345-.2976139-.2964321s.1336226-.2974438.2976139-.2974438c.162979 0 .2966016.1335462.2966016.2974438s-.1336226.2964321-.2966016.2964321zm-3.62299348-6.2473324c-.16297903 0-.29660159-.13354617-.29660159-.2974438 0-.16389762.13362256-.29744384.29660159-.29744384.16399133 0 .29761389.13354622.29761389.29744384 0 .16389763-.13362256.2974438-.29761389.2974438zm3.59464928 1.5732149c.1629791 0 .2966016.1335462.2966016.2964322 0 .1638976-.1336225.2974438-.2966016.2974438-.1639913 0-.2976138-.1335462-.2976138-.2974438 0-.162886.1336225-.2964322.2976138-.2964322zm.6529285-.8113944c-.1953724-.1163471-.4099784-.2003193-.6529285-.2003193-.2439624 0-.4585683.0839722-.654953.2003193l-1.6520607-.95303435c.00404917-.03743341.02227042-.06879654.02227042-.10622995 0-.7213519-.58712942-1.30915759-1.309906-1.30915759-.72176428 0-1.30889371.58780569-1.30889371 1.30915759 0 .7223636.58712943 1.3091576 1.30889371 1.3091576.31178598 0 .58814172-.1254525.81388287-.3085727l1.52754881.8822144c-.0212581.0940894-.0566884.1841319-.0566884.2842916 0 .5503722.3421548 1.017784.8240058 1.2110213v1.6673043c-.4676789.2003193-.7956616.6636842-.7956616 1.2029276 0 .7213519.5871294 1.3081459 1.309906 1.3081459.7217643 0 1.3088937-.586794 1.3088937-1.3081459 0-.5453137-.336081-1.0117137-.810846-1.2079862v-1.6794448c.4585684-.2033545.7825018-.6596374.7825018-1.1938222 0-.1001597-.0354302-.1902022-.0577006-.2842916l1.5285611-.8822144c.2247288.1831202.5010846.3085727.8128706.3085727.7227765 0 1.309906-.586794 1.309906-1.3091576 0-.7213519-.5871295-1.30915759-1.309906-1.30915759-.7217643 0-1.3088937.58780569-1.3088937 1.30915759 0 .03743341.0182212.06879654.0212581.10622995z" fill="#fff"/></g></svg>