<svg height="24" viewBox="0 0 24 24" width="24" xmlns="http://www.w3.org/2000/svg" xmlns:xlink="http://www.w3.org/1999/xlink"><linearGradient id="a" x1="0%" x2="100%" y1="100%" y2="0%"><stop offset="0" stop-color="#2e27ad"/><stop offset="1" stop-color="#527fff"/></linearGradient><g fill="none" fill-rule="evenodd"><path d="m0 0h24v24h-24z" fill="url(#a)"/><path d="m13.0513626 2.48364207c0 .26926217.2190129.48728415.4872535.48728415.2692453 0 .4882582-.21802198.4882582-.48728415 0-.26926216-.2190129-.48728414-.4882582-.48728414-.2682406 0-.4872535.21802198-.4872535.48728414zm-2.5829462 3.75761382-2.11377619 2.11390895-.71028507-.71032968 2.11377622-2.11390894c-.49730002-.35466248-1.10109256-.56866562-1.75712671-.56866562-1.6747457 0-3.03704634 1.36238618-3.03704634 3.03623234 0 1.67485086 1.36230064 3.03623236 3.03704634 3.03623236s3.03604165-1.3613815 3.03604165-3.03623236c0-.65607536-.2139897-1.25990581-.5686299-1.75723705zm1.4396584-1.44075354-.7293733.73142858c.5324626.68420722.8629913 1.53419152.8629913 2.46656201 0 2.22844586-1.8133869 4.04094196-4.04068815 4.04094196-2.22830592 0-4.04169283-1.8124961-4.04169283-4.04094196 0-2.22844584 1.81338691-4.04094192 4.04169283-4.04094192.93231194 0 1.78123822.33054945 2.46640715.86405024l.730378-.73042387c-.8750471-.71836734-1.97915361-1.16747252-3.19678515-1.16747252-2.79794048 0-5.07446942 2.2766719-5.07446942 5.07478807 0 2.79811616 2.27652894 5.07579276 5.07446942 5.07579276 2.79794045 0 5.07446945-2.2776766 5.07446945-5.07579276 0-1.21770801-.449077-2.32188383-1.1673993-3.19799059zm.2772825-1.69695447c-.0863996-.18989011-.1386412-.39786499-.1386412-.61990581 0-.82285714.6690945-1.49199372 1.4919-1.49199372.8238101 0 1.4929047.66913658 1.4929047 1.49199372 0 .82285715-.6690946 1.49199372-1.4929047 1.49199372-.233078 0-.4520909-.05927786-.6490016-.15472527l-.2531709.25318681c.8981539 1.0599686 1.443677 2.42838305 1.443677 3.92439561 0 3.35271586-2.7266106 6.08050236-6.07911595 6.08050236-3.35150069 0-6.07911591-2.7277865-6.07911591-6.08050236s2.72761522-6.07949765 6.07911591-6.07949765c1.49591862 0 2.86424715.5455573 3.92515385 1.44376766zm3.8146427 4.89594977c0 4.41167975-3.5896019 8.00050235-8 8.00050235-4.41140274 0-8-3.5888226-8-8.00050235 0-4.41067504 3.58859726-7.99949765 8-7.99949765 1.11917619 0 2.2041944.22706436 3.2229059.67717425l-.4068818.91930927c-.88911213-.39284145-1.83749842-.59177394-2.8160241-.59177394-3.85683788 0-6.99535351 3.137708-6.99535351 6.99478807 0 3.85708005 3.13851563 6.99579275 6.99535351 6.99579275 3.8568379 0 6.9953535-3.1387127 6.9953535-6.99579275 0-.98160126-.19892-1.92401884-.5887228-2.80213501l.9182469-.40791209c.4470676 1.00671899.6751224 2.08678179.6751224 3.2100471z" fill="#fff" transform="translate(4 4)"/></g></svg>