<svg height="24" viewBox="0 0 24 24" width="24" xmlns="http://www.w3.org/2000/svg" xmlns:xlink="http://www.w3.org/1999/xlink"><linearGradient id="a" x1="0%" x2="100%" y1="100%" y2="0%"><stop offset="0" stop-color="#c8511b"/><stop offset="1" stop-color="#f90"/></linearGradient><g fill="none" fill-rule="evenodd"><path d="m0 0h24v24h-24z" fill="url(#a)"/><path d="m11 10.8200811v1.6913003l1.002.5597754.998-.5597754v-1.6913003l-.998-.5956969zm.746-1.60548802c.156-.09479264.355-.09479264.513 0l1.284.76732148 1.27-.51188026.374.9259744-1.187.4779545v1.9297786c0 .1806049-.098.3472404-.255.4350483l-1.245.6974743v.9858435h-1v-.9878391l-1.244-.6944808c-.158-.0888058-.256-.2554413-.256-.4360462v-1.9297786l-1.188-.4779545.376-.9259744 1.269.51188026zm4.191.44303087-3.939-2.15029623-3.998 2.15229186v4.26766452l3.998 2.4067352 3.939-2.4047396zm3.063-1.72023698v1.99563455h-1v-1.04371687l-1.063.73439351v4.58497034c0 .1746181-.09.3352666-.239.426068l-4.198 2.5633926v1.4548176l1.262-.7004677.486.8720923-2.005 1.1125662c-.076.0419083-.159.0628625-.243.0628625s-.167-.0209542-.243-.0628625l-2.005-1.1125662.486-.8720923 1.262.7004677v-1.452822l-4.258-2.5633926c-.15-.0908013-.242-.2524477-.242-.4280636v-4.58995943l-1-.71144371v1.02575616h-1v-1.99563455c0-.18858747.107-.36120986.276-.44602433l2.005-.99781727.448.89304646-1.261.62662925 1.069.7623324 4.226-2.27502339c.149-.07982538.328-.07982538.477.00199563l4.166 2.27402557 1.115-.7683193-1.25-.62164016.448-.89304646 2.005.99781727c.169.08481447.276.25743686.276.44602433zm-1 7.67421263-1.729.8601185.448.8930465 2.005-.9978173c.169-.0848145.276-.2574369.276-.4470221v-1.9956346h-1zm-6.021-10.54193948 1.762.97786093.487-.8720923-2.005-1.11256626c-.153-.08381665-.334-.08381665-.487 0l-2.005 1.11256626.487.8720923zm-5.979 10.54193948 1.729.8601185-.448.8930465-2.005-.9978173c-.169-.0848145-.276-.2574369-.276-.4470221v-1.9956346h1z" fill="#fff"/></g></svg>