<svg height="24" viewBox="0 0 24 24" width="24" xmlns="http://www.w3.org/2000/svg" xmlns:xlink="http://www.w3.org/1999/xlink"><linearGradient id="a" x1="0%" x2="100%" y1="100%" y2="0%"><stop offset="0" stop-color="#bd0816"/><stop offset="1" stop-color="#ff5252"/></linearGradient><g fill="none" fill-rule="evenodd"><path d="m0 0h24v24h-24z" fill="url(#a)"/><path d="m17.0513626 6.48364207c0 .26926217.2190129.48728415.4872535.48728415.2692453 0 .4882582-.21802198.4882582-.48728415 0-.26926216-.2190129-.48728414-.4882582-.48728414-.2682406 0-.4872535.21802198-.4872535.48728414zm-2.5829462 3.75761383-2.1137762 2.1139089-.7102851-.7103296 2.1137763-2.11390898c-.4973001-.35466248-1.1010926-.56866562-1.7571268-.56866562-1.6747457 0-3.03704629 1.3623862-3.03704629 3.0362323 0 1.6748509 1.36230059 3.0362324 3.03704629 3.0362324s3.0360417-1.3613815 3.0360417-3.0362324c0-.6560753-.2139897-1.2599058-.5686299-1.757237zm1.4396584-1.44075355-.7293733.73142858c.5324626.68420717.8629913 1.53419147.8629913 2.46656197 0 2.2284459-1.8133869 4.040942-4.0406882 4.040942-2.22830587 0-4.04169278-1.8124961-4.04169278-4.040942 0-2.2284458 1.81338691-4.04094188 4.04169278-4.04094188.932312 0 1.7812383.33054945 2.4664072.86405024l.730378-.73042387c-.8750471-.71836734-1.9791536-1.16747252-3.1967852-1.16747252-2.79794043 0-5.07446937 2.2766719-5.07446937 5.07478803 0 2.7981162 2.27652894 5.0757928 5.07446937 5.0757928 2.7979405 0 5.0744695-2.2776766 5.0744695-5.0757928 0-1.217708-.449077-2.32188379-1.1673993-3.19799055zm.2772825-1.69695447c-.0863996-.18989011-.1386412-.39786499-.1386412-.61990581 0-.82285714.6690945-1.49199372 1.4919-1.49199372.8238101 0 1.4929047.66913658 1.4929047 1.49199372 0 .82285715-.6690946 1.49199372-1.4929047 1.49199372-.233078 0-.4520909-.05927786-.6490016-.15472527l-.2531709.25318681c.8981539 1.0599686 1.443677 2.42838307 1.443677 3.92439557 0 3.3527159-2.7266106 6.0805024-6.079116 6.0805024-3.35150064 0-6.07911586-2.7277865-6.07911586-6.0805024 0-3.35271582 2.72761522-6.07949761 6.07911586-6.07949761 1.4959187 0 2.8642472.5455573 3.9251539 1.44376766zm3.8146427 4.89594972c0 4.4116798-3.5896019 8.0005024-8 8.0005024-4.41140274 0-8-3.5888226-8-8.0005024 0-4.41067499 3.58859726-7.9994976 8-7.9994976 1.1191762 0 2.2041944.22706436 3.2229059.67717425l-.4068818.91930927c-.8891121-.39284145-1.8374984-.59177394-2.8160241-.59177394-3.85683788 0-6.99535351 3.137708-6.99535351 6.99478802 0 3.8570801 3.13851563 6.9957928 6.99535351 6.9957928 3.8568379 0 6.9953535-3.1387127 6.9953535-6.9957928 0-.9816012-.19892-1.9240188-.5887228-2.80213496l.9182469-.40791209c.4470676 1.00671899.6751224 2.08678175.6751224 3.21004705z" fill="#fff"/></g></svg>