<svg height="24" viewBox="0 0 24 24" width="24" xmlns="http://www.w3.org/2000/svg" xmlns:xlink="http://www.w3.org/1999/xlink"><linearGradient id="a" x1="0%" x2="100%" y1="100%" y2="0%"><stop offset="0" stop-color="#b0084d"/><stop offset="1" stop-color="#ff4f8b"/></linearGradient><g fill="none" fill-rule="evenodd"><path d="m0 0h24v24h-24z" fill="url(#a)"/><path d="m14 13h5v-2h-5zm2 2h-8v-2h2.5c.276 0 .5-.224.5-.5v-2c0-.276-.224-.5-.5-.5h-2.5v-1h8v1h-2.5c-.276 0-.5.224-.5.5v3c0 .276.224.5.5.5h2.5zm-11-3h5v-1h-5zm7.5 7c-.275 0-.5-.224-.5-.5s.225-.5.5-.5.5.224.5.5-.225.5-.5.5zm0-14c.275 0 .5.224.5.5s-.225.5-.5.5-.5-.224-.5-.5.225-.5.5-.5zm7 5h-2.5v-1.5c0-.276-.224-.5-.5-.5h-3.5v-1.092c.581-.207 1-.757 1-1.408 0-.827-.673-1.5-1.5-1.5s-1.5.673-1.5 1.5c0 .651.419 1.201 1 1.408v1.092h-4.5c-.276 0-.5.224-.5.5v1.5h-2.5c-.276 0-.5.224-.5.5v2c0 .276.224.5.5.5h2.5v2.5c0 .276.224.5.5.5h4.5v1.092c-.581.207-1 .757-1 1.408 0 .827.673 1.5 1.5 1.5s1.5-.673 1.5-1.5c0-.651-.419-1.201-1-1.408v-1.092h3.5c.276 0 .5-.224.5-.5v-1.5h2.5c.276 0 .5-.224.5-.5v-3c0-.276-.224-.5-.5-.5z" fill="#fff"/></g></svg>