<svg height="24" viewBox="0 0 24 24" width="24" xmlns="http://www.w3.org/2000/svg" xmlns:xlink="http://www.w3.org/1999/xlink"><linearGradient id="a" x1="0%" x2="100%" y1="100%" y2="0%"><stop offset="0" stop-color="#1b660f"/><stop offset="1" stop-color="#6cae3e"/></linearGradient><g fill="none" fill-rule="evenodd"><path d="m0 0h24v24h-24z" fill="url(#a)"/><path d="m18 17.989c-.073.073-.171.114-.274.114-.104-.001-.201-.041-.274-.114l-1.431-1.431c.205-.16.388-.343.547-.548l1.431 1.431c.151.151.151.397.001.548zm-6.017-3.889c0-1.173.955-2.128 2.127-2.128 1.173 0 2.127.955 2.127 2.128s-.954 2.127-2.127 2.127c-1.172 0-2.127-.954-2.127-2.127zm6.724 2.634-1.645-1.645c.105-.312.175-.642.175-.989 0-1.725-1.402-3.128-3.127-3.128-1.724 0-3.127 1.403-3.127 3.128 0 1.724 1.403 3.127 3.127 3.127.348 0 .677-.07.991-.175l1.643 1.644c.262.262.61.406.981.407h.001c.371-.001.719-.145.982-.407.539-.541.539-1.421-.001-1.962zm-13.128-7.687c.286 0 .578.294.578.581s-.292.579-.578.579c-.287 0-.579-.292-.579-.579s.292-.581.579-.581zm2.997 2.025c.287 0 .579.292.579.579 0 .286-.292.579-.579.579-.286 0-.578-.293-.578-.579 0-.287.292-.579.578-.579zm4.014-4.022c.287 0 .579.292.579.579 0 .286-.292.579-.579.579s-.579-.293-.579-.579c0-.287.292-.579.579-.579zm4.02-2.05c.287 0 .579.293.579.579 0 .287-.292.579-.579.579-.286 0-.578-.292-.578-.579 0-.286.292-.579.578-.579zm-10.531 6.112c.094-.034.182-.076.268-.126l.666.529c-.004.045-.015.09-.015.136 0 .841.737 1.579 1.578 1.579s1.579-.738 1.579-1.579c0-.214-.049-.42-.133-.61l1.963-1.964c.188.084.393.131.605.131.841 0 1.579-.738 1.579-1.579 0-.098-.012-.194-.031-.287l1.367-.659c.29.29.684.475 1.105.475.841 0 1.579-.738 1.579-1.579s-.738-1.579-1.579-1.579c-.84 0-1.578.738-1.578 1.579 0 .072.013.141.023.211l-1.42.684c-.284-.258-.652-.424-1.045-.424-.841 0-1.579.738-1.579 1.579 0 .28.088.546.228.78l-1.887 1.888c-.234-.139-.498-.225-.776-.225-.435 0-.841.201-1.133.509l-.422-.336c.086-.192.136-.401.136-.617 0-.668-.467-1.264-1.078-1.485v-4.043h-1v4.043c-.612.221-1.079.817-1.079 1.485s.467 1.263 1.079 1.484v6.988h6.031v-1h-5.031z" fill="#fff"/></g></svg>