<svg height="24" viewBox="0 0 24 24" width="24" xmlns="http://www.w3.org/2000/svg" xmlns:xlink="http://www.w3.org/1999/xlink"><linearGradient id="a" x1="0%" x2="100%" y1="100%" y2="0%"><stop offset="0" stop-color="#2e27ad"/><stop offset="1" stop-color="#527fff"/></linearGradient><g fill="none" fill-rule="evenodd"><path d="m0 0h24v24h-24z" fill="url(#a)"/><path d="m4 4v16h10v-1h-9v-10h14v10h-2v1h3v-16zm1 4.001h14v-3.001h-14zm5-1h1v-1.001h-1zm-2 0h1.001v-1.001h-1.001zm-2 0h1v-1.001h-1zm.647 4.353 2.609 2.609-2.609 2.609.706.707 3.317-3.316-3.317-3.317zm5.353 3.646h6v-1h-6z" fill="#fff"/></g></svg>