<svg height="24" viewBox="0 0 24 24" width="24" xmlns="http://www.w3.org/2000/svg" xmlns:xlink="http://www.w3.org/1999/xlink"><linearGradient id="a" x1="0%" x2="100%" y1="100%" y2="0%"><stop offset="0" stop-color="#4d27a8"/><stop offset="1" stop-color="#a166ff"/></linearGradient><g fill="none" fill-rule="evenodd"><path d="m0 0h24v24h-24z" fill="url(#a)"/><path d="m7.72512398 11.1882551h8.54975202l-4.2753912-4.89587274zm-1.60443099.7300954c-.08346751-.1848474-.05152316-.4017074.08140658-.5535094l5.40993113-6.1960001c.1957879-.22512133.5801507-.22512133.7749082 0l5.4099311 6.1960001c.1339602.151802.1659045.368662.082437.5535094-.084498.1838147-.2668899.3025713-.4698911.3025713h-10.81986222c-.20197076 0-.38539319-.1187566-.46886069-.3025713zm6.15289491-2.73863207.8470407-1.14212936h-.5997295l-.7305983 1.08533269v-1.08533269h-.5409931v2.44328943h.5409931v-1.18137074l.7584208 1.18137074h.6430089zm7.0524893 5.18295407-.2040317.176586c-.5059574.4440467-1.4271914.4440467-1.9362401-.0010326l-.4029111-.350074c-.8913505-.7817287-2.398918-.7817287-3.2902686-.0010327l-.4049719.3521393c-.5049269.4440467-1.4282218.4440467-1.9372706-.0010326l-.4018806-.3490414c-.89135054-.783794-2.39891801-.783794-3.28923809-.0020653l-.40600245.353172c-.50698783.4419814-1.42822181.4419814-1.9362401-.0020653l-.20300122-.1755534-.67392285.7806961.19990984.173488c.44619051.3913806 1.04695047.5865546 1.64667998.5865546.59869904 0 1.19739808-.195174 1.64255812-.5844893l.40600245-.353172c.50595736-.4440467 1.42719134-.4440467 1.93624012.0020653l.402911.3490414c.8913506.7817286 2.398918.7817286 3.2902686.0010326l.404972-.3521393c.5049269-.443014 1.4282218-.4440467 1.9372705.0020653l.4018806.3490414c.8923811.7827613 2.3999485.780696 3.2892381.0020653l.2019708-.1755533zm-.4451601 4.2731748c-.5069878.4440467-1.4292523.443014-1.9362401-.0020653l-.4018806-.3480087c-.892381-.783794-2.398918-.783794-3.2892381-.0020653l-.4060024.3521393c-.5059574.4440467-1.4292523.4440467-1.9362401-.0010327l-.4029111-.350074c-.89341146-.7817287-2.39994846-.780696-3.28923809-.0010326l-.40703291.3521393c-.5049269.443014-1.42719134.4440467-1.9362401-.0020653l-.20197076-.1745207-.67392284.7796633.19990983.1745207c.89341148.7827614 2.40097894.780696 3.28923811.0010327l.40600244-.3521394c.5049269-.4440466 1.42925227-.4440466 1.9362401.0010327l.40291102.350074c.8934115.7817287 2.3999485.780696 3.2892381.0010327l.4060025-.3521394c.5059574-.4450793 1.4271913-.4440466 1.9362401.0010327l.402911.3490414c.4461906.3924133 1.0469505.5875873 1.64668.5875873.5986991 0 1.1973981-.195174 1.6415277-.585522l.2030012-.1755534-.6749533-.7796633zm.2040317-2.094248.6749533.780696-.2030012.1755533c-.4441296.390348-1.0428286.585522-1.6415277.585522-.5997295 0-1.2004894-.1962066-1.64668-.5875873l-.402911-.3490414c-.5090488-.446112-1.4302827-.446112-1.9362401-.0020653l-.4060025.353172c-.8892896.7796634-2.3958266.7796634-3.2892381-.0020653l-.40291102-.3490414c-.50698783-.4450793-1.4313132-.4450793-1.9362401-.0010326l-.40600244.3521393c-.88825917.7796634-2.39582663.780696-3.28923811-.0020653l-.19990983-.173488.67392284-.780696.20197076.1755533c.50904876.446112 1.4313132.4450793 1.9362401.0020653l.40703291-.353172c.88928963-.7796633 2.39582663-.7796633 3.28923809.0020654l.4029111.3490413c.5069878.4450793 1.4302827.4450793 1.9362401.0010327l.4060024-.3521394c.8903201-.780696 2.3968571-.780696 3.2892381.0020654l.4018806.3490413c.5069878.4450793 1.4292523.4450793 1.9362401.0020653z" fill="#fff"/></g></svg>