<svg height="24" viewBox="0 0 24 24" width="24" xmlns="http://www.w3.org/2000/svg" xmlns:xlink="http://www.w3.org/1999/xlink"><linearGradient id="a" x1="0%" x2="100%" y1="100%" y2="0%"><stop offset="0" stop-color="#bd0816"/><stop offset="1" stop-color="#ff5252"/></linearGradient><g fill="none" fill-rule="evenodd"><path d="m0 0h24v24h-24z" fill="url(#a)"/><path d="m13.242 17.108.693.721-1.977 1.904c-.094.111-.233.179-.383.179-.144 0-.278-.062-.372-.164l-1.985-1.92.695-.719 1.162 1.124v-2.265h1v2.264zm5.814-5.58c0 2.391-.982 4.549-2.695 5.92l-.625-.78c1.475-1.181 2.32-3.054 2.32-5.14 0-3.599-2.928-6.528-6.528-6.528-3.599 0-6.528 2.929-6.528 6.528 0 2.003.986 3.872 2.706 5.126l-.59.808c-1.98-1.445-3.116-3.608-3.116-5.934 0-4.151 3.377-7.528 7.528-7.528 4.152 0 7.528 3.377 7.528 7.528zm-8.979-.616h2v-1h-2zm0 2h3v-1h-3zm-1.016 1.077h5.016v-5.974h-5.016zm5.516-6.974h-6.016c-.276 0-.5.224-.5.5v6.974c0 .277.224.5.5.5h6.016c.276 0 .5-.223.5-.5v-6.974c0-.276-.224-.5-.5-.5z" fill="#fff"/></g></svg>