<svg height="24" viewBox="0 0 24 24" width="24" xmlns="http://www.w3.org/2000/svg" xmlns:xlink="http://www.w3.org/1999/xlink"><linearGradient id="a" x1="0%" x2="100%" y1="100%" y2="0%"><stop offset="0" stop-color="#1b660f"/><stop offset="1" stop-color="#6cae3e"/></linearGradient><g fill="none" fill-rule="evenodd"><path d="m0 0h24v24h-24z" fill="url(#a)"/><path d="m11.3112495 11.637378h1.883l-1.139 2.276c-.077.155-.069.339.022.487.091.147.253.237.425.237h.54l-1.399 1.999.345-1.378c.037-.149.004-.308-.091-.429s-.24-.192-.395-.192h-1.69099999zm-.399 7.787 3.5-5c.107-.153.12-.352.034-.518-.086-.165-.257-.269-.444-.269h-.691l1.139-2.276c.077-.155.069-.339-.022-.487-.092-.147-.253-.237-.426-.237h-3c-.189 0-.362.107-.447.276l-1.99999999 4c-.077.155-.069.339.022.487.091.147.253.237.425.237h1.85999999l-.845 3.379c-.05899999.234.059.476.278.576.067.03.137.045.207.045.16 0 .314-.076.41-.213zm6.295-3.789-2.206-.001.002-.997h2.162c.146-.017 1.837-.238 1.837-2.207 0-1.649-1.163-2.095-1.856-2.214-.27-.047-.452-.30200001-.408-.57300001-.053-.68-.391-1.226-.906-1.377-.41-.12-.849.042-1.124.413-.111.148-.296.22-.475.197-.184-.027-.336-.153-.399-.327-.216-.613-.528-1.126-.926-1.525-.486-.488-1.822-1.536-3.70199999-.74-1.066.452-1.933 1.805-1.933 3.017 0 .139.009.276.024.411.031.249-.129.48200001-.372.54400001-.578.148-1.923.652-1.923 2.151 0 .004-.002.102-.002.106-.001.043-.002.085 0 .127.08 1.005.712 1.794 1.575 1.963l-.194.981c-1.307-.257-2.262-1.408-2.377-2.866-.005-.075-.005-.152-.003-.23.001-1.961 1.438-2.77000001 2.273-3.07600001-.001-.037-.001-.074-.001-.111 0-1.631 1.093-3.324 2.542-3.937 1.69399999-.718 3.48899999-.362 4.80199999.954.344.346.636.755.872 1.22.482-.304 1.066-.394 1.624-.232.844.247 1.42.987 1.583 2.012.836.237 2.306.96300001 2.306 3.11200001 0 2.344-1.829 3.122-2.795 3.205z" fill="#fff"/></g></svg>