<svg height="24" viewBox="0 0 24 24" width="24" xmlns="http://www.w3.org/2000/svg" xmlns:xlink="http://www.w3.org/1999/xlink"><linearGradient id="a" x1="0%" x2="100%" y1="100%" y2="0%"><stop offset="0" stop-color="#055f4e"/><stop offset="1" stop-color="#56c0a7"/></linearGradient><g fill="none" fill-rule="evenodd"><path d="m0 0h24v24h-24z" fill="url(#a)"/><path d="m15.65 15.125331c-2.512 0-3.867 2.1843803-3.867 4.2385853v.4930882h3.55l2.067-1.4901123-.59-.7968304-1.804 1.3007664h-2.191c.187-1.4141766 1.166-2.759321 2.835-2.759321 1.847 0 3.35 1.4930708 3.35 3.3283447h1c0-2.3796432-1.952-4.3145209-4.35-4.3145209m4.35-4.1409538v3.9101886h-1v-.95166h-4v-.9861762h4v-1.7258084l-1.667-1.23272024h-3.333v-.9861762h3v-1.15086763l-3.514-1.8027301-1.486.88460006v2.96345948l2.297 1.67847193-.595.7928856-2.5-1.8263983c-.127-.0927006-.202-.2396408-.202-.3964428v-3.30664883l-.584-.66566894-.416.2031523v2.62618723h-1v-2.14000236l-2 .97335591v1.8648592l1.283.86783509-.567.8126092-1.154-.7810516-1.562 1.5630893v1.5285731l1.531 1.1686188 2.206-1.3461305.525.8392359-2.262 1.3806467v1.9230436l1.539 1.2041211 1.461-1.2129967v-4.4437099l-1.287-.8846001.573-.8096507 1.5 1.0325265c.134.0927006.214.2435855.214.4043323v.9861762h1v.9861762h-1v2.9585286c0 .1459541-.066.2840187-.178.3777055l-1.951 1.6193013c-.093.0769217-.208.1153826-.323.1153826-.109 0-.219-.0355023-.31-.106507l-2.049-1.6025364c-.12-.0936867-.189-.2356961-.189-.386581v-2.1932559l-1.806-1.3776882c-.123-.0936867-.194-.2376684-.194-.3905257v-1.9723524c0-.1291891.051-.2534473.143-.3461479l1.857-1.85696977v-2.22875822c0-.18737348.108-.35896814.278-.44180694l4.041-1.96643534c.206-.09861762.451-.05128117.6.11932732l.683.77809302 1.609-.95659092c.148-.08875585.334-.09565909.488-.01479264l4.031 2.0680115c.166.08481115.27.25344728.27.43786223v1.69622307l1.799 1.33133789c.126.0936867.201.2396408.201.3944705" fill="#fff"/></g></svg>