<svg height="24" viewBox="0 0 24 24" width="24" xmlns="http://www.w3.org/2000/svg" xmlns:xlink="http://www.w3.org/1999/xlink"><linearGradient id="a" x1="0%" x2="100%" y1="100%" y2="0%"><stop offset="0" stop-color="#4d27a8"/><stop offset="1" stop-color="#a166ff"/></linearGradient><g fill="none" fill-rule="evenodd"><path d="m0 0h24v24h-24z" fill="url(#a)"/><path d="m19 9c0-.276-.225-.5-.5-.5s-.5.224-.5.5.225.5.5.5.5-.224.5-.5zm-6 5.5c0-.276-.225-.5-.5-.5s-.5.224-.5.5.225.5.5.5.5-.224.5-.5zm-7 1c0-.276-.225-.5-.5-.5s-.5.224-.5.5.225.5.5.5.5-.224.5-.5zm6-6c0 .276.225.5.5.5s.5-.224.5-.5-.225-.5-.5-.5-.5.224-.5.5zm8-.5c0 .827-.673 1.5-1.5 1.5-.099 0-.194-.011-.288-.029l-4.325 3.461c.072.175.113.367.113.568 0 .827-.673 1.5-1.5 1.5s-1.5-.673-1.5-1.5c0-.651.419-1.201 1-1.408v-2.184c-.07-.025-.136-.055-.2-.09l-4.918 4.099c.076.179.118.376.118.583 0 .827-.673 1.5-1.5 1.5s-1.5-.673-1.5-1.5.673-1.5 1.5-1.5c.254 0 .49.069.7.182l4.918-4.099c-.076-.179-.118-.376-.118-.583 0-.827.673-1.5 1.5-1.5s1.5.673 1.5 1.5c0 .651-.419 1.201-1 1.408v2.184c.074.027.145.059.213.096l4.101-3.28c-.194-.253-.314-.565-.314-.908 0-.827.673-1.5 1.5-1.5s1.5.673 1.5 1.5zm-.5-4h-14c-.276 0-.5.224-.5.5v7.5h1v-7h13v1h1v-1.5c0-.276-.224-.5-.5-.5zm-.5 7h1v7.5c0 .276-.224.5-.5.5h-14c-.276 0-.5-.224-.5-.5v-1.5h1v1h13z" fill="#fff"/></g></svg>