<svg height="24" viewBox="0 0 24 24" width="24" xmlns="http://www.w3.org/2000/svg" xmlns:xlink="http://www.w3.org/1999/xlink"><linearGradient id="a" x1="0%" x2="100%" y1="100%" y2="0%"><stop offset="0" stop-color="#c8511b"/><stop offset="1" stop-color="#f90"/></linearGradient><g fill="none" fill-rule="evenodd"><path d="m0 0h24v24h-24z" fill="url(#a)"/><path d="m7.06650482 10.717932 2.52577781 1.3730128-2.52577781 1.3720128zm-.51108413 4.0950382c.08586213 0 .1707021-.0210002.24838689-.0630006l4.08867312-2.2220207c.1615026-.0880008.2626972-.2560024.2626972-.4370041 0-.1820017-.1011946-.3500033-.2626972-.4370041l-4.08867312-2.22302076c-.15843609-.08600081-.35162589-.08400079-.50801764.00600005-.15536957.09000084-.25145339.25400238-.25145339.43100403v4.44504158c0 .1770016.09608382.3410031.25145339.431004.07972913.0460004.16967994.0690006.25963075.0690006zm9.71059861 1.8500173v-2.2600211l2.1455312 1.1300106zm-11.24385103-1.1630109h7.15517793v-7.00006536h-7.15517793zm11.24385103-8.16307623 2.1455312 1.13101057-2.1455312 1.12901055zm3.4661726 7.75607243-3.7350029-1.9670183c-.158436-.0830008-.3495815-.0790008-.5049511.0110001-.1533252.0900008-.2483869.2530023-.2483869.429004v1.0240095l-2.0443365-1.3550126v-2.4380228l2.0443365-1.35401265v.99100925c0 .1760017.0950617.3390032.2483869.430004.0807513.0470005.1717243.0700007.2626973.0700007.0827956 0 .1666134-.0200002.2422538-.0590006l3.7350029-1.96701835c.1655913-.08700081.2678081-.25600239.2678081-.44000411 0-.18500173-.1022168-.35400331-.2678081-.44100412l-3.7350029-1.96701838c-.158436-.08400078-.3495815-.07900074-.5049511.0110001-.1533252.09000085-.2483869.25300237-.2483869.42900401v1.73501621l-2.0443365 1.35401265v-1.58901484c0-.27700259-.2289657-.50000467-.5110842-.50000467h-8.17734616c-.28211845 0-.51108414.22300208-.51108414.50000467v8.00007473c0 .2770026.22896569.5000047.51108414.5000047h8.17734616c.2821185 0 .5110842-.2230021.5110842-.5000047v-1.5570145l2.0443365 1.3550126v1.7020206c0 .175997.0950617.3389985.2483869.4289993.0807513.0480005.1717243.0710007.2626973.0710007.0827956 0 .1666134-.0200002.2422538-.0590006l3.7350029-1.9680183c.1655913-.0870009.2678081-.2560024.2678081-.4400041 0-.1840018-.1022168-.3530033-.2678081-.4400042z" fill="#fff"/></g></svg>