<svg height="24" viewBox="0 0 24 24" width="24" xmlns="http://www.w3.org/2000/svg" xmlns:xlink="http://www.w3.org/1999/xlink"><linearGradient id="a" x1="0%" x2="100%" y1="100%" y2="0%"><stop offset="0" stop-color="#1b660f"/><stop offset="1" stop-color="#6cae3e"/></linearGradient><g fill="none" fill-rule="evenodd"><path d="m0 0h24v24h-24z" fill="url(#a)"/><path d="m13.578 15.758h1.044l1.454-2.124.03-.043-.477-.674zm3.358-3.275 2.104-2.932h-1.032l-1.641 2.343-.464.643 2.247 3.221h1.089zm-.775-1.057-1.313-1.875h-1.079l1.846 2.602zm-4.235.395-1.141-.437c-.369-.139-.657-.272-.856-.394-.191-.116-.329-.247-.412-.389-.082-.141-.123-.331-.123-.564 0-.421.134-.735.411-.96.275-.226.682-.34 1.21-.34.549 0 1.19.127 1.903.379l.1.036v-.699l-.044-.02c-.31-.136-.642-.244-.99-.319-.347-.075-.684-.114-1.002-.114-.704 0-1.282.191-1.716.568-.439.379-.662.88-.662 1.49 0 .45.136.834.403 1.142.262.303.677.566 1.234.783l1.236.479c.415.159.717.339.9.536.178.19.267.424.267.695 0 .456-.163.806-.499 1.07-.336.266-.795.4-1.365.4-.614 0-1.298-.134-2.032-.4l-.101-.037v.698l.043.02c.626.302 1.347.456 2.143.456.774 0 1.41-.204 1.887-.604.481-.405.725-.94.725-1.593 0-.448-.124-.829-.368-1.129-.242-.296-.629-.549-1.151-.753zm-7.926-3.64h4.297v.716h-3.518v2.674h2.974v.715h-2.974v3.432h-.779z" fill="#fff"/></g></svg>