<svg height="24" viewBox="0 0 24 24" width="24" xmlns="http://www.w3.org/2000/svg" xmlns:xlink="http://www.w3.org/1999/xlink"><linearGradient id="a" x1="0%" x2="100%" y1="100%" y2="0%"><stop offset="0" stop-color="#1b660f"/><stop offset="1" stop-color="#6cae3e"/></linearGradient><g fill="none" fill-rule="evenodd"><path d="m0 0h24v24h-24z" fill="url(#a)"/><path d="m19 18.293-1.646-1.646-.708.707 1.647 1.646h-1.293v1h2.5c.276 0 .5-.224.5-.5v-2.5h-1zm-12.354-1.646-1.646 1.646v-1.293h-1v2.5c0 .276.224.5.5.5h2.5v-1h-1.293l1.647-1.646zm12.854-12.647h-2.5v1h1.293l-1.647 1.647.708.707 1.646-1.647v1.293h1v-2.5c0-.276-.224-.5-.5-.5zm-14.5 1.707 1.646 1.647.708-.707-1.647-1.647h1.293v-1h-2.5c-.276 0-.5.224-.5.5v2.5h1zm10 6.41c0-.029-.024-.055-.038-.069-.039-.036-.09-.059-.108-.049l-3.367.001c-.276 0-.5-.224-.5-.5v-.007l-.536.005c-.002.008-.003.015-.004.022 0 .275-.222.48-.499.48h-.698c-.147-.011-.248.031-.271.054l.019 3.946h6.002zm.644-.8c.23.215.356.498.356.8v4.383c0 .276-.224.5-.5.5h-7c-.276 0-.5-.224-.5-.5v-4.5c0-.258.105-.499.297-.677.287-.268.695-.342.987-.322h.271c.094-.25.272-.501.601-.501h1.167c.314.057.48.279.567.5h2.93c.276-.026.59.099.824.317zm.487-.345c-.221-.046-.384-.235-.397-.46-.047-.802-.468-1.087-.816-1.087-.227 0-.441.114-.59.312-.11.147-.293.222-.474.195-.183-.028-.335-.153-.397-.326-.165-.462-.402-.849-.705-1.148-.368-.367-1.384-1.153-2.808-.555-.803.338-1.458 1.348-1.458 2.252 0 .104.009.208.021.308.031.25-.13.485-.376.546-.564.14-1.235.526-1.235 1.572 0 .001.004.128.004.128.021.367.182.723.454.995l-.708.707c-.445-.446-.709-1.033-.745-1.653l-.005-.177c0-1.137.586-2.014 1.59-2.413v-.013c0-1.314.891-2.678 2.073-3.174 1.377-.577 2.834-.289 3.897.767.256.253.476.548.657.881.883-.475 2.289-.118 2.575 1.454 1.263.377 1.953 1.259 1.953 2.512 0 1.125-.518 1.948-1.457 2.319l-.368-.931c.563-.221.825-.663.825-1.388 0-.323 0-1.305-1.51-1.623z" fill="#fff"/></g></svg>