<svg height="24" viewBox="0 0 24 24" width="24" xmlns="http://www.w3.org/2000/svg" xmlns:xlink="http://www.w3.org/1999/xlink"><linearGradient id="a" x1="0%" x2="100%" y1="100%" y2="0%"><stop offset="0" stop-color="#1b660f"/><stop offset="1" stop-color="#6cae3e"/></linearGradient><g fill="none" fill-rule="evenodd"><path d="m0 0h24v24h-24z" fill="url(#a)"/><path d="m18.1589495 13.3535719.0274162-.1656763c.1624665.0930113.2954859.1763338.4000736.2460923-.1188035-.0184085-.2660387-.0465057-.4274898-.080416zm-6.2387109-1.5579383c0 .2664385-.2274531.4844336-.5077076.4844336-.2792392 0-.5077076-.2179951-.5077076-.4844336 0-.2674073.2284684-.4844335.5077076-.4844335.2802545 0 .5077076.2170262.5077076.4844335zm4.4180715 6.3712699c-.0863103.0474745-.2741621.1143263-.4315515.1714895l-.2650233.0968867c-.2711159.101731-.5930025.1937734-.9605828.2732205-.9199662.2024932-2.1932969.3226327-3.4036718.3226327-3.79866823 0-4.76128184-.6278258-4.79580595-.8322568l-1.27129983-9.36410023c1.4165042.69467769 3.86467024 1.02312363 6.20215608 1.02312363 2.0988632 0 4.8831316-.29744219 6.471241-1.0386255l-.7077444 4.2814236c-1.4835216-.4350213-3.2523749-1.2188348-4.3033296-1.698424-.1817593-.6103862-.7635922-1.0599406-1.460167-1.0599406-.8397484 0-1.52312285.6510787-1.52312285 1.4533006 0 .8012531.68337445 1.4533006 1.52312285 1.4533006.6001103 0 1.1149258-.3361968 1.3637026-.8177238 1.1301571.5096241 2.8106692 1.232399 4.2393584 1.6364165zm-4.9257791-12.19803643c4.3317612 0 6.6753395 1.02312363 6.7027557 1.45136287l-.0040617.02325281c-.0487399.43211472-2.3862257 1.44554967-6.698694 1.44554967-4.10836994 0-6.35853002-.94948973-6.39102331-1.44845627l-.00203083-.01937734c.01827747-.49702881 2.2714838-1.45233174 6.39305414-1.45233174zm6.9444245 6.19202943.772731-4.65637512v-.00096887c.0020308-.02519054.0060925-.04844335.0060925-.07460276 0-1.78271541-4.6181084-2.42894975-7.723248-2.42894975-3.57019989 0-7.412531.76056065-7.412531 2.42894975 0 .02131507.00304625.04166128.00406166.06200749l1.47336745 10.84840456c.07006365.4107997.28330084 1.6606382 5.80005159 1.6606382 1.2824694 0 2.6400795-.1288593 3.6311248-.3468544.4153048-.0910735.7869468-.1976489 1.1047717-.3168195l.2528384-.0920424c.5270005-.189898 1.071263-.3856091 1.066186-.9068596l.6681432-4.0256427c.4538906.0939801.8011626.1375791 1.0519701.1375791.4691218 0 .6478349-.130797.7717156-.2712827.1482506-.1685829.2051138-.3807648.161451-.597791-.0883411-.4321147-.557463-.8448521-1.628726-1.4193903z" fill="#fff"/></g></svg>