<svg height="24" viewBox="0 0 24 24" width="24" xmlns="http://www.w3.org/2000/svg" xmlns:xlink="http://www.w3.org/1999/xlink"><linearGradient id="a" x1="0%" x2="100%" y1="100%" y2="0%"><stop offset="0" stop-color="#1b660f"/><stop offset="1" stop-color="#6cae3e"/></linearGradient><g fill="none" fill-rule="evenodd"><path d="m0 0h24v24h-24z" fill="url(#a)"/><path d="m16.179 14.229c-.138-.137-.32-.213-.516-.213-.194 0-.377.076-.514.213-.283.284-.283.746 0 1.03.276.275.756.275 1.03 0 .283-.284.283-.746 0-1.03zm.707-.707c.674.674.674 1.77 0 2.444-.337.337-.779.506-1.223.506-.442 0-.884-.169-1.221-.506-.674-.674-.674-1.77 0-2.444.673-.673 1.769-.674 2.444 0zm1.94 2.072-.798-.532c-.116-.076-.194-.198-.216-.335l-.098-.599c-.022-.138.014-.28.101-.39l.598-.757-.986-.986-.755.598c-.11.087-.252.124-.391.101l-.597-.097c-.137-.023-.258-.101-.335-.217l-.533-.799-1.242.633.33.891c.047.13.04.274-.022.398l-.276.551c-.064.126-.177.219-.313.257l-.921.259.218 1.377.964-.04c.136-.012.275.048.374.146l.424.425c.098.098.151.234.146.373l-.039.966 1.377.219.258-.921c.038-.136.132-.249.259-.313l.552-.275c.123-.061.266-.069.396-.021l.893.33zm1.093.058-1.037 2.035c-.114.226-.378.333-.619.242l-1.106-.41-.16.08-.318 1.135c-.062.219-.261.366-.481.366-.026 0-.052-.002-.079-.007l-2.255-.358c-.251-.039-.432-.26-.422-.513l.048-1.192-.114-.114-1.19.048c-.262.023-.475-.171-.515-.421l-.356-2.256c-.039-.251.115-.492.359-.56l1.137-.319.08-.159-.41-1.105c-.088-.238.015-.504.242-.619l2.035-1.037c.224-.115.501-.044.643.168l.659.989.165.026.931-.736c.2-.158.485-.142.664.038l1.615 1.615c.18.18.196.465.039.664l-.737.933.026.166.988.658c.211.14.283.417.168.643zm-13.919-4.652h1v-2h-1zm0-5h1v-2h-1zm6.057 1.99h1v-.99h-1zm-.5 1c-.276 0-.5-.224-.5-.5v-.548h-.918v1.558c0 .277-.224.5-.5.5h-1.639v1.5c0 .277-.223.5-.5.5h-2c-.276 0-.5-.223-.5-.5v-3c0-.276.224-.5.5-.5h2c.277 0 .5.224.5.5v.5h1.139v-3.117h-1.139v.617c0 .276-.223.5-.5.5h-2c-.276 0-.5-.224-.5-.5v-3c0-.277.224-.5.5-.5h2c.277 0 .5.223.5.5v1.383h1.639c.276 0 .5.223.5.5v1.559h.918v-.442c0-.277.224-.5.5-.5h2c.276 0 .5.223.5.5v1.99c0 .276-.224.5-.5.5zm7.006 2.005h1c0-4.136-3.364-7.5-7.5-7.5v1c3.584 0 6.5 2.916 6.5 6.5zm-8.361 6.23-.285.958c-2.032-.606-3.72-2.055-4.633-3.975l.903-.429c.791 1.665 2.255 2.921 4.015 3.446z" fill="#fff"/></g></svg>