<svg height="24" viewBox="0 0 24 24" width="24" xmlns="http://www.w3.org/2000/svg" xmlns:xlink="http://www.w3.org/1999/xlink"><linearGradient id="a" x1="0%" x2="100%" y1="100%" y2="0%"><stop offset="0" stop-color="#055f4e"/><stop offset="1" stop-color="#56c0a7"/></linearGradient><g fill="none" fill-rule="evenodd"><path d="m0 0h24v24h-24z" fill="url(#a)"/><path d="m15.0000475 7.5c0-1.378-1.121-2.5-2.5-2.5s-2.5 1.122-2.5 2.5 1.121 2.5 2.5 2.5 2.5-1.122 2.5-2.5zm1 0c0 1.93-1.57 3.5-3.5 3.5s-3.49999999-1.57-3.49999999-3.5 1.56999999-3.5 3.49999999-3.5 3.5 1.57 3.5 3.5zm-10.29299999 7.5h8.29299999v1h-9.49999999c-.189 0-.354-.113-.439-.28l-.008.004-4-8c-.075-.15-.07-.327.012-.472l4-7 .013.007c.089-.153.242-.259.422-.259h9.49999999v1h-8.29299999l3.147 3.146-.708.708-3.146-3.147v4.293h-1v-3.617l-2.639 4.617h6.639v1h-6.691l2.691 5.382v-4.382h1v5.293l3.646-3.647.708.708z" fill="#fff" transform="translate(4 4)"/></g></svg>