<svg height="24" viewBox="0 0 24 24" width="24" xmlns="http://www.w3.org/2000/svg" xmlns:xlink="http://www.w3.org/1999/xlink"><linearGradient id="a" x1="0%" x2="100%" y1="100%" y2="0%"><stop offset="0" stop-color="#055f4e"/><stop offset="1" stop-color="#56c0a7"/></linearGradient><g fill="none" fill-rule="evenodd"><path d="m0 0h24v24h-24z" fill="url(#a)"/><path d="m5.80893503 7h1.69093926c.13299523 0 .25999067-.053.35398729-.146l.85296936-.854h.58597896l.8539693.854c.0939966.093.2209921.146.3529873.146h1.6919393l.749973 1.5-.749973 1.5h-6.38277077l-.74997307-1.5zm-.75597285 3.724c.08499695.169.25799073.276.44698395.276h6.99974857c.1899932 0 .362987-.107.4479839-.276l.9999641-2c.0699975-.141.0699975-.307 0-.448l-.9999641-2c-.0849969-.169-.2579907-.276-.4479839-.276h-1.7929356l-.85296935-.854c-.09399663-.093-.22099206-.146-.35398729-.146h-.99996408c-.13199526 0-.2589907.053-.35298732.146l-.85396933.854h-1.7929356c-.18899322 0-.361987.107-.44698395.276l-.99996408 2c-.06999749.141-.06999749.307 0 .448zm12.50155102 2.279c-.2099925-.022-.4149851.091-.5069818.284-.0219992.047-2.2709185 4.713-6.5477649 4.713-2.27791814 0-5.28181025-.531-5.48780285-5h10.48762335c.1679939 0 .3249883-.084.416985-.224.0929966-.14.1089961-.317.0429984-.471-.5309809-1.252.2069926-1.974.584979-2.244.2549909.144.6519766.507.4669833 1.33-.0319989.146.0049998.299.0979964.417.0919967.118.2349916.189.3849862.192.028999 0 .6489767.022 1.3609511.592-.1999928.225-.5789792.491-1.3009532.411zm2.2989174-.857c-.6629762-.662-1.337952-.942-1.7949355-1.06.0519981-1.273-.862969-1.902-1.4169492-2.065-.1239955-.038-.2569907-.024-.3709866.035-.6899752.357-1.7489372 1.386-1.4469481 2.944h-10.32362916c-.27599009 0-.49998204.224-.49998204.5 0 4.313 2.18692145 6.5 6.4997665 6.5 4.2718466 0 6.6797601-3.849 7.295738-4.983h.0029999c1.3049531 0 1.9849287-.851 2.1689221-1.341.0699975-.183.0249991-.391-.1139959-.53z" fill="#fff"/></g></svg>