<svg height="24" viewBox="0 0 24 24" width="24" xmlns="http://www.w3.org/2000/svg" xmlns:xlink="http://www.w3.org/1999/xlink"><linearGradient id="a" x1="0%" x2="100%" y1="100%" y2="0%"><stop offset="0" stop-color="#055f4e"/><stop offset="1" stop-color="#56c0a7"/></linearGradient><g fill="none" fill-rule="evenodd"><path d="m0 0h24v24h-24z" fill="url(#a)"/><path d="m19.000533 13.6672874-1.6900986-1.3093481-.6246668.7573301 1.8889925 1.4613952-1.314299.6314312c-.1709089.08135-.2788513.2498608-.2788513.4338668v1.6570227l-2.9654184 1.649275-1.0474414-.6624217v-2.6283808h2.0299174v-.9684527h-2.0299174v-1.9524008h-.999467v5.5540766l-.9904717.654674-1.06843017-.5946299 1.44422977-1.3974774-.7066232-.6846961-1.63512789 1.5834203-.99446962-.5529865v-1.6570227c0-.184006-.10794243-.3525168-.27885128-.4338668l-1.74007196-.8348063v-3.2791811l1.43423508-.7214973 1.56816364.7321503v1.3722976l-1.27631929.8251217.55370469.8057527 1.49920042-.9684527c.13892591-.0900661.22288111-.2411448.22288111-.4028764v-1.6773601l1.2763193-.8251218-.5537047-.80575269-1.26232673.81543719-1.53718017-.71665501v-2.28070624l1.07742537-.44258291v2.02406626h.99946693v-2.43469023l.9574894-.39319182 1.010461.31184179v3.51935732c0 .14817327.0699627.28763044.1898988.37963344l2.5306503 1.9369055.61867-.7592669-2.3397521-1.79163761v-3.28983402l.9444963-.30603107 3.084355 1.24736715v.70697052h-1.9989339v.96845275h1.9989339v.90744024c0 .18400604.1079424.35154834.2758529.43289834l1.7270788.8348063zm.7236141-3.300487-1.7270789-.83480625v-2.60610636c0-.19562746-.1209355-.37188586-.3078358-.44645673l-3.5640991-1.44202615c-.1119403-.04551728-.2358742-.04842264-.3508129-.01162143l-1.3083023.42321385-1.3802638-.42611921c-.1129398-.0348643-.2358742-.03002204-.3468151.01549524l-3.50912843 1.44202616c-.18490139.07553931-.30483742.25082926-.30483742.44548827v2.61094863l-1.65511727.83286938c-.16591152.0832869-.26985608.2498608-.26985608.429993v3.873811c0 .1840061.10794243.3525168.27885128.4338669l1.74007196.8357747v1.6357167c0 .1733531.09494936.3341162.25086621.4203085l3.48214285 1.9369055c.076959.0426119.1629131.0639179.2488673.0639179.0989472 0 .1958955-.0280851.2808502-.0842554l1.1933635-.7863836 1.2513326.7921943c.0829558.0522965.1769057.0784447.2728545.0784447.0859542 0 .1719083-.021306.2488673-.0639179l3.4821429-1.9369055c.1559168-.0861923.2508662-.2469554.2508662-.4203085v-1.6357167l1.7410714-.8357747c.1709088-.0813501.2778518-.2498608.2778518-.4338669v-3.873811c0-.1830376-.106943-.3515483-.2758529-.4328984z" fill="#fff"/></g></svg>