<svg height="24" viewBox="0 0 24 24" width="24" xmlns="http://www.w3.org/2000/svg" xmlns:xlink="http://www.w3.org/1999/xlink"><linearGradient id="a" x1="0%" x2="100%" y1="100%" y2="0%"><stop offset="0" stop-color="#c8511b"/><stop offset="1" stop-color="#f90"/></linearGradient><g fill="none" fill-rule="evenodd"><path d="m0 0h24v24h-24z" fill="url(#a)"/><path d="m15 9h-1-1-1-1-1v1 1 1 1 1h1 1 1 1 1v-1-1-1-1zm1 0h1v1h-1v1h1v1h-1v1h1v1h-1v.308c0 .381-.311.692-.692.692h-.308v1h-1v-1h-1v1h-1v-1h-1v1h-1v-1h-.308c-.381 0-.692-.311-.692-.692v-.308h-1v-1h1v-1h-1v-1h1v-1h-1v-1h1v-.308c0-.381.311-.692.692-.692h.308v-1h1v1h1v-1h1v1h1v-1h1v1h.308c.381 0 .692.311.692.692zm-4 10h-7v-6h2v-1h-2.2c-.442 0-.8.342-.8.762v6.457c0 .431.351.781.781.781h7.419c.442 0 .8-.342.8-.762v-2.238h-1zm8-14.219v7.438c0 .431-.351.781-.781.781h-1.219v-1h1v-7h-7v1h-1v-1.219c0-.431.351-.781.781-.781h7.438c.43 0 .781.35.781.781z" fill="#fff"/></g></svg>