<svg height="24" viewBox="0 0 24 24" width="24" xmlns="http://www.w3.org/2000/svg" xmlns:xlink="http://www.w3.org/1999/xlink"><linearGradient id="a" x1="0%" x2="100%" y1="100%" y2="0%"><stop offset="0" stop-color="#2e27ad"/><stop offset="1" stop-color="#527fff"/></linearGradient><g fill="none" fill-rule="evenodd"><path d="m0 0h24v24h-24z" fill="url(#a)"/><path d="m9 9h1v-1h-1zm3.496 3.401.93.367-1.928 4.9-.93-.366zm3.831 2.247c.11.095.173.232.173.377 0 .144-.062.282-.17.377l-1.655 1.453-.66-.752 1.224-1.074-1.221-1.06.654-.756zm-7.592.336 1.257 1.219-.697.717-1.644-1.594c-.099-.097-.154-.232-.151-.371s.064-.27.169-.363l1.649-1.458.662.749zm10.265-6.984h-8v1h7.825c-.281.589-.878 1-1.574 1h-10.143c-.754 0-1.413-.402-1.785-1h2.677v-1h-2.989c-.002-.037-.011-.072-.011-.109v-.782c0-1.163.946-2.109 2.108-2.109h9.904c1.096 0 1.988.892 1.988 1.989zm-12.086 11v-8.02c.065.004.128.02.194.02h9.91v8zm10.098-15h-9.904c-1.713 0-3.108 1.395-3.108 3.109v.782c0 1.291.791 2.4 1.914 2.869v8.74c0 .276.224.5.5.5h11.104c.276 0 .5-.224.5-.5v-8.622c1.141-.335 1.982-1.379 1.982-2.627v-1.262c0-1.648-1.341-2.989-2.988-2.989z" fill="#fff"/></g></svg>