<svg height="24" viewBox="0 0 24 24" width="24" xmlns="http://www.w3.org/2000/svg" xmlns:xlink="http://www.w3.org/1999/xlink"><linearGradient id="a" x1="0%" x2="100%" y1="100%" y2="0%"><stop offset="0" stop-color="#c8511b"/><stop offset="1" stop-color="#f90"/></linearGradient><g fill="none" fill-rule="evenodd"><path d="m0 0h24v24h-24z" fill="url(#a)"/><path d="m20 12.5c0 4.136-3.364 7.5-7.5 7.5-3.042 0-5.762-1.815-6.929-4.624l.924-.384c1.011 2.435 3.368 4.008 6.005 4.008 3.584 0 6.5-2.916 6.5-6.5s-2.916-6.5-6.5-6.5c-2.674 0-5.114 1.677-6.071 4.173l-.934-.358c1.105-2.88 3.92-4.815 7.005-4.815 4.136 0 7.5 3.364 7.5 7.5zm-13 .5h3v-1h-3zm-3 0h2v-1h-2zm10.193-3.837c.599.851 1.199 2.029 1.199 3.338 0 1.293-.655 2.519-1.204 3.319-.332-1.477-.975-2.628-1.857-3.319.886-.694 1.531-1.851 1.862-3.338zm-.811 7.918c.02.196.155.362.343.423.05.017.102.024.154.024.139 0 .274-.058.371-.165.503-.557 2.142-2.553 2.142-4.862 0-2.171-1.341-3.98-2.141-4.865-.133-.146-.338-.202-.526-.14-.188.061-.322.227-.342.423-.22 2.081-1.049 3.622-2.218 4.123-.184.078-.303.259-.303.459s.119.381.303.459c1.169.502 1.997 2.042 2.217 4.121z" fill="#fff"/></g></svg>