<svg height="24" viewBox="0 0 24 24" width="24" xmlns="http://www.w3.org/2000/svg" xmlns:xlink="http://www.w3.org/1999/xlink"><linearGradient id="a" x1="0%" x2="100%" y1="100%" y2="0%"><stop offset="0" stop-color="#bd0816"/><stop offset="1" stop-color="#ff5252"/></linearGradient><g fill="none" fill-rule="evenodd"><path d="m0 0h24v24h-24z" fill="url(#a)"/><path d="m16.6359044 12.85c-.4992653-.396-.9211652-.729-1.2801411-1.006.2919258-.606.6106717-1.248.8262635-1.573.6529648.678 2.0837107 2.982 2.5984492 4.232-.6137663-.439-1.4905753-1.134-2.1445716-1.653m-4.0952136 2.107c-.206308-.185-.5487793-.618-.9345753-1.144.0030947-.004.0051577-.007.0082524-.011.4982338-.714 1.3018034-1.865 1.6669685-2.197.1763934.095.4600669.292.7953174.538-.4714138.987-1.2058703 2.5-1.535963 2.814m-2.82332493-.274c-.17845641-.269-.40952136-.677-.56941006-.956-.5704416-1.004-.80563271-1.421-1.24713182-1.436-.3022412-.018-.57663083.186-1.69894631 1.189-.14647868.13-.31874585.284-.49720227.44.66946944-1.242 1.66077934-2.926 2.17551779-3.667.31874584.428.82007427 1.162 1.24506873 1.788.4827607.708.88609287 1.294 1.22856407 1.779-.2300334.326-.46316142.646-.63646013.863m9.85945893-.89c-.0216623-.047-2.2951764-4.656-3.4370911-4.656-.5271169 0-.876809.55-1.6195178 2.079-.6684379-.482-1.0026568-.647-1.2615733-.656-.0082524 0-.0165047 0-.0257885 0-.50236 0-.9428276.501-2.2559779 2.371-.3538182-.507-.7045418-1.022-.9902784-1.441-1.57516152-2.312-1.7113248-2.475-2.09712074-2.489-.00206308-.001-.00412616-.001-.00722078-.001-.92838597 0-3.74345853 5.775-3.76718395 5.833-.08458628.21-.24241189.601.07323934.864.54774772.46 1.22443793-.154 2.71191856-1.482.28676811-.256.64471248-.576.89228207-.776.13925789.218.31771431.534.4518145.77.65090172 1.145.95830063 1.653 1.44518749 1.666.35072361.001.58075701-.192 1.29767731-1.185.7932542 1.05 1.1439778 1.31 1.5019222 1.31h.0082523c.7509611-.008 1.3379073-.993 2.4117404-3.222.3734175.29.7509611.589 1.0738331.845 2.7377071 2.173 3.3380633 2.616 3.8239187 2.102.3146196-.332.2496326-.874-.2300335-1.932" fill="#fff"/></g></svg>