<svg height="24" viewBox="0 0 24 24" width="24" xmlns="http://www.w3.org/2000/svg" xmlns:xlink="http://www.w3.org/1999/xlink"><linearGradient id="a" x1="0%" x2="100%" y1="100%" y2="0%"><stop offset="0" stop-color="#b0084d"/><stop offset="1" stop-color="#ff4f8b"/></linearGradient><g fill="none" fill-rule="evenodd"><path d="m0 0h24v24h-24z" fill="url(#a)"/><path d="m6.5485452 16.461c-.54792481 0-.99261741-.449-.99261741-1s.4446926-1 .99261741-1c.5479248 0 .9926174.449.9926174 1s-.4446926 1-.9926174 1zm1.34400397.463c.39208387-.366.64123084-.883.64123084-1.463 0-1.103-.89037781-2-1.98523481-2-.20447919 0-.39803959.041-.58465166.099l-.89434828-1.562 1.30231404-2.275-.85861406-.5-1.44624356 2.525c-.08933557.154-.08933557.345 0 .5l1.05118183 1.833c-.34146039.359-.55487313.844-.55487313 1.38 0 1.103.89037781 2 1.98523482 2 .16278925 0 .31863018-.025.47050065-.063l.77622681 1.355c.08834295.155.25212482.25.42881072.25h2.77436562v-1h-2.48650657zm9.55791303-7.407c-.5469322 0-.9926174-.449-.9926174-1 0-.552.4456852-1 .9926174-1 .5479248 0 .9926174.448.9926174 1 0 .551-.4446926 1-.9926174 1zm1.4313543.379c.3414604-.359.5538805-.844.5538805-1.379 0-1.103-.8903778-2-1.9852348-2-.1627893 0-.3176376.025-.469508.063l-.7752342-1.355c-.088343-.155-.2521249-.25-.4298034-.25h-2.7743656v1h2.4874992l.6184006 1.079c-.3920838.365-.6422234.883-.6422234 1.463 0 1.103.8913704 2 1.9852348 2 .2044792 0 .3990322-.041.5846516-.099l.8963336 1.563-1.3042993 2.273.858614.5 1.4472362-2.523c.0893356-.155.0893356-.346 0-.5zm-2.9024133 9.104c-.5479248 0-.9926174-.449-.9926174-1 0-.552.4446926-1 .9926174-1s.9926174.448.9926174 1c0 .551-.4446926 1-.9926174 1zm-2.9957193-4.9h-2.1887214l-1.20404495-2.1 1.11570195-1.947.2541101-.154h2.2403375l1.2040449 2.101-1.0889013 1.898zm-4.94521998-7.1c-.5479248 0-.9926174-.449-.9926174-1 0-.552.4446926-1 .9926174-1 .54792481 0 .99261741.448.99261741 1 0 .551-.4446926 1-.99261741 1zm7.94093928 9c-.3216081 0-.6223711.085-.8913704.222l-.9965879-1.675 1.3162107-2.297c.0893355-.155.0893355-.346 0-.5l-1.4899188-2.601c-.0883429-.154-.2521248-.25-.4298033-.25h-2.7614616l-1.05415972-1.769c.22135368-.322.35138652-.711.35138652-1.13 0-1.103-.89037777-2-1.98523478-2-1.094857 0-1.98523481.897-1.98523481 2s.89037781 2 1.98523481 2c.31267449 0 .60549662-.081.86953285-.211l.99361003 1.67-1.31224021 2.291c-.08933557.154-.08933557.345 0 .5l1.48991871 2.6c.088343.154.2521248.25.4288107.25h2.7545133l1.0660711 1.791c-.2104349.318-.334512.698-.334512 1.109 0 1.103.8903778 2 1.9852348 2s1.9852348-.897 1.9852348-2-.8903778-2-1.9852348-2z" fill="#fff"/></g></svg>