<svg height="24" viewBox="0 0 24 24" width="24" xmlns="http://www.w3.org/2000/svg" xmlns:xlink="http://www.w3.org/1999/xlink"><linearGradient id="a" x1="0%" x2="100%" y1="100%" y2="0%"><stop offset="0" stop-color="#2e27ad"/><stop offset="1" stop-color="#527fff"/></linearGradient><g fill="none" fill-rule="evenodd"><path d="m0 0h24v24h-24z" fill="url(#a)"/><path d="m16.4345806 18.9677419c-.1734193 0-.3148387-.1414193-.3148387-.3158709 0-.1734194.1414194-.3148387.3148387-.3148387.1744517 0 .315871.1414193.315871.3148387 0 .1744516-.1414193.3158709-.315871.3158709m-1.4234838-4.7504516c0-.4789677.3901935-.8691613.8691613-.8691613.48 0 .8701935.3901936.8701935.8691613 0 .48-.3901935.8701936-.8701935.8701936-.4789678 0-.8691613-.3901936-.8691613-.8701936m3.6407742-4.196129c.1744516 0 .3158709.1414193.3158709.315871 0 .1734193-.1414193.3148387-.3158709.3148387s-.3148387-.1414194-.3148387-.3148387c0-.1744517.1403871-.315871.3148387-.315871m-6.0975484 5.6206452c-.1744516 0-.3148387-.1414194-.3148387-.315871 0-.1734194.1403871-.3148387.3148387-.3148387s.3158709.1414193.3158709.3148387c0 .1744516-.1414193.315871-.3158709.315871m6.3752258 0c-.5904516 0-1.0704516.48-1.0704516 1.0704516 0 .0247742.0123871.0454193.0144516.0691613l-.9858065.6152258c-.0691613-.0258065-.1455484-.0309678-.2188387-.0443871v-1.4090323c.6544516-.3003871 1.1138065-.9589677 1.1138065-1.7259355 0-.424258-.1455484-.8123871-.3809032-1.1292903l.8805161-1.4781935c.1197419.0350967.2384516.0743225.3695484.0743225.7432258 0 1.348129-.6049032 1.348129-1.3470967 0-.74322585-.6049032-1.34812907-1.348129-1.34812907-.7421936 0-1.3470968.60490322-1.3470968 1.34812907 0 .2250322.0691613.4273548.1672258.6141935l-.8929032 1.5009032c-.2167742-.0856774-.4521291-.136258-.6988387-.136258-.3055484 0-.5894194.0784516-.8454194.2074838l-.6131613-.6276129c.0103226-.0578064.0350968-.1114838.0350968-.1734193 0-.5894194-.48-1.0704516-1.0704516-1.0704516s-1.0704516.4810322-1.0704516 1.0704516c0 .5904516.48 1.0714839 1.0704516 1.0714839.1393548 0 .2694193-.032.3912258-.0794839l.4923871.5037419c-.1806452.2910968-.2910968.631742-.2910968.9992258 0 .0061936.0020645.0113549.0020645.0175484l-.520258.1083871c-.2394839-.2219355-.5543226-.3643871-.9063226-.3643871-.7432258 0-1.3470968.603871-1.3470968 1.3470968s.603871 1.348129 1.3470968 1.348129 1.348129-.6049032 1.348129-1.348129c0-.0072258-.004129-.0123871-.004129-.0196129l.3767742-.0784516c.2952258.4676129.7886451.7927742 1.3615484.8670967v1.5009033c-.3251613.2467096-.5491613.6183225-.5491613 1.056 0 .7432258.6038709 1.348129 1.3470967 1.348129.7432259 0 1.3481291-.6049032 1.3481291-1.348129 0-.1868387-.0392258-.3654194-.1094194-.5285162l.7628387-.4758709c.1507097.0784516.3127742.1352258.4934194.1352258.5904516 0 1.0704516-.48 1.0704516-1.0704516s-.48-1.0704516-1.0704516-1.0704516m-9.7011613-10.60954844c2.5610323 0 4.196129.84335484 4.196129 1.42348388 0 .58116129-1.6350967 1.42451612-4.196129 1.42451612-2.56206452 0-4.19612904-.84335483-4.19612904-1.42451612 0-.58012904 1.63406452-1.42348388 4.19612904-1.42348388m0 13.66090324c-2.52283871 0-4.19612904-.8113548-4.19612904-1.348129v-1.7961291c1.05806452.6307097 2.77780646.9610323 4.43148388.9610323v-1.0322581c-2.74890323 0-4.43148388-.8949677-4.43148388-1.3821935v-2.2740645c1.05806452.6307096 2.77780646.96 4.43148388.96.48516129 0 .96619356-.027871 1.43070966-.0815484l-.1207742-1.0250323c-.4252903.0495484-.86503224.0743226-1.30993546.0743226-2.74890323 0-4.43148388-.8939355-4.43148388-1.3821936v-2.40619351c1.01470968.62451613 2.63432259.95174194 4.19612904.95174194 1.5607742 0 3.1814194-.32722581 4.196129-.95174194v1.344h1.0322581v-2.84903225c0-1.59483871-2.6931613-2.45574194-5.2283871-2.45574194-2.53522581 0-5.2283871.86090323-5.2283871 2.45574194v10.88929036c0 1.5628387 2.63019355 2.3803871 5.2283871 2.3803871 2.5981935 0 5.2283871-.8175484 5.2283871-2.3803871h-1.0322581c0 .5367742-1.6732903 1.348129-4.196129 1.348129" fill="#fff"/></g></svg>