<svg height="24" viewBox="0 0 24 24" width="24" xmlns="http://www.w3.org/2000/svg" xmlns:xlink="http://www.w3.org/1999/xlink"><linearGradient id="a" x1="0%" x2="100%" y1="100%" y2="0%"><stop offset="0" stop-color="#b0084d"/><stop offset="1" stop-color="#ff4f8b"/></linearGradient><g fill="none" fill-rule="evenodd"><path d="m0 0h24v24h-24z" fill="url(#a)"/><path d="m18.5 15.234v-1.468c.303.185.5.447.5.734 0 .288-.197.549-.5.734zm-12.5-.734c0-.287.197-.549.5-.734v1.468c-.303-.185-.5-.446-.5-.734zm14 0c0-.837-.646-1.553-1.561-1.85-.192-.946-.861-1.65-1.662-1.65h-3.277v1h3.277c.342 0 .723.492.723 1.197v.303 2 .303c0 .705-.381 1.197-.723 1.197h-8.554c-.342 0-.723-.492-.723-1.197v-.303-2-.303c0-.705.381-1.197.723-1.197h1.277v-1h-1.277c-.801 0-1.47.704-1.662 1.65-.915.297-1.561 1.013-1.561 1.85s.646 1.553 1.561 1.851c.192.946.861 1.649 1.662 1.649h2.277v2h1v-2h2v2h1v-2h2.277c.801 0 1.47-.703 1.662-1.649.915-.298 1.561-1.014 1.561-1.851zm-7.5-7.5h1v-1h-1zm-2 0h1v-1h-1zm-2 0h1v-1h-1zm2 7.5c0 .276-.225.5-.5.5s-.5-.224-.5-.5.225-.5.5-.5.5.224.5.5zm-2 0c0 .827.673 1.5 1.5 1.5s1.5-.673 1.5-1.5-.673-1.5-1.5-1.5-1.5.673-1.5 1.5zm6 0c0-.276.225-.5.5-.5s.5.224.5.5-.225.5-.5.5-.5-.224-.5-.5zm2 0c0-.827-.673-1.5-1.5-1.5s-1.5.673-1.5 1.5.673 1.5 1.5 1.5 1.5-.673 1.5-1.5zm-9-9.5h7v3h-2.5c-.276 0-.5.224-.5.5v1.349l-1.084-1.626c-.093-.139-.249-.223-.416-.223h-2.5zm-.5 4h2.732l1.852 2.777c.095.142.252.223.416.223.048 0 .097-.007.145-.021.21-.064.355-.259.355-.479v-2.5h2.5c.276 0 .5-.224.5-.5v-4c0-.276-.224-.5-.5-.5h-8c-.276 0-.5.224-.5.5v4c0 .276.224.5.5.5z" fill="#fff"/></g></svg>