<svg height="24" viewBox="0 0 24 24" width="24" xmlns="http://www.w3.org/2000/svg" xmlns:xlink="http://www.w3.org/1999/xlink"><linearGradient id="a" x1="0%" x2="100%" y1="100%" y2="0%"><stop offset="0" stop-color="#c8511b"/><stop offset="1" stop-color="#f90"/></linearGradient><g fill="none" fill-rule="evenodd"><path d="m0 0h24v24h-24z" fill="url(#a)"/><path d="m8.97942827 15.4746616-1.00187016.5254326-1.00187016-.5254326v-1.3927975l1.00187016-.501367 1.00187016.501367zm1.00187015.3028256v-2.0054679c0-.1895167-.1072001-.3629897-.27651616-.4482221l-1.50280524-.7520505c-.14126369-.0701914-.30757413-.0701914-.44883783 0l-1.50280523.7520505c-.16931606.0852324-.27651617.2587054-.27651617.4482221v2.0054679c0 .1865085.1041945.3579761.26850121.4442112l1.50280523.7881489c.07313652.0381039.15228427.0571558.23243388.0571558s.15929735-.0190519.23243388-.0571558l1.50280523-.7881489c.16430671-.0862351.2685012-.2577027.2685012-.4442112zm7.01309108.893436v-2.8387399l2.0037403-1.0037367v2.834729zm-4.0074806-.750045 2.4776249 1.519142-2.4776249 1.2463983zm-3.00561048-6.19990418v-2.92397227l6.01122098 3.12652453v6.66517272l-3.0056105-1.8450305v-3.1866886c0-.1895167-.1051964-.3619869-.2735106-.4472193zm-1.00187015-2.89990666v2.3905178l-2.36641732-1.20328077zm3.50654553-1.75879539 2.2622228 1.13008119-1.6671119 1.08696363-2.461595-1.28149402zm4.0034732 3.98987849-2.3874566-1.2423874 1.6851456-1.0979937 2.6228961 1.30957057zm2.5086828 2.65423684-2.0037403 1.0047394v-2.79261409l2.0037403-1.07493082zm.725354-4.1493132-7.0130911-3.50455524c-.1422655-.07019138-.308576-.07019138-.4488378.00100273l-6.98403687 3.50355251c-.16931605.08523239-.27651616.25770263-.27751803.44721935 0 0 .00100187.00100274.00100187.00100274h-.00100187v4.01093591h1.00187016v-3.19370772l5.98316854 3.04129212v6.7453915l-1.7021774-1.0318133-.5189687.8573376 2.4575875 1.4900627.0010019.0010027h.0010018l.0030056.0020055.0010019-.0010028c.0781459.0481313.1683142.0731996.2584825.0731996.077144 0 .1532862-.0170465.2254208-.0531449l7.0130911-3.5256127c.1693161-.0852323.2755143-.2587053.2755143-.448222v-7.96772421c0-.18951672-.1072001-.36399243-.2765162-.44822209z" fill="#fff"/></g></svg>