<svg height="24" viewBox="0 0 24 24" width="24" xmlns="http://www.w3.org/2000/svg" xmlns:xlink="http://www.w3.org/1999/xlink"><linearGradient id="a" x1="0%" x2="100%" y1="100%" y2="0%"><stop offset="0" stop-color="#c8511b"/><stop offset="1" stop-color="#f90"/></linearGradient><g fill="none" fill-rule="evenodd"><path d="m0 0h24v24h-24z" fill="url(#a)"/><path d="m16.988927 16.035726h-8.69714432c-.98782619 0-2.08152561-.9546313-2.2845302-1.9285481h7.52573982c-.0058279.0539994-.0087418.1079987-.0087418.1619981 0 .432959.198148.8312042.5439357 1.0934867.3477304.2622826.7906495.3471387 1.2209416.2304615.4429191-.1205342.8013339-.4628515.9353752-.8929177.0621641-.1967119.0806191-.3982452.0563362-.5930286h2.7284207c-.1758079 1.5708024-1.4909668 1.9285481-2.0203329 1.9285481zm-9.45865438-4.2235202c.23797189-.0588207.39435342-.2844608.36521401-.5264936-.01456971-.1205343-.02234022-.2420328-.02234022-.3683527 0-1.09927238.79356343-2.28340087 1.80664379-2.69611015.22923007-.09353458.4506896-.15910522.6624361-.200569v2.18408065c0 .1976762.1204429.3741383.3059638.4474231.1816357.0723206.3943534.027964.53228-.1147486.1699799-.1783907.4749725-.1581409.6235835.0298925.0466231.059785.117529.1851406.0728486.3654599-.0301108.1214985-.1311274.23239-.250599.2728895-.2447711.0848561-.4030953-.0568921-.4458331-.102213-.1359839-.1427126-.3457877-.1880334-.53228-.1157129-.1845496.0723206-.3059638.249747-.3059638.4474231v1.7077293h-4.29903521c.23602927-.8852035.99948197-1.2111281 1.48708153-1.3306981zm3.78326748-3.83106068c.9062359.11185578 1.547303.61809964 1.847439.90738185.3632714.34906719.662436.82059719.8644693 1.36444773.0611928.1648909.2078612.2834966.383669.3104962.1709512.0231426.349673-.0453208.4574888-.1851406.1971767-.2555326.4875996-.40306652.79842-.40306652.4633167 0 1.0257075.35485282 1.0859289 1.35191222.0135984.2188902.1728939.4011379.3885256.4445303.9955967.1986404 1.6016965.6585991 1.8085864 1.3711976h-3.4209674c-.1981481 0-.3778411.1205343-.4506897.3027821-.0738198.183212-.0281681.3924595.1155864.5284221.0563362.0530351.1806644.2034619.1058732.4377804-.0359386.1176415-.1437545.217926-.2651687.2507113-.1806644.0472494-.3137344-.0202498-.3739558-.0665349-.1039306-.0781062-.1631808-.1976762-.1631808-.3268889 0-.1108915.0446805-.2159974.1282135-.2950679.1447257-.1359626.1903775-.3452101.1165576-.5284221-.0738198-.1822478-.2525416-.3027821-.4506896-.3027821h-2.9761057v-.9565598c.2049472.0231426.4205789.0019286.6294114-.0684634.4312634-.1484982.7683093-.5139581.8770964-.9536671.1049019-.4204234.0145697-.8543467-.2515703-1.19087836-.2981933-.37895969-.7789937-.57856441-1.2549375-.51877943zm6.3659911 2.92753588c-.2204883-1.30080562-1.1646053-1.89769123-2.014505-1.89769123-.3613287 0-.7080878.09835595-1.0091951.27963946-.2234022-.41849492-.4973127-.78588332-.8188176-1.09445101-1.2345399-1.19280696-2.9265686-1.51680303-4.52535126-.86688234-1.3734378.55927893-2.40982969 2.10115308-2.40982969 3.58806362 0 .0260354 0 .0520708.00097131.0781062-1.19957262.4387447-1.90280386 1.4338755-1.90280386 2.7298597 0 .070392.00291394.1340341.0067992.200569.08936087 1.5804451 1.68522955 3.0741056 3.28498348 3.0741056h8.69714432c1.163634 0 3.011073-.883275 3.011073-3.2524963 0-1.4329112-.8207602-2.4309348-2.3204688-2.8388227z" fill="#fff"/></g></svg>