<svg height="24" viewBox="0 0 24 24" width="24" xmlns="http://www.w3.org/2000/svg" xmlns:xlink="http://www.w3.org/1999/xlink"><linearGradient id="a" x1="0%" x2="100%" y1="100%" y2="0%"><stop offset="0" stop-color="#4d27a8"/><stop offset="1" stop-color="#a166ff"/></linearGradient><g fill="none" fill-rule="evenodd"><path d="m0 0h24v24h-24z" fill="url(#a)"/><path d="m20 15.0343185c0 2.3455668-1.9239257 2.9656815-2.9404128 2.9656815l-8.48825136-.0097045c-2.06899909 0-3.57133584-1.2169386-3.57133584-2.8928981v-.1445963c0-1.2052934.85486174-2.1514778 2.36304037-2.6357301l.00097365-.0853992c0-1.4401411 1.07295859-3.10930744 2.34162015-3.64499337 1.17811243-.49589766 2.43606383-.38041465 3.54504743.32704014l-.5247956.81808558c-.5880825-.37556242-1.523757-.72298192-2.6405296-.25134539-.99993514.4221438-1.74769575 1.80017644-1.74769575 2.75121304l-.00292094.1620644c-.00292094.0786061-.00778917.161094 0 .230966.0292094.241641-.12560041.4667843-.36317019.526952-.74581332.1902073-1.99792289.6764005-1.99792289 1.8011469v.1445963c0 1.13251 1.06809036 1.9224526 2.59866286 1.9224526l8.48825131.0097045c.1995976-.0019409 1.9657926-.0737539 1.9657926-1.995236 0-1.1247464-.9668311-1.6109396-1.46047-1.6109396v-.9704455c1.0203817 0 2.4341166.8976621 2.4341166 2.5813851m-3.8916656-7.06387298c.7555498 0 1.3046865.54636083 1.3046865 1.29942656 0 .4881341-.6727898 1.71574772-1.3046865 2.69686812-.6318966-.9811204-1.3037128-2.20873402-1.3037128-2.69686812 0-.75306573.5491367-1.29942656 1.3037128-1.29942656m0 5.35491838c.1587044 0 .3076724-.0776356.3991951-.2076753.3135142-.4473754 1.879138-2.7347155 1.879138-3.84781652 0-1.29360388-.9794885-2.26987208-2.2783331-2.26987208-1.2978709 0-2.2773595.9762682-2.2773595 2.26987208 0 1.11310102 1.5646502 3.40044112 1.8781644 3.84781652.0915228.1300397.2404907.2076753.3991951.2076753" fill="#fff"/></g></svg>