<svg height="24" viewBox="0 0 24 24" width="24" xmlns="http://www.w3.org/2000/svg" xmlns:xlink="http://www.w3.org/1999/xlink"><linearGradient id="a" x1="0%" x2="100%" y1="100%" y2="0%"><stop offset="0" stop-color="#4d27a8"/><stop offset="1" stop-color="#a166ff"/></linearGradient><g fill="none" fill-rule="evenodd"><path d="m0 0h24v24h-24z" fill="url(#a)"/><path d="m16.5 16c-.827 0-1.5.673-1.5 1.5s.673 1.5 1.5 1.5 1.5-.673 1.5-1.5-.673-1.5-1.5-1.5zm-1.807-.219c.395-.415.93-.685 1.53-.753l.558-6.146c-.395-.119-.754-.324-1.04-.609l-3.26 2.174c.321.618.519 1.31.519 2.053 0 .697-.173 1.349-.457 1.938zm-2.693-3.281c0-1.93-1.57-3.5-3.5-3.5s-3.5 1.57-3.5 3.5 1.57 3.5 3.5 3.5 3.5-1.57 3.5-3.5zm4-6c0 .827.673 1.5 1.5 1.5s1.5-.673 1.5-1.5-.673-1.5-1.5-1.5-1.5.673-1.5 1.5zm1.777 2.472-.558 6.146c1.027.311 1.781 1.255 1.781 2.382 0 1.378-1.121 2.5-2.5 2.5s-2.5-1.122-2.5-2.5c0-.307.063-.598.165-.87l-2.156-1.347c-.825 1.038-2.083 1.717-3.509 1.717-2.481 0-4.5-2.019-4.5-4.5s2.019-4.5 4.5-4.5c1.379 0 2.599.636 3.425 1.616l3.263-2.175c-.12-.291-.188-.608-.188-.941 0-1.378 1.121-2.5 2.5-2.5s2.5 1.122 2.5 2.5c0 1.283-.976 2.332-2.223 2.472zm-8.777 3.028h1v1h-1v1h-1v-1h-1v-1h1v-1h1z" fill="#fff"/></g></svg>