<svg contentScriptType="application/ecmascript" contentStyleType="text/css" height="352" preserveAspectRatio="none" viewBox="0 0 221 352" width="221" xmlns="http://www.w3.org/2000/svg" xmlns:xlink="http://www.w3.org/1999/xlink" zoomAndPan="magnify"><filter id="a" height="300%" width="300%" x="-1" y="-1"><feGaussianBlur result="blurOut" stdDeviation="2"/><feColorMatrix in="blurOut" result="blurOut2" type="matrix" values="0 0 0 0 0 0 0 0 0 0 0 0 0 0 0 0 0 0 .4 0"/><feOffset dx="4" dy="4" in="blurOut2" result="blurOut3"/><feBlend in="SourceGraphic" in2="blurOut3" mode="normal"/></filter><g fill="#fff"><path d="m13 56.6094h179v141.0781h-179z" filter="url(#a)" stroke="#000" stroke-width="2"/><path d="m13 105.3125h179v46.1875h-179z"/><path d="m13 151.5h179v46.1875h-179z"/><path d="m13 211.6875h170v48.7031h-170z" filter="url(#a)" stroke="#000" stroke-width="2"/><path d="m13 274.3906h197v48.7031h-197z" filter="url(#a)" stroke="#000" stroke-width="2"/></g><path d="m47 39.6094v300.4844" stroke="#a80036" stroke-dasharray="5 5"/><path d="m123.5 39.6094v300.4844" stroke="#a80036" stroke-dasharray="5 5"/><path d="m23 3h44v31.6094h-44z" fill="#fefece" filter="url(#a)" stroke="#a80036" stroke-width="1.5"/><text font-family="sans-serif" font-size="14" lengthAdjust="spacingAndGlyphs" textLength="30" x="30" y="24.5332">Alice</text><path d="m102.5 3h39v31.6094h-39z" fill="#fefece" filter="url(#a)" stroke="#a80036" stroke-width="1.5"/><text font-family="sans-serif" font-size="14" lengthAdjust="spacingAndGlyphs" textLength="25" x="109.5" y="24.5332">Bob</text><path d="m13 56.6094h61v8l-10 10h-51z" fill="#eee" stroke="#000"/><path d="m13 56.6094h179v141.0781h-179z" fill="none" stroke="#000" stroke-width="2"/><text font-family="sans-serif" font-size="13" font-weight="bold" lengthAdjust="spacingAndGlyphs" textLength="16" x="28" y="71.1045">alt</text><text font-family="sans-serif" font-size="11" font-weight="bold" lengthAdjust="spacingAndGlyphs" textLength="98" x="89" y="70.0283">[successful case]</text><path d="m112 93.3125 10 4-10 4 4-4z" fill="#a80036" stroke="#a80036"/><path d="m47 97.3125h71" stroke="#a80036"/><text font-family="sans-serif" font-size="13" lengthAdjust="spacingAndGlyphs" textLength="53" x="54" y="92.4561">message</text><path d="m13 106.3125h179" stroke="#000" stroke-dasharray="2 2"/><text font-family="sans-serif" font-size="11" font-weight="bold" lengthAdjust="spacingAndGlyphs" textLength="119" x="18" y="117.7314">[some kind of failure]</text><path d="m112 139.5 10 4-10 4 4-4z" fill="#a80036" stroke="#a80036"/><path d="m47 143.5h71" stroke="#a80036"/><text font-family="sans-serif" font-size="13" lengthAdjust="spacingAndGlyphs" textLength="53" x="54" y="138.6436">message</text><path d="m13 152.5h179" stroke="#000" stroke-dasharray="2 2"/><text font-family="sans-serif" font-size="11" font-weight="bold" lengthAdjust="spacingAndGlyphs" textLength="132" x="18" y="163.9189">[Another type of failure]</text><path d="m112 185.6875 10 4-10 4 4-4z" fill="#a80036" stroke="#a80036"/><path d="m47 189.6875h71" stroke="#a80036"/><text font-family="sans-serif" font-size="13" lengthAdjust="spacingAndGlyphs" textLength="53" x="54" y="184.8311">message</text><path d="m13 211.6875h65v8l-10 10h-55z" fill="#eee" stroke="#000"/><path d="m13 211.6875h170v48.7031h-170z" fill="none" stroke="#000" stroke-width="2"/><text font-family="sans-serif" font-size="13" font-weight="bold" lengthAdjust="spacingAndGlyphs" textLength="20" x="28" y="226.1826">opt</text><text font-family="sans-serif" font-size="11" font-weight="bold" lengthAdjust="spacingAndGlyphs" textLength="85" x="93" y="225.1064">[value &gt; $10000]</text><path d="m112 248.3906 10 4-10 4 4-4z" fill="#a80036" stroke="#a80036"/><path d="m47 252.3906h71" stroke="#a80036"/><text font-family="sans-serif" font-size="13" lengthAdjust="spacingAndGlyphs" textLength="53" x="54" y="247.5342">message</text><path d="m13 274.3906h73v8l-10 10h-63z" fill="#eee" stroke="#000"/><path d="m13 274.3906h197v48.7031h-197z" fill="none" stroke="#000" stroke-width="2"/><text font-family="sans-serif" font-size="13" font-weight="bold" lengthAdjust="spacingAndGlyphs" textLength="28" x="28" y="288.8857">loop</text><text font-family="sans-serif" font-size="11" font-weight="bold" lengthAdjust="spacingAndGlyphs" textLength="104" x="101" y="287.8096">[for each line item]</text><path d="m112 311.0938 10 4-10 4 4-4z" fill="#a80036" stroke="#a80036"/><path d="m47 315.0938h71" stroke="#a80036"/><text font-family="sans-serif" font-size="13" lengthAdjust="spacingAndGlyphs" textLength="53" x="54" y="310.2373">message</text></svg>