<svg contentScriptType="application/ecmascript" contentStyleType="text/css" height="192" preserveAspectRatio="none" viewBox="0 0 195 192" width="195" xmlns="http://www.w3.org/2000/svg" xmlns:xlink="http://www.w3.org/1999/xlink" zoomAndPan="magnify"><filter id="a" height="300%" width="300%" x="-1" y="-1"><feGaussianBlur result="blurOut" stdDeviation="2"/><feColorMatrix in="blurOut" result="blurOut2" type="matrix" values="0 0 0 0 0 0 0 0 0 0 0 0 0 0 0 0 0 0 .4 0"/><feOffset dx="4" dy="4" in="blurOut2" result="blurOut3"/><feBlend in="SourceGraphic" in2="blurOut3" mode="normal"/></filter><g stroke="#a80036"><path d="m21 39.6094v111.0547" stroke-dasharray="5 5"/><path d="m136 39.6094v111.0547" stroke-dasharray="5 5"/><path d="m174 39.6094v111.0547" stroke-dasharray="5 5"/><path d="m8 3h23v31.6094h-23z" fill="#fefece" filter="url(#a)" stroke-width="1.5"/></g><text font-family="sans-serif" font-size="14" lengthAdjust="spacingAndGlyphs" textLength="9" x="15" y="24.5332">A</text><path d="m8 149.6641h23v31.6094h-23z" fill="#fefece" filter="url(#a)" stroke="#a80036" stroke-width="1.5"/><text font-family="sans-serif" font-size="14" lengthAdjust="spacingAndGlyphs" textLength="9" x="15" y="171.1973">A</text><path d="m123 3h23v31.6094h-23z" fill="#fefece" filter="url(#a)" stroke="#a80036" stroke-width="1.5"/><text font-family="sans-serif" font-size="14" lengthAdjust="spacingAndGlyphs" textLength="9" x="130" y="24.5332">B</text><path d="m123 149.6641h23v31.6094h-23z" fill="#fefece" filter="url(#a)" stroke="#a80036" stroke-width="1.5"/><text font-family="sans-serif" font-size="14" lengthAdjust="spacingAndGlyphs" textLength="9" x="130" y="171.1973">B</text><path d="m160 3h24v31.6094h-24z" fill="#fefece" filter="url(#a)" stroke="#a80036" stroke-width="1.5"/><text font-family="sans-serif" font-size="14" lengthAdjust="spacingAndGlyphs" textLength="10" x="167" y="24.5332">C</text><path d="m160 149.6641h24v31.6094h-24z" fill="#fefece" filter="url(#a)" stroke="#a80036" stroke-width="1.5"/><text font-family="sans-serif" font-size="14" lengthAdjust="spacingAndGlyphs" textLength="10" x="167" y="171.1973">C</text><path d="m124.5 67.9609 10 4-10 4 4-4z" fill="#a80036" stroke="#a80036"/><path d="m21.5 71.9609h109" stroke="#a80036"/><text font-family="sans-serif" font-size="13" lengthAdjust="spacingAndGlyphs" textLength="91" x="28.5" y="67.1045">同期メッセージ</text><path d="m32.5 98.3125-10 4 10 4-4-4z" fill="#a80036" stroke="#a80036"/><path d="m26.5 102.3125h109" stroke="#a80036" stroke-dasharray="2 2"/><text font-family="sans-serif" font-size="13" lengthAdjust="spacingAndGlyphs" textLength="52" x="38.5" y="97.4561">リターン</text><path d="m172 132.6641-10-4" stroke="#a80036"/><path d="m172 132.6641-10 4" stroke="#a80036"/><path d="m21.5 132.6641h151.5" stroke="#a80036"/><text font-family="sans-serif" font-size="13" lengthAdjust="spacingAndGlyphs" textLength="104" x="28.5" y="127.8076">非同期メッセージ</text></svg>