<svg contentScriptType="application/ecmascript" contentStyleType="text/css" height="238" preserveAspectRatio="none" viewBox="0 0 440 238" width="440" xmlns="http://www.w3.org/2000/svg" xmlns:xlink="http://www.w3.org/1999/xlink" zoomAndPan="magnify"><filter id="a" height="300%" width="300%" x="-1" y="-1"><feGaussianBlur result="blurOut" stdDeviation="2"/><feColorMatrix in="blurOut" result="blurOut2" type="matrix" values="0 0 0 0 0 0 0 0 0 0 0 0 0 0 0 0 0 0 .4 0"/><feOffset dx="4" dy="4" in="blurOut2" result="blurOut3"/><feBlend in="SourceGraphic" in2="blurOut3" mode="normal"/></filter><g stroke="#a80036"><path d="m182 39.6094v157.4062" stroke-dasharray="5 5"/><path d="m266 39.6094v157.4062" stroke-dasharray="5 5"/><path d="m169 3h23v31.6094h-23z" fill="#fefece" filter="url(#a)" stroke-width="1.5"/></g><text font-family="sans-serif" font-size="14" lengthAdjust="spacingAndGlyphs" textLength="9" x="176" y="24.5332">A</text><path d="m169 196.0156h23v31.6094h-23z" fill="#fefece" filter="url(#a)" stroke="#a80036" stroke-width="1.5"/><text font-family="sans-serif" font-size="14" lengthAdjust="spacingAndGlyphs" textLength="9" x="176" y="217.5488">A</text><path d="m253 3h23v31.6094h-23z" fill="#fefece" filter="url(#a)" stroke="#a80036" stroke-width="1.5"/><text font-family="sans-serif" font-size="14" lengthAdjust="spacingAndGlyphs" textLength="9" x="260" y="24.5332">B</text><path d="m253 196.0156h23v31.6094h-23z" fill="#fefece" filter="url(#a)" stroke="#a80036" stroke-width="1.5"/><text font-family="sans-serif" font-size="14" lengthAdjust="spacingAndGlyphs" textLength="9" x="260" y="217.5488">B</text><path d="m254.5 72.9609 10 4-10 4 4-4z" fill="#a80036" stroke="#a80036"/><path d="m182.5 76.9609h78" stroke="#a80036"/><text font-family="sans-serif" font-size="13" lengthAdjust="spacingAndGlyphs" textLength="60" x="189.5" y="72.1045">message1</text><path d="m8 54.6094v26h166v-16l-10-10z" fill="#90ee90" filter="url(#a)" stroke="#a80036"/><path d="m164 54.6094v10h10z" fill="#90ee90" stroke="#a80036"/><text font-family="sans-serif" font-size="13" lengthAdjust="spacingAndGlyphs" textLength="145" x="14" y="73.1045">LightGreen な色のノート</text><path d="m193.5 113.3125-10 4 10 4-4-4z" fill="#a80036" stroke="#a80036"/><path d="m187.5 117.3125h78" stroke="#a80036"/><text font-family="sans-serif" font-size="13" lengthAdjust="spacingAndGlyphs" textLength="60" x="199.5" y="112.4561">message2</text><path d="m271 94.9609v26h157v-16l-10-10z" fill="#ffb6c1" filter="url(#a)" stroke="#a80036"/><path d="m418 94.9609v10h10z" fill="#ffb6c1" stroke="#a80036"/><text font-family="sans-serif" font-size="13" lengthAdjust="spacingAndGlyphs" textLength="136" x="277" y="113.4561">LightPink な色のノート</text><path d="m254.5 161.8398 10 4-10 4 4-4z" fill="#a80036" stroke="#a80036"/><path d="m182.5 165.8398h78" stroke="#a80036"/><text font-family="sans-serif" font-size="13" lengthAdjust="spacingAndGlyphs" textLength="60" x="189.5" y="160.9834">message3</text><path d="m29 135.3125v42h144v-32l-10-10z" fill="#cef" filter="url(#a)" stroke="#a80036"/><path d="m163 135.3125v10h10z" fill="#cef" stroke="#a80036"/><text font-family="sans-serif" font-size="13" lengthAdjust="spacingAndGlyphs" textLength="123" x="35" y="153.8076">RGB 表記でもノート</text><text font-family="sans-serif" font-size="13" lengthAdjust="spacingAndGlyphs" textLength="117" x="35" y="170.1592">の色は設定できるよ</text></svg>