<svg contentScriptType="application/ecmascript" contentStyleType="text/css" height="175" preserveAspectRatio="none" viewBox="0 0 387 175" width="387" xmlns="http://www.w3.org/2000/svg" xmlns:xlink="http://www.w3.org/1999/xlink" zoomAndPan="magnify"><filter id="a" height="300%" width="300%" x="-1" y="-1"><feGaussianBlur result="blurOut" stdDeviation="2"/><feColorMatrix in="blurOut" result="blurOut2" type="matrix" values="0 0 0 0 0 0 0 0 0 0 0 0 0 0 0 0 0 0 .4 0"/><feOffset dx="4" dy="4" in="blurOut2" result="blurOut3"/><feBlend in="SourceGraphic" in2="blurOut3" mode="normal"/></filter><path d="m50 8h68v48h-68z" fill="#fefece" filter="url(#a)" stroke="#a80036" stroke-width="1.5"/><ellipse cx="65" cy="24" fill="#a9dcdf" rx="11" ry="11" stroke="#a80036"/><path d="m62.8594 29.8594h-2.5938l3.3282-12.9375h2.3281l3.3125 12.9375h-2.5938l-.9218-3.7813h-1.9219zm1.4531-9.4219-.1875 4.375h1.25z"/><text font-family="sans-serif" font-size="12" font-style="italic" lengthAdjust="spacingAndGlyphs" textLength="36" x="79" y="28.9102">Parent</text><path d="m51 40h66" stroke="#a80036" stroke-width="1.5"/><path d="m51 48h66" stroke="#a80036" stroke-width="1.5"/><path d="m246.5 8h95v48h-95z" fill="#fefece" filter="url(#a)" stroke="#a80036" stroke-width="1.5"/><ellipse cx="261.5" cy="24" fill="#b4a7e5" rx="11" ry="11" stroke="#a80036"/><path d="m262.4844 28.9063h.7344v1.4531h-4v-1.4531h.7343v-10.0313h-.7343v-1.4531h4v1.4531h-.7344z"/><text font-family="sans-serif" font-size="12" font-style="italic" lengthAdjust="spacingAndGlyphs" textLength="63" x="275.5" y="28.9102">MyInterface</text><path d="m247.5 40h93" stroke="#a80036" stroke-width="1.5"/><path d="m247.5 48h93" stroke="#a80036" stroke-width="1.5"/><path d="m6 116h68v48h-68z" fill="#fefece" filter="url(#a)" stroke="#a80036" stroke-width="1.5"/><ellipse cx="21" cy="132" fill="#add1b2" rx="11" ry="11" stroke="#a80036"/><path d="m23.7031 137.4375q-.9218.9219-3.1875.9219-1.2656 0-2.1875-.9219-1.6562-1.6562-1.6562-5.1875 0-4.1094 1.7812-5.9062.9375-.9219 2.125-.9219 2.2657 0 3 .7187 1.3907 1.4063 1.3282 3.7969h-2.4688q-.0625-2.125-.7969-2.8594-.3906-.4062-1.0625-.4062 0 0-.0625.4687-1.3281 1.3282-1.3281 4.9844 0 3.1875 1.1406 4.3125.5313.5313.5313.5313.25 0 .7812-.5313.6719-.6562.7344-3.0469h2.5938q-.2032 2.9844-1.2657 4.0469z"/><text font-family="sans-serif" font-size="12" lengthAdjust="spacingAndGlyphs" textLength="36" x="35" y="136.9102">ChildA</text><path d="m7 148h66" stroke="#a80036" stroke-width="1.5"/><path d="m7 156h66" stroke="#a80036" stroke-width="1.5"/><path d="m109.5 116h69v48h-69z" fill="#fefece" filter="url(#a)" stroke="#a80036" stroke-width="1.5"/><ellipse cx="124.5" cy="132" fill="#add1b2" rx="11" ry="11" stroke="#a80036"/><path d="m127.2031 137.4375q-.9218.9219-3.1875.9219-1.2656 0-2.1875-.9219-1.6562-1.6562-1.6562-5.1875 0-4.1094 1.7812-5.9062.9375-.9219 2.125-.9219 2.2657 0 3 .7187 1.3907 1.4063 1.3282 3.7969h-2.4688q-.0625-2.125-.7969-2.8594-.3906-.4062-1.0625-.4062 0 0-.0625.4687-1.3281 1.3282-1.3281 4.9844 0 3.1875 1.1406 4.3125.5313.5313.5313.5313.25 0 .7812-.5313.6719-.6562.7344-3.0469h2.5938q-.2032 2.9844-1.2657 4.0469z"/><text font-family="sans-serif" font-size="12" lengthAdjust="spacingAndGlyphs" textLength="37" x="138.5" y="136.9102">ChildB</text><path d="m110.5 148h67" stroke="#a80036" stroke-width="1.5"/><path d="m110.5 156h67" stroke="#a80036" stroke-width="1.5"/><path d="m213.5 116h63v48h-63z" fill="#fefece" filter="url(#a)" stroke="#a80036" stroke-width="1.5"/><ellipse cx="228.5" cy="132" fill="#add1b2" rx="11" ry="11" stroke="#a80036"/><path d="m231.2031 137.4375q-.9218.9219-3.1875.9219-1.2656 0-2.1875-.9219-1.6562-1.6562-1.6562-5.1875 0-4.1094 1.7812-5.9062.9375-.9219 2.125-.9219 2.2657 0 3 .7187 1.3907 1.4063 1.3282 3.7969h-2.4688q-.0625-2.125-.7969-2.8594-.3906-.4062-1.0625-.4062 0 0-.0625.4687-1.3281 1.3282-1.3281 4.9844 0 3.1875 1.1406 4.3125.5313.5313.5313.5313.25 0 .7812-.5313.6719-.6562.7344-3.0469h2.5938q-.2032 2.9844-1.2657 4.0469z"/><text font-family="sans-serif" font-size="12" lengthAdjust="spacingAndGlyphs" textLength="31" x="242.5" y="136.9102">ImplA</text><path d="m214.5 148h61" stroke="#a80036" stroke-width="1.5"/><path d="m214.5 156h61" stroke="#a80036" stroke-width="1.5"/><path d="m312 116h64v48h-64z" fill="#fefece" filter="url(#a)" stroke="#a80036" stroke-width="1.5"/><ellipse cx="327" cy="132" fill="#add1b2" rx="11" ry="11" stroke="#a80036"/><path d="m329.7031 137.4375q-.9218.9219-3.1875.9219-1.2656 0-2.1875-.9219-1.6562-1.6562-1.6562-5.1875 0-4.1094 1.7812-5.9062.9375-.9219 2.125-.9219 2.2657 0 3 .7187 1.3907 1.4063 1.3282 3.7969h-2.4688q-.0625-2.125-.7969-2.8594-.3906-.4062-1.0625-.4062 0 0-.0625.4687-1.3281 1.3282-1.3281 4.9844 0 3.1875 1.1406 4.3125.5313.5313.5313.5313.25 0 .7812-.5313.6719-.6562.7344-3.0469h2.5938q-.2032 2.9844-1.2657 4.0469z"/><text font-family="sans-serif" font-size="12" lengthAdjust="spacingAndGlyphs" textLength="32" x="341" y="136.9102">ImplB</text><g stroke="#a80036"><path d="m313 148h62" stroke-width="1.5"/><path d="m313 156h62" stroke-width="1.5"/><path d="m66.7425 74.5748c-5.798 13.968-12.0574 29.0476-17.0618 41.1036" fill="none"/><path d="m60.3199 71.7886 14.1328-15.7886-1.2025 21.1559z" fill="none"/><path d="m106.989 73.6133c8.057 14.2346 16.829 29.7319 23.81 42.0651" fill="none"/><path d="m100.7793 76.8538-3.7602-20.8538 15.9439 13.9574z" fill="none"/><path d="m274.781 74.5748c-6.456 13.968-13.427 29.0476-19 41.1036" fill="none" stroke-dasharray="7 7"/><path d="m268.622 71.2174 14.746-15.2174-2.038 21.0918z" fill="none"/><path d="m313.384 74.0936c6.652 14.1022 13.863 29.3902 19.615 41.5848" fill="none" stroke-dasharray="7 7"/><path d="m307.051 77.0754-2.202-21.0754 14.864 15.1027z" fill="none"/></g></svg>