<svg contentScriptType="application/ecmascript" contentStyleType="text/css" height="175" preserveAspectRatio="none" viewBox="0 0 248 175" width="248" xmlns="http://www.w3.org/2000/svg" xmlns:xlink="http://www.w3.org/1999/xlink" zoomAndPan="magnify"><filter id="a" height="300%" width="300%" x="-1" y="-1"><feGaussianBlur result="blurOut" stdDeviation="2"/><feColorMatrix in="blurOut" result="blurOut2" type="matrix" values="0 0 0 0 0 0 0 0 0 0 0 0 0 0 0 0 0 0 .4 0"/><feOffset dx="4" dy="4" in="blurOut2" result="blurOut3"/><feBlend in="SourceGraphic" in2="blurOut3" mode="normal"/></filter><path d="m18 8h68v48h-68z" fill="#fefece" filter="url(#a)" stroke="#a80036" stroke-width="1.5"/><ellipse cx="33" cy="24" fill="#add1b2" rx="11" ry="11" stroke="#a80036"/><path d="m35.7031 29.4375q-.9218.9219-3.1875.9219-1.2656 0-2.1875-.9219-1.6562-1.6562-1.6562-5.1875 0-4.1094 1.7812-5.9062.9375-.9219 2.125-.9219 2.2657 0 3 .7187 1.3907 1.4063 1.3282 3.7969h-2.4688q-.0625-2.125-.7969-2.8594-.3906-.4062-1.0625-.4062 0 0-.0625.4687-1.3281 1.3282-1.3281 4.9844 0 3.1875 1.1406 4.3125.5313.5313.5313.5313.25 0 .7812-.5313.6719-.6562.7344-3.0469h2.5938q-.2032 2.9844-1.2657 4.0469z"/><text font-family="sans-serif" font-size="12" lengthAdjust="spacingAndGlyphs" textLength="36" x="47" y="28.9102">クラス</text><g stroke="#a80036"><path d="m19 40h66" stroke-width="1.5"/><path d="m19 48h66" stroke-width="1.5"/><path d="m121 8h116v48h-116z" fill="#fefece" filter="url(#a)" stroke-width="1.5"/><ellipse cx="136" cy="24" fill="#b4a7e5" rx="11" ry="11"/></g><path d="m136.9844 28.9063h.7344v1.4531h-4v-1.4531h.7343v-10.0313h-.7343v-1.4531h4v1.4531h-.7344z"/><text font-family="sans-serif" font-size="12" font-style="italic" lengthAdjust="spacingAndGlyphs" textLength="84" x="150" y="28.9102">インタフェース</text><path d="m122 40h114" stroke="#a80036" stroke-width="1.5"/><path d="m122 48h114" stroke="#a80036" stroke-width="1.5"/><path d="m6 116h92v48h-92z" fill="#fefece" filter="url(#a)" stroke="#a80036" stroke-width="1.5"/><ellipse cx="21" cy="132" fill="#a9dcdf" rx="11" ry="11" stroke="#a80036"/><path d="m18.8594 137.8594h-2.5938l3.3282-12.9375h2.3281l3.3125 12.9375h-2.5938l-.9218-3.7813h-1.9219zm1.4531-9.4219-.1875 4.375h1.25z"/><text font-family="sans-serif" font-size="12" font-style="italic" lengthAdjust="spacingAndGlyphs" textLength="60" x="35" y="136.9102">抽象クラス</text><path d="m7 148h90" stroke="#a80036" stroke-width="1.5"/><path d="m7 156h90" stroke="#a80036" stroke-width="1.5"/><path d="m133 116h68v48h-68z" fill="#fefece" filter="url(#a)" stroke="#a80036" stroke-width="1.5"/><ellipse cx="148" cy="132" fill="#eb937f" rx="11" ry="11" stroke="#a80036"/><path d="m146.5313 130.8594h4.5156v1.2656h-4.5156v4.9844h5.2343v1.25h-7.7656v-12.9375h7.4375v1.25h-4.9062z"/><text font-family="sans-serif" font-size="12" lengthAdjust="spacingAndGlyphs" textLength="36" x="162" y="136.9102">列挙型</text><path d="m134 148h66" stroke="#a80036" stroke-width="1.5"/><path d="m134 156h66" stroke="#a80036" stroke-width="1.5"/></svg>