<svg contentScriptType="application/ecmascript" contentStyleType="text/css" height="176" preserveAspectRatio="none" viewBox="0 0 180 176" width="180" xmlns="http://www.w3.org/2000/svg" xmlns:xlink="http://www.w3.org/1999/xlink" zoomAndPan="magnify"><filter id="a" height="300%" width="300%" x="-1" y="-1"><feGaussianBlur result="blurOut" stdDeviation="2"/><feColorMatrix in="blurOut" result="blurOut2" type="matrix" values="0 0 0 0 0 0 0 0 0 0 0 0 0 0 0 0 0 0 .4 0"/><feOffset dx="4" dy="4" in="blurOut2" result="blurOut3"/><feBlend in="SourceGraphic" in2="blurOut3" mode="normal"/></filter><path d="m12.5 15.5h53v41.0938h-53z" fill="#fefece" filter="url(#a)" stroke="#a80036" stroke-width="1.5"/><text font-family="sans-serif" font-size="12" lengthAdjust="spacingAndGlyphs" textLength="47" x="15.5" y="32.957">MyClass</text><g stroke="#a80036" stroke-width="1.5"><path d="m13.5 40.5938h51"/><path d="m13.5 48.5938h51"/><path d="m100.5 8h69v56.1875h-69z" fill="#fefece" filter="url(#a)"/></g><text font-family="sans-serif" font-size="12" font-style="italic" lengthAdjust="spacingAndGlyphs" textLength="61" x="104.5" y="25.457">«interface»</text><text font-family="sans-serif" font-size="12" font-style="italic" lengthAdjust="spacingAndGlyphs" textLength="63" x="103.5" y="40.5508">MyInterface</text><path d="m101.5 48.1875h67" stroke="#a80036" stroke-width="1.5"/><path d="m101.5 56.1875h67" stroke="#a80036" stroke-width="1.5"/><path d="m6 124h66v41.0938h-66z" fill="#fefece" filter="url(#a)" stroke="#a80036" stroke-width="1.5"/><text font-family="sans-serif" font-size="12" font-style="italic" lengthAdjust="spacingAndGlyphs" textLength="60" x="9" y="141.457">MyAbstract</text><path d="m7 149.0938h64" stroke="#a80036" stroke-width="1.5"/><path d="m7 157.0938h64" stroke="#a80036" stroke-width="1.5"/><path d="m107.5 124h53v41.0938h-53z" fill="#fefece" filter="url(#a)" stroke="#a80036" stroke-width="1.5"/><text font-family="sans-serif" font-size="12" lengthAdjust="spacingAndGlyphs" textLength="47" x="110.5" y="141.457">MyEnum</text><path d="m108.5 149.0938h51" stroke="#a80036" stroke-width="1.5"/><path d="m108.5 157.0938h51" stroke="#a80036" stroke-width="1.5"/></svg>