<svg contentScriptType="application/ecmascript" contentStyleType="text/css" height="175" preserveAspectRatio="none" viewBox="0 0 267 175" width="267" xmlns="http://www.w3.org/2000/svg" xmlns:xlink="http://www.w3.org/1999/xlink" zoomAndPan="magnify"><filter id="a" height="300%" width="300%" x="-1" y="-1"><feGaussianBlur result="blurOut" stdDeviation="2"/><feColorMatrix in="blurOut" result="blurOut2" type="matrix" values="0 0 0 0 0 0 0 0 0 0 0 0 0 0 0 0 0 0 .4 0"/><feOffset dx="4" dy="4" in="blurOut2" result="blurOut3"/><feBlend in="SourceGraphic" in2="blurOut3" mode="normal"/></filter><path d="m203.5 8h53v48h-53z" fill="#fefece" filter="url(#a)" stroke="#a80036" stroke-width="1.5"/><ellipse cx="218.5" cy="24" fill="#add1b2" rx="11" ry="11" stroke="#a80036"/><path d="m221.2031 29.4375q-.9218.9219-3.1875.9219-1.2656 0-2.1875-.9219-1.6562-1.6562-1.6562-5.1875 0-4.1094 1.7812-5.9062.9375-.9219 2.125-.9219 2.2657 0 3 .7187 1.3907 1.4063 1.3282 3.7969h-2.4688q-.0625-2.125-.7969-2.8594-.3906-.4062-1.0625-.4062 0 0-.0625.4687-1.3281 1.3282-1.3281 4.9844 0 3.1875 1.1406 4.3125.5313.5313.5313.5313.25 0 .7812-.5313.6719-.6562.7344-3.0469h2.5938q-.2032 2.9844-1.2657 4.0469z"/><text font-family="sans-serif" font-size="12" lengthAdjust="spacingAndGlyphs" textLength="21" x="232.5" y="28.9102">Foo</text><g stroke="#a80036"><path d="m204.5 40h51" stroke-width="1.5"/><path d="m204.5 48h51" stroke-width="1.5"/><path d="m104 19v26.3516a0 0 0 0 0 0 0h64a0 0 0 0 0 0 0v-8.3516l35.494-5-35.494-3-10-10h-54a0 0 0 0 0 0 0" fill="#fbfb77" filter="url(#a)"/><path d="m158 19v10h10z" fill="#fbfb77"/></g><text font-family="sans-serif" font-size="13" lengthAdjust="spacingAndGlyphs" textLength="43" x="110" y="37.4951">"注釈1"</text><path d="m204.5 116h51v48h-51z" fill="#fefece" filter="url(#a)" stroke="#a80036" stroke-width="1.5"/><ellipse cx="219.5" cy="132" fill="#add1b2" rx="11" ry="11" stroke="#a80036"/><path d="m222.2031 137.4375q-.9218.9219-3.1875.9219-1.2656 0-2.1875-.9219-1.6562-1.6562-1.6562-5.1875 0-4.1094 1.7812-5.9062.9375-.9219 2.125-.9219 2.2657 0 3 .7187 1.3907 1.4063 1.3282 3.7969h-2.4688q-.0625-2.125-.7969-2.8594-.3906-.4062-1.0625-.4062 0 0-.0625.4687-1.3281 1.3282-1.3281 4.9844 0 3.1875 1.1406 4.3125.5313.5313.5313.5313.25 0 .7812-.5313.6719-.6562.7344-3.0469h2.5938q-.2032 2.9844-1.2657 4.0469z"/><text font-family="sans-serif" font-size="12" lengthAdjust="spacingAndGlyphs" textLength="19" x="233.5" y="136.9102">Bar</text><path d="m205.5 148h49" stroke="#a80036" stroke-width="1.5"/><path d="m205.5 156h49" stroke="#a80036" stroke-width="1.5"/><path d="m105 127v26.3516h64v-16.3516l-10-10z" fill="#fbfb77" filter="url(#a)" stroke="#a80036"/><path d="m159 127v10h10z" fill="#fbfb77" stroke="#a80036"/><text font-family="sans-serif" font-size="13" lengthAdjust="spacingAndGlyphs" textLength="43" x="111" y="145.4951">"注釈2"</text><path d="m6 127v26.3516a0 0 0 0 0 0 0h64a0 0 0 0 0 0 0v-8.3516l34.8555-5-34.8555-3-10-10h-54a0 0 0 0 0 0 0" fill="#fbfb77" filter="url(#a)" stroke="#a80036"/><path d="m60 127v10h10z" fill="#fbfb77" stroke="#a80036"/><text font-family="sans-serif" font-size="13" lengthAdjust="spacingAndGlyphs" textLength="43" x="12" y="145.4951">"注釈3"</text><path d="m230 61.131v54.5474" fill="none" stroke="#a80036"/><path d="m230 56-4 9 4-4 4 4z" fill="#a80036" stroke="#a80036"/><path d="m169.332 140h35.074" fill="none" stroke="#a80036" stroke-dasharray="7 7"/></svg>