<svg contentScriptType="application/ecmascript" contentStyleType="text/css" height="242" preserveAspectRatio="none" viewBox="0 0 453 242" width="453" xmlns="http://www.w3.org/2000/svg" xmlns:xlink="http://www.w3.org/1999/xlink" zoomAndPan="magnify"><filter id="a" height="300%" width="300%" x="-1" y="-1"><feGaussianBlur result="blurOut" stdDeviation="2"/><feColorMatrix in="blurOut" result="blurOut2" type="matrix" values="0 0 0 0 0 0 0 0 0 0 0 0 0 0 0 0 0 0 .4 0"/><feOffset dx="4" dy="4" in="blurOut2" result="blurOut3"/><feBlend in="SourceGraphic" in2="blurOut3" mode="normal"/></filter><path d="m6 19h53v48h-53z" fill="#fefece" filter="url(#a)" stroke="#a80036" stroke-width="1.5"/><ellipse cx="21" cy="35" fill="#add1b2" rx="11" ry="11" stroke="#a80036"/><path d="m23.7031 40.4375q-.9218.9219-3.1875.9219-1.2656 0-2.1875-.9219-1.6562-1.6562-1.6562-5.1875 0-4.1094 1.7812-5.9062.9375-.9219 2.125-.9219 2.2657 0 3 .7187 1.3907 1.4063 1.3282 3.7969h-2.4688q-.0625-2.125-.7969-2.8594-.3906-.4062-1.0625-.4062 0 0-.0625.4687-1.3281 1.3282-1.3281 4.9844 0 3.1875 1.1406 4.3125.5313.5313.5313.5313.25 0 .7812-.5313.6719-.6562.7344-3.0469h2.5938q-.2032 2.9844-1.2657 4.0469z"/><text font-family="sans-serif" font-size="12" lengthAdjust="spacingAndGlyphs" textLength="21" x="35" y="39.9102">Foo</text><path d="m7 51h51" stroke="#a80036" stroke-width="1.5"/><path d="m7 59h51" stroke="#a80036" stroke-width="1.5"/><path d="m7 183h51v48h-51z" fill="#fefece" filter="url(#a)" stroke="#a80036" stroke-width="1.5"/><ellipse cx="22" cy="199" fill="#add1b2" rx="11" ry="11" stroke="#a80036"/><path d="m24.7031 204.4375q-.9218.9219-3.1875.9219-1.2656 0-2.1875-.9219-1.6562-1.6562-1.6562-5.1875 0-4.1094 1.7812-5.9062.9375-.9219 2.125-.9219 2.2657 0 3 .7187 1.3907 1.4063 1.3282 3.7969h-2.4688q-.0625-2.125-.7969-2.8594-.3906-.4062-1.0625-.4062 0 0-.0625.4687-1.3281 1.3282-1.3281 4.9844 0 3.1875 1.1406 4.3125.5313.5313.5313.5313.25 0 .7812-.5313.6719-.6562.7344-3.0469h2.5938q-.2032 2.9844-1.2657 4.0469z"/><text font-family="sans-serif" font-size="12" lengthAdjust="spacingAndGlyphs" textLength="19" x="36" y="203.9102">Bar</text><path d="m8 215h49" stroke="#a80036" stroke-width="1.5"/><path d="m8 223h49" stroke="#a80036" stroke-width="1.5"/><path d="m261.5 19h62v48h-62z" fill="#fefece" filter="url(#a)" stroke="#a80036" stroke-width="1.5"/><ellipse cx="276.5" cy="35" fill="#add1b2" rx="11" ry="11" stroke="#a80036"/><path d="m279.2031 40.4375q-.9218.9219-3.1875.9219-1.2656 0-2.1875-.9219-1.6562-1.6562-1.6562-5.1875 0-4.1094 1.7812-5.9062.9375-.9219 2.125-.9219 2.2657 0 3 .7187 1.3907 1.4063 1.3282 3.7969h-2.4688q-.0625-2.125-.7969-2.8594-.3906-.4062-1.0625-.4062 0 0-.0625.4687-1.3281 1.3282-1.3281 4.9844 0 3.1875 1.1406 4.3125.5313.5313.5313.5313.25 0 .7812-.5313.6719-.6562.7344-3.0469h2.5938q-.2032 2.9844-1.2657 4.0469z"/><text font-family="sans-serif" font-size="12" lengthAdjust="spacingAndGlyphs" textLength="30" x="290.5" y="39.9102">Hoge</text><path d="m262.5 51h60" stroke="#a80036" stroke-width="1.5"/><path d="m262.5 59h60" stroke="#a80036" stroke-width="1.5"/><path d="m259.5 183h66v48h-66z" fill="#fefece" filter="url(#a)" stroke="#a80036" stroke-width="1.5"/><ellipse cx="274.5" cy="199" fill="#add1b2" rx="11" ry="11" stroke="#a80036"/><path d="m277.2031 204.4375q-.9218.9219-3.1875.9219-1.2656 0-2.1875-.9219-1.6562-1.6562-1.6562-5.1875 0-4.1094 1.7812-5.9062.9375-.9219 2.125-.9219 2.2657 0 3 .7187 1.3907 1.4063 1.3282 3.7969h-2.4688q-.0625-2.125-.7969-2.8594-.3906-.4062-1.0625-.4062 0 0-.0625.4687-1.3281 1.3282-1.3281 4.9844 0 3.1875 1.1406 4.3125.5313.5313.5313.5313.25 0 .7812-.5313.6719-.6562.7344-3.0469h2.5938q-.2032 2.9844-1.2657 4.0469z"/><text font-family="sans-serif" font-size="12" lengthAdjust="spacingAndGlyphs" textLength="34" x="288.5" y="203.9102">Hemu</text><g stroke="#a80036"><path d="m260.5 215h64" stroke-width="1.5"/><path d="m260.5 223h64" stroke-width="1.5"/><path d="m32.5 67.211v110.3712" fill="none"/><path d="m32.5 182.8324 4-9-4 4-4-4z" fill="#a80036"/><path d="m37.5 110v26h190v-16l-10-10z" fill="#fbfb77" filter="url(#a)"/><path d="m217.5 110v10h10z" fill="#fbfb77"/></g><text font-family="sans-serif" font-size="13" lengthAdjust="spacingAndGlyphs" textLength="169" x="43.5" y="128.4951">これは関連に対する注釈です</text><path d="m59.3453 43h196.7557" fill="none" stroke="#a80036"/><path d="m261.392 43-9-4 4 4-4 4z" fill="#a80036" stroke="#a80036"/><path d="m81.25 5v26h154v-16l-10-10z" fill="#ffc0cb" filter="url(#a)" stroke="#a80036"/><path d="m225.25 5v10h10z" fill="#ffc0cb" stroke="#a80036"/><text font-family="sans-serif" font-size="13" font-weight="bold" lengthAdjust="spacingAndGlyphs" textLength="42" x="87.25" y="23.4951">背景色</text><text font-family="sans-serif" font-size="13" lengthAdjust="spacingAndGlyphs" textLength="91" x="129.25" y="23.4951">を変更できます</text><path d="m292.5 67.211v110.3712" fill="none" stroke="#a80036"/><path d="m292.5 182.8324 4-9-4 4-4-4z" fill="#a80036" stroke="#a80036"/><path d="m297.5 102v42h144v-32l-10-10z" fill="#fbfb77" filter="url(#a)" stroke="#a80036"/><path d="m431.5 102v10h10z" fill="#fbfb77" stroke="#a80036"/><text font-family="sans-serif" font-size="13" font-weight="bold" lengthAdjust="spacingAndGlyphs" textLength="84" x="303.5" y="120.4951">複数行に渡る</text><text font-family="sans-serif" font-size="13" lengthAdjust="spacingAndGlyphs" textLength="39" x="387.5" y="120.4951">注釈を</text><text font-family="sans-serif" font-size="13" lengthAdjust="spacingAndGlyphs" textLength="91" x="303.5" y="136.8467">記述できます。</text></svg>