<svg contentScriptType="application/ecmascript" contentStyleType="text/css" height="141" preserveAspectRatio="none" viewBox="0 0 412 141" width="412" xmlns="http://www.w3.org/2000/svg" xmlns:xlink="http://www.w3.org/1999/xlink" zoomAndPan="magnify"><filter id="a" height="300%" width="300%" x="-1" y="-1"><feGaussianBlur result="blurOut" stdDeviation="2"/><feColorMatrix in="blurOut" result="blurOut2" type="matrix" values="0 0 0 0 0 0 0 0 0 0 0 0 0 0 0 0 0 0 .4 0"/><feOffset dx="4" dy="4" in="blurOut2" result="blurOut3"/><feBlend in="SourceGraphic" in2="blurOut3" mode="normal"/></filter><g stroke="#000"><path d="m22 34 10-10h102v95l-10 10h-102z" fill="#fff" filter="url(#a)" stroke-width="1.5"/><path d="m124 34 9-9" stroke-width="1.5"/><path d="m22 34h102" stroke-width="1.5"/><path d="m124 34v95" stroke-width="1.5"/></g><text font-family="sans-serif" font-size="14" font-weight="bold" lengthAdjust="spacingAndGlyphs" textLength="36" x="56" y="51.5332">node</text><path d="m158 29h104v100h-104z" fill="#fff" filter="url(#a)" stroke="#000" stroke-width="1.5"/><text font-family="sans-serif" font-size="14" font-weight="bold" lengthAdjust="spacingAndGlyphs" textLength="67" x="176.5" y="45.5332">rectangle</text><path d="m286 29h48l7 23.6094h49v76.3906h-104z" fill="#fff" filter="url(#a)" stroke="#000" stroke-width="1.5"/><path d="m286 52.6094h55" stroke="#000" stroke-width="1.5"/><text font-family="sans-serif" font-size="14" font-weight="bold" lengthAdjust="spacingAndGlyphs" textLength="42" x="290" y="45.5332">folder</text><path d="m42 65h72v48h-72z" fill="#fefece" filter="url(#a)" stroke="#a80036" stroke-width="1.5"/><ellipse cx="57" cy="81" fill="#add1b2" rx="11" ry="11" stroke="#a80036"/><path d="m59.7031 86.4375q-.9218.9219-3.1875.9219-1.2656 0-2.1875-.9219-1.6562-1.6562-1.6562-5.1875 0-4.1094 1.7812-5.9062.9375-.9219 2.125-.9219 2.2657 0 3 .7187 1.3907 1.4063 1.3282 3.7969h-2.4688q-.0625-2.125-.7969-2.8594-.3906-.4062-1.0625-.4062 0 0-.0625.4687-1.3281 1.3282-1.3281 4.9844 0 3.1875 1.1406 4.3125.5313.5313.5313.5313.25 0 .7812-.5313.6719-.6562.7344-3.0469h2.5938q-.2032 2.9844-1.2657 4.0469z"/><text font-family="sans-serif" font-size="12" lengthAdjust="spacingAndGlyphs" textLength="40" x="71" y="85.9102">Class1</text><path d="m43 97h70" stroke="#a80036" stroke-width="1.5"/><path d="m43 105h70" stroke="#a80036" stroke-width="1.5"/><path d="m174 65h72v48h-72z" fill="#fefece" filter="url(#a)" stroke="#a80036" stroke-width="1.5"/><ellipse cx="189" cy="81" fill="#add1b2" rx="11" ry="11" stroke="#a80036"/><path d="m191.7031 86.4375q-.9218.9219-3.1875.9219-1.2656 0-2.1875-.9219-1.6562-1.6562-1.6562-5.1875 0-4.1094 1.7812-5.9062.9375-.9219 2.125-.9219 2.2657 0 3 .7187 1.3907 1.4063 1.3282 3.7969h-2.4688q-.0625-2.125-.7969-2.8594-.3906-.4062-1.0625-.4062 0 0-.0625.4687-1.3281 1.3282-1.3281 4.9844 0 3.1875 1.1406 4.3125.5313.5313.5313.5313.25 0 .7812-.5313.6719-.6562.7344-3.0469h2.5938q-.2032 2.9844-1.2657 4.0469z"/><text font-family="sans-serif" font-size="12" lengthAdjust="spacingAndGlyphs" textLength="40" x="203" y="85.9102">Class2</text><path d="m175 97h70" stroke="#a80036" stroke-width="1.5"/><path d="m175 105h70" stroke="#a80036" stroke-width="1.5"/><path d="m302 65h72v48h-72z" fill="#fefece" filter="url(#a)" stroke="#a80036" stroke-width="1.5"/><ellipse cx="317" cy="81" fill="#add1b2" rx="11" ry="11" stroke="#a80036"/><path d="m319.7031 86.4375q-.9218.9219-3.1875.9219-1.2656 0-2.1875-.9219-1.6562-1.6562-1.6562-5.1875 0-4.1094 1.7812-5.9062.9375-.9219 2.125-.9219 2.2657 0 3 .7187 1.3907 1.4063 1.3282 3.7969h-2.4688q-.0625-2.125-.7969-2.8594-.3906-.4062-1.0625-.4062 0 0-.0625.4687-1.3281 1.3282-1.3281 4.9844 0 3.1875 1.1406 4.3125.5313.5313.5313.5313.25 0 .7812-.5313.6719-.6562.7344-3.0469h2.5938q-.2032 2.9844-1.2657 4.0469z"/><text font-family="sans-serif" font-size="12" lengthAdjust="spacingAndGlyphs" textLength="40" x="331" y="85.9102">Class3</text><path d="m303 97h70" stroke="#a80036" stroke-width="1.5"/><path d="m303 105h70" stroke="#a80036" stroke-width="1.5"/></svg>