<svg contentScriptType="application/ecmascript" contentStyleType="text/css" height="260" preserveAspectRatio="none" viewBox="0 0 307 260" width="307" xmlns="http://www.w3.org/2000/svg" xmlns:xlink="http://www.w3.org/1999/xlink" zoomAndPan="magnify"><filter id="a" height="300%" width="300%" x="-1" y="-1"><feGaussianBlur result="blurOut" stdDeviation="2"/><feColorMatrix in="blurOut" result="blurOut2" type="matrix" values="0 0 0 0 0 0 0 0 0 0 0 0 0 0 0 0 0 0 .4 0"/><feOffset dx="4" dy="4" in="blurOut2" result="blurOut3"/><feBlend in="SourceGraphic" in2="blurOut3" mode="normal"/></filter><path d="m30 24h28l7 23.6094h212v76.3906h-247z" fill="#fff" filter="url(#a)" stroke="#000" stroke-width="1.5"/><path d="m30 47.6094h35" stroke="#000" stroke-width="1.5"/><text font-family="sans-serif" font-size="14" font-weight="bold" lengthAdjust="spacingAndGlyphs" textLength="22" x="34" y="40.5332">util</text><path d="m22 148h39l7 23.6094h217v76.3906h-263z" fill="#acf" filter="url(#a)" stroke="#000" stroke-width="1.5"/><path d="m22 171.6094h46" stroke="#000" stroke-width="1.5"/><text font-family="sans-serif" font-size="14" font-weight="bold" lengthAdjust="spacingAndGlyphs" textLength="33" x="26" y="164.5332">main</text><path d="m171 60h90v48h-90z" fill="#fefece" filter="url(#a)" stroke="#a80036" stroke-width="1.5"/><ellipse cx="186" cy="76" fill="#add1b2" rx="11" ry="11" stroke="#a80036"/><path d="m188.7031 81.4375q-.9218.9219-3.1875.9219-1.2656 0-2.1875-.9219-1.6562-1.6562-1.6562-5.1875 0-4.1094 1.7812-5.9062.9375-.9219 2.125-.9219 2.2657 0 3 .7187 1.3907 1.4063 1.3282 3.7969h-2.4688q-.0625-2.125-.7969-2.8594-.3906-.4062-1.0625-.4062 0 0-.0625.4687-1.3281 1.3282-1.3281 4.9844 0 3.1875 1.1406 4.3125.5313.5313.5313.5313.25 0 .7812-.5313.6719-.6562.7344-3.0469h2.5938q-.2032 2.9844-1.2657 4.0469z"/><text font-family="sans-serif" font-size="12" lengthAdjust="spacingAndGlyphs" textLength="58" x="200" y="80.9102">UtilClass1</text><path d="m172 92h88" stroke="#a80036" stroke-width="1.5"/><path d="m172 100h88" stroke="#a80036" stroke-width="1.5"/><path d="m46 60h90v48h-90z" fill="#fefece" filter="url(#a)" stroke="#a80036" stroke-width="1.5"/><ellipse cx="61" cy="76" fill="#add1b2" rx="11" ry="11" stroke="#a80036"/><path d="m63.7031 81.4375q-.9218.9219-3.1875.9219-1.2656 0-2.1875-.9219-1.6562-1.6562-1.6562-5.1875 0-4.1094 1.7812-5.9062.9375-.9219 2.125-.9219 2.2657 0 3 .7187 1.3907 1.4063 1.3282 3.7969h-2.4688q-.0625-2.125-.7969-2.8594-.3906-.4062-1.0625-.4062 0 0-.0625.4687-1.3281 1.3282-1.3281 4.9844 0 3.1875 1.1406 4.3125.5313.5313.5313.5313.25 0 .7812-.5313.6719-.6562.7344-3.0469h2.5938q-.2032 2.9844-1.2657 4.0469z"/><text font-family="sans-serif" font-size="12" lengthAdjust="spacingAndGlyphs" textLength="58" x="75" y="80.9102">UtilClass2</text><path d="m47 92h88" stroke="#a80036" stroke-width="1.5"/><path d="m47 100h88" stroke="#a80036" stroke-width="1.5"/><path d="m171 184h98v48h-98z" fill="#fefece" filter="url(#a)" stroke="#a80036" stroke-width="1.5"/><ellipse cx="186" cy="200" fill="#add1b2" rx="11" ry="11" stroke="#a80036"/><path d="m188.7031 205.4375q-.9218.9219-3.1875.9219-1.2656 0-2.1875-.9219-1.6562-1.6562-1.6562-5.1875 0-4.1094 1.7812-5.9062.9375-.9219 2.125-.9219 2.2657 0 3 .7187 1.3907 1.4063 1.3282 3.7969h-2.4688q-.0625-2.125-.7969-2.8594-.3906-.4062-1.0625-.4062 0 0-.0625.4687-1.3281 1.3282-1.3281 4.9844 0 3.1875 1.1406 4.3125.5313.5313.5313.5313.25 0 .7812-.5313.6719-.6562.7344-3.0469h2.5938q-.2032 2.9844-1.2657 4.0469z"/><text font-family="sans-serif" font-size="12" lengthAdjust="spacingAndGlyphs" textLength="66" x="200" y="204.9102">MainClass1</text><path d="m172 216h96" stroke="#a80036" stroke-width="1.5"/><path d="m172 224h96" stroke="#a80036" stroke-width="1.5"/><path d="m38 184h98v48h-98z" fill="#fefece" filter="url(#a)" stroke="#a80036" stroke-width="1.5"/><ellipse cx="53" cy="200" fill="#add1b2" rx="11" ry="11" stroke="#a80036"/><path d="m55.7031 205.4375q-.9218.9219-3.1875.9219-1.2656 0-2.1875-.9219-1.6562-1.6562-1.6562-5.1875 0-4.1094 1.7812-5.9062.9375-.9219 2.125-.9219 2.2657 0 3 .7187 1.3907 1.4063 1.3282 3.7969h-2.4688q-.0625-2.125-.7969-2.8594-.3906-.4062-1.0625-.4062 0 0-.0625.4687-1.3281 1.3282-1.3281 4.9844 0 3.1875 1.1406 4.3125.5313.5313.5313.5313.25 0 .7812-.5313.6719-.6562.7344-3.0469h2.5938q-.2032 2.9844-1.2657 4.0469z"/><text font-family="sans-serif" font-size="12" lengthAdjust="spacingAndGlyphs" textLength="66" x="67" y="204.9102">MainClass2</text><g stroke="#a80036"><path d="m39 216h96" stroke-width="1.5"/><path d="m39 224h96" stroke-width="1.5"/><path d="m216.926 113.233c.702 21.436 1.657 50.548 2.315 70.6191" fill="none"/><path d="m216.762 108.234-3.7021 9.1266 3.8664-4.1293 4.1293 3.8664z" fill="#a80036"/><path d="m90.0743 113.233c-.7028 21.436-1.6573 50.548-2.3154 70.6191" fill="none"/><path d="m90.2382 108.234-4.2936 8.8637 4.1293-3.8664 3.8664 4.1293z" fill="#a80036"/></g></svg>