<svg contentScriptType="application/ecmascript" contentStyleType="text/css" height="160" preserveAspectRatio="none" viewBox="0 0 89 160" width="89" xmlns="http://www.w3.org/2000/svg" xmlns:xlink="http://www.w3.org/1999/xlink" zoomAndPan="magnify"><filter id="a" height="300%" width="300%" x="-1" y="-1"><feGaussianBlur result="blurOut" stdDeviation="2"/><feColorMatrix in="blurOut" result="blurOut2" type="matrix" values="0 0 0 0 0 0 0 0 0 0 0 0 0 0 0 0 0 0 .4 0"/><feOffset dx="4" dy="4" in="blurOut2" result="blurOut3"/><feBlend in="SourceGraphic" in2="blurOut3" mode="normal"/></filter><path d="m6 8h72v141.1797h-72z" fill="#fefece" filter="url(#a)" stroke="#a80036" stroke-width="1.5"/><ellipse cx="21" cy="24" fill="#add1b2" rx="11" ry="11" stroke="#a80036"/><path d="m23.7031 29.4375q-.9218.9219-3.1875.9219-1.2656 0-2.1875-.9219-1.6562-1.6562-1.6562-5.1875 0-4.1094 1.7812-5.9062.9375-.9219 2.125-.9219 2.2657 0 3 .7187 1.3907 1.4063 1.3282 3.7969h-2.4688q-.0625-2.125-.7969-2.8594-.3906-.4062-1.0625-.4062 0 0-.0625.4687-1.3281 1.3282-1.3281 4.9844 0 3.1875 1.1406 4.3125.5313.5313.5313.5313.25 0 .7812-.5313.6719-.6562.7344-3.0469h2.5938q-.2032 2.9844-1.2657 4.0469z"/><text font-family="sans-serif" font-size="12" lengthAdjust="spacingAndGlyphs" textLength="40" x="35" y="28.9102">ClassA</text><path d="m7 40h70" stroke="#a80036" stroke-width="1.5"/><text font-family="sans-serif" font-size="11" lengthAdjust="spacingAndGlyphs" textLength="47" x="12" y="55.4189">property1</text><path d="m7 61.8359h70" stroke="#a80036" stroke-dasharray="1 2"/><text font-family="sans-serif" font-size="11" lengthAdjust="spacingAndGlyphs" textLength="47" x="12" y="77.2549">property2</text><path d="m7 83.6719h70" stroke="#a80036"/><text font-family="sans-serif" font-size="11" lengthAdjust="spacingAndGlyphs" textLength="47" x="12" y="99.0908">property3</text><path d="m7 105.5078h70" stroke="#a80036" stroke-width="1.5"/><text font-family="sans-serif" font-size="11" lengthAdjust="spacingAndGlyphs" textLength="47" x="12" y="120.9268">property4</text><path d="m7 127.3438h70" stroke="#a80036"/><path d="m7 129.3438h70" stroke="#a80036"/><text font-family="sans-serif" font-size="11" lengthAdjust="spacingAndGlyphs" textLength="47" x="12" y="142.7627">property5</text></svg>