<svg contentScriptType="application/ecmascript" contentStyleType="text/css" height="175" preserveAspectRatio="none" viewBox="0 0 70 175" width="70" xmlns="http://www.w3.org/2000/svg" zoomAndPan="magnify"><path d="m6 8h53v48h-53z" fill="#f8f8f8" stroke="#383838" stroke-width="1.5"/><ellipse cx="21" cy="24" fill="#c2c2c2" rx="11" ry="11" stroke="#383838"/><path d="m23.7031 29.4375q-.9218.9219-3.1875.9219-1.2656 0-2.1875-.9219-1.6562-1.6562-1.6562-5.1875 0-4.1094 1.7812-5.9062.9375-.9219 2.125-.9219 2.2657 0 3 .7187 1.3907 1.4063 1.3282 3.7969h-2.4688q-.0625-2.125-.7969-2.8594-.3906-.4062-1.0625-.4062 0 0-.0625.4687-1.3281 1.3282-1.3281 4.9844 0 3.1875 1.1406 4.3125.5313.5313.5313.5313.25 0 .7812-.5313.6719-.6562.7344-3.0469h2.5938q-.2032 2.9844-1.2657 4.0469z"/><text font-family="sans-serif" font-size="12" lengthAdjust="spacingAndGlyphs" textLength="21" x="35" y="28.9102">Foo</text><g stroke="#383838"><path d="m7 40h51" stroke-width="1.5"/><path d="m7 48h51" stroke-width="1.5"/><path d="m7 116h51v48h-51z" fill="#f8f8f8" stroke-width="1.5"/><ellipse cx="22" cy="132" fill="#c2c2c2" rx="11" ry="11"/></g><path d="m24.7031 137.4375q-.9218.9219-3.1875.9219-1.2656 0-2.1875-.9219-1.6562-1.6562-1.6562-5.1875 0-4.1094 1.7812-5.9062.9375-.9219 2.125-.9219 2.2657 0 3 .7187 1.3907 1.4063 1.3282 3.7969h-2.4688q-.0625-2.125-.7969-2.8594-.3906-.4062-1.0625-.4062 0 0-.0625.4687-1.3281 1.3282-1.3281 4.9844 0 3.1875 1.1406 4.3125.5313.5313.5313.5313.25 0 .7812-.5313.6719-.6562.7344-3.0469h2.5938q-.2032 2.9844-1.2657 4.0469z"/><text font-family="sans-serif" font-size="12" lengthAdjust="spacingAndGlyphs" textLength="19" x="36" y="136.9102">Bar</text><path d="m8 148h49" stroke="#383838" stroke-width="1.5"/><path d="m8 156h49" stroke="#383838" stroke-width="1.5"/><path d="m32.5 76.0236v39.6548" fill="none" stroke="#383838"/><path d="m25.5001 76.0005 6.9999-20.0005 7.0001 20.0004z" fill="none" stroke="#383838"/></svg>