<svg contentScriptType="application/ecmascript" contentStyleType="text/css" height="181" preserveAspectRatio="none" viewBox="0 0 83 181" width="83" xmlns="http://www.w3.org/2000/svg" zoomAndPan="magnify"><path d="m6 8h66v51.1563h-66z" fill="#fff" stroke="#000" stroke-width="1.5"/><ellipse cx="21" cy="25.5781" fill="#add1b2" rx="11" ry="11" stroke="#000"/><path d="m23.7031 31.0156q-.9218.9219-3.1875.9219-1.2656 0-2.1875-.9219-1.6562-1.6562-1.6562-5.1875 0-4.1093 1.7812-5.9062.9375-.9219 2.125-.9219 2.2657 0 3 .7188 1.3907 1.4062 1.3282 3.7968h-2.4688q-.0625-2.125-.7969-2.8593-.3906-.4063-1.0625-.4063 0 0-.0625.4688-1.3281 1.3281-1.3281 4.9843 0 3.1875 1.1406 4.3125.5313.5313.5313.5313.25 0 .7812-.5313.6719-.6562.7344-3.0468h2.5938q-.2032 2.9843-1.2657 4.0468z"/><text fill="#00f" font-family="Helvetica" font-size="20" lengthAdjust="spacingAndGlyphs" textLength="34" x="35" y="33.7617">Foo</text><g stroke="#000"><path d="m7 43.1563h64" stroke-width="1.5"/><path d="m7 51.1563h64" stroke-width="1.5"/><path d="m7.5 119h63v51.1563h-63z" fill="#fff" stroke-width="1.5"/><ellipse cx="22.5" cy="136.5781" fill="#add1b2" rx="11" ry="11"/></g><path d="m25.2031 142.0156q-.9218.9219-3.1875.9219-1.2656 0-2.1875-.9219-1.6562-1.6562-1.6562-5.1875 0-4.1093 1.7812-5.9062.9375-.9219 2.125-.9219 2.2657 0 3 .7188 1.3907 1.4062 1.3282 3.7968h-2.4688q-.0625-2.125-.7969-2.8593-.3906-.4063-1.0625-.4063 0 0-.0625.4688-1.3281 1.3281-1.3281 4.9843 0 3.1875 1.1406 4.3125.5313.5313.5313.5313.25 0 .7812-.5313.6719-.6562.7344-3.0468h2.5938q-.2032 2.9843-1.2657 4.0468z"/><text fill="#00f" font-family="Helvetica" font-size="20" lengthAdjust="spacingAndGlyphs" textLength="31" x="36.5" y="144.7617">Bar</text><path d="m8.5 154.1563h61" stroke="#000" stroke-width="1.5"/><path d="m8.5 162.1563h61" stroke="#000" stroke-width="1.5"/><path d="m39 79.3059v39.5582" fill="none" stroke="#000"/><path d="m32.0001 79.2338 6.9999-19.9998 7.0001 19.9998z" fill="none" stroke="#000"/></svg>