<svg contentScriptType="application/ecmascript" contentStyleType="text/css" height="177" preserveAspectRatio="none" viewBox="0 0 160 177" width="160" xmlns="http://www.w3.org/2000/svg" xmlns:xlink="http://www.w3.org/1999/xlink" zoomAndPan="magnify"><filter id="a" height="300%" width="300%" x="-1" y="-1"><feGaussianBlur result="blurOut" stdDeviation="2"/><feColorMatrix in="blurOut" result="blurOut2" type="matrix" values="0 0 0 0 0 0 0 0 0 0 0 0 0 0 0 0 0 0 .4 0"/><feOffset dx="4" dy="4" in="blurOut2" result="blurOut3"/><feBlend in="SourceGraphic" in2="blurOut3" mode="normal"/></filter><path d="m6 8h143v158.6875h-143z" fill="#fefece" filter="url(#a)" stroke="#a80036" stroke-width="1.5"/><ellipse cx="49.8" cy="24" fill="#add1b2" rx="11" ry="11" stroke="#a80036"/><path d="m52.5031 29.4375q-.9218.9219-3.1875.9219-1.2656 0-2.1875-.9219-1.6562-1.6562-1.6562-5.1875 0-4.1094 1.7812-5.9062.9375-.9219 2.125-.9219 2.2657 0 3 .7187 1.3907 1.4063 1.3282 3.7969h-2.4688q-.0625-2.125-.7969-2.8594-.3906-.4062-1.0625-.4062 0 0-.0625.4687-1.3281 1.3282-1.3281 4.9844 0 3.1875 1.1406 4.3125.5313.5313.5313.5313.25 0 .7812-.5313.6719-.6562.7344-3.0469h2.5938q-.2032 2.9844-1.2657 4.0469z"/><text font-family="sans-serif" font-size="12" lengthAdjust="spacingAndGlyphs" textLength="47" x="70.2" y="28.9102">MyClass</text><path d="m7 40h141" stroke="#a80036" stroke-width="1.5"/><ellipse cx="17" cy="52.418" fill="none" rx="3" ry="3" stroke="#038048"/><text font-family="sans-serif" font-size="11" lengthAdjust="spacingAndGlyphs" textLength="50" x="26" y="55.4189">publicField</text><path d="m17 61.2539 4 4-4 4-4-4z" fill="none" stroke="#b38d22"/><text font-family="sans-serif" font-size="11" lengthAdjust="spacingAndGlyphs" textLength="68" x="26" y="69.2549">protectedField</text><path d="m14 77.0898h6v6h-6z" fill="none" stroke="#c82930"/><text font-family="sans-serif" font-size="11" lengthAdjust="spacingAndGlyphs" textLength="55" x="26" y="83.0908">privateField</text><path d="m17 89.9258-4 6h8z" fill="none" stroke="#1963a0"/><text font-family="sans-serif" font-size="11" lengthAdjust="spacingAndGlyphs" textLength="96" x="26" y="96.9268">packagePrivateField</text><path d="m7 103.3438h141" stroke="#a80036" stroke-width="1.5"/><ellipse cx="17" cy="115.7617" fill="#84be84" rx="3" ry="3" stroke="#038048"/><text font-family="sans-serif" font-size="11" lengthAdjust="spacingAndGlyphs" textLength="71" x="26" y="118.7627">publicMethod()</text><path d="m17 124.5977 4 4-4 4-4-4z" fill="#ff4" stroke="#b38d22"/><text font-family="sans-serif" font-size="11" lengthAdjust="spacingAndGlyphs" textLength="89" x="26" y="132.5986">protectedMethod()</text><path d="m14 140.4336h6v6h-6z" fill="#f24d5c" stroke="#c82930"/><text font-family="sans-serif" font-size="11" lengthAdjust="spacingAndGlyphs" textLength="76" x="26" y="146.4346">privateMethod()</text><path d="m17 153.2695-4 6h8z" fill="#4177af" stroke="#1963a0"/><text font-family="sans-serif" font-size="11" lengthAdjust="spacingAndGlyphs" textLength="117" x="26" y="160.2705">packagePrivateMethod()</text></svg>