<svg enable-background="new 0 0 50 50" height="50" viewBox="0 0 50 50" width="50" xmlns="http://www.w3.org/2000/svg"><path d="m40.193 44.839c-4.53 3.464-9.867 5.151-15.167 5.151-7.52 0-14.956-3.376-19.87-9.803-8.396-10.962-6.324-26.639 4.658-35.039 4.529-3.485 9.872-5.148 15.165-5.148 7.52 0 14.958 3.376 19.87 9.809 8.398 10.959 6.305 26.639-4.656 35.03" fill="#59b4d9"/><path d="m35.6 29.378c1.816 2.368 5.186 2.796 7.541 1.004.123-.094.218-.208.33-.309 2.409 1.697 4.082 2.817 5.025 3.459.279-.723.472-1.417.67-2.142-.996-.741-2.343-1.778-4.29-3.356.639-1.68.437-3.64-.73-5.171-1.669-2.16-4.626-2.709-6.936-1.377-2.546-2.284-5.343-4.902-8.293-7.833 9.165-4.929 15.676-4.207 15.676-4.207-1.087-1.386-2.305-2.6-3.606-3.697-3.865-.597-9.869-.53-16.729 3.119l-.002-.003h-.001c-2.286-2.393-4.613-4.958-6.983-7.712-1.134.363-2.242.812-3.312 1.347 1.749 2.862 4.102 5.749 6.754 8.565.005.006.011.011.017.017-2.211 1.546-4.673 3.613-6.944 6.015-.29.309-.569.62-.842.931-1.357-.284-2.784-.201-4.117.282-2.264-4.885-2.082-8.809-1.724-10.832-.983 1.03-1.901 2.113-2.692 3.267-.591 2.415-.759 5.898.985 10.095-2.019 2.642-2.114 6.389-.005 9.153.176.229.364.442.559.645-.921 3.137-1.333 6.163-1.46 8.761.237.322.237.582.472.896 1.199 1.538 2.705 2.834 4.16 4.008-.18-2.75.014-6.806 1.714-11.372 1.173.089 2.366-.096 3.483-.566.64.563 1.31 1.132 2.025 1.711 2.453 1.942 4.9 3.453 7.285 4.643-.124 1.213.18 2.474.968 3.518 1.685 2.176 4.805 2.582 6.983.919.453-.347.811-.766 1.108-1.216 3.889.866 7.287 1.019 9.806 1.019.386 0 2.177-2.436 3.203-3.946-1.534.321-6.083.946-12.3-.84-.15-.698-.437-1.376-.898-1.98-1.579-2.07-4.466-2.518-6.618-1.133-2.161-1.172-4.424-2.641-6.758-4.49-.471-.373-.923-.745-1.359-1.118 1.426-2.247 1.578-5.127.318-7.55.286-.286.567-.573.871-.857 2.311-2.159 4.485-3.887 6.519-5.274-.082-.076-.156-.156-.236-.233.081.075.157.152.239.227-.001 0-.001.001-.002.001 3.121 2.886 6.43 5.621 9.564 8.065-.829 1.758-.699 3.899.562 5.547z" fill="#fff"/></svg>