<svg enable-background="new -280 372 50 50" viewBox="-280 372 50 50" xmlns="http://www.w3.org/2000/svg"><path d="m-230.6 396.9c-.9-2.1-2.8-4-5.2-5.1-1.1-3.8-4.3-7.5-8.9-7.5-.1 0-.3 0-.5 0-1.9-1.4-3.8-2.1-5.8-2.1-1.2 0-2.4.3-3.5.8-.9-.5-1.9-.7-3-.7-2.4 0-4.7 1.1-6.1 2.4-.4-.1-.9-.2-1.4-.2-3.6 0-7.1 2.9-8.1 6.5-3.1 1.1-5.3 3.1-6.4 5.8-1 2.6-.8 5.4.6 7.8s3.9 3.9 6.6 3.9c1 0 2-.2 3-.6 1.6 1.5 3.8 2.4 5.8 2.4.7 0 1.4-.1 2-.3 1.6 1.3 4.1 1.8 6.1 1.8 2.4 0 4.5-.6 5.8-1.7.9.4 1.9.6 2.9.6 2.6 0 5.2-1.4 6.7-3.3.8.3 1.7.5 2.5.5 2.8 0 5.4-1.8 6.6-4.7 1.1-2.1 1.1-4.3.3-6.3z" fill="#0078d7"/><g fill="#fff"><path d="m-263.9 410.3v-8.8c0-1.1-.9-2-2-2h-3.3v1.4h3.3c.3 0 .6.3.6.6v8.6c.4 0 .9.1 1.4.2z"/><path d="m-257.8 395.2h-4.4c-.3 0-.6-.3-.6-.6v-10.5c-.3.2-.5.4-.7.6-.2-.1-.5-.1-.7-.1v10.1c0 1.1.9 2 2 2h4.4c.3 0 .6.3.6.6v3.3h1.4v-3.3c-.1-1.2-1-2.1-2-2.1z"/><path d="m-239.2 400.8v-1.3h-1.4v1.3c0 .3-.3.6-.6.6h-5.6v-10c0-1.1-.9-2-2-2h-3.8v1.4h3.8c.3 0 .6.3.6.6v19.2c.5.1.9.2 1.4.2v-7.9h5.6c1.1-.1 2-1 2-2.1z"/><path d="m-256.6 406.3c-1.7 0-3.1-1.4-3.1-3.1s1.4-3.1 3.1-3.1 3.1 1.4 3.1 3.1c.1 1.7-1.3 3.1-3.1 3.1zm0-5c-1 0-1.8.8-1.8 1.8s.8 1.8 1.8 1.8 1.8-.8 1.8-1.8c.1-1-.8-1.8-1.8-1.8z"/><path d="m-271.5 403.3c-1.7 0-3.1-1.4-3.1-3.1s1.4-3.1 3.1-3.1 3.1 1.4 3.1 3.1-1.4 3.1-3.1 3.1zm0-5c-1 0-1.8.8-1.8 1.8s.8 1.8 1.8 1.8 1.8-.8 1.8-1.8c.1-.9-.8-1.8-1.8-1.8z"/><path d="m-239.9 400.3c-1.7 0-3.1-1.4-3.1-3.1s1.4-3.1 3.1-3.1 3.1 1.4 3.1 3.1-1.4 3.1-3.1 3.1zm0-4.9c-1 0-1.8.8-1.8 1.8s.8 1.8 1.8 1.8 1.8-.8 1.8-1.8-.8-1.8-1.8-1.8z"/><path d="m-254.9 393.2c-1.7 0-3.1-1.4-3.1-3.1s1.4-3.1 3.1-3.1 3.1 1.4 3.1 3.1c.1 1.7-1.3 3.1-3.1 3.1zm0-5c-1 0-1.8.8-1.8 1.8s.8 1.8 1.8 1.8 1.8-.8 1.8-1.8c.1-1-.7-1.8-1.8-1.8z"/></g></svg>