<svg enable-background="new 0 0 50 50" height="50" viewBox="0 0 50 50" width="50" xmlns="http://www.w3.org/2000/svg"><path d="m0 0h50v50h-50z" fill="#009480"/><path d="m37.488 21.047c0-6.256-5.07-11.349-11.349-11.349s-11.349 5.07-11.349 11.349c0 4.651 2.791 8.628 6.767 10.395-.372.628-1.279 1.488-2.186 2.047-1.744 1.116-3.814 1.698-5.721 2.535-.326.14-.814.349-.837.581-.14 1.07-.14 2.163-.209 3.233.233.07.349.14.465.14 5.395 1 10.279-.279 14.698-3.093 4.605-2.932 9.721-7.699 9.721-15.838z" fill="#fff"/><path d="m26.326 13.465c-4.14-.023-7.535 3.279-7.581 7.372-.047 4.186 3.279 7.605 7.419 7.628 4.163.023 7.581-3.326 7.581-7.465-.001-4.116-3.326-7.488-7.419-7.535z" fill="#414141"/><g fill="#fff"><path d="m24.86 25c-.558 0-.953-.116-1.209-.349s-.395-.628-.395-1.163v-1.279c0-.558-.233-.86-.698-.86v-.698c.465 0 .698-.302.698-.907v-1.209c0-.535.14-.907.395-1.163s.675-.372 1.209-.372v.721c-.488 0-.721.279-.721.837v1.209c0 .651-.233 1.07-.674 1.233v.023c.442.14.674.535.674 1.209v1.209c0 .302.047.512.163.651.116.14.302.209.558.209z"/><path d="m27.628 24.302c.256 0 .442-.07.558-.209.116-.14.163-.349.163-.651v-1.209c0-.651.233-1.047.674-1.209v-.024c-.442-.163-.674-.581-.674-1.233v-1.209c0-.558-.233-.837-.721-.837v-.721c.535 0 .953.116 1.209.372s.395.651.395 1.163v1.233c0 .605.233.907.698.907v.698c-.465 0-.698.279-.698.86v1.279c0 .535-.14.907-.395 1.163-.256.233-.674.349-1.209.349z"/></g></svg>