<svg fill="none" viewBox="0 0 124 26" xmlns="http://www.w3.org/2000/svg"><path d="M108.262 25.967a.822.822 0 0 1-.59-.236.748.748 0 0 1-.242-.572.74.74 0 0 1 .242-.564.822.822 0 0 1 .59-.236c.221 0 .415.078.579.235a.76.76 0 0 1 .134.972.85.85 0 0 1-.713.4zM113.624 18.369h1.392v5.285c-.002.486-.109.901-.317 1.25-.211.35-.503.616-.877.805-.373.186-.809.28-1.305.28-.453 0-.86-.08-1.222-.237a1.961 1.961 0 0 1-.86-.703c-.213-.31-.317-.696-.317-1.16h1.394c.002.203.049.379.139.526a.886.886 0 0 0 .37.337c.16.078.343.117.549.117.224 0 .415-.045.571-.138a.883.883 0 0 0 .357-.41c.081-.18.124-.402.126-.667v-5.285zM120.744 20.436a.994.994 0 0 0-.443-.748c-.262-.18-.6-.27-1.015-.27a1.99 1.99 0 0 0-.751.13 1.13 1.13 0 0 0-.482.348.846.846 0 0 0-.17.503c0 .157.038.293.113.407a.922.922 0 0 0 .304.291c.128.08.271.147.426.2.158.055.315.1.473.137l.726.176c.291.066.574.155.845.269.27.111.515.254.73.425.215.172.385.379.511.62.125.242.189.525.189.852 0 .44-.115.827-.347 1.162-.232.332-.566.593-1.005.78-.436.187-.964.282-1.585.282-.601 0-1.124-.09-1.565-.273a2.307 2.307 0 0 1-1.037-.791c-.249-.348-.383-.771-.402-1.27h1.379c.02.26.105.478.249.654.147.173.339.301.573.388.236.085.5.128.792.128.304 0 .572-.045.804-.134.23-.089.411-.213.541-.374a.867.867 0 0 0 .2-.562.716.716 0 0 0-.176-.488 1.356 1.356 0 0 0-.486-.323 5.013 5.013 0 0 0-.728-.233l-.881-.22c-.636-.158-1.141-.4-1.509-.725-.371-.324-.554-.754-.554-1.294 0-.442.124-.83.373-1.163a2.417 2.417 0 0 1 1.013-.775c.43-.186.915-.277 1.456-.277.549 0 1.03.09 1.445.277.415.184.741.44.977.766.237.327.36.701.367 1.125h-1.35zM85.124.01h22.304v4.118H98.58v21.657h-4.424V4.128h-9.032V.01zM48.442.01v4.118H30.564v6.622H44.94v4.117H30.564v6.801h17.878v4.117H26.14V4.128h-.002V.01h22.304zM59.58.021h-5.79l20.736 25.775h5.807l-10.37-12.878L80.316.04l-5.79.01-7.462 9.267L59.58.02zM65.52 18.432l-2.9-3.604-8.847 10.988h5.806l5.941-7.384z" fill="currentColor"/><path clip-rule="evenodd" d="M26.295 25.785 5.53 0H0v25.774h4.424V5.51l16.313 20.276h5.558z" fill="currentColor" fill-rule="evenodd"/></svg>
