<svg contentScriptType="application/ecmascript" contentStyleType="text/css" height="175" preserveAspectRatio="none" viewBox="0 0 150 175" width="150" xmlns="http://www.w3.org/2000/svg" xmlns:xlink="http://www.w3.org/1999/xlink" zoomAndPan="magnify"><filter id="a" height="300%" width="300%" x="-1" y="-1"><feGaussianBlur result="blurOut" stdDeviation="2"/><feColorMatrix in="blurOut" result="blurOut2" type="matrix" values="0 0 0 0 0 0 0 0 0 0 0 0 0 0 0 0 0 0 .4 0"/><feOffset dx="4" dy="4" in="blurOut2" result="blurOut3"/><feBlend in="SourceGraphic" in2="blurOut3" mode="normal"/></filter><path d="m52.5 8h87v48h-87z" fill="#fefece" filter="url(#a)" stroke="#a80036" stroke-width="1.5"/><ellipse cx="67.5" cy="24" fill="#add1b2" rx="11" ry="11" stroke="#a80036"/><path d="m70.2031 29.4375q-.9218.9219-3.1875.9219-1.2656 0-2.1875-.9219-1.6562-1.6562-1.6562-5.1875 0-4.1094 1.7812-5.9062.9375-.9219 2.125-.9219 2.2657 0 3 .7187 1.3907 1.4063 1.3282 3.7969h-2.4688q-.0625-2.125-.7969-2.8594-.3906-.4062-1.0625-.4062 0 0-.0625.4687-1.3281 1.3282-1.3281 4.9844 0 3.1875 1.1406 4.3125.5313.5313.5313.5313.25 0 .7812-.5313.6719-.6562.7344-3.0469h2.5938q-.2032 2.9844-1.2657 4.0469z"/><text font-family="sans-serif" font-size="12" lengthAdjust="spacingAndGlyphs" textLength="55" x="81.5" y="28.9102">Customer</text><g stroke="#a80036"><path d="m53.5 40h85" stroke-width="1.5"/><path d="m53.5 48h85" stroke-width="1.5"/><path d="m53.5 116h85v48h-85z" fill="#fefece" filter="url(#a)" stroke-width="1.5"/><ellipse cx="68.5" cy="132" fill="#add1b2" rx="11" ry="11"/></g><path d="m71.2031 137.4375q-.9218.9219-3.1875.9219-1.2656 0-2.1875-.9219-1.6562-1.6562-1.6562-5.1875 0-4.1094 1.7812-5.9062.9375-.9219 2.125-.9219 2.2657 0 3 .7187 1.3907 1.4063 1.3282 3.7969h-2.4688q-.0625-2.125-.7969-2.8594-.3906-.4062-1.0625-.4062 0 0-.0625.4687-1.3281 1.3282-1.3281 4.9844 0 3.1875 1.1406 4.3125.5313.5313.5313.5313.25 0 .7812-.5313.6719-.6562.7344-3.0469h2.5938q-.2032 2.9844-1.2657 4.0469z"/><text font-family="sans-serif" font-size="12" lengthAdjust="spacingAndGlyphs" textLength="53" x="82.5" y="136.9102">Purchase</text><path d="m54.5 148h83" stroke="#a80036" stroke-width="1.5"/><path d="m54.5 156h83" stroke="#a80036" stroke-width="1.5"/><path d="m96 56v54.528" fill="none" stroke="#a80036"/><path d="m96 115.6784 4-9-4 4-4-4z" fill="#a80036" stroke="#a80036"/><text font-family="sans-serif" font-size="13" lengthAdjust="spacingAndGlyphs" textLength="75" x="11.8594" y="105.338">1..* {ordered}</text></svg>