<svg contentScriptType="application/ecmascript" contentStyleType="text/css" height="183" preserveAspectRatio="none" viewBox="0 0 223 183" width="223" xmlns="http://www.w3.org/2000/svg" xmlns:xlink="http://www.w3.org/1999/xlink" zoomAndPan="magnify"><filter id="a" height="300%" width="300%" x="-1" y="-1"><feGaussianBlur result="blurOut" stdDeviation="2"/><feColorMatrix in="blurOut" result="blurOut2" type="matrix" values="0 0 0 0 0 0 0 0 0 0 0 0 0 0 0 0 0 0 .4 0"/><feOffset dx="4" dy="4" in="blurOut2" result="blurOut3"/><feBlend in="SourceGraphic" in2="blurOut3" mode="normal"/></filter><path d="m25.5 15.5h53v41.0938h-53z" fill="#fefece" filter="url(#a)" stroke="#a80036" stroke-width="1.5"/><text font-family="sans-serif" font-size="12" lengthAdjust="spacingAndGlyphs" textLength="47" x="28.5" y="32.957">MyClass</text><path d="m26.5 40.5938h51" stroke="#a80036" stroke-width="1.5"/><path d="m26.5 48.5938h51" stroke="#a80036" stroke-width="1.5"/><path d="m113.5 8h69v56.1875h-69z" fill="#fefece" filter="url(#a)" stroke="#a80036" stroke-width="1.5"/><text font-family="sans-serif" font-size="12" font-style="italic" lengthAdjust="spacingAndGlyphs" textLength="61" x="117.5" y="25.457">«interface»</text><text font-family="sans-serif" font-size="12" font-style="italic" lengthAdjust="spacingAndGlyphs" textLength="63" x="116.5" y="40.5508">MyInterface</text><g stroke="#a80036"><path d="m114.5 48.1875h67" stroke-width="1.5"/><path d="m114.5 56.1875h67" stroke-width="1.5"/><path d="m6 124h92v48h-92z" fill="#fefece" filter="url(#a)" stroke-width="1.5"/><ellipse cx="21" cy="140" fill="#a9dcdf" rx="11" ry="11"/></g><path d="m18.8594 145.8594h-2.5938l3.3282-12.9375h2.3281l3.3125 12.9375h-2.5938l-.9218-3.7813h-1.9219zm1.4531-9.4219-.1875 4.375h1.25z"/><text font-family="sans-serif" font-size="12" font-style="italic" lengthAdjust="spacingAndGlyphs" textLength="60" x="35" y="144.9102">MyAbstract</text><path d="m7 156h90" stroke="#a80036" stroke-width="1.5"/><path d="m7 164h90" stroke="#a80036" stroke-width="1.5"/><path d="m133.5 124h79v48h-79z" fill="#fefece" filter="url(#a)" stroke="#a80036" stroke-width="1.5"/><ellipse cx="148.5" cy="140" fill="#eb937f" rx="11" ry="11" stroke="#a80036"/><path d="m147.0313 138.8594h4.5156v1.2656h-4.5156v4.9844h5.2343v1.25h-7.7656v-12.9375h7.4375v1.25h-4.9062z"/><text font-family="sans-serif" font-size="12" lengthAdjust="spacingAndGlyphs" textLength="47" x="162.5" y="144.9102">MyEnum</text><path d="m134.5 156h77" stroke="#a80036" stroke-width="1.5"/><path d="m134.5 164h77" stroke="#a80036" stroke-width="1.5"/></svg>