<svg contentScriptType="application/ecmascript" contentStyleType="text/css" height="283" preserveAspectRatio="none" viewBox="0 0 269 283" width="269" xmlns="http://www.w3.org/2000/svg" xmlns:xlink="http://www.w3.org/1999/xlink" zoomAndPan="magnify"><filter id="a" height="300%" width="300%" x="-1" y="-1"><feGaussianBlur result="blurOut" stdDeviation="2"/><feColorMatrix in="blurOut" result="blurOut2" type="matrix" values="0 0 0 0 0 0 0 0 0 0 0 0 0 0 0 0 0 0 .4 0"/><feOffset dx="4" dy="4" in="blurOut2" result="blurOut3"/><feBlend in="SourceGraphic" in2="blurOut3" mode="normal"/></filter><path d="m93.5 116h69v48h-69z" fill="#fefece" filter="url(#a)" stroke="#a80036" stroke-width="1.5"/><ellipse cx="108.5" cy="132" fill="#add1b2" rx="11" ry="11" stroke="#a80036"/><path d="m111.2031 137.4375q-.9218.9219-3.1875.9219-1.2656 0-2.1875-.9219-1.6562-1.6562-1.6562-5.1875 0-4.1094 1.7812-5.9062.9375-.9219 2.125-.9219 2.2657 0 3 .7187 1.3907 1.4063 1.3282 3.7969h-2.4688q-.0625-2.125-.7969-2.8594-.3906-.4062-1.0625-.4062 0 0-.0625.4687-1.3281 1.3282-1.3281 4.9844 0 3.1875 1.1406 4.3125.5313.5313.5313.5313.25 0 .7812-.5313.6719-.6562.7344-3.0469h2.5938q-.2032 2.9844-1.2657 4.0469z"/><text font-family="sans-serif" font-size="12" lengthAdjust="spacingAndGlyphs" textLength="37" x="122.5" y="136.9102">Center</text><path d="m94.5 148h67" stroke="#a80036" stroke-width="1.5"/><path d="m94.5 156h67" stroke="#a80036" stroke-width="1.5"/><path d="m104 8h48v48h-48z" fill="#fefece" filter="url(#a)" stroke="#a80036" stroke-width="1.5"/><ellipse cx="119" cy="24" fill="#add1b2" rx="11" ry="11" stroke="#a80036"/><path d="m121.7031 29.4375q-.9218.9219-3.1875.9219-1.2656 0-2.1875-.9219-1.6562-1.6562-1.6562-5.1875 0-4.1094 1.7812-5.9062.9375-.9219 2.125-.9219 2.2657 0 3 .7187 1.3907 1.4063 1.3282 3.7969h-2.4688q-.0625-2.125-.7969-2.8594-.3906-.4062-1.0625-.4062 0 0-.0625.4687-1.3281 1.3282-1.3281 4.9844 0 3.1875 1.1406 4.3125.5313.5313.5313.5313.25 0 .7812-.5313.6719-.6562.7344-3.0469h2.5938q-.2032 2.9844-1.2657 4.0469z"/><text font-family="sans-serif" font-size="12" lengthAdjust="spacingAndGlyphs" textLength="16" x="133" y="28.9102">Up</text><path d="m105 40h46" stroke="#a80036" stroke-width="1.5"/><path d="m105 48h46" stroke="#a80036" stroke-width="1.5"/><path d="m6 116h52v48h-52z" fill="#fefece" filter="url(#a)" stroke="#a80036" stroke-width="1.5"/><ellipse cx="21" cy="132" fill="#add1b2" rx="11" ry="11" stroke="#a80036"/><path d="m23.7031 137.4375q-.9218.9219-3.1875.9219-1.2656 0-2.1875-.9219-1.6562-1.6562-1.6562-5.1875 0-4.1094 1.7812-5.9062.9375-.9219 2.125-.9219 2.2657 0 3 .7187 1.3907 1.4063 1.3282 3.7969h-2.4688q-.0625-2.125-.7969-2.8594-.3906-.4062-1.0625-.4062 0 0-.0625.4687-1.3281 1.3282-1.3281 4.9844 0 3.1875 1.1406 4.3125.5313.5313.5313.5313.25 0 .7812-.5313.6719-.6562.7344-3.0469h2.5938q-.2032 2.9844-1.2657 4.0469z"/><text font-family="sans-serif" font-size="12" lengthAdjust="spacingAndGlyphs" textLength="20" x="35" y="136.9102">Left</text><path d="m7 148h50" stroke="#a80036" stroke-width="1.5"/><path d="m7 156h50" stroke="#a80036" stroke-width="1.5"/><path d="m197.5 116h61v48h-61z" fill="#fefece" filter="url(#a)" stroke="#a80036" stroke-width="1.5"/><ellipse cx="212.5" cy="132" fill="#add1b2" rx="11" ry="11" stroke="#a80036"/><path d="m215.2031 137.4375q-.9218.9219-3.1875.9219-1.2656 0-2.1875-.9219-1.6562-1.6562-1.6562-5.1875 0-4.1094 1.7812-5.9062.9375-.9219 2.125-.9219 2.2657 0 3 .7187 1.3907 1.4063 1.3282 3.7969h-2.4688q-.0625-2.125-.7969-2.8594-.3906-.4062-1.0625-.4062 0 0-.0625.4687-1.3281 1.3282-1.3281 4.9844 0 3.1875 1.1406 4.3125.5313.5313.5313.5313.25 0 .7812-.5313.6719-.6562.7344-3.0469h2.5938q-.2032 2.9844-1.2657 4.0469z"/><text font-family="sans-serif" font-size="12" lengthAdjust="spacingAndGlyphs" textLength="29" x="226.5" y="136.9102">Right</text><path d="m198.5 148h59" stroke="#a80036" stroke-width="1.5"/><path d="m198.5 156h59" stroke="#a80036" stroke-width="1.5"/><path d="m96 224h64v48h-64z" fill="#fefece" filter="url(#a)" stroke="#a80036" stroke-width="1.5"/><ellipse cx="111" cy="240" fill="#add1b2" rx="11" ry="11" stroke="#a80036"/><path d="m113.7031 245.4375q-.9218.9219-3.1875.9219-1.2656 0-2.1875-.9219-1.6562-1.6562-1.6562-5.1875 0-4.1094 1.7812-5.9062.9375-.9219 2.125-.9219 2.2657 0 3 .7187 1.3907 1.4063 1.3282 3.7969h-2.4688q-.0625-2.125-.7969-2.8594-.3906-.4062-1.0625-.4062 0 0-.0625.4687-1.3281 1.3282-1.3281 4.9844 0 3.1875 1.1406 4.3125.5313.5313.5313.5313.25 0 .7812-.5313.6719-.6562.7344-3.0469h2.5938q-.2032 2.9844-1.2657 4.0469z"/><text font-family="sans-serif" font-size="12" lengthAdjust="spacingAndGlyphs" textLength="32" x="125" y="244.9102">Down</text><g stroke="#a80036"><path d="m97 256h62" stroke-width="1.5"/><path d="m97 264h62" stroke-width="1.5"/><path d="m128 61.131v54.547" fill="none"/><path d="m128 56-4 9 4-4 4 4z" fill="#a80036"/><path d="m63.4672 140h29.9303" fill="none"/><path d="m58.25 140 9 4-4-4 4-4z" fill="#a80036"/><path d="m162.766 140h29.511" fill="none"/><path d="m197.421 140-9-4 4 4-4 4z" fill="#a80036"/><path d="m128 164v54.528" fill="none"/><path d="m128 223.6784 4-9-4 4-4-4z" fill="#a80036"/></g></svg>