<svg contentScriptType="application/ecmascript" contentStyleType="text/css" height="136" preserveAspectRatio="none" viewBox="0 0 428 136" width="428" xmlns="http://www.w3.org/2000/svg" xmlns:xlink="http://www.w3.org/1999/xlink" zoomAndPan="magnify"><filter id="a" height="300%" width="300%" x="-1" y="-1"><feGaussianBlur result="blurOut" stdDeviation="2"/><feColorMatrix in="blurOut" result="blurOut2" type="matrix" values="0 0 0 0 0 0 0 0 0 0 0 0 0 0 0 0 0 0 .4 0"/><feOffset dx="4" dy="4" in="blurOut2" result="blurOut3"/><feBlend in="SourceGraphic" in2="blurOut3" mode="normal"/></filter><path d="m22 24h31l7 23.6094h74v76.3906h-112z" fill="#fff" filter="url(#a)" stroke="#000" stroke-width="1.5"/><path d="m22 47.6094h38" stroke="#000" stroke-width="1.5"/><text font-family="sans-serif" font-size="14" font-weight="bold" lengthAdjust="spacingAndGlyphs" textLength="25" x="26" y="40.5332">ns1</text><path d="m158 24h31l7 23.6094h74v76.3906h-112z" fill="#fff" filter="url(#a)" stroke="#000" stroke-width="1.5"/><path d="m158 47.6094h38" stroke="#000" stroke-width="1.5"/><text font-family="sans-serif" font-size="14" font-weight="bold" lengthAdjust="spacingAndGlyphs" textLength="25" x="162" y="40.5332">ns2</text><path d="m294 24h31l7 23.6094h74v76.3906h-112z" fill="#fff" filter="url(#a)" stroke="#000" stroke-width="1.5"/><path d="m294 47.6094h38" stroke="#000" stroke-width="1.5"/><text font-family="sans-serif" font-size="14" font-weight="bold" lengthAdjust="spacingAndGlyphs" textLength="25" x="298" y="40.5332">ns3</text><path d="m38.5 60h79v48h-79z" fill="#fefece" filter="url(#a)" stroke="#a80036" stroke-width="1.5"/><ellipse cx="53.5" cy="76" fill="#add1b2" rx="11" ry="11" stroke="#a80036"/><path d="m56.2031 81.4375q-.9218.9219-3.1875.9219-1.2656 0-2.1875-.9219-1.6562-1.6562-1.6562-5.1875 0-4.1094 1.7812-5.9062.9375-.9219 2.125-.9219 2.2657 0 3 .7187 1.3907 1.4063 1.3282 3.7969h-2.4688q-.0625-2.125-.7969-2.8594-.3906-.4062-1.0625-.4062 0 0-.0625.4687-1.3281 1.3282-1.3281 4.9844 0 3.1875 1.1406 4.3125.5313.5313.5313.5313.25 0 .7812-.5313.6719-.6562.7344-3.0469h2.5938q-.2032 2.9844-1.2657 4.0469z"/><text font-family="sans-serif" font-size="12" lengthAdjust="spacingAndGlyphs" textLength="47" x="67.5" y="80.9102">MyClass</text><path d="m39.5 92h77" stroke="#a80036" stroke-width="1.5"/><path d="m39.5 100h77" stroke="#a80036" stroke-width="1.5"/><path d="m174.5 60h79v48h-79z" fill="#fefece" filter="url(#a)" stroke="#a80036" stroke-width="1.5"/><ellipse cx="189.5" cy="76" fill="#add1b2" rx="11" ry="11" stroke="#a80036"/><path d="m192.2031 81.4375q-.9218.9219-3.1875.9219-1.2656 0-2.1875-.9219-1.6562-1.6562-1.6562-5.1875 0-4.1094 1.7812-5.9062.9375-.9219 2.125-.9219 2.2657 0 3 .7187 1.3907 1.4063 1.3282 3.7969h-2.4688q-.0625-2.125-.7969-2.8594-.3906-.4062-1.0625-.4062 0 0-.0625.4687-1.3281 1.3282-1.3281 4.9844 0 3.1875 1.1406 4.3125.5313.5313.5313.5313.25 0 .7812-.5313.6719-.6562.7344-3.0469h2.5938q-.2032 2.9844-1.2657 4.0469z"/><text font-family="sans-serif" font-size="12" lengthAdjust="spacingAndGlyphs" textLength="47" x="203.5" y="80.9102">MyClass</text><path d="m175.5 92h77" stroke="#a80036" stroke-width="1.5"/><path d="m175.5 100h77" stroke="#a80036" stroke-width="1.5"/><path d="m310.5 60h79v48h-79z" fill="#fefece" filter="url(#a)" stroke="#a80036" stroke-width="1.5"/><ellipse cx="325.5" cy="76" fill="#add1b2" rx="11" ry="11" stroke="#a80036"/><path d="m328.2031 81.4375q-.9218.9219-3.1875.9219-1.2656 0-2.1875-.9219-1.6562-1.6562-1.6562-5.1875 0-4.1094 1.7812-5.9062.9375-.9219 2.125-.9219 2.2657 0 3 .7187 1.3907 1.4063 1.3282 3.7969h-2.4688q-.0625-2.125-.7969-2.8594-.3906-.4062-1.0625-.4062 0 0-.0625.4687-1.3281 1.3282-1.3281 4.9844 0 3.1875 1.1406 4.3125.5313.5313.5313.5313.25 0 .7812-.5313.6719-.6562.7344-3.0469h2.5938q-.2032 2.9844-1.2657 4.0469z"/><text font-family="sans-serif" font-size="12" lengthAdjust="spacingAndGlyphs" textLength="47" x="339.5" y="80.9102">MyClass</text><g stroke="#a80036"><path d="m311.5 92h77" stroke-width="1.5"/><path d="m311.5 100h77" stroke-width="1.5"/><path d="m117.578 84h51.542" fill="none"/><path d="m174.452 84-9-4 4 4-4 4z" fill="#a80036"/><path d="m253.578 84h51.542" fill="none"/><path d="m310.452 84-9-4 4 4-4 4z" fill="#a80036"/></g></svg>