<svg contentScriptType="application/ecmascript" contentStyleType="text/css" height="187" preserveAspectRatio="none" viewBox="0 0 182 187" width="182" xmlns="http://www.w3.org/2000/svg" xmlns:xlink="http://www.w3.org/1999/xlink" zoomAndPan="magnify"><filter id="a" height="300%" width="300%" x="-1" y="-1"><feGaussianBlur result="blurOut" stdDeviation="2"/><feColorMatrix in="blurOut" result="blurOut2" type="matrix" values="0 0 0 0 0 0 0 0 0 0 0 0 0 0 0 0 0 0 .4 0"/><feOffset dx="4" dy="4" in="blurOut2" result="blurOut3"/><feBlend in="SourceGraphic" in2="blurOut3" mode="normal"/></filter><path d="m61.5 8h53v48h-53z" fill="#fefece" filter="url(#a)" stroke="#a80036" stroke-width="1.5"/><ellipse cx="76.5" cy="24" fill="#add1b2" rx="11" ry="11" stroke="#a80036"/><path d="m79.2031 29.4375q-.9218.9219-3.1875.9219-1.2656 0-2.1875-.9219-1.6562-1.6562-1.6562-5.1875 0-4.1094 1.7812-5.9062.9375-.9219 2.125-.9219 2.2657 0 3 .7187 1.3907 1.4063 1.3282 3.7969h-2.4688q-.0625-2.125-.7969-2.8594-.3906-.4062-1.0625-.4062 0 0-.0625.4687-1.3281 1.3282-1.3281 4.9844 0 3.1875 1.1406 4.3125.5313.5313.5313.5313.25 0 .7812-.5313.6719-.6562.7344-3.0469h2.5938q-.2032 2.9844-1.2657 4.0469z"/><text font-family="sans-serif" font-size="12" lengthAdjust="spacingAndGlyphs" textLength="21" x="90.5" y="28.9102">Foo</text><g stroke="#a80036"><path d="m62.5 40h51" stroke-width="1.5"/><path d="m62.5 48h51" stroke-width="1.5"/><path d="m6 116v59.0547a0 0 0 0 0 0 0h164a0 0 0 0 0 0 0v-49.0547l-10-10h-68l-4-59.897-4 59.897h-78a0 0 0 0 0 0 0" fill="#fbfb77" filter="url(#a)"/><path d="m160 116v10h10z" fill="#fbfb77"/></g><text font-family="sans-serif" font-size="13" lengthAdjust="spacingAndGlyphs" textLength="130" x="12" y="134.4951">これは複数行にわたる</text><text font-family="sans-serif" font-size="13" lengthAdjust="spacingAndGlyphs" textLength="143" x="12" y="150.8467">注釈です。改行の位置も</text><text font-family="sans-serif" font-size="13" lengthAdjust="spacingAndGlyphs" textLength="143" x="12" y="167.1982">そのまま反映されます。</text></svg>