<svg contentScriptType="application/ecmascript" contentStyleType="text/css" height="240" preserveAspectRatio="none" viewBox="0 0 444 240" width="444" xmlns="http://www.w3.org/2000/svg" xmlns:xlink="http://www.w3.org/1999/xlink" zoomAndPan="magnify"><filter id="a" height="300%" width="300%" x="-1" y="-1"><feGaussianBlur result="blurOut" stdDeviation="2"/><feColorMatrix in="blurOut" result="blurOut2" type="matrix" values="0 0 0 0 0 0 0 0 0 0 0 0 0 0 0 0 0 0 .4 0"/><feOffset dx="4" dy="4" in="blurOut2" result="blurOut3"/><feBlend in="SourceGraphic" in2="blurOut3" mode="normal"/></filter><path d="m179.5 94h79v48h-79z" fill="#fefece" filter="url(#a)" stroke="#a80036" stroke-width="1.5"/><ellipse cx="194.5" cy="110" fill="#add1b2" rx="11" ry="11" stroke="#a80036"/><path d="m197.2031 115.4375q-.9218.9219-3.1875.9219-1.2656 0-2.1875-.9219-1.6562-1.6562-1.6562-5.1875 0-4.1094 1.7812-5.9062.9375-.9219 2.125-.9219 2.2657 0 3 .7187 1.3907 1.4063 1.3282 3.7969h-2.4688q-.0625-2.125-.7969-2.8594-.3906-.4062-1.0625-.4062 0 0-.0625.4687-1.3281 1.3282-1.3281 4.9844 0 3.1875 1.1406 4.3125.5313.5313.5313.5313.25 0 .7812-.5313.6719-.6562.7344-3.0469h2.5938q-.2032 2.9844-1.2657 4.0469z"/><text font-family="sans-serif" font-size="12" lengthAdjust="spacingAndGlyphs" textLength="47" x="208.5" y="114.9102">MyClass</text><g stroke="#a80036"><path d="m180.5 126h77" stroke-width="1.5"/><path d="m180.5 134h77" stroke-width="1.5"/><path d="m6 105v26.3516a0 0 0 0 0 0 0h138a0 0 0 0 0 0 0v-8.3516l35.256-5-35.256-3-10-10h-128a0 0 0 0 0 0 0" fill="#fbfb77" filter="url(#a)"/><path d="m134 105v10h10z" fill="#fbfb77"/></g><text font-family="sans-serif" font-size="13" lengthAdjust="spacingAndGlyphs" textLength="117" x="12" y="123.4951">左に表示される注釈</text><path d="m294 105v9l-35.344 4 35.344 4v9.3516a0 0 0 0 0 0 0h138a0 0 0 0 0 0 0v-16.3516l-10-10h-128a0 0 0 0 0 0 0" fill="#fbfb77" filter="url(#a)" stroke="#a80036"/><path d="m422 105v10h10z" fill="#fbfb77" stroke="#a80036"/><text font-family="sans-serif" font-size="13" lengthAdjust="spacingAndGlyphs" textLength="117" x="300" y="123.4951">右に表示される注釈</text><path d="m150 8v26.3516a0 0 0 0 0 0 0h65l4 59.4584 4-59.4584h65a0 0 0 0 0 0 0v-16.3516l-10-10h-128a0 0 0 0 0 0 0" fill="#fbfb77" filter="url(#a)" stroke="#a80036"/><path d="m278 8v10h10z" fill="#fbfb77" stroke="#a80036"/><text font-family="sans-serif" font-size="13" lengthAdjust="spacingAndGlyphs" textLength="117" x="156" y="26.4951">上に表示される注釈</text><path d="m56.5 202v26.3516a0 0 0 0 0 0 0h145a0 0 0 0 0 0 0v-16.3516l-10-10h-46.94l52.193-59.5168-60.193 59.5168h-80.06a0 0 0 0 0 0 0" fill="#fbfb77" filter="url(#a)" stroke="#a80036"/><path d="m191.5 202v10h10z" fill="#fbfb77" stroke="#a80036"/><text font-family="sans-serif" font-size="13" lengthAdjust="spacingAndGlyphs" textLength="124" x="62.5" y="220.4951">下に表示される注釈1</text><path d="m236.5 202v26.3516a0 0 0 0 0 0 0h145a0 0 0 0 0 0 0v-16.3516l-10-10h-70.06l-60.193-59.5168 52.193 59.5168h-56.94a0 0 0 0 0 0 0" fill="#fbfb77" filter="url(#a)" stroke="#a80036"/><path d="m371.5 202v10h10z" fill="#fbfb77" stroke="#a80036"/><text font-family="sans-serif" font-size="13" lengthAdjust="spacingAndGlyphs" textLength="124" x="242.5" y="220.4951">下に表示される注釈2</text></svg>