<svg contentScriptType="application/ecmascript" contentStyleType="text/css" height="154" preserveAspectRatio="none" viewBox="0 0 388 154" width="388" xmlns="http://www.w3.org/2000/svg" xmlns:xlink="http://www.w3.org/1999/xlink" zoomAndPan="magnify"><filter id="a" height="300%" width="300%" x="-1" y="-1"><feGaussianBlur result="blurOut" stdDeviation="2"/><feColorMatrix in="blurOut" result="blurOut2" type="matrix" values="0 0 0 0 0 0 0 0 0 0 0 0 0 0 0 0 0 0 .4 0"/><feOffset dx="4" dy="4" in="blurOut2" result="blurOut3"/><feBlend in="SourceGraphic" in2="blurOut3" mode="normal"/></filter><path d="m121.5 8h53v48h-53z" fill="#fefece" filter="url(#a)" stroke="#a80036" stroke-width="1.5"/><ellipse cx="136.5" cy="24" fill="#add1b2" rx="11" ry="11" stroke="#a80036"/><path d="m139.2031 29.4375q-.9218.9219-3.1875.9219-1.2656 0-2.1875-.9219-1.6562-1.6562-1.6562-5.1875 0-4.1094 1.7812-5.9062.9375-.9219 2.125-.9219 2.2657 0 3 .7187 1.3907 1.4063 1.3282 3.7969h-2.4688q-.0625-2.125-.7969-2.8594-.3906-.4062-1.0625-.4062 0 0-.0625.4687-1.3281 1.3282-1.3281 4.9844 0 3.1875 1.1406 4.3125.5313.5313.5313.5313.25 0 .7812-.5313.6719-.6562.7344-3.0469h2.5938q-.2032 2.9844-1.2657 4.0469z"/><text font-family="sans-serif" font-size="12" lengthAdjust="spacingAndGlyphs" textLength="21" x="150.5" y="28.9102">Foo</text><g stroke="#a80036"><path d="m122.5 40h51" stroke-width="1.5"/><path d="m122.5 48h51" stroke-width="1.5"/><path d="m209.5 8h51v48h-51z" fill="#fefece" filter="url(#a)" stroke-width="1.5"/><ellipse cx="224.5" cy="24" fill="#add1b2" rx="11" ry="11"/></g><path d="m227.2031 29.4375q-.9218.9219-3.1875.9219-1.2656 0-2.1875-.9219-1.6562-1.6562-1.6562-5.1875 0-4.1094 1.7812-5.9062.9375-.9219 2.125-.9219 2.2657 0 3 .7187 1.3907 1.4063 1.3282 3.7969h-2.4688q-.0625-2.125-.7969-2.8594-.3906-.4062-1.0625-.4062 0 0-.0625.4687-1.3281 1.3282-1.3281 4.9844 0 3.1875 1.1406 4.3125.5313.5313.5313.5313.25 0 .7812-.5313.6719-.6562.7344-3.0469h2.5938q-.2032 2.9844-1.2657 4.0469z"/><text font-family="sans-serif" font-size="12" lengthAdjust="spacingAndGlyphs" textLength="19" x="238.5" y="28.9102">Bar</text><path d="m210.5 40h49" stroke="#a80036" stroke-width="1.5"/><path d="m210.5 48h49" stroke="#a80036" stroke-width="1.5"/><path d="m6 19v26.3516a0 0 0 0 0 0 0h80a0 0 0 0 0 0 0v-8.3516l35.463-5-35.463-3-10-10h-70a0 0 0 0 0 0 0" fill="#fbfb77" filter="url(#a)" stroke="#a80036"/><path d="m76 19v10h10z" fill="#fbfb77" stroke="#a80036"/><text font-family="sans-serif" font-size="13" lengthAdjust="spacingAndGlyphs" textLength="59" x="12" y="37.4951">注釈1です</text><path d="m151 116v26.3516h80v-16.3516l-10-10z" fill="#fbfb77" filter="url(#a)" stroke="#a80036"/><path d="m221 116v10h10z" fill="#fbfb77" stroke="#a80036"/><text font-family="sans-serif" font-size="13" lengthAdjust="spacingAndGlyphs" textLength="59" x="157" y="134.4951">注釈2です</text><path d="m296 19v9l-35.355 4 35.355 4v9.3516a0 0 0 0 0 0 0h80a0 0 0 0 0 0 0v-16.3516l-10-10h-70a0 0 0 0 0 0 0" fill="#fbfb77" filter="url(#a)" stroke="#a80036"/><path d="m366 19v10h10z" fill="#fbfb77" stroke="#a80036"/><text font-family="sans-serif" font-size="13" lengthAdjust="spacingAndGlyphs" textLength="59" x="302" y="37.4951">注釈3です</text><path d="m158.629 56.4832c8.506 18.7914 20.092 44.3882 26.848 59.3144" fill="none" stroke="#a80036" stroke-dasharray="7 7"/><path d="m224.124 56.4832c-8.704 18.7914-20.559 44.3882-27.472 59.3144" fill="none" stroke="#a80036" stroke-dasharray="7 7"/></svg>