<svg contentScriptType="application/ecmascript" contentStyleType="text/css" height="94" preserveAspectRatio="none" viewBox="0 0 386 94" width="386" xmlns="http://www.w3.org/2000/svg" xmlns:xlink="http://www.w3.org/1999/xlink" zoomAndPan="magnify"><filter id="a" height="300%" width="300%" x="-1" y="-1"><feGaussianBlur result="blurOut" stdDeviation="2"/><feColorMatrix in="blurOut" result="blurOut2" type="matrix" values="0 0 0 0 0 0 0 0 0 0 0 0 0 0 0 0 0 0 .4 0"/><feOffset dx="4" dy="4" in="blurOut2" result="blurOut3"/><feBlend in="SourceGraphic" in2="blurOut3" mode="normal"/></filter><path d="m166 8h61v75.6719h-61z" fill="#fefece" filter="url(#a)" stroke="#a80036" stroke-width="1.5"/><ellipse cx="184.6" cy="24" fill="#add1b2" rx="11" ry="11" stroke="#a80036"/><path d="m187.3031 29.4375q-.9218.9219-3.1875.9219-1.2656 0-2.1875-.9219-1.6562-1.6562-1.6562-5.1875 0-4.1094 1.7812-5.9062.9375-.9219 2.125-.9219 2.2657 0 3 .7187 1.3907 1.4063 1.3282 3.7969h-2.4688q-.0625-2.125-.7969-2.8594-.3906-.4062-1.0625-.4062 0 0-.0625.4687-1.3281 1.3282-1.3281 4.9844 0 3.1875 1.1406 4.3125.5313.5313.5313.5313.25 0 .7812-.5313.6719-.6562.7344-3.0469h2.5938q-.2032 2.9844-1.2657 4.0469z"/><text font-family="sans-serif" font-size="12" lengthAdjust="spacingAndGlyphs" textLength="21" x="199.4" y="28.9102">Foo</text><path d="m167 40h59" stroke="#a80036" stroke-width="1.5"/><text font-family="sans-serif" font-size="11" lengthAdjust="spacingAndGlyphs" textLength="26" x="172" y="55.4189">field1</text><path d="m167 61.8359h59" stroke="#a80036" stroke-width="1.5"/><text font-family="sans-serif" font-size="11" lengthAdjust="spacingAndGlyphs" textLength="49" x="172" y="77.2549">method1()</text><path d="m6 28v26.3516a0 0 0 0 0 0 0h125a0 0 0 0 0 0 0v-8.3516l39 4.918-39-12.918-10-10h-115a0 0 0 0 0 0 0" fill="#fbfb77" filter="url(#a)" stroke="#a80036"/><path d="m121 28v10h10z" fill="#fbfb77" stroke="#a80036"/><text font-family="sans-serif" font-size="13" lengthAdjust="spacingAndGlyphs" textLength="104" x="12" y="46.4951">フィールドの注釈</text><path d="m262.5 28v9.1758l-41.5 35.5781 41.5-27.5781v9.1758a0 0 0 0 0 0 0h112a0 0 0 0 0 0 0v-16.3516l-10-10h-102a0 0 0 0 0 0 0" fill="#fbfb77" filter="url(#a)" stroke="#a80036"/><path d="m364.5 28v10h10z" fill="#fbfb77" stroke="#a80036"/><text font-family="sans-serif" font-size="13" lengthAdjust="spacingAndGlyphs" textLength="91" x="268.5" y="46.4951">メソッドの注釈</text></svg>