<svg contentScriptType="application/ecmascript" contentStyleType="text/css" height="75" preserveAspectRatio="none" viewBox="0 0 273 75" width="273" xmlns="http://www.w3.org/2000/svg" xmlns:xlink="http://www.w3.org/1999/xlink" zoomAndPan="magnify"><filter id="a" height="300%" width="300%" x="-1" y="-1"><feGaussianBlur result="blurOut" stdDeviation="2"/><feColorMatrix in="blurOut" result="blurOut2" type="matrix" values="0 0 0 0 0 0 0 0 0 0 0 0 0 0 0 0 0 0 .4 0"/><feOffset dx="4" dy="4" in="blurOut2" result="blurOut3"/><feBlend in="SourceGraphic" in2="blurOut3" mode="normal"/></filter><path d="m6 12h129v48h-129z" fill="#fefece" filter="url(#a)" stroke="#a80036" stroke-width="1.5"/><ellipse cx="21" cy="28" fill="#f00" rx="11" ry="11" stroke="#a80036"/><path d="m20.3281 33.1094q.9219 0 1.8594-.9375.9844-1 .9844-4.25 0-3.3125-1.0625-4.375-.8594-.875-2.0469-.875zm3.9844-10.5q1.5313 1.5312 1.5313 5.3125 0 3.7187-1.4063 5.1094-1.3281 1.3281-4.375 1.3281h-2.2656v-12.9375h2.2656q3.0469 0 4.25 1.1875z"/><text font-family="sans-serif" font-size="12" lengthAdjust="spacingAndGlyphs" textLength="97" x="35" y="32.9102">DeprecatedClass</text><g stroke="#a80036"><path d="m7 44h127" stroke-width="1.5"/><path d="m7 52h127" stroke-width="1.5"/><path d="m170.5 8h92v56.1875h-92z" fill="#fefece" filter="url(#a)" stroke-width="1.5"/><ellipse cx="185.5" cy="28.0938" fill="#0f0" rx="11" ry="11"/></g><path d="m183.3594 22.0156 2.2656 9.8282 1.3906-9.8282h2.5157l-3.1094 12.9375h-2.4688l-3.125-12.9375z"/><text font-family="sans-serif" font-size="12" font-style="italic" lengthAdjust="spacingAndGlyphs" textLength="40" x="209.5" y="25.457">«View»</text><text font-family="sans-serif" font-size="12" lengthAdjust="spacingAndGlyphs" textLength="60" x="199.5" y="40.5508">PlayerView</text><path d="m171.5 48.1875h90" stroke="#a80036" stroke-width="1.5"/><path d="m171.5 56.1875h90" stroke="#a80036" stroke-width="1.5"/></svg>