<svg contentScriptType="application/ecmascript" contentStyleType="text/css" height="316" preserveAspectRatio="none" viewBox="0 0 317 316" width="317" xmlns="http://www.w3.org/2000/svg" xmlns:xlink="http://www.w3.org/1999/xlink" zoomAndPan="magnify"><filter id="a" height="300%" width="300%" x="-1" y="-1"><feGaussianBlur result="blurOut" stdDeviation="2"/><feColorMatrix in="blurOut" result="blurOut2" type="matrix" values="0 0 0 0 0 0 0 0 0 0 0 0 0 0 0 0 0 0 .4 0"/><feOffset dx="4" dy="4" in="blurOut2" result="blurOut3"/><feBlend in="SourceGraphic" in2="blurOut3" mode="normal"/></filter><path d="m30 32h39l7 23.6094h87v92.3906h-133z" fill="#fff" filter="url(#a)" stroke="#000" stroke-width="1.5"/><path d="m30 55.6094h46" stroke="#000" stroke-width="1.5"/><text font-family="sans-serif" font-size="14" font-weight="bold" lengthAdjust="spacingAndGlyphs" textLength="33" x="34" y="48.5332">main</text><path d="m30 188h57l7 23.6094h201v92.3906h-265z" fill="#fff" filter="url(#a)" stroke="#000" stroke-width="1.5"/><path d="m30 211.6094h64" stroke="#000" stroke-width="1.5"/><text font-family="sans-serif" font-size="14" font-weight="bold" lengthAdjust="spacingAndGlyphs" textLength="51" x="34" y="204.5332">feature</text><path d="m73.5 76h65v48h-65z" fill="#fefece" filter="url(#a)" stroke="#a80036" stroke-width="1.5"/><ellipse cx="88.5" cy="92" fill="#add1b2" rx="11" ry="11" stroke="#a80036"/><path d="m91.2031 97.4375q-.9218.9219-3.1875.9219-1.2656 0-2.1875-.9219-1.6562-1.6562-1.6562-5.1875 0-4.1094 1.7812-5.9062.9375-.9219 2.125-.9219 2.2657 0 3 .7187 1.3907 1.4063 1.3282 3.7969h-2.4688q-.0625-2.125-.7969-2.8594-.3906-.4062-1.0625-.4062 0 0-.0625.4687-1.3281 1.3282-1.3281 4.9844 0 3.1875 1.1406 4.3125.5313.5313.5313.5313.25 0 .7812-.5313.6719-.6562.7344-3.0469h2.5938q-.2032 2.9844-1.2657 4.0469z"/><text font-family="sans-serif" font-size="12" lengthAdjust="spacingAndGlyphs" textLength="33" x="102.5" y="96.9102">Main1</text><g stroke="#a80036"><path d="m74.5 108h63" stroke-width="1.5"/><path d="m74.5 116h63" stroke-width="1.5"/><path d="m189.5 232h81v48h-81z" fill="#fefece" filter="url(#a)" stroke-width="1.5"/><ellipse cx="204.5" cy="248" fill="#add1b2" rx="11" ry="11"/></g><path d="m207.2031 253.4375q-.9218.9219-3.1875.9219-1.2656 0-2.1875-.9219-1.6562-1.6562-1.6562-5.1875 0-4.1094 1.7812-5.9062.9375-.9219 2.125-.9219 2.2657 0 3 .7187 1.3907 1.4063 1.3282 3.7969h-2.4688q-.0625-2.125-.7969-2.8594-.3906-.4062-1.0625-.4062 0 0-.0625.4687-1.3281 1.3282-1.3281 4.9844 0 3.1875 1.1406 4.3125.5313.5313.5313.5313.25 0 .7812-.5313.6719-.6562.7344-3.0469h2.5938q-.2032 2.9844-1.2657 4.0469z"/><text font-family="sans-serif" font-size="12" lengthAdjust="spacingAndGlyphs" textLength="49" x="218.5" y="252.9102">Feature1</text><path d="m190.5 264h79" stroke="#a80036" stroke-width="1.5"/><path d="m190.5 272h79" stroke="#a80036" stroke-width="1.5"/><path d="m73.5 232h81v48h-81z" fill="#fefece" filter="url(#a)" stroke="#a80036" stroke-width="1.5"/><ellipse cx="88.5" cy="248" fill="#add1b2" rx="11" ry="11" stroke="#a80036"/><path d="m91.2031 253.4375q-.9218.9219-3.1875.9219-1.2656 0-2.1875-.9219-1.6562-1.6562-1.6562-5.1875 0-4.1094 1.7812-5.9062.9375-.9219 2.125-.9219 2.2657 0 3 .7187 1.3907 1.4063 1.3282 3.7969h-2.4688q-.0625-2.125-.7969-2.8594-.3906-.4062-1.0625-.4062 0 0-.0625.4687-1.3281 1.3282-1.3281 4.9844 0 3.1875 1.1406 4.3125.5313.5313.5313.5313.25 0 .7812-.5313.6719-.6562.7344-3.0469h2.5938q-.2032 2.9844-1.2657 4.0469z"/><text font-family="sans-serif" font-size="12" lengthAdjust="spacingAndGlyphs" textLength="49" x="102.5" y="252.9102">Feature2</text><path d="m74.5 264h79" stroke="#a80036" stroke-width="1.5"/><path d="m74.5 272h79" stroke="#a80036" stroke-width="1.5"/><path d="m38 148.1396v.8149 1.6397 27.434 6.9863 1.7405.8688" fill="none" stroke="#a80036"/><path d="m38 187.6238 4-9-4 4-4-4z" fill="#a80036" stroke="#a80036"/></svg>