<svg contentScriptType="application/ecmascript" contentStyleType="text/css" height="153" preserveAspectRatio="none" viewBox="0 0 394 153" width="394" xmlns="http://www.w3.org/2000/svg" xmlns:xlink="http://www.w3.org/1999/xlink" zoomAndPan="magnify"><filter id="a" height="300%" width="300%" x="-1" y="-1"><feGaussianBlur result="blurOut" stdDeviation="2"/><feColorMatrix in="blurOut" result="blurOut2" type="matrix" values="0 0 0 0 0 0 0 0 0 0 0 0 0 0 0 0 0 0 .4 0"/><feOffset dx="4" dy="4" in="blurOut2" result="blurOut3"/><feBlend in="SourceGraphic" in2="blurOut3" mode="normal"/></filter><path d="m22 39h104v100h-104z" fill="#fff" filter="url(#a)" stroke="#000" stroke-width="1.5"/><path d="m72 40v9.6094l-10 10h-40" fill="none" stroke="#000" stroke-width="1.5"/><text font-family="sans-serif" font-size="14" font-weight="bold" lengthAdjust="spacingAndGlyphs" textLength="40" x="25" y="54.5332">frame</text><path d="m153 46c0-3 2-5 5-5s5 2 5 5c0-3 2-5 5-5s5 2 5 5c0-3 2-5 5-5s5 2 5 5c0-3 2-5 5-5s5 2 5 5c0-3 2-5 5-5s5 2 5 5c0-3 2-5 5-5s5 2 5 5c0-3 2-5 5-5s5 2 5 5c0-3 2-5 5-5s5 2 5 5c0-3 2-5 5-5s5 2 5 5c0-3 2-5 5-5s5 2 5 5c3 0 5 2 5 5s-2 5-5 5c3 0 5 2 5 5s-2 5-5 5c3 0 5 2 5 5s-2 5-5 5c3 0 5 2 5 5s-2 5-5 5c3 0 5 2 5 5s-2 5-5 5c3 0 5 2 5 5s-2 5-5 5c3 0 5 2 5 5s-2 5-5 5c3 0 5 2 5 5s-2 5-5 5c3 0 5 2 5 5s-2 5-5 5c0 3-3 5-5 5-3 0-5-2-5-5 0 3-3 5-5 5-3 0-5-2-5-5 0 3-3 5-5 5-3 0-5-2-5-5 0 3-3 5-5 5-3 0-5-2-5-5 0 3-3 5-5 5-3 0-5-2-5-5 0 3-3 5-5 5-3 0-5-2-5-5 0 3-3 5-5 5-3 0-5-2-5-5 0 3-3 5-5 5-3 0-5-2-5-5 0 3-3 5-5 5-3 0-5-2-5-5 0 3-3 5-5 5-3 0-5-2-5-5-3 0-5-2-5-5s2-5 5-5c-3 0-5-2-5-5s2-5 5-5c-3 0-5-2-5-5s2-5 5-5c-3 0-5-2-5-5s2-5 5-5c-3 0-5-2-5-5s2-5 5-5c-3 0-5-2-5-5s2-5 5-5c-3 0-5-2-5-5s2-5 5-5c-3 0-5-2-5-5s2-5 5-5c-3 0-5-2-5-5s2-5 5-5" fill="#fff" filter="url(#a)" stroke="#000" stroke-width="1.5"/><text font-family="sans-serif" font-size="14" font-weight="bold" lengthAdjust="spacingAndGlyphs" textLength="39" x="182.5" y="66.5332">cloud</text><path d="m278 34c0-10 52-10 52-10s52 0 52 10v95c0 10-52 10-52 10s-52 0-52-10z" fill="#fff" filter="url(#a)" stroke="#000" stroke-width="1.5"/><path d="m278 34c0 10 52 10 52 10s52 0 52-10" fill="none" stroke="#000" stroke-width="1.5"/><text font-family="sans-serif" font-size="14" font-weight="bold" lengthAdjust="spacingAndGlyphs" textLength="64" x="298" y="60.5332">database</text><path d="m38 75h72v48h-72z" fill="#fefece" filter="url(#a)" stroke="#a80036" stroke-width="1.5"/><ellipse cx="53" cy="91" fill="#add1b2" rx="11" ry="11" stroke="#a80036"/><path d="m55.7031 96.4375q-.9218.9219-3.1875.9219-1.2656 0-2.1875-.9219-1.6562-1.6562-1.6562-5.1875 0-4.1094 1.7812-5.9062.9375-.9219 2.125-.9219 2.2657 0 3 .7187 1.3907 1.4063 1.3282 3.7969h-2.4688q-.0625-2.125-.7969-2.8594-.3906-.4062-1.0625-.4062 0 0-.0625.4687-1.3281 1.3282-1.3281 4.9844 0 3.1875 1.1406 4.3125.5313.5313.5313.5313.25 0 .7812-.5313.6719-.6562.7344-3.0469h2.5938q-.2032 2.9844-1.2657 4.0469z"/><text font-family="sans-serif" font-size="12" lengthAdjust="spacingAndGlyphs" textLength="40" x="67" y="95.9102">Class4</text><g stroke="#a80036"><path d="m39 107h70" stroke-width="1.5"/><path d="m39 115h70" stroke-width="1.5"/><path d="m166 75h72v48h-72z" fill="#fefece" filter="url(#a)" stroke-width="1.5"/><ellipse cx="181" cy="91" fill="#add1b2" rx="11" ry="11"/></g><path d="m183.7031 96.4375q-.9218.9219-3.1875.9219-1.2656 0-2.1875-.9219-1.6562-1.6562-1.6562-5.1875 0-4.1094 1.7812-5.9062.9375-.9219 2.125-.9219 2.2657 0 3 .7187 1.3907 1.4063 1.3282 3.7969h-2.4688q-.0625-2.125-.7969-2.8594-.3906-.4062-1.0625-.4062 0 0-.0625.4687-1.3281 1.3282-1.3281 4.9844 0 3.1875 1.1406 4.3125.5313.5313.5313.5313.25 0 .7812-.5313.6719-.6562.7344-3.0469h2.5938q-.2032 2.9844-1.2657 4.0469z"/><text font-family="sans-serif" font-size="12" lengthAdjust="spacingAndGlyphs" textLength="40" x="195" y="95.9102">Class5</text><path d="m167 107h70" stroke="#a80036" stroke-width="1.5"/><path d="m167 115h70" stroke="#a80036" stroke-width="1.5"/><path d="m294 75h72v48h-72z" fill="#fefece" filter="url(#a)" stroke="#a80036" stroke-width="1.5"/><ellipse cx="309" cy="91" fill="#add1b2" rx="11" ry="11" stroke="#a80036"/><path d="m311.7031 96.4375q-.9218.9219-3.1875.9219-1.2656 0-2.1875-.9219-1.6562-1.6562-1.6562-5.1875 0-4.1094 1.7812-5.9062.9375-.9219 2.125-.9219 2.2657 0 3 .7187 1.3907 1.4063 1.3282 3.7969h-2.4688q-.0625-2.125-.7969-2.8594-.3906-.4062-1.0625-.4062 0 0-.0625.4687-1.3281 1.3282-1.3281 4.9844 0 3.1875 1.1406 4.3125.5313.5313.5313.5313.25 0 .7812-.5313.6719-.6562.7344-3.0469h2.5938q-.2032 2.9844-1.2657 4.0469z"/><text font-family="sans-serif" font-size="12" lengthAdjust="spacingAndGlyphs" textLength="40" x="323" y="95.9102">Class6</text><path d="m295 107h70" stroke="#a80036" stroke-width="1.5"/><path d="m295 115h70" stroke="#a80036" stroke-width="1.5"/></svg>