<svg contentScriptType="application/ecmascript" contentStyleType="text/css" height="259" preserveAspectRatio="none" viewBox="0 0 393 259" width="393" xmlns="http://www.w3.org/2000/svg" xmlns:xlink="http://www.w3.org/1999/xlink" zoomAndPan="magnify"><filter id="a" height="300%" width="300%" x="-1" y="-1"><feGaussianBlur result="blurOut" stdDeviation="2"/><feColorMatrix in="blurOut" result="blurOut2" type="matrix" values="0 0 0 0 0 0 0 0 0 0 0 0 0 0 0 0 0 0 .4 0"/><feOffset dx="4" dy="4" in="blurOut2" result="blurOut3"/><feBlend in="SourceGraphic" in2="blurOut3" mode="normal"/></filter><path d="m22 24h104v100h-104z" fill="#fff" filter="url(#a)" stroke="#000" stroke-width="1.5"/><text font-family="sans-serif" font-size="14" font-weight="bold" lengthAdjust="spacingAndGlyphs" textLength="67" x="40.5" y="40.5332">package1</text><path d="m150 24h104v100h-104z" fill="#fff" filter="url(#a)" stroke="#000" stroke-width="1.5"/><text font-family="sans-serif" font-size="14" font-weight="bold" lengthAdjust="spacingAndGlyphs" textLength="67" x="168.5" y="40.5332">package2</text><path d="m150 148h104v100h-104z" fill="#fff" filter="url(#a)" stroke="#000" stroke-width="1.5"/><text font-family="sans-serif" font-size="14" font-weight="bold" lengthAdjust="spacingAndGlyphs" textLength="67" x="168.5" y="164.5332">package3</text><path d="m278 148h104v100h-104z" fill="#fff" filter="url(#a)" stroke="#000" stroke-width="1.5"/><text font-family="sans-serif" font-size="14" font-weight="bold" lengthAdjust="spacingAndGlyphs" textLength="67" x="296.5" y="164.5332">package4</text><path d="m38 60h72v48h-72z" fill="#fefece" filter="url(#a)" stroke="#a80036" stroke-width="1.5"/><ellipse cx="53" cy="76" fill="#add1b2" rx="11" ry="11" stroke="#a80036"/><path d="m55.7031 81.4375q-.9218.9219-3.1875.9219-1.2656 0-2.1875-.9219-1.6562-1.6562-1.6562-5.1875 0-4.1094 1.7812-5.9062.9375-.9219 2.125-.9219 2.2657 0 3 .7187 1.3907 1.4063 1.3282 3.7969h-2.4688q-.0625-2.125-.7969-2.8594-.3906-.4062-1.0625-.4062 0 0-.0625.4687-1.3281 1.3282-1.3281 4.9844 0 3.1875 1.1406 4.3125.5313.5313.5313.5313.25 0 .7812-.5313.6719-.6562.7344-3.0469h2.5938q-.2032 2.9844-1.2657 4.0469z"/><text font-family="sans-serif" font-size="12" lengthAdjust="spacingAndGlyphs" textLength="40" x="67" y="80.9102">Class1</text><path d="m39 92h70" stroke="#a80036" stroke-width="1.5"/><path d="m39 100h70" stroke="#a80036" stroke-width="1.5"/><path d="m166 60h72v48h-72z" fill="#fefece" filter="url(#a)" stroke="#a80036" stroke-width="1.5"/><ellipse cx="181" cy="76" fill="#add1b2" rx="11" ry="11" stroke="#a80036"/><path d="m183.7031 81.4375q-.9218.9219-3.1875.9219-1.2656 0-2.1875-.9219-1.6562-1.6562-1.6562-5.1875 0-4.1094 1.7812-5.9062.9375-.9219 2.125-.9219 2.2657 0 3 .7187 1.3907 1.4063 1.3282 3.7969h-2.4688q-.0625-2.125-.7969-2.8594-.3906-.4062-1.0625-.4062 0 0-.0625.4687-1.3281 1.3282-1.3281 4.9844 0 3.1875 1.1406 4.3125.5313.5313.5313.5313.25 0 .7812-.5313.6719-.6562.7344-3.0469h2.5938q-.2032 2.9844-1.2657 4.0469z"/><text font-family="sans-serif" font-size="12" lengthAdjust="spacingAndGlyphs" textLength="40" x="195" y="80.9102">Class2</text><path d="m167 92h70" stroke="#a80036" stroke-width="1.5"/><path d="m167 100h70" stroke="#a80036" stroke-width="1.5"/><path d="m166 184h72v48h-72z" fill="#fefece" filter="url(#a)" stroke="#a80036" stroke-width="1.5"/><ellipse cx="181" cy="200" fill="#add1b2" rx="11" ry="11" stroke="#a80036"/><path d="m183.7031 205.4375q-.9218.9219-3.1875.9219-1.2656 0-2.1875-.9219-1.6562-1.6562-1.6562-5.1875 0-4.1094 1.7812-5.9062.9375-.9219 2.125-.9219 2.2657 0 3 .7187 1.3907 1.4063 1.3282 3.7969h-2.4688q-.0625-2.125-.7969-2.8594-.3906-.4062-1.0625-.4062 0 0-.0625.4687-1.3281 1.3282-1.3281 4.9844 0 3.1875 1.1406 4.3125.5313.5313.5313.5313.25 0 .7812-.5313.6719-.6562.7344-3.0469h2.5938q-.2032 2.9844-1.2657 4.0469z"/><text font-family="sans-serif" font-size="12" lengthAdjust="spacingAndGlyphs" textLength="40" x="195" y="204.9102">Class3</text><path d="m167 216h70" stroke="#a80036" stroke-width="1.5"/><path d="m167 224h70" stroke="#a80036" stroke-width="1.5"/><path d="m294 184h72v48h-72z" fill="#fefece" filter="url(#a)" stroke="#a80036" stroke-width="1.5"/><ellipse cx="309" cy="200" fill="#add1b2" rx="11" ry="11" stroke="#a80036"/><path d="m311.7031 205.4375q-.9218.9219-3.1875.9219-1.2656 0-2.1875-.9219-1.6562-1.6562-1.6562-5.1875 0-4.1094 1.7812-5.9062.9375-.9219 2.125-.9219 2.2657 0 3 .7187 1.3907 1.4063 1.3282 3.7969h-2.4688q-.0625-2.125-.7969-2.8594-.3906-.4062-1.0625-.4062 0 0-.0625.4687-1.3281 1.3282-1.3281 4.9844 0 3.1875 1.1406 4.3125.5313.5313.5313.5313.25 0 .7812-.5313.6719-.6562.7344-3.0469h2.5938q-.2032 2.9844-1.2657 4.0469z"/><text font-family="sans-serif" font-size="12" lengthAdjust="spacingAndGlyphs" textLength="40" x="323" y="204.9102">Class4</text><g stroke="#a80036"><path d="m295 216h70" stroke-width="1.5"/><path d="m295 224h70" stroke-width="1.5"/><path d="m110.5 84h50.207" fill="none"/><path d="m165.9 84-9-4 4 4-4 4z" fill="#a80036"/><path d="m202 108.234v70.3536" fill="none"/><path d="m202 183.8521 4-9-4 4-4-4z" fill="#a80036"/><path d="m238.5 208h50.207" fill="none" stroke-dasharray="7 7"/><path d="m293.9 208-9-4 4 4-4 4z" fill="#a80036"/></g></svg>