<svg contentScriptType="application/ecmascript" contentStyleType="text/css" height="206" preserveAspectRatio="none" viewBox="0 0 311 206" width="311" xmlns="http://www.w3.org/2000/svg" xmlns:xlink="http://www.w3.org/1999/xlink" zoomAndPan="magnify"><filter id="a" height="300%" width="300%" x="-1" y="-1"><feGaussianBlur result="blurOut" stdDeviation="2"/><feColorMatrix in="blurOut" result="blurOut2" type="matrix" values="0 0 0 0 0 0 0 0 0 0 0 0 0 0 0 0 0 0 .4 0"/><feOffset dx="4" dy="4" in="blurOut2" result="blurOut3"/><feBlend in="SourceGraphic" in2="blurOut3" mode="normal"/></filter><path d="m23 8h116v56.1875h-116z" fill="#fefece" filter="url(#a)" stroke="#a80036" stroke-width="1.5"/><ellipse cx="38" cy="28.0938" fill="#b4a7e5" rx="11" ry="11" stroke="#a80036"/><path d="m38.9844 33h.7344v1.4531h-4v-1.4531h.7343v-10.0312h-.7343v-1.4532h4v1.4532h-.7344z"/><text font-family="sans-serif" font-size="12" font-style="italic" lengthAdjust="spacingAndGlyphs" textLength="61" x="63.5" y="25.457">«interface»</text><text font-family="sans-serif" font-size="12" font-style="italic" lengthAdjust="spacingAndGlyphs" textLength="84" x="52" y="40.5508">インタフェース</text><g stroke="#a80036"><path d="m24 48.1875h114" stroke-width="1.5"/><path d="m24 56.1875h114" stroke-width="1.5"/><path d="m174 8h92v56.1875h-92z" fill="#fefece" filter="url(#a)" stroke-width="1.5"/><ellipse cx="189" cy="28.0938" fill="#a9dcdf" rx="11" ry="11"/></g><path d="m186.8594 33.9531h-2.5938l3.3282-12.9375h2.3281l3.3125 12.9375h-2.5938l-.9218-3.7812h-1.9219zm1.4531-9.4218-.1875 4.375h1.25z"/><text font-family="sans-serif" font-size="12" font-style="italic" lengthAdjust="spacingAndGlyphs" textLength="58" x="204" y="25.457">«abstract»</text><text font-family="sans-serif" font-size="12" font-style="italic" lengthAdjust="spacingAndGlyphs" textLength="60" x="203" y="40.5508">抽象クラス</text><path d="m175 48.1875h90" stroke="#a80036" stroke-width="1.5"/><path d="m175 56.1875h90" stroke="#a80036" stroke-width="1.5"/><path d="m6 131.5h150v56.1875h-150z" fill="#fefece" filter="url(#a)" stroke="#a80036" stroke-width="1.5"/><ellipse cx="21" cy="151.5938" fill="#add1b2" rx="11" ry="11" stroke="#a80036"/><path d="m23.7031 157.0313q-.9218.9218-3.1875.9218-1.2656 0-2.1875-.9218-1.6562-1.6563-1.6562-5.1875 0-4.1094 1.7812-5.9063.9375-.9219 2.125-.9219 2.2657 0 3 .7188 1.3907 1.4062 1.3282 3.7969h-2.4688q-.0625-2.125-.7969-2.8594-.3906-.4063-1.0625-.4063 0 0-.0625.4688-1.3281 1.3281-1.3281 4.9844 0 3.1875 1.1406 4.3125.5313.5312.5313.5312.25 0 .7812-.5312.6719-.6563.7344-3.0469h2.5938q-.2032 2.9844-1.2657 4.0469z"/><text font-family="sans-serif" font-size="12" font-style="italic" lengthAdjust="spacingAndGlyphs" textLength="122" x="33" y="148.957">«独自ステレオタイプ»</text><text font-family="sans-serif" font-size="12" lengthAdjust="spacingAndGlyphs" textLength="48" x="70" y="164.0508">ほげほげ</text><path d="m7 171.6875h148" stroke="#a80036" stroke-width="1.5"/><path d="m7 179.6875h148" stroke="#a80036" stroke-width="1.5"/><path d="m191.5 124h109v71.2813h-109z" fill="#fefece" filter="url(#a)" stroke="#a80036" stroke-width="1.5"/><ellipse cx="206.5" cy="151.6406" fill="#add1b2" rx="11" ry="11" stroke="#a80036"/><path d="m209.2031 157.0781q-.9218.9219-3.1875.9219-1.2656 0-2.1875-.9219-1.6562-1.6562-1.6562-5.1875 0-4.1093 1.7812-5.9062.9375-.9219 2.125-.9219 2.2657 0 3 .7188 1.3907 1.4062 1.3282 3.7968h-2.4688q-.0625-2.125-.7969-2.8593-.3906-.4063-1.0625-.4063 0 0-.0625.4688-1.3281 1.3281-1.3281 4.9843 0 3.1875 1.1406 4.3125.5313.5313.5313.5313.25 0 .7812-.5313.6719-.6562.7344-3.0468h2.5938q-.2032 2.9843-1.2657 4.0468z"/><text font-family="sans-serif" font-size="12" font-style="italic" lengthAdjust="spacingAndGlyphs" textLength="81" x="218.5" y="141.457">«Serializable»</text><text font-family="sans-serif" font-size="12" font-style="italic" lengthAdjust="spacingAndGlyphs" textLength="47" x="235.5" y="156.5508">«Model»</text><text font-family="sans-serif" font-size="12" lengthAdjust="spacingAndGlyphs" textLength="48" x="235" y="171.6445">へむへむ</text><path d="m192.5 179.2813h107" stroke="#a80036" stroke-width="1.5"/><path d="m192.5 187.2813h107" stroke="#a80036" stroke-width="1.5"/></svg>