<svg contentScriptType="application/ecmascript" contentStyleType="text/css" height="177" preserveAspectRatio="none" viewBox="0 0 152 177" width="152" xmlns="http://www.w3.org/2000/svg" xmlns:xlink="http://www.w3.org/1999/xlink" zoomAndPan="magnify"><filter id="a" height="300%" width="300%" x="-1" y="-1"><feGaussianBlur result="blurOut" stdDeviation="2"/><feColorMatrix in="blurOut" result="blurOut2" type="matrix" values="0 0 0 0 0 0 0 0 0 0 0 0 0 0 0 0 0 0 .4 0"/><feOffset dx="4" dy="4" in="blurOut2" result="blurOut3"/><feBlend in="SourceGraphic" in2="blurOut3" mode="normal"/></filter><path d="m6 8h135v158.6875h-135z" fill="#fefece" filter="url(#a)" stroke="#a80036" stroke-width="1.5"/><ellipse cx="46.2" cy="24" fill="#add1b2" rx="11" ry="11" stroke="#a80036"/><path d="m48.9031 29.4375q-.9218.9219-3.1875.9219-1.2656 0-2.1875-.9219-1.6562-1.6562-1.6562-5.1875 0-4.1094 1.7812-5.9062.9375-.9219 2.125-.9219 2.2657 0 3 .7187 1.3907 1.4063 1.3282 3.7969h-2.4688q-.0625-2.125-.7969-2.8594-.3906-.4062-1.0625-.4062 0 0-.0625.4687-1.3281 1.3282-1.3281 4.9844 0 3.1875 1.1406 4.3125.5313.5313.5313.5313.25 0 .7812-.5313.6719-.6562.7344-3.0469h2.5938q-.2032 2.9844-1.2657 4.0469z"/><text font-family="sans-serif" font-size="12" lengthAdjust="spacingAndGlyphs" textLength="47" x="65.8" y="28.9102">MyClass</text><path d="m7 40h133" stroke="#a80036" stroke-width="1.5"/><g font-family="sans-serif" font-size="11"><text lengthAdjust="spacingAndGlyphs" textLength="56" x="12" y="55.4189">+publicField</text><text lengthAdjust="spacingAndGlyphs" textLength="74" x="12" y="69.2549">#protectedField</text><text lengthAdjust="spacingAndGlyphs" textLength="59" x="12" y="83.0908">-privateField</text><text lengthAdjust="spacingAndGlyphs" textLength="102" x="12" y="96.9268">~packagePrivateField</text></g><path d="m7 103.3438h133" stroke="#a80036" stroke-width="1.5"/><text font-family="sans-serif" font-size="11" lengthAdjust="spacingAndGlyphs" textLength="77" x="12" y="118.7627">+publicMethod()</text><text font-family="sans-serif" font-size="11" lengthAdjust="spacingAndGlyphs" textLength="95" x="12" y="132.5986">#protectedMethod()</text><text font-family="sans-serif" font-size="11" lengthAdjust="spacingAndGlyphs" textLength="80" x="12" y="146.4346">-privateMethod()</text><text font-family="sans-serif" font-size="11" lengthAdjust="spacingAndGlyphs" textLength="123" x="12" y="160.2705">~packagePrivateMethod()</text></svg>