<svg contentScriptType="application/ecmascript" contentStyleType="text/css" height="149" preserveAspectRatio="none" viewBox="0 0 342 149" width="342" xmlns="http://www.w3.org/2000/svg" xmlns:xlink="http://www.w3.org/1999/xlink" zoomAndPan="magnify"><filter id="a" height="300%" width="300%" x="-1" y="-1"><feGaussianBlur result="blurOut" stdDeviation="2"/><feColorMatrix in="blurOut" result="blurOut2" type="matrix" values="0 0 0 0 0 0 0 0 0 0 0 0 0 0 0 0 0 0 .4 0"/><feOffset dx="4" dy="4" in="blurOut2" result="blurOut3"/><feBlend in="SourceGraphic" in2="blurOut3" mode="normal"/></filter><path d="m145 8h54v35.0938h-54z" fill="#fefece" filter="url(#a)" stroke="#a80036" stroke-width="1.5"/><text font-family="sans-serif" font-size="12" lengthAdjust="spacingAndGlyphs" textLength="40" x="152" y="22.457">object1</text><path d="m146 27.0938h52" stroke="#a80036" stroke-width="1.5"/><path d="m6 103h92v35.0938h-92z" fill="#fefece" filter="url(#a)" stroke="#a80036" stroke-width="1.5"/><text font-family="sans-serif" font-size="12" lengthAdjust="spacingAndGlyphs" textLength="78" x="13" y="117.457">Second object</text><path d="m7 122.0938h90" stroke="#a80036" stroke-width="1.5"/><path d="m133 103h78v35.0938h-78z" fill="#fefece" filter="url(#a)" stroke="#a80036" stroke-width="1.5"/><text font-family="sans-serif" font-size="12" lengthAdjust="spacingAndGlyphs" textLength="64" x="140" y="117.457">Third object</text><path d="m134 122.0938h76" stroke="#a80036" stroke-width="1.5"/><path d="m246.5 103h85v35.0938h-85z" fill="#fefece" filter="url(#a)" stroke="#a80036" stroke-width="1.5"/><text font-family="sans-serif" font-size="12" lengthAdjust="spacingAndGlyphs" textLength="71" x="253.5" y="117.457">Fourth object</text><g stroke="#a80036"><path d="m247.5 122.0938h83" stroke-width="1.5"/><path d="m150.546 43.1265c-21.707 16.8233-55.088 42.6935-76.8735 59.5773" fill="none"/><path d="m172 43.1265v59.5773" fill="none"/><path d="m192.917 43.1265c21.165 16.8233 53.711 42.6935 74.952 59.5773" fill="none"/><path d="m98.4063 120.5h34.4967" fill="none" stroke-dasharray="7 7"/><path d="m211.305 120.5h34.902" fill="none" stroke-dasharray="7 7"/></g></svg>