<svg contentScriptType="application/ecmascript" contentStyleType="text/css" height="339" preserveAspectRatio="none" viewBox="0 0 229 339" width="229" xmlns="http://www.w3.org/2000/svg" xmlns:xlink="http://www.w3.org/1999/xlink" zoomAndPan="magnify"><filter id="a" height="300%" width="300%" x="-1" y="-1"><feGaussianBlur result="blurOut" stdDeviation="2"/><feColorMatrix in="blurOut" result="blurOut2" type="matrix" values="0 0 0 0 0 0 0 0 0 0 0 0 0 0 0 0 0 0 .4 0"/><feOffset dx="4" dy="4" in="blurOut2" result="blurOut3"/><feBlend in="SourceGraphic" in2="blurOut3" mode="normal"/></filter><path d="m124 8h54v35.0938h-54z" fill="#fefece" filter="url(#a)" stroke="#a80036" stroke-width="1.5"/><text font-family="sans-serif" font-size="12" lengthAdjust="spacingAndGlyphs" textLength="40" x="131" y="22.457">object1</text><path d="m125 27.0938h52" stroke="#a80036" stroke-width="1.5"/><path d="m6 103h92v35.0938h-92z" fill="#fefece" filter="url(#a)" stroke="#a80036" stroke-width="1.5"/><text font-family="sans-serif" font-size="12" lengthAdjust="spacingAndGlyphs" textLength="78" x="13" y="117.457">Second object</text><path d="m7 122.0938h90" stroke="#a80036" stroke-width="1.5"/><path d="m91 198h78v35.0938h-78z" fill="#fefece" filter="url(#a)" stroke="#a80036" stroke-width="1.5"/><text font-family="sans-serif" font-size="12" lengthAdjust="spacingAndGlyphs" textLength="64" x="98" y="212.457">Third object</text><path d="m92 217.0938h76" stroke="#a80036" stroke-width="1.5"/><path d="m133.5 293h85v35.0938h-85z" fill="#fefece" filter="url(#a)" stroke="#a80036" stroke-width="1.5"/><text font-family="sans-serif" font-size="12" lengthAdjust="spacingAndGlyphs" textLength="71" x="140.5" y="307.457">Fourth object</text><g stroke="#a80036"><path d="m134.5 312.0938h83" stroke-width="1.5"/><path d="m133.301 43.127c-17.909 16.823-45.4481 42.693-63.4212 59.577" fill="none"/><path d="m149.136 43.184c-3.985 35.676-13.295 119.027-17.277 154.67" fill="none"/><path d="m156.757 43.221c11.404 34.958 35.345 118.452 30.243 189.779-1.484 20.7447-5.203 44.4132-7.907 59.8601" fill="none"/><path d="m65.9448 138.127c14.1099 16.823 35.8075 42.693 49.9682 59.577" fill="none" stroke-dasharray="7 7"/><path d="m138.224 233.1265c8.321 16.8233 21.117 42.6935 29.468 59.5773" fill="none" stroke-dasharray="7 7"/></g></svg>