<svg height="24" viewBox="0 0 24 24" width="24" xmlns="http://www.w3.org/2000/svg" xmlns:xlink="http://www.w3.org/1999/xlink"><linearGradient id="a" x1="0%" x2="100%" y1="100%" y2="0%"><stop offset="0" stop-color="#bd0816"/><stop offset="1" stop-color="#ff5252"/></linearGradient><g fill="none" fill-rule="evenodd"><path d="m0 0h24v24h-24z" fill="url(#a)"/><path d="m9.199 6.129-.707-.707c.823-.824 2.284-1.422 3.475-1.422 1.178 0 2.631.598 3.456 1.422l-.707.707c-.644-.644-1.826-1.129-2.749-1.129-.919 0-2.135.496-2.768 1.129zm9.713 11.058-.99.497v-3.379l.99.498zm-12.006-3.661c.072-2.316 2.726-4.047 5.051-4.047 2.24 0 4.831 1.671 4.965 4.04v4.991h-10.016zm-1.906 3.671v-2.395l.906-.459v3.347zm6.453-9.702c0-.248.291-.5.5-.5.275 0 .5.224.5.5v1.007c-.166-.015-.332-.023-.496-.023-.167 0-.335.008-.504.023zm8.459 6.692-2.029-1.02c-.295-2.289-2.277-3.953-4.43-4.495v-1.177c0-.827-.673-1.5-1.5-1.5-.708 0-1.5.641-1.5 1.5v1.176c-2.217.548-4.28 2.248-4.518 4.537l-1.935.98v3.604l1.906 1.035v.683h12.016v-.707l1.99-1zm-9.959-.192c-.275 0-.5-.224-.5-.5s.225-.5.5-.5.5.224.5.5-.225.5-.5.5zm0-2c-.827 0-1.5.673-1.5 1.5s.673 1.5 1.5 1.5 1.5-.673 1.5-1.5-.673-1.5-1.5-1.5zm4 2c-.275 0-.5-.224-.5-.5s.225-.5.5-.5.5.224.5.5-.225.5-.5.5zm0-2c-.827 0-1.5.673-1.5 1.5s.673 1.5 1.5 1.5 1.5-.673 1.5-1.5-.673-1.5-1.5-1.5z" fill="#fff"/></g></svg>