<svg height="24" viewBox="0 0 24 24" width="24" xmlns="http://www.w3.org/2000/svg" xmlns:xlink="http://www.w3.org/1999/xlink"><linearGradient id="a" x1="0%" x2="100%" y1="100%" y2="0%"><stop offset="0" stop-color="#b0084d"/><stop offset="1" stop-color="#ff4f8b"/></linearGradient><g fill="none" fill-rule="evenodd"><path d="m0 0h24v24h-24z" fill="url(#a)"/><path d="m13.8198606 14.0060561c-.2699496.2721495-.5987096.4441869-.9448235.5287476l-.0009641-1.481271h1.4712251c-.0848413.3479626-.255488.6803738-.5254375.9525234zm-2.8537526 0c-.2699496-.2721496-.4396322-.6045608-.5254376-.9525234h1.469297l.0009641 1.481271c-.3461139-.0845607-.6758381-.2565981-.9448235-.5287476zm0-2.8770094c.2680213-.2711775.5967814-.442243.9419312-.5277757l.0009641 1.4802991h-1.4673688c.0848413-.3489346.2545239-.6813458.5244735-.9525234zm2.8537526 0c.2689854.2711776.4396321.6035888.5254375.9525234h-1.4721892l-.0009641-1.482243c.3461139.0845608.6768021.2565981.9477158.5297196zm2.766019-.8932336-.666197.701757 1.1829576 1.144h-1.7758826c-.0964105-.6006729-.3663601-1.1780187-.8252744-1.6397009-.4463809-.4509907-1.0248442-.71536453-1.6303025-.80867294l-.0019283-1.81076635 1.2118808 1.17121495.6671611-.70175701-2.373628-2.29188785-2.2357609 2.30257944.6883714.68037383 1.07787-1.10900934.0019283 1.76022429c-.6025661.09428038-1.1791012.35865421-1.6225898.80770098-.44734499.4500187-.72693561 1.0215327-.82623849 1.6397009h-1.70357461l1.06340849-1.1663551-.71054583-.6570468-2.10753486 2.3113271 2.10946307 2.2821683.70668941-.6628786-1.04991101-1.1352523h1.69200534c.09930288.6171963.3788935 1.1887103.82623849 1.6397009.447345.4509907 1.0142391.7328599 1.6274103.832972l.0009641 1.6581682-1.0942599-1.0701308-.6710175.6988411 2.2405814 2.1869159 2.3524177-2.1781682-.6517354-.7153645-1.2118807 1.1206729-.0009641-1.7009346c.6112429-.1001121 1.178137-.3819813 1.625482-.832972.4589143-.4626542.7288639-1.039028.8252744-1.6397009h1.7643133l-1.1694601 1.1138692.6623405.7056448 2.4160487-2.3035514z" fill="#fff"/></g></svg>