<svg height="24" viewBox="0 0 24 24" width="24" xmlns="http://www.w3.org/2000/svg" xmlns:xlink="http://www.w3.org/1999/xlink"><linearGradient id="a" x1="0%" x2="100%" y1="100%" y2="0%"><stop offset="0" stop-color="#4d27a8"/><stop offset="1" stop-color="#a166ff"/></linearGradient><g fill="none" fill-rule="evenodd"><path d="m0 0h24v24h-24z" fill="url(#a)"/><path d="m4.9080749 10.4244015h1.81513405v-1.00006248h-1.81513405zm0 3.5742234h1.81513405v-1.0000625h-1.81513405zm-.9080749-1.7871117h2.72320895v-1.0000625h-2.72320895zm14.8176696 6.624414c-.2133062.2100132-.5728795.2210139-.8054848-.0070004l-2.8867437-2.6901681c.3199593-.2520158.6135092-.5320333.8826813-.8350522l2.8125944 2.7491718c.1056374.1040065.1635348.2430152.1635348.3900244 0 .1490093-.0589132.288018-.166582.3930245zm.7201623-1.4920932-2.9111215-2.8451778c.6957844-1.0630665 1.1051291-2.3251454 1.1051291-3.6812301 0-3.75923496-3.10716-6.8174261-6.9253407-6.8174261-2.47739901 0-4.78313728 1.31708232-6.01523443 3.43721483l.88064982.49703106c1.05332625-1.81011313 3.01980612-2.93418339 5.13458461-2.93418339 3.2585059 0 5.909597 2.60916308 5.909597 5.8173636 0 3.2082005-2.6510911 5.8183636-5.909597 5.8183636-1.77755157 0-3.4433713-.7760485-4.57186259-2.1311332l-.7851699.6340397c1.32249834 1.5870992 3.27374205 2.497156 5.35703249 2.497156 1.2605379 0 2.4408322-.3390211 3.4586074-.9200575l3.0391052 2.831177c.2986287.2920182.6927373.4530283 1.1122394.4530283.4225494 0 .8197052-.1620101 1.1183339-.4550284.2996444-.2930184.4641949-.6840428.4652153-1.1000688.001011-.4150259-.1625237-.8060504-.4621681-1.1010688zm-6.6957827-3.5222201c-.0314881.0200012-.0863382.049003-.1757237.0840052-.1198577.0470029-.2620618.0880055-.4215336.1240078-.4316911.0990061-.9659723.1530095-1.5043165.1530095-1.0756726 0-1.87201568-.2140134-2.09649505-.3550222l-.59624157-4.35227199c.77094949.27501719 1.7582524.38102381 2.51091852.39502469-.2965972.080005-.5200608.3370211-.5200608.6550409 0 .3810239.3148806.6910432.7018789.6910432.0711021 0 .1361097-.0210013.2011173-.0400025.895886.4280268 1.5977649.7240453 2.1371248.9130571zm-1.9715586-3.5522221-.2600304.511032c-.1025901-.0500031-.1838496-.1350085-.1838496-.255016 0-.1700106.1411884-.3090193.3138648-.3090193.0507872 0 .087354.032002.1300152.0530033zm2.3473838.7910495c-.5515489-.2090131-1.1985776-.4860304-1.8263072-.7810488-.0792281-.2030127-.2549517-.35102198-.4702894-.4090256.7536819-.01400088 1.7420005-.12200763 2.5139657-.40702544zm-2.477399-3.38021129c1.462671 0 2.517013.41302582 2.794311.65204076-.2905027.21901369-1.335703.54303394-2.794311.54303394-1.48095435 0-2.5342806-.33402088-2.79532674-.54103382.27323507-.23901494 1.32757706-.65404088 2.79532674-.65404088zm3.8557632.71904494c.0030473-.02000125.004063-.0400025.004063-.05900368 0-1.14507157-2.2569826-1.66010376-3.8598262-1.66010376-1.60182785 0-3.85881043.51503219-3.85475293 1.71910744.00203697.01900119.01321015.11300707.01828887.13200826 0 .00100006.00101574.00100006.00101574.00200012l-.00914169.00100006.74657164 5.42833931c0 1.1860741 2.78009057 1.2200762 3.09801837 1.2200762.6124935 0 1.2290499-.0630039 1.7338746-.1780111.2122904-.0490031.4032502-.1060066.5657692-.1690106.5302183-.2070129.7993904-.5010313.7943116-.8060503l.2275266-1.6671042c.1493144.0260016.281361.0410025.3859826.0410025.4134077 0 .5281868-.1720107.6165565-.305019l.0741493-.4600288c-.0822753-.3350209-.5322497-.7450466-.8410358-.9930621l.2884712-2.11113191-.0274251-.00400025c.0060945-.02000125.0233621-.03600225.0284408-.05700356z" fill="#fff"/></g></svg>