<svg height="24" viewBox="0 0 24 24" width="24" xmlns="http://www.w3.org/2000/svg" xmlns:xlink="http://www.w3.org/1999/xlink"><linearGradient id="a" x1="0%" x2="100%" y1="100%" y2="0%"><stop offset="0" stop-color="#055f4e"/><stop offset="1" stop-color="#56c0a7"/></linearGradient><g fill="none" fill-rule="evenodd"><path d="m0 0h24v24h-24z" fill="url(#a)"/><path d="m9.186 13.857 2.036 2c.094.092.22.143.351.143.155.025.262-.054.356-.15l1.964-2-.713-.7-1.107 1.127v-4.777h-1v4.808l-1.186-1.165zm4.814-7.134v4.777h1v-4.808l1.186 1.165.701-.714-2.036-2c-.094-.092-.22-.143-.351-.143-.096.021-.261.054-.356.15l-1.964 2 .713.7zm5 2.277v9c0 .276-.223.5-.5.5h-13c-.276 0-.5-.224-.5-.5v-10c0-.276.224-.5.5-.5h1.5c.141 0 .276.06.371.164l.758.836h1.668v1h-1.889c-.141 0-.276-.06-.37-.164l-.759-.836h-.779v9h12v-8h-2v-1h2.5c.277 0 .5.224.5.5z" fill="#fff"/></g></svg>