<svg height="24" viewBox="0 0 24 24" width="24" xmlns="http://www.w3.org/2000/svg" xmlns:xlink="http://www.w3.org/1999/xlink"><linearGradient id="a" x1="0%" x2="100%" y1="100%" y2="0%"><stop offset="0" stop-color="#1b660f"/><stop offset="1" stop-color="#6cae3e"/></linearGradient><g fill="none" fill-rule="evenodd"><path d="m0 0h24v24h-24z" fill="url(#a)"/><path d="m13.0739534 9.98485512v-1.36479129l-2.6934069 2.67451027-.70694409-.7099318 2.68638759-2.66750105h-1.3537228v-1.00131423h2.569065c.2767611 0 .5013788.22429439.5013788.50065712v2.56837098zm-4.15141642 2.00262848h-1.00275759v-7.48682649c0-.27636272.2246177-.50065711.5013788-.50065711h7.11356231c.2767611 0 .5013788.22429439.5013788.50065711v7.48682649h-1.0027576v-6.98616938h-6.11080472zm10.07470542 6.3042743-3.3562296-3.3493961 3.3562296-2.0637086zm-13.29255451.7069279 3.51366257-3.5356406 2.52895464 1.5510358c.0802206.0490644.1714715.0740972.2617197.0740972.091251 0 .1825019-.0250328.2627225-.0740972l2.4918526-1.5320108 3.5236901 3.5166156zm-.70193031-6.1200326 3.33818 2.0466863-3.33818 3.3594092zm14.79267992-1.2997058-2.0215593-1.4789411-.5926298.8070592 1.4209075 1.0393642-6.5931311 4.05332-6.60817246-4.05332 1.4209075-1.0393642-.59162697-.8070592-2.02456757 1.4789411c-.12935572.0951248-.2055653.2443206-.2055653.4045309v7.5158646c0 .2763627.2246177.5006571.50137879.5006571h14.99724241c.2777639 0 .5013788-.2242944.5013788-.5006571v-7.5158646c0-.1602103-.0762096-.3094061-.2045625-.4045309z" fill="#fff"/></g></svg>