<svg height="24" viewBox="0 0 24 24" width="24" xmlns="http://www.w3.org/2000/svg" xmlns:xlink="http://www.w3.org/1999/xlink"><linearGradient id="a" x1="0%" x2="100%" y1="100%" y2="0%"><stop offset="0" stop-color="#2e27ad"/><stop offset="1" stop-color="#527fff"/></linearGradient><g fill="none" fill-rule="evenodd"><path d="m0 0h24v24h-24z" fill="url(#a)"/><path d="m10.3921569 5c2.6931372 0 4.4117647.888 4.4117647 1.5s-1.7186275 1.5-4.4117647 1.5c-2.69313729 0-4.41176474-.888-4.41176474-1.5s1.71862745-1.5 4.41176474-1.5zm3.4313725 7.51v-.51h3.7578431l1.8303922 1.4.5882353-.8-2.0911765-1.6h-4.0852941v-1h-.9803921v6.5c0 .276.2196078.5.490196.5h1.4705883v.662c0 .559-1.6784314 1.338-4.4117647 1.338-2.73333337 0-4.41176474-.779-4.41176474-1.338v-1.555c1.04019608.669 2.75784313 1.021 4.41176474 1.021.5235294 0 1.0392156-.032 1.5313725-.095l-.122549-.992c-.4509804.058-.9254902.087-1.4088235.087-2.69313729 0-4.41176474-.888-4.41176474-1.5v-2.649c1.04019608.669 2.75784313 1.021 4.41176474 1.021.5196078 0 1.0352941-.032 1.5313725-.095l-.1215686-.992c-.4558824.058-.9303922.087-1.4098039.087-2.69313729 0-4.41176474-.888-4.41176474-1.5v-2.521c1.04019608.669 2.75784313 1.021 4.41176474 1.021 1.6539215 0 3.3715686-.352 4.4117647-1.021v2.021h.9803921v-3.5c0-1.624-2.7784313-2.5-5.3921568-2.5-2.61372553 0-5.3921569.876-5.3921569 2.5v11.162c0 1.615 2.70882353 2.338 5.3921569 2.338 2.6833333 0 5.3921568-.723 5.3921568-2.338v-.662h3.9215687v-1h-5.882353v-2.274l1.8078431 1.274h4.0745099v-1h-3.7686275z" fill="#fff"/></g></svg>