<svg height="24" viewBox="0 0 24 24" width="24" xmlns="http://www.w3.org/2000/svg" xmlns:xlink="http://www.w3.org/1999/xlink"><linearGradient id="a" x1="0%" x2="100%" y1="100%" y2="0%"><stop offset="0" stop-color="#c8511b"/><stop offset="1" stop-color="#f90"/></linearGradient><g fill="none" fill-rule="evenodd"><path d="m0 0h24v24h-24z" fill="url(#a)"/><path d="m19.1002895 4.407c-.586-.586-1.629-.519-3.094.175v1.114c1.51-.801 2.217-.75 2.387-.582.534.534-.752 3.814-5.115 8.178-4.36399997 4.363-7.64299997 5.651-8.17799997 5.115-.171-.171-.221-.883.592-2.407h-1.115c-.567 1.196-.866 2.432-.184 3.114.266.265.628.387 1.067.387 1.99 0 5.53099997-2.508 8.52499997-5.502 3.654-3.655 6.585-8.123 5.115-9.592zm-2.094 7.344c-.346.427-.686.827-1 1.182v3.067h-3.066c-.355.314-.751.652-1.18 1h1.246v3h1v-3h2v3h1v-3h3v-1h-3v-2h3v-1h-3zm1.316-1.751c-.235.341-.479.676-.726 1h2.41v-1zm-11.31599997 6.5c0 .257.198.461.448.489.449-.257.96-.59 1.519-.989h-.967v-8h7.99999997v.959c.401-.562.732-1.074.987-1.525-.034-.243-.234-.434-.487-.434h-2.5v-3h-1v3h-2v-3h-1v3h-1.99999997v-3h-1v3h-3v1h3v2h-3v1h3v2h-3v1h3zm2.99999997 1.818c.341-.235.676-.477 1-.724v2.406h-1z" fill="#fff"/></g></svg>