<svg height="24" viewBox="0 0 24 24" width="24" xmlns="http://www.w3.org/2000/svg" xmlns:xlink="http://www.w3.org/1999/xlink"><linearGradient id="a" x1="0%" x2="100%" y1="100%" y2="0%"><stop offset="0" stop-color="#055f4e"/><stop offset="1" stop-color="#56c0a7"/></linearGradient><g fill="none" fill-rule="evenodd"><path d="m0 0h24v24h-24z" fill="url(#a)"/><path d="m13.512 13.9140803c0 .5359228.443.9715444.988.9715444s.989-.4356216.989-.9715444c0-.5349395-.444-.9715445-.989-.9715445s-.988.436605-.988.9715445zm-1 0c0-1.0777457.892-1.9548891 1.988-1.9548891 1.097 0 1.989.8771434 1.989 1.9548891 0 1.0777456-.892 1.954889-1.989 1.954889-1.096 0-1.988-.8771434-1.988-1.954889zm-5.512-1.0590622v-1.2163972c0-.4169382-.344-.7552087-.767-.7552087h-1.233v-5.9000676h9v3.9333784h1v-4.16151435c0-.41693811-.344-.75520865-.767-.75520865h-9.461c-.426 0-.772.34023723-.772.75815869v6.35043941c0 .4179215.346.7581587.772.7581587h1.228v1.5654846c0 .2773032.164.5211726.417.6224571.077.0304837.158.0452339.239.0452339.141 0 .28-.0462172.394-.1347182l1.202-.6903079-.504-.8496098zm12-1.9716059h-9v5.9000676h4.055c.068 0 .137.0137668.199.0403171l.215.0924344c.064.0275337.121.0678508.168.117018l1.363 1.44945v-.930244c0-.4238215.351-.7689755.783-.7689755h2.217zm1-.2104357v6.3209391c0 .4257882-.352.7729088-.785.7729088h-2.215v1.5654846c0 .2773032-.164.5211727-.417.6224571-.077.0304837-.158.0452339-.238.0452339-.171 0-.338-.0678508-.463-.1947022l-1.932-2.0384734h-4.167c-.432 0-.783-.3451539-.783-.7689755v-6.3288058c0-.4238215.351-.7689755.783-.7689755h9.432c.433 0 .785.3471206.785.7729089zm-9-2.7395981h2v-.9833446h-2zm-5 0h4v-.9833446h-4z" fill="#fff"/></g></svg>