<svg height="24" viewBox="0 0 24 24" width="24" xmlns="http://www.w3.org/2000/svg" xmlns:xlink="http://www.w3.org/1999/xlink"><linearGradient id="a" x1="0%" x2="100%" y1="100%" y2="0%"><stop offset="0" stop-color="#c8511b"/><stop offset="1" stop-color="#f90"/></linearGradient><g fill="none" fill-rule="evenodd"><path d="m0 0h24v24h-24z" fill="url(#a)"/><path d="m15.4359864 17.8382186c.1359994.2425463.0499998.5484967-.1899993.6853693l-2.4999901 1.4120015c-.0769997.0422695-.1619993.0644106-.245999.0644106-.0839996 0-.1679993-.0221411-.244999-.0644106l-2.4999901-1.4120015c-.23999905-.1368726-.3259987-.442823-.18999924-.6853693.13399946-.2425462.43599824-.329098.68099734-.1922254l1.753993.9913197v-2.5653542c0-.2787772.2239991-.5032079.499998-.5032079.2769989 0 .499998.2244307.499998.5032079v2.5653542l1.7549931-.9913197c.243999-.1358661.5469978-.0503208.6809973.1922254zm2.5639977-2.0359793-1 .6712794-1-.6712794v-1.4743993l1-.670273 1 .670273zm-.722005-3.1681973c-.1679994-.113725-.3869985-.113725-.5549978 0l-1.4999941 1.0064159c-.1389994.0925903-.2229991.2505976-.2229991.418669v2.0128318c0 .1680715.0839997.3250724.2229991.4186691l1.4999941 1.0064159c.0839996.0563592.1809993.0845389.2770068.0845389.0969917 0 .1939913-.0281797.277991-.0845389l1.499994-1.0064159c.1379995-.0935967.2219991-.2505976.2219991-.4186691v-2.0128318c0-.1680714-.0839996-.3260787-.2219991-.418669zm1.7220209-4.32054345v2.22317275c0 .2777708-.2230269.5032079-.5000258.5032079-.2759989 0-.499998-.2254371-.499998-.5032079v-1.27412255l-1.7159932 1.18555795c-.2289991.1570009-.5379979.0996352-.6959972-.1308341-.1559994-.2284564-.0979996-.54245816.1289995-.69845262l1.8099928-1.24996855-1.7549931-.90778715c-.245999-.1268084-.3429986-.42973959-.2159991-.6773179.1259995-.24757831.4289983-.34318782.6729973-.21738583l2.4919901 1.28921877c.0699998.03421814.1329995.08655177.1829993.15398163l.014.02214115h.001v.00100642c.0559997.08655176.0819996.18417411.0810274.28079003zm-10.99997621 7.48874075-1 .6712794-1-.6712794v-1.4743993l1-.670273 1 .670273zm-.72200506-3.1681973c-.16799934-.113725-.38699847-.113725-.5549978 0l-1.49999406 1.0064159c-.13899944.0925903-.22299911.2505976-.22299911.418669v2.0128318c0 .1680715.08399967.3250724.22299911.4186691l1.49999406 1.0064159c.08399966.0563592.18099928.0845389.27700683.0845389.09699168 0 .1939913-.0281797.27799097-.0845389l1.49999405-1.0064159c.13799945-.0935967.22199912-.2505976.22199912-.4186691v-2.0128318c0-.1680714-.08399967-.3260787-.22199912-.418669zm4.22198327-6.85469869 1-.67027299 1 .67027299v1.4743993l-1 .67027299-1-.67027299zm.7229971 3.16920368c.0839997.05635929.1809993.08353252.2770068.08353252.0969917 0 .1939913-.02717323.277991-.08353252l1.4999941-1.0064159c.1379994-.09359668.2219991-.25160398.2219991-.41967544v-2.0128318c0-.16807145-.0839997-.32507233-.2219991-.41866901l-1.4999941-1.0064159c-.1679993-.11271859-.3869985-.11271859-.5549978 0l-1.499994 1.0064159c-.1389995.09359668-.2229992.25059756-.2229992.41866901v2.0128318c0 .16807146.0839997.32607876.2229992.41967544zm-7.2229991 1.58812431v-2.21713425c-.00097224-.09661593.02502766-.19323185.08102744-.27978362 0 0 0-.00100642.00099999-.00100642.00399999-.00805133.00899997-.01509624.01499994-.02314756.04899981-.06742987.11199956-.1197635.18199928-.15498805l2.49199012-1.29425085c.24499903-.12479557.54799783-.03019248.67399733.21637942.12699949.24757831.02999988.5505095-.21499915.67832431l-1.75599304.91181281 1.80899283 1.24493647c.2269991.15700088.28599887.46999624.13099948.69945904-.15799937.2294628-.46899814.287835-.69599724.1308341l-1.71799319-1.18153229v1.27009689c0 .2777708-.22299911.5032079-.49999801.5032079-.27599891 0-.50002578-.2254371-.50002578-.5032079zm6.000004.0573657 2.6949893 1.4522581-2.6949893 1.4522582zm-.4999961 4.2470751c.0819977 0 .1629974-.0191219.2369971-.0593785l4.2539831-2.2916091c.1619994-.0875581.262999-.2586488.262999-.4438294 0-.1861869-.1009996-.3562712-.262999-.4438294l-4.2539831-2.2926154c-.1549994-.08353252-.3419986-.07749403-.492998.01207699-.1509994.09057743-.2439991.25462322-.2439991.43175242v4.58422439c0 .1771292.0929997.341175.2439991.4327589.0789997.0473015.1679993.0704491.2560009.0704491z" fill="#fff"/></g></svg>