<svg height="24" viewBox="0 0 24 24" width="24" xmlns="http://www.w3.org/2000/svg" xmlns:xlink="http://www.w3.org/1999/xlink"><linearGradient id="a" x1="0%" x2="100%" y1="100%" y2="0%"><stop offset="0" stop-color="#4d27a8"/><stop offset="1" stop-color="#a166ff"/></linearGradient><g fill="none" fill-rule="evenodd"><path d="m0 0h24v24h-24z" fill="url(#a)"/><path d="m18.036 15.56625-2.399 1.225.455.89 2.672-1.364c.167-.085.272-.257.272-.445v-2.996h-1zm-5.494 2.805v-7.06l2.375-1.215-.455-.89-2.444 1.249-2.444-1.249-.455.89 2.423 1.239v7.036l-1.944-.993-.456.891 2.672 1.364c.072.037.15.055.228.055s.156-.018.227-.055l2.672-1.364-.455-.891zm-6.542-5.523h-1v3c0 .188.105.36.272.445l2.672 1.364.455-.89-2.399-1.225zm6.018-7.792 2.476 1.209.439-.898-2.695-1.317c-.139-.067-.301-.067-.439 0l-2.696 1.317.44.898zm-6.738 2.178c-.17.083-.278.256-.28.445 0 .002.001.003.001.005h-.001v3h1v-2.183l1.943.994.455-.891-1.78-.91 1.798-.878-.44-.898zm13.755.45h.001v2.995h-1v-2.178l-1.943.994-.455-.891 1.78-.91-1.797-.878.439-.898 2.696 1.316c.17.083.278.256.28.445 0 .002-.001.003-.001.005z" fill="#fff"/></g></svg>