<svg height="24" viewBox="0 0 24 24" width="24" xmlns="http://www.w3.org/2000/svg" xmlns:xlink="http://www.w3.org/1999/xlink"><linearGradient id="a" x1="0%" x2="100%" y1="100%" y2="0%"><stop offset="0" stop-color="#1b660f"/><stop offset="1" stop-color="#6cae3e"/></linearGradient><g fill="none" fill-rule="evenodd"><path d="m0 0h24v24h-24z" fill="url(#a)"/><path d="m18.3212076 12 1.6787924 1.6022806-.7210852.6891949-1.8899164-1.804756h-4.0062555l2.0031278 3.3106661 2.5824437.6599917-.26314.9403421-2.2948256-.5869838-.6139933 2.1892644-.9862651-.2511473.6925274-2.465721-2.0021078-3.3096927-2.0021079 3.3096927.6925274 2.465721-.9862651.2511473-.61501321-2.1892644-2.2948256.5869838-.26212008-.9403421 2.58244374-.6599917 2.00312775-3.3106661h-4.00625551l-1.89093629 1.804756-.7210852-.6891949 1.67981233-1.6022806-1.67981233-1.6022806.7210852-.68919486 1.89093629 1.80475596h4.00625551l-2.00312775-3.31066612-2.58244374-.65999166.26212008-.94034209 2.2948256.58698373.61501321-2.18926436.9862651.25114727-.6925274 2.46572104 2.0021079 3.30969269 2.0021078-3.30969269-.6925274-2.46572104.9862651-.25114727.6139933 2.18926436 2.2948256-.58698373.26314.94034209-2.5824437.65999166-2.0031278 3.31066612h4.0062555l1.8899164-1.80475596.7210852.68919486z" fill="#fff"/></g></svg>