<svg height="24" viewBox="0 0 24 24" width="24" xmlns="http://www.w3.org/2000/svg" xmlns:xlink="http://www.w3.org/1999/xlink"><linearGradient id="a" x1="0%" x2="100%" y1="100%" y2="0%"><stop offset="0" stop-color="#1b660f"/><stop offset="1" stop-color="#6cae3e"/></linearGradient><g fill="none" fill-rule="evenodd"><path d="m0 0h24v24h-24z" fill="url(#a)"/><path d="m8.918 17.5c0-.276-.225-.5-.5-.5s-.5.224-.5.5.225.5.5.5.5-.224.5-.5zm7.645-3.305.875.485c-.793 1.431-2.302 2.32-3.938 2.32-1.036 0-2.019-.361-2.806-.987l-.897.898c.077.181.121.38.121.589 0 .827-.673 1.5-1.5 1.5s-1.5-.673-1.5-1.5.673-1.5 1.5-1.5c.252 0 .486.068.695.179l.876-.875c-.151-.188-.292-.386-.413-.6l.871-.49c.62 1.101 1.79 1.786 3.053 1.786 1.272 0 2.445-.691 3.063-1.805zm-8.645-6.695c0 .276.225.5.5.5s.5-.224.5-.5-.225-.5-.5-.5-.5.224-.5.5zm-1 0c0-.827.673-1.5 1.5-1.5s1.5.673 1.5 1.5c0 .209-.044.408-.121.589l.894.896c.786-.627 1.77-.985 2.809-.985 1.636 0 3.145.889 3.938 2.32l-.875.485c-.618-1.114-1.791-1.805-3.063-1.805-1.284 0-2.464.702-3.078 1.832l-.879-.478c.129-.236.282-.452.447-.657l-.877-.876c-.209.111-.443.179-.695.179-.827 0-1.5-.673-1.5-1.5zm.082 5c0-.276-.225-.5-.5-.5s-.5.224-.5.5.225.5.5.5.5-.224.5-.5zm-.5 1.5c-.827 0-1.5-.673-1.5-1.5s.673-1.5 1.5-1.5c.651 0 1.201.419 1.408 1h3.097c.232-1.165 1.262-2.046 2.495-2.046.714 0 1.398.302 1.88.828l-.738.675c-.292-.32-.708-.503-1.142-.503-.853 0-1.546.693-1.546 1.546s.693 1.546 1.546 1.546c.429 0 .842-.18 1.133-.494l.732.681c-.479.517-1.159.813-1.865.813-1.233 0-2.263-.881-2.495-2.046h-3.097c-.207.581-.757 1-1.408 1zm7.5-1h6v-1h-6z" fill="#fff"/></g></svg>