<svg height="24" viewBox="0 0 24 24" width="24" xmlns="http://www.w3.org/2000/svg" xmlns:xlink="http://www.w3.org/1999/xlink"><linearGradient id="a" x1="0%" x2="100%" y1="100%" y2="0%"><stop offset="0" stop-color="#055f4e"/><stop offset="1" stop-color="#56c0a7"/></linearGradient><g fill="none" fill-rule="evenodd"><path d="m0 0h24v24h-24z" fill="url(#a)"/><path d="m18.2633589 7.95211532-2.2936578-2.25133187v2.25133187zm1.7366411 8.55907238c0 .1323723-.0534817.2607333-.148336.3549984-.0948543.0932623-.2219994.1464118-.3562082.1464118h-4.5408976v-1.0028204h4.0363534l-.0030272-7.05484174h-3.5227275c-.2795174 0-.5045441-.22463178-.5045441-.50141022v-3.45070511l-3.0989104.00100282v2.97737387h-1.0090883v-3.47878408c0-.27677844.2260358-.50141022.5045441-.50141022l4.1079987-.00100282c.1291633 0 .2573176.0491382.35419.14440614l4.0272717 3.95211533c.0978815.09627076.1503541.22563459.1503541.35700407zm-13.07072147-1.5102476h1.00908836v-2.0056408h-1.00908836zm1.98891315 1.0028205h1.00908836v-4.0112818h-1.00908836zm1.99395862-1.0028205h1.0090883v-2.0056408h-1.0090883zm2.2654033 1.4570981.8415797.5535569c-.9919338 1.491194-2.5045573 2.3465998-4.15038039 2.3465998-.86478872 0-1.80122271-.2336571-2.55904807-.6327797l-2.46015741 1.2264494c-.06659983.0330931-.14833598.0481354-.23309941.0481354-.16851775 0-.35116274-.0601692-.45408976-.1664682-.17457228-.1815105-.21291764-.452272-.09283613-.6748981l1.26640589-2.3796929c-.34712639-.5886556-.788098-1.5373238-.788098-2.5742401 0-2.8139141 2.29264874-4.93588215 5.33202286-4.93588215 1.12412442 0 1.92937692.39711689 2.63170242.82632405l-.5287623.854403c-.6841619-.4181761-1.2754877-.6779066-2.10294012-.6779066-2.09587651 0-4.32293451 1.3788781-4.32293451 3.9330617 0 .6889377.285572 1.5202758.78406165 2.2814165.09989975.1524287.10797246.3469759.02320903.50843l-.78406165 1.4711375 1.51766889-.7561266c.15741778-.07822.34006277-.0691946.48940785.0200564.63572567.3860859 1.50959618.62576 2.28154877.62576 1.78003189 0 2.83755649-1.1883422 3.30880069-1.8973363z" fill="#fff"/></g></svg>