<svg height="24" viewBox="0 0 24 24" width="24" xmlns="http://www.w3.org/2000/svg" xmlns:xlink="http://www.w3.org/1999/xlink"><linearGradient id="a" x1="0%" x2="100%" y1="100%" y2="0%"><stop offset="0" stop-color="#bd0816"/><stop offset="1" stop-color="#ff5252"/></linearGradient><g fill="none" fill-rule="evenodd"><path d="m0 0h24v24h-24z" fill="url(#a)"/><path d="m13.022 15.453h2v-1h-2zm-3 0h2v-1h-2zm9-5.5v7c0 .276-.223.5-.5.5h-8.5v-1h8v-6h-6v-1h6.5c.277 0 .5.224.5.5zm-11.539 1.015c-1.369 0-2.483-1.114-2.483-2.484 0-1.369 1.114-2.484 2.483-2.484 1.371 0 2.485 1.115 2.485 2.484 0 1.37-1.114 2.484-2.485 2.484zm0-5.968c-1.921 0-3.483 1.563-3.483 3.484 0 1.75 1.301 3.188 2.983 3.433v4.536h-1.961v1h1.961v2h1v-7.536c1.683-.244 2.985-1.683 2.985-3.433 0-1.921-1.564-3.484-3.485-3.484z" fill="#fff"/></g></svg>