<svg height="24" viewBox="0 0 24 24" width="24" xmlns="http://www.w3.org/2000/svg" xmlns:xlink="http://www.w3.org/1999/xlink"><linearGradient id="a" x1="0%" x2="100%" y1="100%" y2="0%"><stop offset="0" stop-color="#055f4e"/><stop offset="1" stop-color="#56c0a7"/></linearGradient><g fill="none" fill-rule="evenodd"><path d="m0 0h24v24h-24z" fill="url(#a)"/><path d="m11.6573267 10.2709927c-1.0258422.1470848-1.96829073.9348955-2.79820811 2.3432835l.86508337.5127821c.65408744-1.1081736 1.36644994-1.7509143 2.06173184-1.8566945.6741822-.1027579 1.1534445.3203629 1.1735393.3384967l.6842297-.7374392c-.0331565-.0312304-.8258984-.762625-1.9863761-.6004286zm4.9152008 2.9275932c.2270718-.0050372.3988828-.1601815.4260108-.376779l.2491762-1.9624748c.0160759-.1259288-.0221043-.2508502-.1065027-.3435338-.0823889-.0916762-.1969296-.1430552-.3185034-.1430552-.004019 0-.0070332 0-.0110522.0010075-.2150149.0040297-.3898401.1632037-.4169682.376779l-.2491761 1.9614673c-.0160759.1259289.0221043.2508502.1065027.3445413.0813841.0896613.198939.1420477.3205129.1420477zm.0321517 1.0074306c-.4400772 0-.8258984-.1732781-1.0981836-.4744998-.2803232-.3123035-.4109397-.7293798-.3576884-1.146456l.2491762-1.9614673c.0904268-.71124602.675187-1.24014707 1.3885543-1.25727339.4390725.00201486.8198699.16320375 1.1001931.4744998.2803232.31129609.4109397.72837229.3586931 1.14544859l-.2491762 1.9624747c-.0904268.711246-.675187 1.2391396-1.389559 1.2572734zm-4.1345157-1.0316089c-.0381802-.0614533-.0944458-.1208917-.2401335-.1390255-.0170806-.0020148-.035166-.0030222-.0522466-.0030222-.4260109 0-1.0308659.5883394-1.36645 1.7327805-.2773089.9479922-.190901 1.7428549.0070332 2.0813516.0271281.0463418.0823889.1269362.1436782.1410403.1205691.0251857.3365888-.037275.7404953-.4966633.2541999-.2891326.4662006-.718298.6299736-1.277422.2079818-.6225921.382807-1.6481564.1376498-2.0390394zm.8510169-.5349457c.5927982.9469848.0341613 2.6827876-.031147 2.8782292-.1999437.6820305-.4822764 1.2391396-.8339363 1.6390895-.1929106.2206273-.7394906.8432194-1.4478341.8432194-.0864079 0-.1748252-.0090669-.2662568-.0302229-.3235271-.072535-.5968171-.2851029-.78872293-.6125178-.39084486-.6649042-.43103457-1.7670332-.10549797-2.8762143.4662006-1.5897254 1.4588862-2.5689479 2.505828-2.445034.4179729.051379.7525522.2599171.9675671.6034509zm6.6564197-1.9171403c.0944458-.74549867-.1125311-1.50207903-.5686843-2.07631445-.4531389-.57121313-1.1132548-.91474696-1.8165746-.94597731-.0251186-.00503715-.0512419-.00705201-.0763604-.00805944l-.64404-.00906688c-.0643036-.12895111-.17583-.23170903-.3255366-.26797653-1.3815211-.33144466-2.5470225-.44326945-3.5346845-.40901681v-.00302229h-6.40422926v1.00743057h2.97504282c-.45112943.30525146-.79776562.64475556-1.06100818.97317793h-3.66630572v1.00743057h3.0383416l-.18889161.34151894c-.26022833.3123035-.62494989.4563661-1.1795678.4493141-1.06201292.0654829-1.83365524.6165475-2.23957124 1.609874-.06530827.1823449-.14367819.4170763-.1768347.5903543-.00502371.0171263-.00904268.0362675-.01306165.0544013-.1225786.608488-.08138415 1.1202628-.07937467 1.1414188.01205691.1480923.08841735.2810731.20597223.3656973-.07234146.2387611-.12257859.4755072-.16075881.7273649 0 0-.04119445.4583809-.04320393.4583809-.10348849 1.1232851.23510976 1.8969918.95450546 2.1790723.14769716.058431.30242752.086639.46318634.086639.4672053 0 .96857186-.245813 1.40965385-.7062088.12860706-.1339882.24817142-.2891326.36170734-.4533437h1.73217623v-1.0074306h-1.20669586c.04119445-.1067877.08540312-.2115604.11956437-.3213704.33457929-1.0719061.30343227-2.1145967-.08540312-2.7875604l-.86910234.5037153c.19793429.3445413.27328998 1.0910473-.00502371 1.981616-.17281573.5561016-.44711046 1.0477278-.77264706 1.3862244-.23812399.2498428-.57169853.4634181-.78068499.3798014-.38280693-.1501072-.34161248-.9177693-.31950815-1.1514932l.03918496-.4271505c.03014228-.1994713.07736518-.407002.14367819-.6185624.1085122-.3465561.26123308-.6800157.44309149-.9620962.13363076-.2085381.09645529-.4835667-.08741261-.6487853-.12056911-.1088025-.28132792-.1501072-.43304405-.1188768.03818021-.1319734.09746003-.2881252.09746003-.2881252.24917616-.6094954.69528187-.9268361 1.31822228-.9671333 1.03388013.0100743 1.61160712-.4241283 1.98637611-.884524l.5355278-.95000707c.59782184-.9721705 2.15517286-2.39466247 5.98324216-1.80531558-.1828632.13298083-.3647216.29316229-.5335183.5107673l.7927419.61755494c.4893096-.63165897 1.1293306-.59740633 1.1906199-.59438404l.9504865.01611889c.0221044.00402972.0452135.00604458.0683225.00705201.4250061.00906688.8279079.21659758 1.1082311.56819084.2883611.36267501.4189777.84422681.3576884 1.32074151l-.281328 2.2012358c-.0552608.4271505-.1527208.8472491-.2893658 1.2502213l-1.6427542 1.7881893h-3.0493937v1.0074305h3.2694324c.1396592 0 .2742947-.0594384.3697452-.1621963l1.3553978-1.4758858c.2039627.4583809.3265413.8663903.1788442 1.2149613-.1617636.3808088-.4883049.5691983-.9987142.5712131l.0060285 1.0074306c.9163252-.0050371 1.5975407-.4261431 1.9180536-1.1857458.3677358-.8724348-.0381802-1.7216988-.3948638-2.4702197l-.0361708-.0745499c.1416687-.43521.2511857-.884524.3104655-1.3429049z" fill="#fff"/></g></svg>