<svg height="24" viewBox="0 0 24 24" width="24" xmlns="http://www.w3.org/2000/svg" xmlns:xlink="http://www.w3.org/1999/xlink"><linearGradient id="a" x1="0%" x2="100%" y1="100%" y2="0%"><stop offset="0" stop-color="#b0084d"/><stop offset="1" stop-color="#ff4f8b"/></linearGradient><g fill="none" fill-rule="evenodd"><path d="m0 0h24v24h-24z" fill="url(#a)"/><path d="m18.9074368 18.522369-1.9546482-1.7343964c-.1317741.1396962-.2745293.2646357-.4242725.3846563l1.9935814 1.7727636c.1167997.1032965.3014831.0954263.4082999-.0226268.1048202-.114118.0948374-.2951327-.0229606-.4003967m-4.8826273-1.4392637c1.6521668 0 2.9948644-1.324162 2.9948644-2.9513268 0-1.6271649-1.3426976-2.9513269-2.9948644-2.9513269-1.6511686 0-2.9948644 1.324162-2.9948644 2.9513269 0 1.6271648 1.3436958 2.9513268 2.9948644 2.9513268m5.647316 2.4987901c-.2545635.2774247-.6069592.4181046-.9583566.4181046-.3074728 0-.6149455-.1062478-.8595261-.3236622l-2.2032219-1.9577135c-.4981458.219382-1.046206.3482566-1.6262114.3482566-2.2022237 0-3.9931526-1.7648934-3.9931526-3.9351024 0-2.1692253 1.7909289-3.9351025 3.9931526-3.9351025 2.2022236 0 3.9931525 1.7658772 3.9931525 3.9351025 0 .6699512-.1866799 1.2916973-.4871646 1.8445792l2.0454924 1.8160498c.5250996.4682772.568026 1.2710381.0958357 1.7894879m-13.13447705-5.4501169h2.49572034v.9837756h-2.49572034c-1.22489955 0-2.53764845-1.1559364-2.53764845-2.8765599 0-1.3930263.75171097-2.46239039 2.03251465-2.93066758-.00099829-.03443215-.00099829-.06984807-.00099829-.10428022 0-1.59470027 1.09811695-3.24941085 2.55561763-3.8485302 1.69609151-.70044824 3.49999821-.35317545 4.81374541.92966795.3484025.33940259.6428975.73979927.8804901 1.19627115.3214488-.19872267.6918137-.30693799 1.0771529-.30693799.9034508 0 1.9137184.6414217 2.1463195 2.03936685 1.2548482.32858105 2.4677683 1.26907054 2.4677683 3.04675304 0 .372851-.051911.7270102-.1567312 1.0506724l-.9513686-.2971002c.072875-.228236.1098117-.4810663.1098117-.7535722 0-1.6458566-1.4105812-2.0570748-2.0165421-2.1574199-.1327723-.0226268-.2505703-.0954262-.3264402-.20462531-.0768682-.10821532-.1068168-.24299258-.0808613-.37285096-.0768682-.98377562-.6908154-1.36744811-1.1919561-1.36744811-.3314316 0-.6438958.16133921-.8575295.44269903-.1098117.14461502-.2855104.21446309-.4741868.19183625-.1806902-.02656195-.3334283-.1495339-.3953222-.31972708-.2186251-.5971518-.5320875-1.09887736-.9324011-1.48943628-.4891612-.4761474-1.8338553-1.50320914-3.72660959-.72012375-1.09013064.4476179-1.94266871 1.73931529-1.94266871 2.94050531 0 .13477726.00698801.26758697.02395891.39646158.01896748.14067991-.0249572.28135982-.11979457.38760759-.07387333.08263713-.17370214.13772863-.28151726.15838783-.62892153.162323-1.65416344.6492919-1.65416344 2.0924908 0 1.1156015.81160825 1.8927843 1.53936031 1.8927843" fill="#fff"/></g></svg>