<svg height="24" viewBox="0 0 24 24" width="24" xmlns="http://www.w3.org/2000/svg" xmlns:xlink="http://www.w3.org/1999/xlink"><linearGradient id="a" x1="0%" x2="100%" y1="100%" y2="0%"><stop offset="0" stop-color="#2e27ad"/><stop offset="1" stop-color="#527fff"/></linearGradient><g fill="none" fill-rule="evenodd"><path d="m0 0h24v24h-24z" fill="url(#a)"/><path d="m10.0023056 18.9911728h.9990777v-6.0529635h-.9990777zm-2.92030437-9.07944518h.8811866c-.00299724.52862548.07592991.98158888.20481094 1.36191678-.50453428-.3692308-.9171534-.8453972-1.08599754-1.36191678zm5.73870277 1.38007568c.1318782-.3843632.2118045-.8433796.2088072-1.38007568h.9341377c-.1778358.54375788-.6244236 1.01891548-1.1429449 1.38007568zm-1.5126038.6375788h-.3067169v-2.01765448h1.0340455c.0089917 1.14501888-.4995389 1.79066838-.7273286 2.01765448zm-2.35182907-2.01765448h1.04603447v2.01765448h-.30971415c-.22878881-.2249685-.74431294-.8706179-.73632032-2.01765448zm6.08837997-.50441362c0-.27843632-.2237934-.50441362-.4995389-.50441362h-8.04557331c-.27574547 0-.49953889.2259773-.49953889.50441362 0 1.5878941 1.49262219 2.925599 3.00322779 3.4037831v6.6844893c0 .2784363.22279434.5044136.49953889.5044136h1.99815552c.2757455 0 .4995389-.2259773.4995389-.5044136v-6.6834805c1.5305872-.4802017 3.04419-1.8209331 3.04419-3.4047919zm-4.5667845-3.65094578c.9401322 0 1.7833538.52761665 2.2019674 1.37704918l-.8951737.44892812c-.2487704-.50441362-.7493083-.81715006-1.3067937-.81715006-.55648634 0-1.05602522.31273644-1.30379651.81715006l-.89517369-.44892812c.41761451-.84943253 1.26083615-1.37704918 2.1989702-1.37704918zm-2.86435599 1.04615385-.89317553-.44892812c.7143406-1.4517024 2.15401168-2.35359395 3.75753152-2.35359395 1.5995235 0 3.0371964.89785624 3.7545343 2.34350567l-.8931756.45094578c-.5464955-1.10163934-1.6424838-1.78562421-2.8613587-1.78562421-1.22087306 0-2.31885953.68701135-2.86435599 1.79369483zm6.40009219 12.18865073h.9990778v-4.035309h-.9990778zm4.9863972-7.5662043c0-.2784363-.2237934-.5044136-.4995389-.5044136h-2.9882416v1.0088272h2.3728097c-.2977252.6718789-1.1659238 1.3820933-2.4847064 2.0176545h-1.38672v-1.0088273h-.9990777v6.5573771c0 .2784363.2237934.5044136.4995388.5044136h1.9981556c.2767445 0 .4995389-.2259773.4995389-.5044136v-4.7313998c1.425684-.7152585 2.9882416-1.8380832 2.9882416-3.3392181z" fill="#fff"/></g></svg>