<svg height="24" viewBox="0 0 24 24" width="24" xmlns="http://www.w3.org/2000/svg" xmlns:xlink="http://www.w3.org/1999/xlink"><linearGradient id="a" x1="0%" x2="100%" y1="100%" y2="0%"><stop offset="0" stop-color="#b0084d"/><stop offset="1" stop-color="#ff4f8b"/></linearGradient><g fill="none" fill-rule="evenodd"><path d="m0 0h24v24h-24z" fill="url(#a)"/><path d="m8.00538392 12.98271h1.00165899v-.9901744h-1.00165899zm7.01161298.0009902h1.001659v-.9901744h-1.001659zm-2.226688-1.7605301c-.5078411.1277325-1.0487369.1277325-1.556578 0 .2013334.7812476.2013334 1.6526011 0 2.4338487.2544214-.0633711.5148527-.0970371.778289-.0970371s.5238677.033666.778289.0970371c-.2013334-.7812476-.2013334-1.6526011 0-2.4338487zm1.5796163-.90799c-.9645976.9525478-.9645976 3.2972809 0 4.2498287.0971609.0970371.1462422.2237794.1462422.3505217s-.0490813.2534847-.1462422.3505218c-.0981626.0960469-.2263749.1445654-.3545873.1445654-.1282123 0-.2564247-.0485185-.3535856-.1445654-.9335462-.9228426-2.3659186-.9228426-3.2984631 0-.1963252.193084-.51284941.193084-.70817291 0-.09816259-.0970371-.14724388-.2237795-.14724388-.3505218s.04908129-.2534846.14724388-.3505217c.96359591-.9525478.96359591-3.2972809 0-4.2498287-.09816259-.0970371-.14724388-.2237794-.14724388-.35052171 0-.12674233.04908129-.25348465.14724388-.35052175.1953235-.19308401.51184771-.19308401.70817291 0 .9325445.92284256 2.3649169.92284256 3.2984631 0 .1953235-.19308401.5118477-.19308401.7081729 0 .0971609.0970371.1462422.22377942.1462422.35052175 0 .12674231-.0490813.25348461-.1462422.35052171zm-7.50442922-2.2516566c0 .34062.28046452.61786884.62403355.61786884.3445707 0 .62503522-.27724884.62503522-.61786884s-.28046452-.61687867-.62503522-.61687867c-.34356903 0-.62403355.27625867-.62403355.61687867zm-1.001659 0c0-.88620611.73020941-1.60705309 1.62569255-1.60705309.89748647 0 1.62669422.72084698 1.62669422 1.60705309s-.72920775 1.60804326-1.62669422 1.60804326c-.89548314 0-1.62569255-.72183715-1.62569255-1.60804326zm11.26966542 8.9085993c0-.34062-.2794629-.6178689-.6240336-.6178689-.343569 0-.6250352.2772489-.6250352.6178689 0 .3396298.2814662.6168786.6250352.6168786.3445707 0 .6240336-.2772488.6240336-.6168786zm1.001659 0c0 .8862061-.7292078 1.6070531-1.6256926 1.6070531s-1.6266942-.720847-1.6266942-1.6070531.7302094-1.6080433 1.6266942-1.6080433 1.6256926.7218372 1.6256926 1.6080433zm-2.2547344-8.91256c0 .34062.2814661.61786884.6250352.61786884.3445707 0 .6240335-.27724884.6240335-.61786884s-.2794628-.61687867-.6240335-.61687867c-.3435691 0-.6250352.27625867-.6250352.61687867zm-1.001659 0c0-.88620611.7302094-1.60705309 1.6266942-1.60705309s1.6256925.72084698 1.6256925 1.60705309-.7292077 1.60804326-1.6256925 1.60804326-1.6266942-.72183715-1.6266942-1.60804326zm-6.76019662 8.9165207c0-.34062-.28046452-.6178689-.62503521-.6178689-.34356904 0-.62403356.2772489-.62403356.6178689 0 .3396298.28046452.6168786.62403356.6168786.34457069 0 .62503521-.2772488.62503521-.6168786zm1.001659 0c0 .8862061-.72920775 1.6070531-1.62669421 1.6070531-.89548314 0-1.62569255-.720847-1.62569255-1.6070531s.73020941-1.6080433 1.62569255-1.6080433c.89748646 0 1.62669421.7218372 1.62669421 1.6080433zm9.69605912-4.8974027c-.1181958-.1168406-.2744546-.1812019-.44073-.1812019-.167277 0-.3245375.0643613-.4427333.1812019-.2434031.2406124-.2434031.6317313 0 .8723436.2363916.2317009.6460701.2336812.8834633 0 .2434031-.2406123.2434031-.6317312 0-.8723436zm.7081729 1.572397c-.3075093.3039835-.7151845.471323-1.1489029.471323-.4357216 0-.8433969-.1673395-1.1509062-.471323-.6340501-.6267804-.6340501-1.6456699 0-2.2724503.6130153-.606977 1.6847905-.6079671 2.2998091 0 .6340501.6267804.6340501 1.6456699 0 2.2724503zm-13.4582903-1.566456c-.11819576-.1168406-.27445457-.1812019-.44072996-.1812019-.16727705 0-.32353586.0643613-.44173162.1812019-.24440479.2406124-.24440479.6317313 0 .8723437.23639152.2317008.64607005.2336812.88246158 0 .24440479-.2406124.24440479-.6317313 0-.8723437zm.70917457 1.572397c-.30750931.3039836-.71518453.471323-1.14990453.471323-.43572167 0-.84339688-.1673394-1.14990453-.471323-.63405015-.6267804-.63405015-1.6466601 0-2.2724503.61401696-.6069769 1.68378877-.6079671 2.29980906 0 .63304848.6257902.63304848 1.6456699 0 2.2724503zm2.99596206 3.7854368-.44473659.8871963c.91451466.4465687 1.77994806.6703481 2.64337806.6703481.8644317 0 1.7298651-.2237794 2.6433781-.6703481l-.4447366-.8871963c-1.5415532.7515424-2.8557298.7525326-4.39728297 0zm-.0220365-9.99482059-.4006636-.90699978c1.66475727-.72084697 3.57592267-.72084697 5.24268317 0l-.4006636.90699978c-1.4103358-.60994745-3.0310201-.60994745-4.44135597 0z" fill="#fff"/></g></svg>