<svg height="24" viewBox="0 0 24 24" width="24" xmlns="http://www.w3.org/2000/svg" xmlns:xlink="http://www.w3.org/1999/xlink"><linearGradient id="a" x1="0%" x2="100%" y1="100%" y2="0%"><stop offset="0" stop-color="#1b660f"/><stop offset="1" stop-color="#6cae3e"/></linearGradient><g fill="none" fill-rule="evenodd"><path d="m0 0h24v24h-24z" fill="url(#a)"/><path d="m11.968751 9.34539447c1.7680953 0 3.2076593 1.43912783 3.2076593 3.20890643 0 1.7687827-1.439564 3.2079105-3.2076593 3.2079105-1.3350313 0-2.5446235-.8415661-3.00854939-2.0944538l.93282952-.3465858c.32056677.8644726 1.15483697 1.4451034 2.07571987 1.4451034 1.2195477 0 2.2121102-.9919524 2.2121102-2.2119743 0-1.2200218-.9925625-2.2129702-2.2121102-2.2129702-.589365 0-1.125966.2479881-1.5311545.6433748h1.5311545v.9959362h-2.4898683c-.27477156 0-.49777456-.2230897-.49777456-.4979681v-2.46792994h.99554912v1.03378174c.55651194-.44219564 1.25140524-.70313093 1.99209374-.70313093zm4.1235645 8.65866933h-8.18440931l-1.84773916-7.3410457 5.90858397-4.53748536 5.9703081 4.57035126zm2.7118758-7.8997659-6.5327933-5.00159164c-.1791989-.1374392-.4270906-.13644326-.6062894 0l-6.4710693 4.96972164c-.15729676.1215042-.2269852.3246752-.17919884.5168909l2.02196026 8.0342173c.0567463.2210979.25486057.3764639.48284132.3764639h8.95994206c.2279807 0 .4270906-.1543701.4828413-.3764639l2.0219603-8.0013514c.0497774-.1932116-.0219021-.3963826-.1801944-.5178868z" fill="#fff"/></g></svg>