<svg height="24" viewBox="0 0 24 24" width="24" xmlns="http://www.w3.org/2000/svg" xmlns:xlink="http://www.w3.org/1999/xlink"><linearGradient id="a" x1="0%" x2="100%" y1="100%" y2="0%"><stop offset="0" stop-color="#055f4e"/><stop offset="1" stop-color="#56c0a7"/></linearGradient><g fill="none" fill-rule="evenodd"><path d="m0 0h24v24h-24z" fill="url(#a)"/><path d="m9.7236 3.273c0 .276.225.5.5.5s.5-.224.5-.5-.225-.5-.5-.5-.5.224-.5.5m-1 0c0-.827.673-1.5 1.5-1.5s1.5.673 1.5 1.5-.673 1.5-1.5 1.5-1.5-.673-1.5-1.5m5.724 5.688c0 3.708-3.017 6.724-6.724 6.724s-6.724-3.016-6.724-6.724c0-1.841.73-3.56 2.054-4.838l4.309-4.123.691.723-4.307 4.121c-1.126 1.087-1.747 2.55-1.747 4.117 0 3.156 2.568 5.724 5.724 5.724s5.724-2.568 5.724-5.724c0-1.584-.632-3.057-1.78-4.148l.69-.725c1.347 1.282 2.09 3.012 2.09 4.873" fill="#fff" transform="translate(4 4)"/></g></svg>