<svg height="24" viewBox="0 0 24 24" width="24" xmlns="http://www.w3.org/2000/svg" xmlns:xlink="http://www.w3.org/1999/xlink"><linearGradient id="a" x1="0%" x2="100%" y1="100%" y2="0%"><stop offset="0" stop-color="#4d27a8"/><stop offset="1" stop-color="#a166ff"/></linearGradient><g fill="none" fill-rule="evenodd"><path d="m0 0h24v24h-24z" fill="url(#a)"/><path d="m18.8849349 18.111c-.1437321.156-.3894018.167-.5453664.029l-2.3323333-2.063c.189604-.171.3608593-.358.5147851-.56l2.3323333 2.06c.1580034.14.1712553.381.0305813.534zm-8.7391143-4.997c0-1.673 1.3873714-3.034 3.0927882-3.034s3.0927881 1.361 3.0927881 3.034-1.3873713 3.034-3.0927881 3.034-3.0927882-1.361-3.0927882-3.034zm9.3925346 3.721-2.4954335-2.203c.1957202-.47.3078517-.981.3078517-1.518 0-2.225-1.844052-4.034-4.1121646-4.034s-4.11216464 1.809-4.11216464 4.034 1.84405204 4.034 4.11216464 4.034c.6941953 0 1.3374219-.185 1.9113308-.484l2.5076661 2.219c.268096.236.6034708.352.9378263.352.3843049 0 .7686098-.153 1.0458802-.454.5158045-.564.4699326-1.436-.102957-1.946zm-2.2864614-7.835h-1.0193764v-2.5c0-.277.2283403-.5.5096882-.5h2.0387529c.2823673 0 .5096882.223.5096882.5v7.5h-1.0193764v-7h-1.0193765zm-3.0581293 9h1.0193764v1.5c0 .276-.2273209.5-.5096882.5h-2.0387529c-.2813479 0-.5096882-.224-.5096882-.5v-1.5h1.0193764v1h1.0193765zm-1.0193765-10h-1.0193764v-3.5c0-.277.2283403-.5.5096882-.5h2.0387529c.2823673 0 .5096882.223.5096882.5v3.5h-1.0193764v-3h-1.0193765zm-3.0581293 10h1.0193764v1.5c0 .276-.2273209.5-.5096882.5h-2.03875288c-.2813479 0-.50968822-.224-.50968822-.5v-3.5h1.01937644v3h1.01937646zm-1.01937646-9h-1.01937644v-2.5c0-.277.22834032-.5.50968822-.5h2.03875288c.2823673 0 .5096882.223.5096882.5v1.5h-1.0193764v-1h-1.01937646zm-4.07750579 10h1.01937645v-9h-1.01937645zm1.52906467-10h-2.0387529c-.2813479 0-.50968822.223-.50968822.5v10c0 .276.22834032.5.50968822.5h2.0387529c.28236728 0 .50968823-.224.50968823-.5v-10c0-.277-.22732095-.5-.50968823-.5z" fill="#fff"/></g></svg>