<svg height="24" viewBox="0 0 24 24" width="24" xmlns="http://www.w3.org/2000/svg" xmlns:xlink="http://www.w3.org/1999/xlink"><linearGradient id="a" x1="0%" x2="100%" y1="100%" y2="0%"><stop offset="0" stop-color="#4d27a8"/><stop offset="1" stop-color="#a166ff"/></linearGradient><g fill="none" fill-rule="evenodd"><path d="m0 0h24v24h-24z" fill="url(#a)"/><path d="m12.9928997 7.9731611c.1863657-.06220606.3828052-.09531574.5842816-.09531574v1.00332351c-.1813287 0-.3515763.05718944-.4785064.16053176-.1229006.09932903-.2830744.13544868-.4372039.09932903-.153122-.03812629-.2800522-.14347526-.3435172-.28795385-.3707166-.85282498-.9811902-1.27221421-1.8646643-1.28224744-.67091641.01906315-1.04465516.35517652-1.23605775.63410046-.26191934.38126293-.2921408.80366213-.20953547 1.03442653.01914025.05317615.02921408.11136891.02921408.16855835 0 .26588073-.20953548.48861855-.47548434.50266508-.54197156.03009971-.93485056.17758831-1.17057797.44045901-.25889719.2899605-.25184552.6391171-.25184552.6431304-.00805905.2959804-.03324361.9561673 1.33981816 1.0253966.01914026.0010033.04029528.0040133.0614503.0070233h4.52616761v1.0033235h-4.53825619c-.0282067 0-.05540601-.0020067-.08361271-.0070233-2.15176811-.1183922-2.3320895-1.4498025-2.31194186-2.0186869-.00302214-.0290964-.02820669-.7254029.50671319-1.32137704.32135488-.3581865.76460299-.59497085 1.32067789-.70633975 0-.45149558.14808517-.93309087.42612262-1.33743024.45835884-.66721014 1.18971822-1.04746975 2.06009636-1.07154951 1.1212162.01304321 1.9875648.49664514 2.5466618 1.40565624m5.7602107 10.7837211c-.3102736.3090236-.8562747.307017-1.1605041.0040133l-3.8895022-3.9601179c.4301522-.3270835.8149721-.7103531 1.1433787-1.1397755l3.907635 3.9370414c.3193401.3200602.3183327.8397818-.0010074 1.1588387m-13.74572833-8.7369411c0-2.76616296 2.25955799-5.01661759 5.03691033-5.01661759 2.7773524 0 5.0369104 2.25045463 5.0369104 5.01661759 0 2.7661629-2.259558 5.0166175-5.0369104 5.0166175-2.77735234 0-5.03691033-2.2504546-5.03691033-5.0166175m14.46197703 6.8717627-4.0657941-4.0965699c.4351891-.8307519.6850199-1.773876.6850199-2.7751928 0-3.31999754-2.7108652-6.0199411-6.0442925-6.0199411-3.33241986 0-6.0442924 2.69994356-6.0442924 6.0199411 0 3.3199974 2.71187254 6.019941 6.0442924 6.019941 1.0073821 0 1.956336-.2498275 2.7924631-.6862733l4.0396021 4.1126231c.3455321.34414.8048983.5337681 1.294486.5337681.4885803 0 .9479465-.1896281 1.294486-.5337681.7112117-.7083464.7132265-1.8641751.0040295-2.5745281" fill="#fff"/></g></svg>