<svg height="80" viewBox="0 0 80 80" width="80" xmlns="http://www.w3.org/2000/svg" xmlns:xlink="http://www.w3.org/1999/xlink"><linearGradient id="a" x1="0%" x2="100%" y1="100%" y2="0%"><stop offset="0" stop-color="#4d27a8"/><stop offset="1" stop-color="#a166ff"/></linearGradient><g fill="none" fill-rule="evenodd"><path d="m0 0h80v80h-80z" fill="url(#a)"/><path d="m58.5757 25.9089-.125-.669-12.198 4.872 1.264 2.959c.026.08.538.129.622.137l.113.011c.096.009.187-.047.221-.139l.429-1.141 1.374.138.485-1.294 1.375.137.482-1.294 1.374.138.483-1.293 1.374.138.483-1.293 1.374.138.447-1.199c.027-.071.102-.097.176-.082.158.032.289-.114.247-.264zm-12.183 8.527c.022.043-1.092-2.772-1.123-2.796-.192-.384-.473-.593-.904-.563-.406.029-.705.224-.895.567-.031.057.039.185.077.202l.044.003c.092.007.186.014.276.032.094.014.184.04.273.065.085.03.175.058.254.096.083.036.161.076.237.12.151.085.284.184.411.285.111.089.193.211.234.348l.001.004c.018.056.023.078.031.113l.022.092c.013.061.023.119.032.178.019.118.032.235.039.353.015.235.01.474-.022.713s-.088.479-.173.712c-.043.117-.093.231-.15.343-.017.034-.037.068-.056.102.061.173.109.308.126.357.055.158.059.252.216.189.283-.116.74-.268.931-.491.263-.307.307-.658.119-1.024zm-2.479-.805c-.003-.058-.011-.116-.019-.172-.002-.001-.003-.002-.005-.003-.032-.02-.064-.036-.096-.049-.031-.018-.063-.023-.094-.037-.122-.035-.233-.043-.361-.015-.127.026-.272.09-.414.188-.071.048-.142.104-.209.165-.034.031-.067.063-.097.095-.112.097-.237.164-.237.164l-.125.065c-.18.092-.379.143-.581.148l-.222.005c-.176 0-.354-.013-.531-.019-.355-.025-.709-.068-1.061-.132-.177-.029-.349-.077-.524-.116-.173-.044-.343-.099-.515-.149-.169-.058-.337-.117-.504-.18-.162-.07-.328-.136-.488-.211-.318-.15-.632-.31-.93-.488-.149-.088-.299-.177-.441-.272-.146-.091-.288-.186-.428-.283-.562-.384-1.085-.799-1.6-1.205l-.764-.608c-.252-.201-.506-.398-.76-.592l-.382-.286-.386-.278-.39-.268-.397-.257c-.266-.167-.536-.329-.811-.48-.276-.151-.554-.297-.84-.428-.141-.07-.284-.134-.43-.196-.144-.064-.289-.127-.433-.18-.283-.115-.598-.218-.907-.326l.202-.747.481.094c.158.03.329.081.494.121.169.041.33.089.491.139.164.049.327.097.485.157.32.111.635.239.947.373.311.138.614.287.916.443l.445.244.436.257c.287.176.571.355.848.542.056.038.111.078.168.117.35-2.798 1.181-4.726 2.48-5.73 1.014-.785 1.96-.727 2.202-.696.019-.038.036-.077.055-.116.088-.181.179-.356.265-.524.041-.083.085-.168.123-.249s.083-.163.117-.242c.034-.08.074-.16.103-.239.031-.078.071-.162.091-.232l.039-.108.02-.055.02-.07.01-.034c-.103-.223-.274-.448-.494-.654-.276-.26-.618-.488-.985-.686-.738-.394-1.577-.664-2.426-.826-.422-.081-.865-.132-1.275-.151l-.176-.006-.042-.002c.006.001-.021.001-.03.001h-.077c-.103-.001-.207.002-.31.009-.207.009-.411.036-.615.066-.406.07-.806.178-1.189.334-.192.077-.38.163-.562.259l-.134.075-.116.067c.003.006.006.011.009.018.031.054.066.142.127.242.068.096.136.226.25.349.103.133.241.267.404.407.165.136.36.274.587.398.114.063.231.127.361.181.125.059.258.111.397.16.275.103.576.181.885.254.311.064.633.12.96.156.203.023.407.041.611.055l.008.651c-.21.014-.423.024-.637.028-.349.01-.702-.003-1.052-.027-.349-.033-.696-.075-1.032-.15-.169-.035-.334-.075-.496-.126-.162-.043-.318-.101-.471-.161-.305-.116-.587-.261-.839-.417-.25-.159-.474-.324-.652-.495-.189-.16-.321-.332-.441-.465-.028-.034-.052-.065-.075-.096l-.08.083c-.332.341-.667.675-1.005 1.006-.678.659-1.368 1.299-2.053 1.933-1.37 1.269-2.732 2.518-3.905 3.887-.583.686-1.114 1.403-1.563 2.16-.439.759-.8 1.557-1.042 2.39-.115.418-.221.839-.28 1.27-.039.217-.058.426-.079.634l-.017.157-.009.175-.017.349-.005.088-.001.063-.002.164.004.328c.007.218.016.435.037.65.037.431.107.854.208 1.266.051.205.109.409.178.606.066.201.148.392.225.569l.15.313c.055.117.114.234.161.355.051.121.1.241.142.365.046.122.087.247.123.373.3 1.003.37 2.091.14 3.145-.116.526-.312 1.04-.586 1.518-.171.292-.377.567-.607.82.338-.024.677-.064 1.017-.122.103-.018.204-.037.306-.056.072-.015.144-.028.216-.043.003-.001.006-.001.008-.001 2.081-.425 3.981-1.122 5.615-2.016.556-1.125.544-3.484-.035-6.483-.191-.987-.187-1.815.01-2.46.333-1.086 1.478-1.69 2.607-1.376 1.718.478 3.057.966 4.238 1.397 1.859.678 3.326 1.213 5.398 1.402.567.051 1.965.065 3.023.053.025.188.054.371.086.535l.181-.069c.068-.033.143-.06.209-.096.066-.035.133-.068.194-.109.021-.012.04-.025.061-.038.039-.026.077-.052.114-.079.002-.001.003-.002.004-.003.055-.042.109-.086.159-.132s.097-.094.14-.144c.042-.051.084-.102.119-.157.146-.214.235-.464.271-.739.019-.137.023-.281.013-.424zm-10.236 4.68c-.689 1.347-1.719 2.604-3.026 3.712 1.582 1.06 4.3 3.132 5.305 5.418l.501-.105c.176-1.133.762-6.352-2.78-9.025zm-.622-3.415c-1.063-.387-2.267-.812-3.752-1.225-.337-.094-.688.074-.781.376-.086.281-.151.812.029 1.74.33 1.711.603 3.851.395 5.601 2.413-1.79 3.933-4.076 4.109-6.492zm-1.866-17.526c.001-.001.002-.001.004-.002.483-.194.988-.332 1.502-.419.258-.039.518-.071.777-.083.061-.004.122-.003.182-.005v-.006s.114-.005.314-.013c.1-.002.217-.008.362-.009.144-.002.306-.003.482-.005.35.001.754.009 1.188.022.432.012.892.041 1.352.069.304.02.607.04.902.063-.5-1.397-1.803-2.362-3.262-2.476.023.017.049.035.071.052.102.072.19.156.277.228.081.081.161.151.226.227.136.143.235.276.303.372.033.048.06.087.081.121.021.033.023.04.025.042l-.599.417c.001.002-.013-.015-.025-.026-.015-.014-.038-.036-.066-.064-.065-.058-.16-.144-.287-.232-.061-.046-.135-.087-.207-.135-.079-.04-.156-.091-.244-.127-.086-.041-.175-.08-.269-.112-.091-.038-.189-.06-.284-.087-.095-.028-.194-.039-.288-.059-.097-.013-.193-.019-.282-.029-.092-.005-.182-.002-.265-.003-.083-.005-.165.011-.237.015-.074.008-.139.009-.2.023-.042.008-.078.014-.111.02-.353.25-.662.562-.905.932-.261.396-.435.834-.517 1.289zm-12.297 20.765c-.041-.102-.08-.204-.115-.307-.085-.242-.156-.489-.218-.736-.008-.036-.016-.072-.024-.108-1.846-.778-5.065-1.33-7.685-1.3-2.386.026-4.182.49-4.928 1.271-.243.254-.356.524-.345.826.051 1.434 2.774 2.043 5.457 2.016 2.958-.033 6.269-.846 7.858-1.662zm41.291-11.542-.004.043-.199 1.186-.808-.081-.483 1.293-1.375-.138-.482 1.294-1.375-.138-.484 1.294-1.372-.139-.482 1.293-1.376-.138-.484 1.294-1.376-.137-.486 1.295-.008.012-1.619-.135c.062.203.06.741.019.947-.096.477-.332.968-.822 1.176-1.025.433-2.142 1.05-3.168 1.477-.01.004-.211.099-.366.169-.179.072-.258-.006-.243-.151l.068-.391c.062-.311.068-.358.13-.67.016-.064.045-.23.055-.347-.001-.042-.029-.04-.082-.027-.045.013-.113.034-.161.056l-.599.217c-.013.004-.028-.004-.032-.018l-.151-.552c-1.102.013-2.569-.001-3.215-.06-1.791-.163-3.184-.568-4.62-1.07-.064.49-.172.974-.323 1.45 2.072 1.412 3.359 3.676 3.73 6.596.199 1.567.091 2.951-.009 3.722.005.006.009.01.009.011-.128 1.022 1.564-.042 2.232-.163s1.364.283 1.642 1.341c.226.859-.679 1.702-1.03 1.923l-.206.071c-.057-.035 0 0-.064-.036l-.418-.214c-1.209-.559-2.977-1.252-5.443-.006l-.776-1.444h.001c.286-.031.533-.343.603-.639-.768-1.765-3.073-3.69-5.193-5.036-2.065 1.413-4.625 2.494-7.493 3.084-.004.001-.007.003-.011.004-.184.04-.366.073-.55.105-.038.006-.076.014-.114.021-.041.007-.08.016-.121.023-.039.006-.078.008-.116.009-.185.027-.37.05-.555.068 1.007.437 2.073 1.104 2.274 2.021.341 1.559-1.549 2.241-2.051 1.992-.379-.188-1.018-2.174-4.075-3.98l-.026.002-.11-1.487c.445-.033.797-.099 1.168-.231.362-.135.693-.326.984-.566.288-.244.532-.539.725-.87.19-.334.331-.702.415-1.088.167-.773.119-1.607-.12-2.391-.014-.054-.034-.105-.051-.158-1.994.98-5.517 1.761-8.459 1.793-.077.001-.152.001-.227.001-4.2 0-6.745-1.315-6.824-3.538-.026-.728.244-1.409.78-1.971 1.067-1.119 3.16-1.727 6.052-1.759 2.482-.028 5.385.417 7.452 1.103-.006-.121-.011-.241-.015-.361l-.004-.373.003-.186.002-.111.005-.088.018-.349.01-.175.018-.192c.025-.256.051-.512.094-.755.07-.494.19-.982.324-1.462.28-.961.695-1.877 1.192-2.732.505-.85 1.091-1.638 1.718-2.373 1.262-1.468 2.663-2.745 4.031-4.012.686-.633 1.366-1.263 2.028-1.906.33-.322.656-.645.976-.974l.493-.511c.145-.146.304-.284.472-.416-.053-1.05.224-2.081.81-2.972.747-1.137 1.905-1.907 3.259-2.168 2.77-.534 5.517 1.265 6.123 4.011l-.114.025c.047.006.097.012.143.018.342.045.626.087.825.122.199.032.315.056.315.056l-.123 1.236s-.111.002-.31-.002c-.197-.001-.481-.008-.82-.019-.112-.003-.232-.007-.354-.011.169.125.336.257.494.407.387.365.751.829.944 1.423.008.021.015.042.021.062 0 .001.001.001.001.002.009.029.015.055.017.065.013.072.011.085.014.122v.054l-.002.035c-.003.035-.005.057-.008.072-.005.033-.009.049-.013.066l-.015.058-.006.018-.02.07-.041.141-.021.07-.029.084-.059.167c-.04.116-.083.209-.126.312-.042.103-.091.196-.137.295-.094.192-.196.374-.298.549-.102.174-.202.34-.302.501-.097.159-.185.317-.271.47-.039.077-.086.154-.12.231-.037.077-.08.153-.11.231-.03.079-.072.155-.098.235-.028.08-.065.158-.086.241-.022.082-.055.163-.077.247-.02.085-.042.17-.067.255l-1.018-.077c-.007-.216-.006-.436.02-.656.005-.079.019-.156.032-.234-.211.042-.51.147-.835.412-.729.594-1.655 2.033-1.95 5.504.018.012.035.025.053.037.262.192.523.381.785.564s.521.364.783.533c.131.086.263.168.396.248.132.082.264.156.398.231.267.15.537.286.81.41.136.061.276.113.414.172l.419.148c.141.04.282.086.425.123.144.031.287.07.432.098.289.058.583.098.879.124.149.008.333.022.482.028l.115.005c.121 0 .098-.071.098-.071l-.223-.544c-.05-.12-.185-.18-.307-.136l-.399.132c-.025.009-.052.002-.071-.016l-.887-.896c-.036-.035-.023-.094.023-.112l19.623-7.756zm-25.032-5.914c-.512.017-.942-.234-.962-.562-.019-.329.379-.609.892-.627.512-.018.942.233.962.562.019.328-.38.608-.892.627z" fill="#fff" transform="translate(8 8)"/></g></svg>