<svg height="24" viewBox="0 0 24 24" width="24" xmlns="http://www.w3.org/2000/svg" xmlns:xlink="http://www.w3.org/1999/xlink"><linearGradient id="a" x1="0%" x2="100%" y1="100%" y2="0%"><stop offset="0" stop-color="#055f4e"/><stop offset="1" stop-color="#56c0a7"/></linearGradient><g fill="none" fill-rule="evenodd"><path d="m0 0h24v24h-24z" fill="url(#a)"/><path d="m15 16h1v-6h-1zm-1 1h3v-8h-3zm-3-1h1v-4h-1zm-1 1h3v-6h-3zm-3-1h1v-1h-1zm-1 1h3v-3h-3zm11-12v1h1.168l-1.199 1h-3.028c-.18 0-.347.098-.436.256l-.977 1.744h-2.933c-.217 0-.408.139-.476.345l-.865 2.655h-2.254v1h2.617c.217 0 .408-.139.476-.345l.865-2.655h2.863c.181 0 .348-.098.437-.256l.976-1.744h2.916c.118 0 .231-.041.321-.116l1.529-1.277v1.393h1v-3zm1 4h1v10h-15v-14h11v1h-10v12h13z" fill="#fff"/></g></svg>