<svg height="24" viewBox="0 0 24 24" width="24" xmlns="http://www.w3.org/2000/svg" xmlns:xlink="http://www.w3.org/1999/xlink"><linearGradient id="a" x1="0%" x2="100%" y1="100%" y2="0%"><stop offset="0" stop-color="#b0084d"/><stop offset="1" stop-color="#ff4f8b"/></linearGradient><g fill="none" fill-rule="evenodd"><path d="m0 0h24v24h-24z" fill="url(#a)"/><path d="m14.7598562 9.2414686c-.0585378-.20216439-.2371791-.34656752-.4491264-.36150578-.2381883-.02190944-.4117832.10257602-.4975714.29478157l-1.9872579 4.41176471-1.3382956-2.6400876c-.0817511-.1613332-.2452533-.265901-.4269224-.2748639-.19378034-.0179259-.35526397.0806665-.45215415.2320409l-1.2010345 1.8812242h-3.21453353v.9958837h3.49208352c.1735949 0 .33507853-.0876378.42692235-.2320409l.87403015-1.3663524 1.41500036 2.7934537c.0857881.1693003.2603923.2758598.4511449.2758598h.0121112c.1947897-.0049794.3693938-.119506.4491264-.2957774l1.8540339-4.1169832.7387876 2.5793388c.0615657.2141149.2593831.3625016.4854602.3625016h4.3307891v-.9958837h-3.949284zm-2.7401754 9.477825-3.33665551-4.0074359-.78016779.6313902 3.7242162 4.4745054c.0958809.1145266.2391977.1812508.3895793.1822467h.0010093c.1503816 0 .2926891-.0667242.38857-.1802549l3.7585315-4.4735095-.77714-.6353738zm-6.61981957-8.2558757-.8871507.4750365c-.3401249-.6184438-.51271053-1.25979287-.51271053-1.90512549 0-2.22380826 1.92064593-4.03332891 4.28234404-4.03332891 1.62291049 0 3.03690156.86343115 3.75651296 2.13218696.7186022-1.26875581 2.1325932-2.13218696 3.7544944-2.13218696 2.3586703 0 4.2066486 1.77167707 4.2066486 4.03332891 0 .7379498-.1372611 1.35240999-.421876 1.88022839l-.8901785-.4680653c.2038731-.3794317.3027818-.84152174.3027818-1.41216309 0-1.7029611-1.4038983-3.03744523-3.1973759-3.03744523-1.8217372 0-3.2498581 1.33548002-3.2498581 3.04043288 0 .27486389-.226077.49794184-.5046363.49794184-.2795685 0-.5046363-.22307795-.5046363-.49794184 0-1.70495286-1.4281209-3.04043288-3.25187666-3.04043288-1.80457958 0-3.27307135 1.36236888-3.27307135 3.03744523 0 .47802416.13120545.95903598.39058854 1.43008899z" fill="#fff"/></g></svg>