<svg height="24" viewBox="0 0 24 24" width="24" xmlns="http://www.w3.org/2000/svg" xmlns:xlink="http://www.w3.org/1999/xlink"><linearGradient id="a" x1="0%" x2="100%" y1="100%" y2="0%"><stop offset="0" stop-color="#b0084d"/><stop offset="1" stop-color="#ff4f8b"/></linearGradient><g fill="none" fill-rule="evenodd"><path d="m0 0h24v24h-24z" fill="url(#a)"/><path d="m12 17.498c-1.379 0-2.5-1.122-2.5-2.5s1.121-2.5 2.5-2.5c.532 0 1.023.17 1.43.455l-1.508 2.26-.568-.569-.708.708 1 1c.094.094.222.146.354.146.017 0 .033-.001.049-.002.149-.015.284-.096.367-.221l1.713-2.569c.23.378.371.817.371 1.292 0 1.378-1.121 2.5-2.5 2.5zm0-6c-1.93 0-3.5 1.57-3.5 3.5s1.57 3.5 3.5 3.5 3.5-1.57 3.5-3.5-1.57-3.5-3.5-3.5zm-4-1.5h8v-1h-8zm0-2h3v-1h-3zm-1 11v-13.998h7.023v2.451c0 .276.224.5.5.5h2.477v11.047zm8.023-13.298 1.262 1.251h-1.262zm2.829 1.396-2.977-2.951c-.093-.093-.22-.145-.352-.145h-8.023c-.276 0-.5.224-.5.5v14.998c0 .276.224.5.5.5h11c.276 0 .5-.224.5-.5v-12.047c0-.133-.054-.261-.148-.355z" fill="#fff"/></g></svg>