<svg height="24" viewBox="0 0 24 24" width="24" xmlns="http://www.w3.org/2000/svg" xmlns:xlink="http://www.w3.org/1999/xlink"><linearGradient id="a" x1="0%" x2="100%" y1="100%" y2="0%"><stop offset="0" stop-color="#4d27a8"/><stop offset="1" stop-color="#a166ff"/></linearGradient><g fill="none" fill-rule="evenodd"><path d="m0 0h24v24h-24z" fill="url(#a)"/><path d="m12.927 17.868c.103-.209.165-.441.165-.689 0-.695-.454-1.28-1.079-1.491v-2.02c.82-.19 1.464-.834 1.655-1.654h2.02c.211.625.795 1.079 1.49 1.079.248 0 .48-.063.689-.165-.546 2.457-2.482 4.394-4.94 4.94m-7.768-4.94c.209.102.442.165.69.165.695 0 1.28-.454 1.49-1.079h2.02c.19.82.835 1.464 1.654 1.654v2.02c-.625.211-1.079.796-1.079 1.491 0 .248.062.48.165.689-2.457-.547-4.394-2.483-4.94-4.94m1.269-1.414c0 .319-.26.579-.579.579s-.579-.26-.579-.579.26-.579.579-.579.579.26.579.579m3.671-6.354c-.103.208-.165.44-.165.689 0 .695.454 1.28 1.079 1.49v2.02c-.819.191-1.464.835-1.654 1.655h-2.02c-.21-.625-.795-1.079-1.49-1.079-.248 0-.481.063-.69.165.547-2.458 2.483-4.394 4.94-4.94m1.414.11c.319 0 .579.26.579.579s-.26.579-.579.579-.579-.26-.579-.579.26-.579.579-.579m0 7.46c-.67 0-1.216-.545-1.216-1.216s.546-1.217 1.216-1.217c.671 0 1.217.546 1.217 1.217s-.546 1.216-1.217 1.216m0 5.028c-.319 0-.579-.26-.579-.579 0-.32.26-.58.579-.58s.579.26.579.58c0 .319-.26.579-.579.579m6.244-6.244c0 .319-.26.579-.579.579s-.579-.26-.579-.579.26-.579.579-.579.579.26.579.579m.11-1.414c-.209-.102-.441-.165-.689-.165-.695 0-1.279.454-1.49 1.079h-2.02c-.19-.82-.835-1.464-1.655-1.655v-2.02c.625-.21 1.079-.795 1.079-1.49 0-.249-.062-.481-.165-.689 2.457.546 4.394 2.482 4.94 4.94m-6.354-6.1c-4.143 0-7.513 3.371-7.513 7.514s3.37 7.513 7.513 7.513 7.514-3.37 7.514-7.513-3.371-7.514-7.514-7.514" fill="#fff"/></g></svg>