<svg height="24" viewBox="0 0 24 24" width="24" xmlns="http://www.w3.org/2000/svg" xmlns:xlink="http://www.w3.org/1999/xlink"><linearGradient id="a" x1="0%" x2="100%" y1="100%" y2="0%"><stop offset="0" stop-color="#c8511b"/><stop offset="1" stop-color="#f90"/></linearGradient><g fill="none" fill-rule="evenodd"><path d="m0 0h24v24h-24z" fill="url(#a)"/><path d="m6.00207095 11.0091472h-1.00207095v-2.06789613c0-.1768201.09419467-.34065342.24650945-.43056195l3.26775336-1.91605062.50905204.8611239-3.0212439 1.771198zm13.99792905 0h-1.0020709v-1.76320611l-3.47418-1.77619292.4579464-.88909544 3.7457412 1.91605062c.1673459.0859126.2725633.25773778.2725633.44454772zm-9.8693968 8.675174-4.88409375-2.8650851c-.15231478-.0899085-.24650945-.2537419-.24650945-.430562v-2.382576h1.00207095v2.0968667l4.63758435 2.7192335zm4.2598036.0089908-.4739795-.8801046 5.0815018-2.7232294v-2.0838799h1.0020709v2.382576c0 .183813-.1022112.3526413-.2645467.4395528zm-3.3779811-10.6741402 1.498096.93005377 1.4389739-.92405987v-2.24271828l-1.4379718-.72626111-1.4990981.73025705zm-2.47812147 2.4065516 3.98222997 1.587385 3.9461554-1.5714013-2.3708999-1.3196574-1.0752221.6912967v1.163816h-1.002071v-1.1588211l-1.2115037-.7512357zm-.04409112 2.990957 4.02531899 2.0269378 4.0122921-2.0189459-2.1053511-1.0948861-1.4059055.5604298v1.0799014h-1.002071v-1.0809003l-1.4700381-.5864034zm4.52635449 5.5833196h-1.002071v-2.689264l-4.82897987-2.4325251c-.16634377-.0839147-.27256329-.2527429-.27563467-.4385539-.00294105-.1848119.09826812-.3576361.26160568-.4465456l2.16347118-1.1718079-2.10935935-.8411442c-.17736656-.0709278-.29861714-.2347611-.3136482-.423569-.01503107-.188808.07816153-.370623.24049702-.4685234l2.86391881-1.71525489c-.0040083-.02497459-.0060125-.04994918-.0060125-.07592276v-2.82212879c0-.19080587.1092258-.36462903.2805799-.44854365l2.0041419-.97600702c.141292-.06793089.3056316-.06693191.4469236.00299695l1.933997.97600702c.1683479.08491361.2755695.25673879.2755695.4455467v2.82212879c0 .04994918-.0080166.09989837-.0230477.1468506l2.9420803 1.63633525c.168348.0939044.267553.2767184.2555281.4685233-.0130269.1918048-.1352795.3596341-.3146502.4315609l-2.1624692.8611239 2.2085644 1.1478322c.1663438.0869116.2705592.2597358.2695643.4465457-.0010093.1878089-.1082309.3586351-.2755767.4425498l-4.8349923 2.4325251z" fill="#fff"/></g></svg>