<svg height="24" viewBox="0 0 24 24" width="24" xmlns="http://www.w3.org/2000/svg" xmlns:xlink="http://www.w3.org/1999/xlink"><linearGradient id="a" x1="0%" x2="100%" y1="100%" y2="0%"><stop offset="0" stop-color="#b0084d"/><stop offset="1" stop-color="#ff4f8b"/></linearGradient><g fill="none" fill-rule="evenodd"><path d="m0 0h24v24h-24z" fill="url(#a)"/><path d="m5.97544475 14.9516681h4.0090203v-1.0105672h-4.0090203zm0-4.0503531h3.00676522v-1.01056716h-3.00676522zm0 2.0605464h6.01353045v-1.0105672h-6.01353045zm4.96918065 5.0275715h-5.94237033v-9.20222437h5.94237033v2.12825437h1.0022551v-2.63353793c0-.2799271-.2245052-.50528357-.5011276-.50528357h-6.94462536c-.2766224 0-.50112754.22535647-.50112754.50528357v10.21279143c0 .2789166.22450514.5052836.50112754.5052836h6.94462536c.2766224 0 .5011276-.226367.5011276-.5052836v-4.5475521h-1.0022551zm9.0553746-7.0507269c0 2.115117-1.6066149 2.9104333-2.4555249 3.0347331l-4.5532448.0050528v-1.0105671h4.4800801c.0892008-.0202114 1.5264345-.3001385 1.5264345-2.0292188 0-.887278-.4770734-1.36426567-1.5464796-1.54616775-.2575795-.04345439-.4379854-.27891653-.4159358-.54065342 0-.00404227.0010022-.0090951.0010022-.01414794-.0220496-.76196762-.4770734-.9964192-.6755199-1.06311663-.3517915-.11823635-.7206214-.0181902-.9180656.25062065-.1092458.14855337-.2956653.22333534-.4760712.19706059-.1824104-.02829587-.3357554-.15461677-.396893-.33045545-.157354-.44464954-.3908795-.73771401-.7176146-1.06715889-.384866-.38502608-1.4412428-1.2147017-2.9065397-.59320291-.384866.16270131-.7356553.47900882-1.01127541.91456326l-.84389877-.54570626c.3858682-.60735085.89300927-1.05705322 1.46730138-1.3005999 1.4031572-.59522404 2.9015285-.29306447 4.0030068.80946428.2295164.23141987.4590328.48810392.6564771.81451711.4319719-.22939874.9621649-.2738637 1.4582811-.10914125.5793035.19402889 1.1926836.7286189 1.3340015 1.66440407 1.6326735.42342763 1.9904786 1.55324164 1.9904786 2.45972044z" fill="#fff"/></g></svg>