<svg height="24" viewBox="0 0 24 24" width="24" xmlns="http://www.w3.org/2000/svg" xmlns:xlink="http://www.w3.org/1999/xlink"><linearGradient id="a" x1="0%" x2="100%" y1="100%" y2="0%"><stop offset="0" stop-color="#2e27ad"/><stop offset="1" stop-color="#527fff"/></linearGradient><g fill="none" fill-rule="evenodd"><path d="m0 0h24v24h-24z" fill="url(#a)"/><path d="m16.0318795 12.5461162v-3.09198143l-2.2551616 1.43455893zm-7.03558204.4898984h6.00740504l-2.1356761-1.5690802-.5984312.3804743c-.0823345.0522023-.1757138.0783034-.2700972.0783034-.0933794 0-.1867587-.0261011-.2690932-.0783034l-.5984312-.3804743zm-1.02817697-3.58187983v3.09198143l2.25516161-1.6574225zm6.84179481-.41259882h-5.61983058l2.80941328 1.78792825zm1.2219642 8.74890195c0-.3242564-.2439912-.5692056-.5683087-.5692056-.3253217 0-.570317.2449492-.570317.5692056 0 .3242565.2449953.5692057.570317.5692057.3243175 0 .5683087-.2449492.5683087-.5692057zm-3.4229055.6344586c0-.3132137-.2741136-.5682018-.609476-.5682018s-.608472.2549881-.608472.5682018c0 .3152215.2731096.5712134.608472.5712134s.609476-.2559919.609476-.5712134zm-3.57050522-.6344586c0-.3242564-.24399121-.5692056-.56830875-.5692056s-.56931284.2449492-.56931284.5692056c0 .3242565.2449953.5692057.56931284.5692057s.56830875-.2449492.56830875-.5692057zm7.99748982-9.25084699v4.99836869c0 .2770737-.2249137.501945-.5020396.501945h-4.0323815v.9245828h2.9620333c.2771258 0 .5020395.2248714.5020395.501945v.8382482c.6265453.2057975 1.0703483.7810265 1.0703483 1.4857573 0 .8824194-.6908064 1.5730958-1.5723878 1.5730958-.8825855 0-1.574396-.6906764-1.574396-1.5730958 0-.7047308.444807-1.2799598 1.0723564-1.4867612v-.3352992h-2.4599937v.9697578c.6436147.2078052 1.1115155.7920692 1.1115155 1.4867612 0 .8683649-.723941 1.5751035-1.613555 1.5751035-.88861 0-1.612551-.7067386-1.612551-1.5751035 0-.694692.4679008-1.278956 1.1105114-1.4867612v-.9697578h-2.52525884v.3363031c.62654534.2057975 1.07034834.7810265 1.07034834 1.4857573 0 .8824194-.69080645 1.5730958-1.57238787 1.5730958-.88158143 0-1.57339191-.6906764-1.57339191-1.5730958 0-.7047308.44480703-1.2799598 1.07135237-1.4857573v-.8382482c0-.2770736.22390963-.501945.50203954-.501945h3.02729837v-.9245828h-4.03137745c-.2781299 0-.50203953-.2248713-.50203953-.501945v-4.99836869c0-.27807755.22390963-.50194503.50203953-.50194503h9.06783805c.2771259 0 .5020396.22386748.5020396.50194503zm2.9640414 3.46040909c0 1.4827456-.5823659 3.2465805-1.5573266 4.7192872l-.837402-.5541473c.8715406-1.315096 1.3906495-2.8721295 1.3906495-4.1651399 0-3.85794955-3.1387511-6.99610993-6.9964229-6.99610993-3.85666775 0-6.99541893 3.13816038-6.99541893 6.99610993 0 1.287991.51910888 2.8460284 1.38964544 4.1651399l-.83740195.5531434c-.9739567-1.4767223-1.55632256-3.241561-1.55632256-4.7182833 0-4.41109299 3.5885786-8 7.999498-8 4.4119234 0 8.000502 3.58890701 8.000502 8z" fill="#fff"/></g></svg>