<svg height="24" viewBox="0 0 24 24" width="24" xmlns="http://www.w3.org/2000/svg" xmlns:xlink="http://www.w3.org/1999/xlink"><linearGradient id="a" x1="0%" x2="100%" y1="100%" y2="0%"><stop offset="0" stop-color="#c8511b"/><stop offset="1" stop-color="#f90"/></linearGradient><g fill="none" fill-rule="evenodd"><path d="m0 0h24v24h-24z" fill="url(#a)"/><path d="m18.0061759 9.14199616-1.4728473-.76940889-1.4738411.76940889v1.92149214l1.4738411.7592584 1.4728473-.7592584zm-4.5586711-3.29485654-1.4728473-.76940889-1.4738411.76940889v1.92149212l1.4738411.75925838 1.4728473-.75925838zm-4.50699227 3.29485654-1.47284731-.76940889-1.47384113.76940889v1.92149214l1.47384113.7592584 1.47284731-.7592584zm10.05948747-.3106057v2.54473364c0 .1918447-.1053454.3664335-.2723078.4527129l-1.9707532 1.0150513c-.0705615.0365418-.1470859.0548128-.2236104.0548128-.0775183 0-.1540427-.018271-.2246042-.0548128l-1.9697594-1.0150513c-.1669624-.0862794-.2733016-.2608682-.2733016-.4527129v-2.3599943l-.248456-.30045519-1.6189395.83335713c-.141123.07308369-.3060978.07308369-.4482147 0l-1.6030382-.82625177-.21267838.28116921v2.37217492c0 .1918447-.10633918.3664335-.2723078.4527129l-1.97075318 1.0150513c-.14112302.0720686-.30709164.0720686-.44821466 0l-1.97075318-1.0150513c-.16596862-.0862794-.2723078-.2608682-.2723078-.4527129v-2.54473364c0-.19082964.10534535-.36541847.27131398-.45169783l1.96975935-1.02926203c.14211685-.07409874.31007312-.07409874.45218996 0l1.60204444.83741733.21168453-.27913911v-2.3721749c0-.19082965.10534536-.36541847.27131398-.45169783l1.96975936-1.02926203c.1421168-.07409875.3110669-.07409875.45219 0l1.9707531 1.02926203c.1659687.08627936.2703202.26086818.2703202.45169783v2.35897924l.2464684.30045518 1.6189394-.84553774c.1421169-.07409874.3110669-.07409874.45219 0l1.9707531 1.02926203c.1659687.08627936.2703202.26086819.2703202.45169783zm-.8129481 6.37147704-3.3988784-2.017922-.4988997.8770044 2.6902818 1.5976907-5.0048981 3.2319234-5.00390432-3.2319234 2.69525094-1.5966757-.4988997-.8790344-3.40484134 2.017922c-.15106126.0893245-.2434869.2517327-.24753606.4293667-.00290761.177634.08454891.3441024.23064105.4385021l5.96294453 3.8511047c.0814936.0527827.1739192.079174.2663449.079174.0914318 0 .1838574-.0263913.265351-.079174l5.9629446-3.8511047c.1470859-.0943997.2345425-.2608681.2316348-.4374871-.0030553-.177634-.0974686-.3400422-.247536-.4293667zm-6.7093065.8577184v-3.2867362l-.6728189.4110958-.5108256-.869899 1.4251438-.8729441c.1570242-.0964298.3528075-.0964298.5108256 0l1.4241499.8729441-.5108256.869899-.6718251-.4110958v3.2867362l.6718251-.4121109.5108256.8709141-1.4241499.871929c-.0795059.0487225-.1669625.0730837-.2554128.0730837-.0884504 0-.1769007-.0243612-.2554128-.0730837l-1.4251438-.871929.5108256-.8709141z" fill="#fff"/></g></svg>