<svg height="24" viewBox="0 0 24 24" width="24" xmlns="http://www.w3.org/2000/svg" xmlns:xlink="http://www.w3.org/1999/xlink"><linearGradient id="a" x1="0%" x2="100%" y1="100%" y2="0%"><stop offset="0" stop-color="#b0084d"/><stop offset="1" stop-color="#ff4f8b"/></linearGradient><g fill="none" fill-rule="evenodd"><path d="m0 0h24v24h-24z" fill="url(#a)"/><path d="m10.953 7.44704044c.149-.156.352-.244.568-.248.005 0 .011-.001.016-.001.21 0 .409.081.562.227.321.309.332.822.022 1.145-.31.322-.824.331-1.146.022-.156-.15-.244-.352-.249-.568-.003-.216.077-.421.227-.577zm.583 2.268h.034c.456-.009.881-.195 1.197-.524.652-.679.631-1.761-.047-2.412-.679-.653-1.762-.631-2.413.046-.317.329-.486.761-.477 1.217.01.456.195.881.523 1.197.322.307.74.476 1.183.476zm-2.285-1.765c.127-.058.223-.166.267-.299l.178-.544c.043-.133.029-.278-.04-.4l-.44-.785 1.043-.756.604.656c.096.104.262.14.371.162l.588-.004c.139-.001.271-.059.365-.161l.6-.651 1.041.758-.438.781c-.069.121-.083.265-.041.397l.175.55c.043.134.141.244.268.302l.816.375-.399 1.225-.882-.177c-.138-.027-.28.004-.395.087l-.465.342c-.112.082-.185.20699996-.202.34499996l-.103.888-1.289-.001-.103-.881c-.016-.137-.088-.26099996-.199-.34399996l-.472-.349c-.113-.083-.254-.115-.395-.089l-.875.175-.397-1.226zm-1.236 2.33299996c.077.241.324.385.573.337l1.094-.219.12.089.129 1.108c.03.251.243.442.497.442l2.178.002c.254 0 .467-.19.497-.442l.131-1.114.113-.083 1.101.221c.25.052.495-.094.574-.335l.675-2.07199996c.078-.241-.036-.503-.266-.609l-1.021-.469-.042-.132.55-.979c.125-.221.063-.5-.142-.649l-1.761-1.282c-.205-.149-.489-.121-.663.066l-.753.819h-.15l-.756-.821c-.173-.187-.455-.214-.662-.066l-1.764 1.279c-.205.149-.266.428-.141.65l.551.982-.041.127-1.025.469c-.23.106-.346.367-.267.609zm10 8.632h-1.062v-2.063h.062 1zm-6 0h-1.015v-2.063h.015 1zm-5.999 0h-1.016v-2.063h.016 1zm12.499-3.063h-.5v-1.5c0-.276-.223-.5-.5-.5h-5.5v-.927h-1v.927h-5.499c-.277 0-.5.224-.5.5v1.5h-.516c-.276 0-.5.224-.5.5v3.063c0 .276.224.5.5.5h2.016c.276 0 .499-.224.499-.5v-3.063c0-.276-.223-.5-.499-.5h-.5v-1h4.999v1h-.515c-.276 0-.5.224-.5.5v3.063c0 .276.224.5.5.5h2.015c.277 0 .501-.224.501-.5v-3.063c0-.276-.224-.5-.501-.5h-.5v-1h5v1h-.562c-.276 0-.5.224-.5.5v3.063c0 .276.224.5.5.5h2.062c.277 0 .501-.224.501-.5v-3.063c0-.276-.224-.5-.501-.5z" fill="#fff"/></g></svg>