<svg height="24" viewBox="0 0 24 24" width="24" xmlns="http://www.w3.org/2000/svg" xmlns:xlink="http://www.w3.org/1999/xlink"><linearGradient id="a" x1="0%" x2="100%" y1="100%" y2="0%"><stop offset="0" stop-color="#055f4e"/><stop offset="1" stop-color="#56c0a7"/></linearGradient><g fill="none" fill-rule="evenodd"><path d="m0 0h24v24h-24z" fill="url(#a)"/><path d="m6.94950677 10h2.92426016v-1h-2.92426016zm0-2h2.92426016v-1h-2.92426016zm7.79802713 11h.9747533v-2h-.9747533zm-2.9242602 1h.9747534v-3h-.9747534zm-2.92426016-1h.97475339v-2h-.97475339zm-2.92426015-4h4.87376691v-9h-4.87376691zm5.84852031.5c0 .276-.2183448.5-.4873767.5h-5.84852031c-.26903193 0-.48737669-.224-.48737669-.5v-10c0-.276.21834476-.5.48737669-.5h5.84852031c.2690319 0 .4873767.224.4873767.5zm8.1762314-2.333c.0155961.899-.3372647 1.615-1.0810015 2.179-.7953988.609-1.7769754.652-1.8188898.654h-3.3268333v-1h3.3102625c-.0107223 0 .7066962-.037 1.2554823-.457.4912757-.374.6959739-.782.6862264-1.367 0-1.002-.6179936-1.808-1.4367865-1.885-.2661077-.025-.4639826-.267-.4405885-.54.0009747-.012.011697-.097.0136465-.109.0126718-.082.0253436-.167-.1023491-.45-.0662832-.148-.1822788-.275-.3177696-.347-.4493613-.242-.9143186-.195-1.2398863.125-.1179451.116-.2856027.165-.4454623.126-.1588848-.037-.2895017-.154-.3470122-.311-.363583-.993-1.2593814-1.69-2.2828724-1.776-.071157-.006-.1452383-.009-.2202943-.009v-1c.0994249 0 .1988497.004.2972998.012 1.1979719.101 2.2653269.81 2.8589517 1.86.5575589-.267 1.2184417-.243 1.8325364.087.3265423.177.5916753.465.7486106.812.1150209.254.1686323.451.1900769.614 1.090749.331 1.8666527 1.448 1.8666527 2.782z" fill="#fff"/></g></svg>