<svg height="24" viewBox="0 0 24 24" width="24" xmlns="http://www.w3.org/2000/svg" xmlns:xlink="http://www.w3.org/1999/xlink"><linearGradient id="a" x1="0%" x2="100%" y1="100%" y2="0%"><stop offset="0" stop-color="#055f4e"/><stop offset="1" stop-color="#56c0a7"/></linearGradient><g fill="none" fill-rule="evenodd"><path d="m0 0h24v24h-24z" fill="url(#a)"/><path d="m9 20h6v-1h-6zm1-5.105c0-.188-.105-.36-.272-.446-1.683-.861-2.728-2.566-2.728-4.449 0-2.757 2.243-5 5-5s5 2.243 5 5c0 1.883-1.045 3.588-2.728 4.449-.167.086-.272.258-.272.446v2.105h-4zm5 2.605v-2.309c1.858-1.072 3-3.034 3-5.191 0-3.309-2.691-6-6-6s-6 2.691-6 6c0 2.157 1.142 4.119 3 5.191v2.309c0 .276.224.5.5.5h5c.276 0 .5-.224.5-.5zm-2.088-10.318-.99-.141-.916 6.411.99.141zm2.653 3.435c.133-.178.133-.422 0-.6l-1.374-1.832-.8.6 1.149 1.532-1.149 1.532.8.6zm-5.837 1.832-1.374-1.832c-.133-.178-.133-.422 0-.6l1.374-1.832.8.6-1.149 1.532 1.149 1.532z" fill="#fff"/></g></svg>