<svg height="24" viewBox="0 0 24 24" width="24" xmlns="http://www.w3.org/2000/svg" xmlns:xlink="http://www.w3.org/1999/xlink"><linearGradient id="a" x1="0%" x2="100%" y1="100%" y2="0%"><stop offset="0" stop-color="#bd0816"/><stop offset="1" stop-color="#ff5252"/></linearGradient><g fill="none" fill-rule="evenodd"><path d="m0 0h24v24h-24z" fill="url(#a)"/><path d="m8.51750533 11.9688794h2.00778017v-1.0038901h-2.00778017zm3.43531187 5.5996988h1.00389v-2.0077801h-1.00389zm0-6.0233404v2.0077801h1.00389v-1.5841385h6.0394027v7.0272305h-13.99221983v-7.0272305h1.50583512v-1.0038901h-1.50583512v-5.96109923h6.94892713v6.46304433zm1.00389-5.84063245 5.3196135 5.26038395h-5.3196135zm7.0432928 5.76232905c0-.1315096-.0511984-.2610114-.1495796-.3573849l-7.0432928-6.96398544c-.0953695-.09536956-.2228636-.14556406-.3523654-.14556406h-7.95281716c-.27707366 0-.50194504.22487138-.50194504.50194504v14.99610996c0 .2770736.22487138.501945.50194504.501945h14.99610996c.2770736 0 .501945-.2248714.501945-.501945z" fill="#fff"/></g></svg>