<svg height="24" viewBox="0 0 24 24" width="24" xmlns="http://www.w3.org/2000/svg" xmlns:xlink="http://www.w3.org/1999/xlink"><linearGradient id="a" x1="0%" x2="100%" y1="100%" y2="0%"><stop offset="0" stop-color="#bd0816"/><stop offset="1" stop-color="#ff5252"/></linearGradient><g fill="none" fill-rule="evenodd"><path d="m0 0h24v24h-24z" fill="url(#a)"/><path d="m16.399321 16.516c-1.379 0-2.5-1.122-2.5-2.5s1.121-2.5 2.5-2.5 2.5 1.122 2.5 2.5-1.121 2.5-2.5 2.5zm0-6c-1.93 0-3.5 1.57-3.5 3.5s1.57 3.5 3.5 3.5 3.5-1.57 3.5-3.5-1.57-3.5-3.5-3.5zm.5 3h1v1h-1v1h-1v-1h-1v-1h1v-1h1zm-10.89699997-.919v-5.599l4.39699997-1.759v12.754c-1.24399997-.091-2.25599997-.501-2.98399997-1.262-1.507-1.575-1.415-4.086-1.413-4.134zm7.47999997 4.817c-.588.333-1.286.53-2.083.59v-12.765l4.397 1.759v2.579c.2-.027.397-.061.603-.061.136 0 .265.028.397.04v-2.896c0-.205-.124-.389-.314-.465l-5.397-2.159c-.12-.048-.252-.048-.372 0l-5.39699997 2.159c-.19.076-.314.26-.314.465l.001 5.914c-.006.119-.119 2.952 1.684 4.842 1.022 1.072 2.44 1.616 4.21199997 1.616 1.34 0 2.486-.315 3.406-.935l-.13-.192c-.247-.143-.477-.306-.693-.491z" fill="#fff"/></g></svg>