<svg height="24" viewBox="0 0 24 24" width="24" xmlns="http://www.w3.org/2000/svg" xmlns:xlink="http://www.w3.org/1999/xlink"><linearGradient id="a" x1="0%" x2="100%" y1="100%" y2="0%"><stop offset="0" stop-color="#c8511b"/><stop offset="1" stop-color="#f90"/></linearGradient><g fill="none" fill-rule="evenodd"><path d="m0 0h24v24h-24z" fill="url(#a)"/><path d="m7.235 9.75-.865-.501c1.159-2.004 3.316-3.249 5.63-3.249 2.313 0 4.47 1.245 5.63 3.249l-.866.501c-.981-1.697-2.806-2.75-4.764-2.75s-3.784 1.053-4.765 2.75zm9.529 5.499.866.501c-1.16 2.004-3.317 3.25-5.63 3.25-2.314 0-4.471-1.246-5.63-3.25l.865-.501c.981 1.697 2.807 2.751 4.765 2.751s3.783-1.054 4.764-2.751zm-4.764-1.749h2v-2h-2zm-6 0h2v-2h-2zm13.894-1.3-1.494-2-.801.599.897 1.201h-3.496v-1c0-.277-.224-.5-.5-.5h-3c-.277 0-.5.223-.5.5v1h-2v-1c0-.277-.224-.5-.5-.5h-3c-.277 0-.5.223-.5.5v3c0 .276.223.5.5.5h3c.276 0 .5-.224.5-.5v-1h2v1c0 .276.223.5.5.5h3c.276 0 .5-.224.5-.5v-1h3.496l-.897 1.2.801.599 1.494-2c.133-.178.133-.421 0-.599z" fill="#fff"/></g></svg>