<svg height="24" viewBox="0 0 24 24" width="24" xmlns="http://www.w3.org/2000/svg" xmlns:xlink="http://www.w3.org/1999/xlink"><linearGradient id="a" x1="0%" x2="100%" y1="100%" y2="0%"><stop offset="0" stop-color="#bd0816"/><stop offset="1" stop-color="#ff5252"/></linearGradient><g fill="none" fill-rule="evenodd"><path d="m0 0h24v24h-24z" fill="url(#a)"/><path d="m18.8023049 18.7652192c-.2502781.2729302-.6790331.2962662-.9580316.0497159l-3.3531102-2.9920861c.3354136-.3003246.6380038-.6331169.9016163-.997362l3.3592647 2.9931007c.276947.2475649.2984873.6726867.0502608.9466315m-8.025309-9.63879875c-.4441409 0-.80519777-.35815746-.80519777-.79646915 0-.4393263.36105687-.79646916.80519777-.79646916.4431152 0 .8051978.35714286.8051978.79646916 0 .43831169-.3620826.79646915-.8051978.79646915m-.6595442 2.69581985c.8072493 0 1.464742.6493506 1.464742 1.447849s-.6574927 1.447849-1.464742 1.447849c-.8072492 0-1.46371619-.6493506-1.46371619-1.447849s.65646699-1.447849 1.46371619-1.447849m-5.09172203-.6047078c0-2.86931821 2.35917824-5.20292211 5.25891603-5.20292211 2.8997378 0 5.258916 2.3336039 5.258916 5.20292211 0 .7112419-.1456536 1.3890016-.4092661 2.0079139l-2.5684271-.3703328c-.1312934-.7579139-.6144121-1.3910308-1.2760077-1.7441152v-1.052151c.7590399-.22017045 1.3180626-.9080763 1.3180626-1.7288961 0-.99837662-.8216095-1.81107955-1.8309275-1.81107955-1.0103437 0-1.83092743.81270293-1.83092743 1.81107955 0 .8208198.55902267 1.50872565 1.31806263 1.7288961v.762987c-.049235-.0020292-.0964186-.0142045-.1466794-.0142045-.72006218 0-1.36524614.3094561-1.81964439.7954545l-.59184601-.5915178c.24514939-.3764205.390803-.8218345.390803-1.30275978 0-.82589286-.41952344-1.58685065-1.12214826-2.03327922l-.55491975.85328734c.40824041.25974025.65133834.70109577.65133834 1.17999188 0 .77414768-.63697812 1.40422078-1.41858413 1.40422078v1.0146104c.49029878 0 .94777421-.1471185 1.33037138-.3946835l.77852882.7771916c-.07898119.2414773-.13334486.4931007-.13334486.7599432 0 1.3575487 1.11701961 2.4624594 2.48944586 2.4624594 1.1621518 0 2.1314663-.7934253 2.4063619-1.8587662l2.079154.29931c-.9508514 1.3545049-2.5294494 2.2453328-4.3183219 2.2453328-2.89973779 0-5.25891603-2.3325893-5.25891603-5.2008928m14.41355333 5.8471996-3.5120984-3.1280438c.4072147-.822849.6421068-1.7441152.6421068-2.7191558 0-3.42836854-2.8197309-6.2175325-6.2846457-6.2175325-3.46491484 0-6.2846457 2.78916396-6.2846457 6.2175325 0 3.4273539 2.81973086 6.2165178 6.2846457 6.2165178 1.2442101 0 2.4012331-.3642451 3.3787535-.9841721l3.494661 3.1189124c.3251563.2891639.732371.4312094 1.1385599.4312094.466707 0 .9313626-.1877029 1.2678019-.5560065.6267208-.6899351.5703057-1.7573052-.125139-2.3792614" fill="#fff"/></g></svg>