<svg height="24" viewBox="0 0 24 24" width="24" xmlns="http://www.w3.org/2000/svg" xmlns:xlink="http://www.w3.org/1999/xlink"><linearGradient id="a" x1="0%" x2="100%" y1="100%" y2="0%"><stop offset="0" stop-color="#2e27ad"/><stop offset="1" stop-color="#527fff"/></linearGradient><g fill="none" fill-rule="evenodd"><path d="m0 0h24v24h-24z" fill="url(#a)"/><path d="m10 13h5v-2h-5zm0 3h5v-2h-5zm0 3h5v-2h-5zm6-8.5v9c0 .277-.224.5-.5.5h-6c-.276 0-.5-.223-.5-.5v-9c0-.276.224-.5.5-.5h6c.276 0 .5.224.5.5zm1 1.5h1v-5.5c0-.276-.224-.5-.5-.5h-2c-.276 0-.5.224-.5.5v2.5h1v-2h1zm-3-3v-2.5c0-.276-.224-.5-.5-.5h-2c-.276 0-.5.224-.5.5v2.5h1v-2h1v2zm-5 0h1v-2.5c0-.276-.224-.5-.5-.5h-2c-.276 0-.5.224-.5.5v5.5h1v-5h1zm11-4.5v10c0 .277-.224.5-.5.5h-2.5v-1h2v-9h-13v9h2v1h-2.5c-.276 0-.5-.223-.5-.5v-10c0-.276.224-.5.5-.5h14c.276 0 .5.224.5.5z" fill="#fff"/></g></svg>