<svg height="24" viewBox="0 0 24 24" width="24" xmlns="http://www.w3.org/2000/svg" xmlns:xlink="http://www.w3.org/1999/xlink"><linearGradient id="a" x1="0%" x2="100%" y1="100%" y2="0%"><stop offset="0" stop-color="#bd0816"/><stop offset="1" stop-color="#ff5252"/></linearGradient><g fill="none" fill-rule="evenodd"><path d="m0 0h24v24h-24z" fill="url(#a)"/><path d="m6 15h2v-1h-2zm0-2h3v-1h-3zm-1 4v-6h5v4.5c0 .276.224.5.5.5h7c.276 0 .5-.224.5-.5v-4.5h1v6zm12-2.591c-.299-.585-.803-1.064-1.473-1.392.234-.327.376-.713.376-1.128 0-1.09-.892-1.976-1.989-1.976s-1.988.886-1.988 1.976c0 .417.144.805.378 1.133-.558.277-1.003.66-1.304 1.127v-5.149h6v1 1zm-3.78-.687c.223.083.455.14.694.14s.474-.058.697-.142c.452.141 1.242.503 1.559 1.28h-4.486c.299-.766 1.044-1.125 1.536-1.278zm1.173-.982c-.001 0-.001 0-.001 0-.299.163-.661.161-.958 0-.314-.171-.508-.497-.508-.851 0-.538.443-.976.988-.976.546 0 .989.438.989.976 0 .354-.195.68-.51.851zm4.607-5.74v3h-1v-1.5c0-.276-.224-.5-.5-.5h-7c-.276 0-.5.224-.5.5v1.5h-5v-3zm.5-1h-15c-.276 0-.5.224-.5.5v11c0 .276.224.5.5.5h15c.276 0 .5-.224.5-.5v-11c0-.276-.224-.5-.5-.5z" fill="#fff"/></g></svg>