<svg height="24" viewBox="0 0 24 24" width="24" xmlns="http://www.w3.org/2000/svg" xmlns:xlink="http://www.w3.org/1999/xlink"><linearGradient id="a" x1="0%" x2="100%" y1="100%" y2="0%"><stop offset="0" stop-color="#4d27a8"/><stop offset="1" stop-color="#a166ff"/></linearGradient><g fill="none" fill-rule="evenodd"><path d="m0 0h24v24h-24z" fill="url(#a)"/><path d="m16 15.4980737c0-.2761181-.225-.500214-.5-.500214s-.5.2240959-.5.500214c0 .2761182.225.500214.5.500214s.5-.2240958.5-.500214m1 0c0 .827354-.673 1.5006421-1.5 1.5006421s-1.5-.6732881-1.5-1.5006421.673-1.5006421 1.5-1.5006421 1.5.6732881 1.5 1.5006421m-8-4.0017123c0-.2761181-.225-.500214-.5-.500214s-.5.2240959-.5.500214c0 .2761182.225.5002141.5.5002141s.5-.2240959.5-.5002141m1 0c0 .8273541-.673 1.5006421-1.5 1.5006421s-1.5-.673288-1.5-1.5006421c0-.827354.673-1.50064206 1.5-1.50064206s1.5.67328806 1.5 1.50064206m2-4.00171222c0 .27611815.225.50021403.5.50021403s.5-.22409588.5-.50021403-.225-.50021403-.5-.50021403-.5.22409588-.5.50021403m-1 0c0-.82735401.673-1.5006421 1.5-1.5006421s1.5.67328809 1.5 1.5006421-.673 1.5006421-1.5 1.5006421-1.5-.67328809-1.5-1.5006421m8 4.50192632c0-2.25696574-1.097-4.35686425-2.899-5.66442373-.184-.05902526-.694.09103895-1.535.45219348-.151.0640274-.279.11805051-.369.15106464l-.34-.94140281c.078-.02701156.187-.0750321.316-.13005565.221-.09404024.438-.18407876.65-.26411301-.884-.39116737-1.844-.60625941-2.823-.60625941-.687 0-1.358.09804196-1.998.29112457-.046.01300557-.087.03601541-.132.05002141.35.13105607.767.30012841 1.262.52222345l-.408.91239039c-1.206-.54123158-1.896-.74231762-2.217-.81734973-1.815 1.05245033-3.078 2.87523026-3.403 4.9771296.322-.042018.647-.0670287.993-.0760325l.025 1.0004281c-.397.0100042-.759.0520222-1.121.1110475 0 .0100043-.001.021009-.001.0320137 0 2.3009845 1.125 4.4208916 2.976 5.7214481-.201-.7013001-.372-1.5406592-.372-2.3870214 0-.1560668-.005-.3211374-.01-.4882089-.016-.4772042-.032-.9704152.056-1.4196074l.981.1930826c-.067.3371443-.052.7723305-.038 1.1935107.006.1790766.011.3541515.011.521223 0 .8983844.249 2.023866.673 3.1123317 1.227.5162209 2.582.6652847 3.877.4501927.112-.2060882.248-.4151777.392-.6272684.214-.3161353.435-.6422749.521-.9384016l.961.2791195c-.09.3121335-.254.5942542-.427.8673711.598-.2391023 1.167-.5402312 1.678-.9374011 1.73-1.3385727 2.721-3.358437 2.721-5.5403706m1 0c0 2.4940671-1.133 4.8020547-3.108 6.3307088-.699.542232-1.476.9604109-2.31 1.2415312-.822.285122-1.692.4311845-2.582.4311845-1.314 0-2.619-.3281404-3.775-.9474054-2.606-1.3955971-4.225-4.0987538-4.225-7.0560191 0-.1650707.004-.3291409.018-.4902098.194-3.33242586 2.484-6.22366297 5.697-7.18007221 2.014-.60725983 4.337-.36115453 6.195.69029537 2.523 1.41360486 4.09 4.08774908 4.09 6.97998664m-8.925-3.06130991-.656-.75332233c-.516.44819177-.654.67829023-.885 1.05845289-.067.11104752-.145.24110317-.249.40017123l.838.54523332c.11-.1700728.194-.30813187.267-.42718281.204-.33714426.288-.47620376.685-.8233523m-.426 2.43104021-.324.9454045c1.113.383164 2.086.9954259 3.062 1.925824l.689-.7243099c-1.083-1.0334422-2.172-1.7157341-3.427-2.1469186m2.636-2.29198071.836-.549235c.962 1.46762797 1.503 3.07931761 1.609 4.79105001l-.998.0620265c-.094-1.535657-.582-2.9842769-1.447-4.30384151" fill="#fff"/></g></svg>