<svg height="24" viewBox="0 0 24 24" width="24" xmlns="http://www.w3.org/2000/svg" xmlns:xlink="http://www.w3.org/1999/xlink"><linearGradient id="a" x1="0%" x2="100%" y1="100%" y2="0%"><stop offset="0" stop-color="#bd0816"/><stop offset="1" stop-color="#ff5252"/></linearGradient><g fill="none" fill-rule="evenodd"><path d="m0 0h24v24h-24z" fill="url(#a)"/><path d="m5 18h14v-11h-14zm15-11.5v12c0 .276-.224.5-.5.5h-15c-.276 0-.5-.224-.5-.5v-12c0-.276.224-.5.5-.5h15c.276 0 .5.224.5.5zm-13 8.498 3.998.002.002-2.998-3.998-.002zm1-3.998 2 .001v-1.147c0-.59-.355-.915-1-.915h-.001c-.329 0-.592.088-.76.254-.197.195-.238.466-.238.659zm-1.854 4.852c-.093-.094-.146-.222-.146-.354l.002-3.998c0-.276.224-.5.5-.5h.498l.001-1.148c0-.551.186-1.025.536-1.371.359-.354.864-.542 1.462-.542h.001c1.196 0 2 .769 2 1.915v1.148h.5c.133 0 .26.053.354.146.093.094.146.222.146.354l-.002 3.998c0 .276-.224.5-.5.5l-4.998-.002c-.133 0-.26-.053-.354-.146zm7.854-1.852h2v-1h-2zm0-3h4v-1h-4z" fill="#fff"/></g></svg>