<svg height="24" viewBox="0 0 24 24" width="24" xmlns="http://www.w3.org/2000/svg" xmlns:xlink="http://www.w3.org/1999/xlink"><linearGradient id="a" x1="0%" x2="100%" y1="100%" y2="0%"><stop offset="0" stop-color="#2e27ad"/><stop offset="1" stop-color="#527fff"/></linearGradient><g fill="none" fill-rule="evenodd"><path d="m0 0h24v24h-24z" fill="url(#a)"/><path d="m18 12.9686944h1v-.9960868h-1zm-4 0h1v-.9960868h-1zm-4 0h1v-.9960868h-1zm7-1.9921736v.9960868h-1v-.9960868h-3v.9960868h-1v-.9960868h-3v2.9882604h3v-.9960868h1v.9960868h3v-.9960868h1v.9960868h3v-2.9882604zm-8-4.980434c2.625 0 4 .7400925 4 .9960868 0 .25599431-1.375.99608681-4 .99608681s-4-.7400925-4-.99608681c0-.2559943 1.375-.9960868 4-.9960868zm4 10.7587335c0 .424333-1.412 1.2490929-4 1.2490929s-4-.8247599-4-1.2490929v-3.3807186c.75.4342939 1.765.5906795 2.5.5906795v-.9960868c-.025 0-2.5-.0498043-2.5-1.1584489v-3.56200644c.975.49903949 2.521.73610815 4 .73610815s3.025-.23706866 4-.73610815v1.73219495h1v-2.98826041c0-1.36862326-2.592-1.9921736-5-1.9921736s-5 .62355034-5 1.9921736v9.7626467c0 1.4732124 2.516 2.2451797 5 2.2451797s5-.7719673 5-2.2451797v-1.7939523h-1z" fill="#fff"/></g></svg>