<svg height="24" viewBox="0 0 24 24" width="24" xmlns="http://www.w3.org/2000/svg" xmlns:xlink="http://www.w3.org/1999/xlink"><linearGradient id="a" x1="0%" x2="100%" y1="100%" y2="0%"><stop offset="0" stop-color="#1b660f"/><stop offset="1" stop-color="#6cae3e"/></linearGradient><g fill="none" fill-rule="evenodd"><path d="m0 0h24v24h-24z" fill="url(#a)"/><path d="m11.999 9.52226519c.552 0 1-.4480479 1-.99787951s-.448-.99787951-1-.99787951-1 .4480479-1 .99787951.448.99787951 1 .99787951zm-3.999 2.99363851c0-.5498316-.448-.9978795-1-.9978795s-1 .4480479-1 .9978795.448.9978795 1 .9978795 1-.4480479 1-.9978795zm8 0c0 .5498316.448.9978795 1 .9978795s1-.4480479 1-.9978795-.448-.9978795-1-.9978795-1 .4480479-1 .9978795zm1.5 2.5266309h1c0 .9549707-.533 1.8151428-1.392 2.2422353l-4.869 2.6543595c-.074.0399151-.157.0608706-.239.0608706s-.165-.0209555-.239-.0608706l-4.885-2.6623426c-.843-.4191094-1.376-1.2792815-1.376-2.2342522h1c0 .5747786.321 1.0916802.839 1.350131l2.161 1.1774978v-4.5553199h-.571c-.224.8581763-1 1.4968192-1.929 1.4968192-1.103 0-2-.8950979-2-1.995759s.897-1.995759 2-1.995759c.929 0 1.705.6386429 1.929 1.4968193h1.071c.276 0 .5.223525.5.4989397v5.5991019l.999.5448422.001-8.2105526c-.86-.2225271-1.501-.99688158-1.501-1.92490952 0-1.10066109.897-1.99575901 2-1.99575901s2 .89509792 2 1.99575901c0 .92703006-.64 1.70138452-1.499 1.92490952l-.001 8.2115505 1.001-.5458401v-5.5991019c0-.2754147.224-.4989397.5-.4989397h1.071c.224-.8581764 1-1.4968193 1.929-1.4968193 1.103 0 2 .8950979 2 1.995759s-.897 1.995759-2 1.995759c-.929 0-1.705-.6386429-1.929-1.4968192h-.571v4.5553199l2.145-1.1695148c.534-.2664338.855-.7833354.855-1.358114zm-11-6.01920917h-1v-2.99363851c0-.27341899.221-.496944.495-.49893976 3.129-.02794062 5.211-.68853686 5.509-1.05376076.004-.02993638.011-.05887489.019-.08681551.033-.23749533.234-.39017089.487-.39017089.276 0 .49.26643383.49.54284645.09.15267557 1.377.95696645 5.504.98790071.274.00199576.496.22452289.496.49893976v2.99363851h-1v-2.5026818c-2.281-.05588125-4.576-.39017088-5.535-1.14855931-1.063.74242235-3.506 1.08269926-5.465 1.14656355z" fill="#fff"/></g></svg>