<svg height="24" viewBox="0 0 24 24" width="24" xmlns="http://www.w3.org/2000/svg" xmlns:xlink="http://www.w3.org/1999/xlink"><linearGradient id="a" x1="0%" x2="100%" y1="100%" y2="0%"><stop offset="0" stop-color="#2e27ad"/><stop offset="1" stop-color="#527fff"/></linearGradient><g fill="none" fill-rule="evenodd"><path d="m0 0h24v24h-24z" fill="url(#a)"/><path d="m18.998598 17.2911989-2.4934908 1.3801017v-3.2354316l2.4934908-1.3791317zm-2.9951932-2.6942532-2.4964951-1.3771921 2.4984979-1.4324737 2.4974965 1.4266546zm-3.9935911 2.7039518-2.49449225 1.3791318v-3.2441603l2.49449225-1.3849509zm-6.00841174-3.2412507 2.51251753 1.378162v3.1820896l-2.51251753-1.5857107zm6.50010014-8.01486999 2.4554376 1.35973473-2.4474264 1.21716624-2.4474264-1.20649786zm3.0022031 4.90163999-2.4924895 1.430534v-2.91440996l2.4924895-1.24044274zm-3.4938915 1.4198657-2.49449225-1.4208355v-2.71171065l2.49449225 1.22977434zm-2.99719604 2.2306632-2.51051472-1.3771921 2.51251753-1.4334436 2.49749653 1.4227752zm6.49108754 4.0762946-2.4924895-1.3733127v-3.2383411l2.4924895 1.3752524zm4.2499499-5.8695539-.0030042-.0019397h-.0010014l-3.2445423-1.8553299v-3.51765893c0-.16972437-.0911276-.3258708-.2393351-.41412747-.0130182-.00775883-.0280393-.00581913-.0410575-.01163825l.0060084-.01066839-3.482876-1.92806892c-.1542159-.08631697-.3454837-.08534711-.4996996.00096986l-3.48487882 1.95813438.0010014.00290956c-.00300421.00193971-.00801122.00096985-.01101542.00290956-.14820749.08825668-.23933507.24537296-.23933507.41412748v3.50311112l-3.263569 1.8621189h-.0010014s-.0010014.0009698-.0010014.0009698l-.00100141.0009699c-.15221309.0872868-.24734628.2463428-.24734628.4180069v4.0685358c0 .1639052.08511917.3171421.22731825.4063686l3.51391948 2.2180552.00400561-.0048493c.00801122.0048493.01001402.0135779.01802524.0184272.07710795.0436434.16422992.0649802.25135189.0649802.08612057 0 .17123973-.0213368.24834769-.0630405l3.24754654-1.7971387 3.2415382 1.7855005c.0010014 0 .0010014.0009698.0010014.0009698h.0010014l.0030042.0019397v-.0009698c.0761065.0417037.1622271.0640103.2473463.0640103.0861205 0 .1712397-.0213368.2483477-.0640103l3.4948928-1.9338881c.1562187-.0863169.2523533-.2473126.2523533-.4209164v-4.351733c0-.1716641-.0941318-.3297503-.2463449-.4170371z" fill="#fff"/></g></svg>