<svg height="24" viewBox="0 0 24 24" width="24" xmlns="http://www.w3.org/2000/svg" xmlns:xlink="http://www.w3.org/1999/xlink"><linearGradient id="a" x1="0%" x2="100%" y1="100%" y2="0%"><stop offset="0" stop-color="#2e27ad"/><stop offset="1" stop-color="#527fff"/></linearGradient><g fill="none" fill-rule="evenodd"><path d="m0 0h24v24h-24z" fill="url(#a)"/><path d="m12.146 14.854c-.195-.195-.195-.512 0-.707l1-1 .707.707-.646.646.646.647-.707.707zm3.839 1.768-.971-.243 1-4 .971.243zm-4.985.378h8v-5h-8zm3.522-6.952 2.381.952h-4.285zm-9.522-3.048v-2h12.232l1.333 2zm1 12h2v-11h-2zm13.684-7.962.001-.002-4.685-1.874v-1.162h4.5c.184 0 .353-.101.44-.264.088-.162.078-.36-.024-.513l-2-3c-.093-.139-.249-.223-.416-.223h-13c-.277 0-.5.224-.5.5v3c0 .277.223.5.5.5h.5v11.5c0 .277.223.5.5.5h3c.276 0 .5-.223.5-.5v-11.5h5v1.191l-3.724 1.862.002.005c-.163.082-.278.247-.278.442v6c0 .277.223.5.5.5h9c.276 0 .5-.223.5-.5v-6c0-.21-.131-.389-.316-.462z" fill="#fff"/></g></svg>