<svg height="24" viewBox="0 0 24 24" width="24" xmlns="http://www.w3.org/2000/svg" xmlns:xlink="http://www.w3.org/1999/xlink"><linearGradient id="a" x1="0%" x2="100%" y1="100%" y2="0%"><stop offset="0" stop-color="#1b660f"/><stop offset="1" stop-color="#6cae3e"/></linearGradient><g fill="none" fill-rule="evenodd"><path d="m0 0h24v24h-24z" fill="url(#a)"/><path d="m9.004 5.0005495h-.504-3.504c-.011.008-.022.017-.033.025-.733.562-2.963 2.273-2.963 5.315 0 2.874 1.916 4.66 5 4.66s5-1.786 5-4.66c0-3.042-2.229-4.753-2.963-5.315-.011-.008-.022-.017-.033-.025zm-5.182-3.032 1.479 2.032h3.199.115l1.52-2.018-1.477.492c-.147.05-.307.028-.435-.058l-1.223-.815c-.433.289-1.222.816-1.251.833-.123.07-.271.086-.407.04zm11.125 2.808-.894.448c-.204-.409-.463-.647-.79-.73-.599-.153-1.343.248-1.579.414-.084.059-.187.092-.289.092h-.856c1.629 1.544 2.461 3.335 2.461 5.34 0 3.438-2.355 5.66-6 5.66-3.644 0-6-2.222-6-5.66 0-2.318 1.107-4.35 3.279-6.045l-2.183-3.001c-.128-.176-.128-.414.001-.589.128-.175.355-.249.561-.179l2.77.923c.394-.262 1.294-.865 1.294-.865.168-.112.387-.112.555 0l1.297.864 2.768-.922c.207-.071.436.004.564.182s.125.418-.006.593l-2.034 2.699h1.381c.355-.216 1.302-.713 2.254-.477.621.154 1.107.576 1.446 1.253zm-8.947 3.713c0 .617.56.93 1.083 1.018 1.147.192 1.917.997 1.917 2.004 0 1.109-.897 2.011-2 2.011-1.102 0-2-.902-2-2.011h1c0 .557.448 1.011 1 1.011s1-.454 1-1.011c0-.617-.559-.93-1.083-1.018-1.146-.192-1.917-.997-1.917-2.004 0-1.109.898-2.011 2-2.011 1.103 0 2 .902 2 2.011h-1c0-.557-.448-1.011-1-1.011s-1 .454-1 1.011z" fill="#fff" transform="translate(4 4)"/></g></svg>