<svg contentScriptType="application/ecmascript" contentStyleType="text/css" height="232" preserveAspectRatio="none" viewBox="0 0 504 232" width="504" xmlns="http://www.w3.org/2000/svg" xmlns:xlink="http://www.w3.org/1999/xlink" zoomAndPan="magnify"><filter id="a" height="300%" width="300%" x="-1" y="-1"><feGaussianBlur result="blurOut" stdDeviation="2"/><feColorMatrix in="blurOut" result="blurOut2" type="matrix" values="0 0 0 0 0 0 0 0 0 0 0 0 0 0 0 0 0 0 .4 0"/><feOffset dx="4" dy="4" in="blurOut2" result="blurOut3"/><feBlend in="SourceGraphic" in2="blurOut3" mode="normal"/></filter><path d="m219.5 8h42v25.0938h-42z" fill="#fefece" filter="url(#a)" stroke="#a80036" stroke-width="1.5"/><text font-family="sans-serif" font-size="12" lengthAdjust="spacingAndGlyphs" textLength="36" x="222.5" y="25.457">Dialog</text><path d="m166.5 102h46v25.0938h-46z" fill="#fefece" filter="url(#a)" stroke="#a80036" stroke-width="1.5"/><text font-family="sans-serif" font-size="12" lengthAdjust="spacingAndGlyphs" textLength="40" x="169.5" y="119.457">Prompt</text><path d="m6 93v42.7031a0 0 0 0 0 0 0h125a0 0 0 0 0 0 0v-17.2031l35.336-4-35.336-4v-7.5l-10-10h-115a0 0 0 0 0 0 0" fill="#fbfb77" filter="url(#a)" stroke="#a80036"/><path d="m121 93v10h10z" fill="#fbfb77" stroke="#a80036"/><text font-family="sans-serif" font-size="13" lengthAdjust="spacingAndGlyphs" textLength="72" x="12" y="111.4951">1ステップで</text><text font-family="sans-serif" font-size="13" lengthAdjust="spacingAndGlyphs" textLength="104" x="12" y="127.8467">ユーザ入力を取得</text><path d="m155.5 196h68v25.0938h-68z" fill="#fefece" filter="url(#a)" stroke="#a80036" stroke-width="1.5"/><text font-family="sans-serif" font-size="12" lengthAdjust="spacingAndGlyphs" textLength="62" x="158.5" y="213.457">TextPrompt</text><path d="m247.5 102h90v25.0938h-90z" fill="#fefece" filter="url(#a)" stroke="#a80036" stroke-width="1.5"/><text font-family="sans-serif" font-size="12" lengthAdjust="spacingAndGlyphs" textLength="84" x="250.5" y="119.457">WaterfallDialog</text><path d="m373 93v17.5l-35.383 4 35.383 4v17.2031a0 0 0 0 0 0 0h119a0 0 0 0 0 0 0v-32.7031l-10-10h-109a0 0 0 0 0 0 0" fill="#fbfb77" filter="url(#a)" stroke="#a80036"/><path d="m482 93v10h10z" fill="#fbfb77" stroke="#a80036"/><text font-family="sans-serif" font-size="13" lengthAdjust="spacingAndGlyphs" textLength="98" x="379" y="111.4951">2ステップ以上の</text><text font-family="sans-serif" font-size="13" lengthAdjust="spacingAndGlyphs" textLength="91" x="379" y="127.8467">やりとりを定義</text><g fill="none" stroke="#a80036"><path d="m224.236 50.839c-9.618 17.35-21.263 38.356-28.329 51.104"/><path d="m218.222 47.25 15.819-14.098-3.575 20.886z"/><path d="m189.5 147.3954v48.5473"/><path d="m182.5 147.1519 7-20 7 19.9999z"/><path d="m257.083 50.839c9.806 17.35 21.679 38.356 28.885 51.104"/><path d="m250.833 54.008-3.747-20.856 15.935 13.967z"/></g></svg>