<svg contentScriptType="application/ecmascript" contentStyleType="text/css" height="167" preserveAspectRatio="none" viewBox="0 0 237 167" width="237" xmlns="http://www.w3.org/2000/svg" xmlns:xlink="http://www.w3.org/1999/xlink" zoomAndPan="magnify"><filter id="a" height="300%" width="300%" x="-1" y="-1"><feGaussianBlur result="blurOut" stdDeviation="2"/><feColorMatrix in="blurOut" result="blurOut2" type="matrix" values="0 0 0 0 0 0 0 0 0 0 0 0 0 0 0 0 0 0 .4 0"/><feOffset dx="4" dy="4" in="blurOut2" result="blurOut3"/><feBlend in="SourceGraphic" in2="blurOut3" mode="normal"/></filter><path d="m91 8h50v35.0938h-50z" fill="#fefece" filter="url(#a)" stroke="#a80036" stroke-width="1.5"/><text font-family="sans-serif" font-size="12" lengthAdjust="spacingAndGlyphs" textLength="36" x="98" y="22.457">Parent</text><path d="m92 27.0938h48" stroke="#a80036" stroke-width="1.5"/><path d="m6 121h50v35.0938h-50z" fill="#fefece" filter="url(#a)" stroke="#a80036" stroke-width="1.5"/><text font-family="sans-serif" font-size="12" lengthAdjust="spacingAndGlyphs" textLength="36" x="13" y="135.457">Child1</text><path d="m7 140.0938h48" stroke="#a80036" stroke-width="1.5"/><path d="m91 121h50v35.0938h-50z" fill="#fefece" filter="url(#a)" stroke="#a80036" stroke-width="1.5"/><text font-family="sans-serif" font-size="12" lengthAdjust="spacingAndGlyphs" textLength="36" x="98" y="135.457">Child2</text><path d="m92 140.0938h48" stroke="#a80036" stroke-width="1.5"/><path d="m176 121h50v35.0938h-50z" fill="#fefece" filter="url(#a)" stroke="#a80036" stroke-width="1.5"/><text font-family="sans-serif" font-size="12" lengthAdjust="spacingAndGlyphs" textLength="36" x="183" y="135.457">Child3</text><path d="m177 140.0938h48" stroke="#a80036" stroke-width="1.5"/><path d="m103.0903 43.359c-16.069 20.9838-43.342 56.5991-59.3376 77.4875" fill="none" stroke="#a80036"/><text font-family="sans-serif" font-size="13" lengthAdjust="spacingAndGlyphs" textLength="36" x="58.0106" y="64.4881">parent</text><path d="m116 43.359v77.4875" fill="none" stroke="#a80036"/><text font-family="sans-serif" font-size="13" lengthAdjust="spacingAndGlyphs" textLength="27" x="84.6969" y="110.2057">child</text><path d="m128.91 43.359c16.069 20.9838 43.342 56.5991 59.337 77.4875" fill="none" stroke="#a80036"/><text font-family="sans-serif" font-size="13" lengthAdjust="spacingAndGlyphs" textLength="34" x="164" y="87.4951">family</text></svg>