<svg contentScriptType="application/ecmascript" contentStyleType="text/css" height="258" preserveAspectRatio="none" viewBox="0 0 374 258" width="374" xmlns="http://www.w3.org/2000/svg" xmlns:xlink="http://www.w3.org/1999/xlink" zoomAndPan="magnify"><filter id="a" height="300%" width="300%" x="-1" y="-1"><feGaussianBlur result="blurOut" stdDeviation="2"/><feColorMatrix in="blurOut" result="blurOut2" type="matrix" values="0 0 0 0 0 0 0 0 0 0 0 0 0 0 0 0 0 0 .4 0"/><feOffset dx="4" dy="4" in="blurOut2" result="blurOut3"/><feBlend in="SourceGraphic" in2="blurOut3" mode="normal"/></filter><path d="m146 8h158v39.6719h-158z" fill="#fefece" filter="url(#a)" stroke="#a80036" stroke-width="1.5"/><text font-family="sans-serif" font-size="12" lengthAdjust="spacingAndGlyphs" text-decoration="underline" textLength="144" x="153" y="22.457">engineering : Organization</text><path d="m153 24.457h144" stroke="#000"/><path d="m147 27.0938h156" stroke="#a80036" stroke-width="1.5"/><text font-family="sans-serif" font-size="10" lengthAdjust="spacingAndGlyphs" textLength="91" x="152" y="41.4746">location = "Boston"</text><path d="m88.5 108h119v39.6719h-119z" fill="#fefece" filter="url(#a)" stroke="#a80036" stroke-width="1.5"/><text font-family="sans-serif" font-size="12" lengthAdjust="spacingAndGlyphs" text-decoration="underline" textLength="105" x="95.5" y="122.457">tools : Organization</text><path d="m95.5 124.457h105" stroke="#000"/><path d="m89.5 127.0938h117" stroke="#a80036" stroke-width="1.5"/><text font-family="sans-serif" font-size="10" lengthAdjust="spacingAndGlyphs" textLength="99" x="94.5" y="141.4746">location = "Chicago"</text><path d="m243 108h120v39.6719h-120z" fill="#fefece" filter="url(#a)" stroke="#a80036" stroke-width="1.5"/><text font-family="sans-serif" font-size="12" lengthAdjust="spacingAndGlyphs" text-decoration="underline" textLength="106" x="250" y="122.457">apps : Organization</text><path d="m250 124.457h106" stroke="#000"/><path d="m244 127.0938h118" stroke="#a80036" stroke-width="1.5"/><text font-family="sans-serif" font-size="10" lengthAdjust="spacingAndGlyphs" textLength="84" x="249" y="141.4746">location = "Saba"</text><path d="m6 208h126v39.6719h-126z" fill="#fefece" filter="url(#a)" stroke="#a80036" stroke-width="1.5"/><text font-family="sans-serif" font-size="12" lengthAdjust="spacingAndGlyphs" text-decoration="underline" textLength="72" x="33" y="222.457">Don : Person</text><path d="m33 224.457h72" stroke="#000"/><path d="m7 227.0938h124" stroke="#a80036" stroke-width="1.5"/><text font-family="sans-serif" font-size="10" lengthAdjust="spacingAndGlyphs" textLength="114" x="12" y="241.4746">location = "Champaign"</text><path d="m167 208h122v39.6719h-122z" fill="#fefece" filter="url(#a)" stroke="#a80036" stroke-width="1.5"/><text font-family="sans-serif" font-size="12" lengthAdjust="spacingAndGlyphs" text-decoration="underline" textLength="76" x="190" y="222.457">John : Person</text><path d="m190 224.457h76" stroke="#000"/><path d="m168 227.0938h120" stroke="#a80036" stroke-width="1.5"/><text font-family="sans-serif" font-size="10" lengthAdjust="spacingAndGlyphs" textLength="110" x="173" y="241.4746">location = "Champaign</text><path d="m209.787 48.362c-13.499 17.18-33.116 42.148-46.606 59.317" fill="none" stroke="#a80036"/><text font-family="sans-serif" font-size="13" lengthAdjust="spacingAndGlyphs" textLength="36" x="165.2762" y="69.212">parent</text><path d="m240.41 48.362c13.675 17.18 33.547 42.148 47.212 59.317" fill="none" stroke="#a80036"/><path d="m132.392 148.3616c-13.85 17.1808-33.9766 42.1484-47.8166 59.317" fill="none" stroke="#a80036"/><text font-family="sans-serif" font-size="13" lengthAdjust="spacingAndGlyphs" textLength="36" x="87.7801" y="169.2115">parent</text><path d="m163.805 148.3616c14.026 17.1808 34.407 42.1484 48.422 59.317" fill="none" stroke="#a80036"/><text font-family="sans-serif" font-size="13" lengthAdjust="spacingAndGlyphs" textLength="36" x="172.4675" y="169.2115">parent</text></svg>