<svg contentScriptType="application/ecmascript" contentStyleType="text/css" height="222" preserveAspectRatio="none" viewBox="0 0 274 222" width="274" xmlns="http://www.w3.org/2000/svg" xmlns:xlink="http://www.w3.org/1999/xlink" zoomAndPan="magnify"><filter id="a" height="300%" width="300%" x="-1" y="-1"><feGaussianBlur result="blurOut" stdDeviation="2"/><feColorMatrix in="blurOut" result="blurOut2" type="matrix" values="0 0 0 0 0 0 0 0 0 0 0 0 0 0 0 0 0 0 .4 0"/><feOffset dx="4" dy="4" in="blurOut2" result="blurOut3"/><feBlend in="SourceGraphic" in2="blurOut3" mode="normal"/></filter><g stroke="#a80036"><path d="m32 39.6094v141.4062" stroke-dasharray="5 5"/><path d="m245.5 39.6094v141.4062" stroke-dasharray="5 5"/><path d="m8 3h44v31.6094h-44z" fill="#fefece" filter="url(#a)" stroke-width="1.5"/></g><text font-family="sans-serif" font-size="14" lengthAdjust="spacingAndGlyphs" textLength="30" x="15" y="24.5332">Alice</text><path d="m8 180.0156h44v31.6094h-44z" fill="#fefece" filter="url(#a)" stroke="#a80036" stroke-width="1.5"/><text font-family="sans-serif" font-size="14" lengthAdjust="spacingAndGlyphs" textLength="30" x="15" y="201.5488">Alice</text><path d="m224.5 3h39v31.6094h-39z" fill="#fefece" filter="url(#a)" stroke="#a80036" stroke-width="1.5"/><text font-family="sans-serif" font-size="14" lengthAdjust="spacingAndGlyphs" textLength="25" x="231.5" y="24.5332">Bob</text><path d="m224.5 180.0156h39v31.6094h-39z" fill="#fefece" filter="url(#a)" stroke="#a80036" stroke-width="1.5"/><text font-family="sans-serif" font-size="14" lengthAdjust="spacingAndGlyphs" textLength="25" x="231.5" y="201.5488">Bob</text><path d="m234 67.9609 10 4-10 4 4-4z" fill="#a80036" stroke="#a80036"/><path d="m32 71.9609h208" stroke="#a80036"/><text font-family="sans-serif" font-size="13" lengthAdjust="spacingAndGlyphs" textLength="135" x="39" y="67.1045">Authentication Request</text><path d="m43 98.3125-10 4 10 4-4-4z" fill="#a80036" stroke="#a80036"/><path d="m37 102.3125h208" stroke="#a80036" stroke-dasharray="2 2"/><text font-family="sans-serif" font-size="13" lengthAdjust="spacingAndGlyphs" textLength="145" x="49" y="97.4561">Authentication Response</text><path d="m234 128.6641 10 4-10 4 4-4z" fill="#a80036" stroke="#a80036"/><path d="m32 132.6641h208" stroke="#a80036"/><text font-family="sans-serif" font-size="13" lengthAdjust="spacingAndGlyphs" textLength="182" x="39" y="127.8076">Another authentication Request</text><path d="m43 159.0156-10 4 10 4-4-4z" fill="#a80036" stroke="#a80036"/><path d="m37 163.0156h208" stroke="#a80036" stroke-dasharray="2 2"/><text font-family="sans-serif" font-size="13" lengthAdjust="spacingAndGlyphs" textLength="190" x="49" y="158.1592">another authentication Response</text></svg>