<svg contentScriptType="application/ecmascript" contentStyleType="text/css" height="161" preserveAspectRatio="none" viewBox="0 0 162 161" width="162" xmlns="http://www.w3.org/2000/svg" xmlns:xlink="http://www.w3.org/1999/xlink" zoomAndPan="magnify"><filter id="a" height="300%" width="300%" x="-1" y="-1"><feGaussianBlur result="blurOut" stdDeviation="2"/><feColorMatrix in="blurOut" result="blurOut2" type="matrix" values="0 0 0 0 0 0 0 0 0 0 0 0 0 0 0 0 0 0 .4 0"/><feOffset dx="4" dy="4" in="blurOut2" result="blurOut3"/><feBlend in="SourceGraphic" in2="blurOut3" mode="normal"/></filter><g stroke="#a80036"><path d="m32 39.6094v80.7031" stroke-dasharray="5 5"/><path d="m133.5 39.6094v80.7031" stroke-dasharray="5 5"/><path d="m8 3h44v31.6094h-44z" fill="#fefece" filter="url(#a)" stroke-width="1.5"/></g><text font-family="sans-serif" font-size="14" lengthAdjust="spacingAndGlyphs" textLength="30" x="15" y="24.5332">Alice</text><path d="m8 119.3125h44v31.6094h-44z" fill="#fefece" filter="url(#a)" stroke="#a80036" stroke-width="1.5"/><text font-family="sans-serif" font-size="14" lengthAdjust="spacingAndGlyphs" textLength="30" x="15" y="140.8457">Alice</text><path d="m112.5 3h39v31.6094h-39z" fill="#fefece" filter="url(#a)" stroke="#a80036" stroke-width="1.5"/><text font-family="sans-serif" font-size="14" lengthAdjust="spacingAndGlyphs" textLength="25" x="119.5" y="24.5332">Bob</text><path d="m112.5 119.3125h39v31.6094h-39z" fill="#fefece" filter="url(#a)" stroke="#a80036" stroke-width="1.5"/><text font-family="sans-serif" font-size="14" lengthAdjust="spacingAndGlyphs" textLength="25" x="119.5" y="140.8457">Bob</text><path d="m122 67.9609 10 4-10 4 4-4z" fill="#a80036" stroke="#a80036"/><path d="m32 71.9609h96" stroke="#a80036"/><text font-family="sans-serif" font-size="13" lengthAdjust="spacingAndGlyphs" textLength="78" x="39" y="67.1045">Generated by</text><path d="m43 98.3125-10 4 10 4-4-4z" fill="#a80036" stroke="#a80036"/><path d="m37 102.3125h96" stroke="#a80036" stroke-dasharray="2 2"/><text font-family="sans-serif" font-size="13" lengthAdjust="spacingAndGlyphs" textLength="60" x="49" y="97.4561">PlantUML!</text></svg>