<svg contentScriptType="application/ecmascript" contentStyleType="text/css" height="145" preserveAspectRatio="none" viewBox="0 0 590 145" width="590" xmlns="http://www.w3.org/2000/svg" xmlns:xlink="http://www.w3.org/1999/xlink" zoomAndPan="magnify"><filter id="a" height="300%" width="300%" x="-1" y="-1"><feGaussianBlur result="blurOut" stdDeviation="2"/><feColorMatrix in="blurOut" result="blurOut2" type="matrix" values="0 0 0 0 0 0 0 0 0 0 0 0 0 0 0 0 0 0 .4 0"/><feOffset dx="4" dy="4" in="blurOut2" result="blurOut3"/><feBlend in="SourceGraphic" in2="blurOut3" mode="normal"/></filter><path d="m6 94.5h49v40.1875h-49z" fill="#fefece" filter="url(#a)" stroke="#a80036" stroke-width="1.5"/><text font-family="sans-serif" font-size="12" lengthAdjust="spacingAndGlyphs" textLength="43" x="9" y="111.957">Memory</text><text font-family="sans-serif" font-size="12" lengthAdjust="spacingAndGlyphs" textLength="43" x="9" y="127.0508">Storage</text><path d="m90.5 94.5h70v40.1875h-70z" fill="#fefece" filter="url(#a)" stroke="#a80036" stroke-width="1.5"/><text font-family="sans-serif" font-size="12" lengthAdjust="spacingAndGlyphs" textLength="64" x="93.5" y="111.957">CosmosDb</text><text font-family="sans-serif" font-size="12" lengthAdjust="spacingAndGlyphs" textLength="43" x="104" y="127.0508">Storage</text><path d="m196 94.5h49v40.1875h-49z" fill="#fefece" filter="url(#a)" stroke="#a80036" stroke-width="1.5"/><text font-family="sans-serif" font-size="12" lengthAdjust="spacingAndGlyphs" textLength="25" x="208" y="111.957">Blob</text><text font-family="sans-serif" font-size="12" lengthAdjust="spacingAndGlyphs" textLength="43" x="199" y="127.0508">Storage</text><path d="m280 94.5h79v40.1875h-79z" fill="#fefece" filter="url(#a)" stroke="#a80036" stroke-width="1.5"/><text font-family="sans-serif" font-size="12" lengthAdjust="spacingAndGlyphs" textLength="73" x="283" y="111.957">Conversation</text><text font-family="sans-serif" font-size="12" lengthAdjust="spacingAndGlyphs" textLength="28" x="305.5" y="127.0508">State</text><path d="m394.5 94.5h34v40.1875h-34z" fill="#fefece" filter="url(#a)" stroke="#a80036" stroke-width="1.5"/><text font-family="sans-serif" font-size="12" lengthAdjust="spacingAndGlyphs" textLength="27" x="398" y="111.957">User</text><text font-family="sans-serif" font-size="12" lengthAdjust="spacingAndGlyphs" textLength="28" x="397.5" y="127.0508">State</text><path d="m463.5 94.5h116v40.1875h-116z" fill="#fefece" filter="url(#a)" stroke="#a80036" stroke-width="1.5"/><text font-family="sans-serif" font-size="12" lengthAdjust="spacingAndGlyphs" textLength="110" x="466.5" y="111.957">PrivateConversation</text><text font-family="sans-serif" font-size="12" lengthAdjust="spacingAndGlyphs" textLength="28" x="507.5" y="127.0508">State</text><path d="m148 8.5h49v25.0938h-49z" fill="#fefece" filter="url(#a)" stroke="#a80036" stroke-width="1.5"/><text font-family="sans-serif" font-size="12" lengthAdjust="spacingAndGlyphs" textLength="43" x="151" y="25.957">Storage</text><path d="m339.5 8.5h52v25.0938h-52z" fill="#fefece" filter="url(#a)" stroke="#a80036" stroke-width="1.5"/><text font-family="sans-serif" font-size="12" lengthAdjust="spacingAndGlyphs" textLength="46" x="342.5" y="25.957">BotState</text><g stroke="#a80036"><path d="m137.703 44.4221c-25.552 16.4646-59.6444 38.4327-82.4571 53.1325" fill="none" stroke-dasharray="7 7"/><path d="m133.912 38.5375 20.604-4.9485-13.021 16.7169z" fill="none"/><path d="m157.226 51.7355c-7.192 14.001-15.56 30.292-21.896 42.6266" fill="none" stroke-dasharray="7 7"/><path d="m151.183 48.1804 15.364-14.5914-2.911 20.9882z" fill="none"/><path d="m188.099 51.7355c7.345 14.001 15.891 30.292 22.361 42.6266" fill="none" stroke-dasharray="7 7"/><path d="m181.671 54.5514-3.092-20.9624 15.49 14.4586z" fill="none"/><path d="m202.677 21h136.539" fill="none"/><path d="m197.336 21 9 4-4-4 4-4z" fill="#a80036"/></g><text font-family="sans-serif" font-size="13" lengthAdjust="spacingAndGlyphs" textLength="21" x="257.75" y="14.4951">use</text><path d="m350.551 51.7355c-7.039 14.001-15.229 30.292-21.43 42.6266" fill="none" stroke="#a80036"/><path d="m344.437 48.3133 15.237-14.7243-2.729 21.0127z" fill="none" stroke="#a80036"/><path d="m380.449 51.7355c7.039 14.001 15.229 30.292 21.43 42.6266" fill="none" stroke="#a80036"/><path d="m374.055 54.6017-2.729-21.0127 15.237 14.7243z" fill="none" stroke="#a80036"/><path d="m402.581 43.7493c26.242 15.392 61.104 35.8399 86.291 50.6128" fill="none" stroke="#a80036"/><path d="m398.967 49.7453-13.709-16.1563 20.793 4.0802z" fill="none" stroke="#a80036"/></svg>