<svg contentScriptType="application/ecmascript" contentStyleType="text/css" height="222" preserveAspectRatio="none" viewBox="0 0 189 222" width="189" xmlns="http://www.w3.org/2000/svg" xmlns:xlink="http://www.w3.org/1999/xlink" zoomAndPan="magnify"><filter id="a" height="300%" width="300%" x="-1" y="-1"><feGaussianBlur result="blurOut" stdDeviation="2"/><feColorMatrix in="blurOut" result="blurOut2" type="matrix" values="0 0 0 0 0 0 0 0 0 0 0 0 0 0 0 0 0 0 .4 0"/><feOffset dx="4" dy="4" in="blurOut2" result="blurOut3"/><feBlend in="SourceGraphic" in2="blurOut3" mode="normal"/></filter><g stroke="#a80036"><path d="m87.5 71.9609h10v91.0547h-10z" fill="#fff" filter="url(#a)"/><path d="m163.5 102.3125h10v30.3516h-10z" fill="#fff" filter="url(#a)"/><path d="m21 39.6094v141.4062" stroke-dasharray="5 5"/><path d="m92 39.6094v141.4062" stroke-dasharray="5 5"/><path d="m168.5 39.6094v141.4062" stroke-dasharray="5 5"/><path d="m8 3h23v31.6094h-23z" fill="#fefece" filter="url(#a)" stroke-width="1.5"/></g><text font-family="sans-serif" font-size="14" lengthAdjust="spacingAndGlyphs" textLength="9" x="15" y="24.5332">A</text><path d="m8 180.0156h23v31.6094h-23z" fill="#fefece" filter="url(#a)" stroke="#a80036" stroke-width="1.5"/><text font-family="sans-serif" font-size="14" lengthAdjust="spacingAndGlyphs" textLength="9" x="15" y="201.5488">A</text><path d="m79 3h23v31.6094h-23z" fill="#fefece" filter="url(#a)" stroke="#a80036" stroke-width="1.5"/><text font-family="sans-serif" font-size="14" lengthAdjust="spacingAndGlyphs" textLength="9" x="86" y="24.5332">B</text><path d="m79 180.0156h23v31.6094h-23z" fill="#fefece" filter="url(#a)" stroke="#a80036" stroke-width="1.5"/><text font-family="sans-serif" font-size="14" lengthAdjust="spacingAndGlyphs" textLength="9" x="86" y="201.5488">B</text><path d="m154.5 3h24v31.6094h-24z" fill="#fefece" filter="url(#a)" stroke="#a80036" stroke-width="1.5"/><text font-family="sans-serif" font-size="14" lengthAdjust="spacingAndGlyphs" textLength="10" x="161.5" y="24.5332">C</text><path d="m154.5 180.0156h24v31.6094h-24z" fill="#fefece" filter="url(#a)" stroke="#a80036" stroke-width="1.5"/><text font-family="sans-serif" font-size="14" lengthAdjust="spacingAndGlyphs" textLength="10" x="161.5" y="201.5488">C</text><path d="m87.5 71.9609h10v91.0547h-10z" fill="#fff" filter="url(#a)" stroke="#a80036"/><path d="m163.5 102.3125h10v30.3516h-10z" fill="#fff" filter="url(#a)" stroke="#a80036"/><path d="m75.5 67.9609 10 4-10 4 4-4z" fill="#a80036" stroke="#a80036"/><path d="m21.5 71.9609h60" stroke="#a80036"/><text font-family="sans-serif" font-size="13" lengthAdjust="spacingAndGlyphs" textLength="47" x="28.5" y="67.1045">DoWork</text><path d="m151.5 98.3125 10 4-10 4 4-4z" fill="#a80036" stroke="#a80036"/><path d="m97.5 102.3125h60" stroke="#a80036"/><text font-family="sans-serif" font-size="13" lengthAdjust="spacingAndGlyphs" textLength="47" x="104.5" y="97.4561">DoWork</text><path d="m108.5 128.6641-10 4 10 4-4-4z" fill="#a80036" stroke="#a80036"/><path d="m102.5 132.6641h65" stroke="#a80036" stroke-dasharray="2 2"/><text font-family="sans-serif" font-size="13" lengthAdjust="spacingAndGlyphs" textLength="30" x="114.5" y="127.8076">Done</text><path d="m32.5 159.0156-10 4 10 4-4-4z" fill="#a80036" stroke="#a80036"/><path d="m26.5 163.0156h65" stroke="#a80036" stroke-dasharray="2 2"/><text font-family="sans-serif" font-size="13" lengthAdjust="spacingAndGlyphs" textLength="30" x="38.5" y="158.1592">Done</text><path d="m83.5 154.0156 18 18" stroke="#a80036" stroke-width="2"/><path d="m83.5 172.0156 18-18" stroke="#a80036" stroke-width="2"/></svg>