<svg contentScriptType="application/ecmascript" contentStyleType="text/css" height="238" preserveAspectRatio="none" viewBox="0 0 206 238" width="206" xmlns="http://www.w3.org/2000/svg" xmlns:xlink="http://www.w3.org/1999/xlink" zoomAndPan="magnify"><filter id="a" height="300%" width="300%" x="-1" y="-1"><feGaussianBlur result="blurOut" stdDeviation="2"/><feColorMatrix in="blurOut" result="blurOut2" type="matrix" values="0 0 0 0 0 0 0 0 0 0 0 0 0 0 0 0 0 0 .4 0"/><feOffset dx="4" dy="4" in="blurOut2" result="blurOut3"/><feBlend in="SourceGraphic" in2="blurOut3" mode="normal"/></filter><path d="m32 87.6094v62" stroke="#a80036" stroke-dasharray="5 5"/><path d="m97 87.6094v62" stroke="#a80036" stroke-dasharray="5 5"/><path d="m168 87.6094v62" stroke="#a80036" stroke-dasharray="5 5"/><text font-family="sans-serif" font-size="14" lengthAdjust="spacingAndGlyphs" textLength="43" x="8" y="84.5332">Class1</text><ellipse cx="32.5" cy="13" fill="#fefece" filter="url(#a)" rx="8" ry="8" stroke="#a80036" stroke-width="2"/><path d="m32.5 21v27m-13-19h26m-13 19-13 15m13-15 13 15" fill="none" filter="url(#a)" stroke="#a80036" stroke-width="2"/><text font-family="sans-serif" font-size="14" lengthAdjust="spacingAndGlyphs" textLength="43" x="8" y="163.1426">Class1</text><ellipse cx="32.5" cy="176.2188" fill="#fefece" filter="url(#a)" rx="8" ry="8" stroke="#a80036" stroke-width="2"/><path d="m32.5 184.2188v27m-13-19h26m-13 19-13 15m13-15 13 15" fill="none" filter="url(#a)" stroke="#a80036" stroke-width="2"/><path d="m67 51h57v31.6094h-57z" fill="#fefece" filter="url(#a)" stroke="#a80036" stroke-width="1.5"/><text font-family="sans-serif" font-size="14" lengthAdjust="spacingAndGlyphs" textLength="43" x="74" y="72.5332">Class2</text><path d="m67 148.6094h57v31.6094h-57z" fill="#fefece" filter="url(#a)" stroke="#a80036" stroke-width="1.5"/><text font-family="sans-serif" font-size="14" lengthAdjust="spacingAndGlyphs" textLength="43" x="74" y="170.1426">Class2</text><path d="m138 51h57v31.6094h-57z" fill="#fefece" filter="url(#a)" stroke="#a80036" stroke-width="1.5"/><text font-family="sans-serif" font-size="14" lengthAdjust="spacingAndGlyphs" textLength="43" x="145" y="72.5332">Class3</text><path d="m138 148.6094h57v31.6094h-57z" fill="#fefece" filter="url(#a)" stroke="#a80036" stroke-width="1.5"/><text font-family="sans-serif" font-size="14" lengthAdjust="spacingAndGlyphs" textLength="43" x="145" y="170.1426">Class3</text><g stroke="#a80036"><path d="m43.5 99.6094-10 4 10 4-4-4z" fill="#a80036"/><path d="m37.5 103.6094h130"/><path d="m156.5 113.6094 10 4-10 4 4-4z" fill="#a80036"/><path d="m97.5 117.6094h65"/><path d="m85.5 127.6094 10 4-10 4 4-4z" fill="#a80036"/><path d="m32.5 131.6094h59"/></g></svg>