<svg contentScriptType="application/ecmascript" contentStyleType="text/css" height="291" preserveAspectRatio="none" viewBox="0 0 352 291" width="352" xmlns="http://www.w3.org/2000/svg" xmlns:xlink="http://www.w3.org/1999/xlink" zoomAndPan="magnify"><filter id="a" height="300%" width="300%" x="-1" y="-1"><feGaussianBlur result="blurOut" stdDeviation="2"/><feColorMatrix in="blurOut" result="blurOut2" type="matrix" values="0 0 0 0 0 0 0 0 0 0 0 0 0 0 0 0 0 0 .4 0"/><feOffset dx="4" dy="4" in="blurOut2" result="blurOut3"/><feBlend in="SourceGraphic" in2="blurOut3" mode="normal"/></filter><path d="m127.5 81.9609h10v96.3945h-10z" fill="#fff" filter="url(#a)" stroke="#a80036"/><path d="m111 49.6094h39v31.6094h-39z" fill="#fefece" filter="url(#a)" stroke="#a80036" stroke-width="1.5"/><text font-family="sans-serif" font-size="14" lengthAdjust="spacingAndGlyphs" textLength="25" x="118" y="71.1426">Bob</text><path d="m184.5 96.2188h48v31.6094h-48z" fill="#fefece" filter="url(#a)" stroke="#a80036" stroke-width="1.5"/><text font-family="sans-serif" font-size="14" lengthAdjust="spacingAndGlyphs" textLength="34" x="191.5" y="117.752">Carol</text><g stroke="#a80036"><path d="m64 39.6094v210.2734" stroke-dasharray="5 5"/><path d="m132 82.9141v166.9687" stroke-dasharray="5 5"/><path d="m210.5 129.5234v120.3594" stroke-dasharray="5 5"/><path d="m40 3h44v31.6094h-44z" fill="#fefece" filter="url(#a)" stroke-width="1.5"/></g><text font-family="sans-serif" font-size="14" lengthAdjust="spacingAndGlyphs" textLength="30" x="47" y="24.5332">Alice</text><path d="m40 248.8828h44v31.6094h-44z" fill="#fefece" filter="url(#a)" stroke="#a80036" stroke-width="1.5"/><text font-family="sans-serif" font-size="14" lengthAdjust="spacingAndGlyphs" textLength="30" x="47" y="270.416">Alice</text><path d="m111 248.8828h39v31.6094h-39z" fill="#fefece" filter="url(#a)" stroke="#a80036" stroke-width="1.5"/><text font-family="sans-serif" font-size="14" lengthAdjust="spacingAndGlyphs" textLength="25" x="118" y="270.416">Bob</text><path d="m184.5 248.8828h48v31.6094h-48z" fill="#fefece" filter="url(#a)" stroke="#a80036" stroke-width="1.5"/><text font-family="sans-serif" font-size="14" lengthAdjust="spacingAndGlyphs" textLength="34" x="191.5" y="270.416">Carol</text><path d="m127.5 81.9609h10v96.3945h-10z" fill="#fff" filter="url(#a)" stroke="#a80036"/><path d="m99 67.9609 10 4-10 4 4-4z" fill="#a80036" stroke="#a80036"/><path d="m64 71.9609h41" stroke="#a80036"/><text font-family="sans-serif" font-size="13" lengthAdjust="spacingAndGlyphs" textLength="23" x="71" y="67.1045">new</text><path d="m111 49.6094h39v31.6094h-39z" fill="#fefece" filter="url(#a)" stroke="#a80036" stroke-width="1.5"/><text font-family="sans-serif" font-size="14" lengthAdjust="spacingAndGlyphs" textLength="25" x="118" y="71.1426">Bob</text><path d="m8 57.7383v26h47v-16l-10-10z" fill="#fbfb77" filter="url(#a)" stroke="#a80036"/><path d="m45 57.7383v10h10z" fill="#fbfb77" stroke="#a80036"/><text font-family="sans-serif" font-size="13" lengthAdjust="spacingAndGlyphs" textLength="26" x="14" y="76.2334">生成</text><path d="m172.5 114.5703 10 4-10 4 4-4z" fill="#a80036" stroke="#a80036"/><path d="m137.5 118.5703h41" stroke="#a80036"/><text font-family="sans-serif" font-size="13" lengthAdjust="spacingAndGlyphs" textLength="23" x="144.5" y="113.7139">new</text><path d="m184.5 96.2188h48v31.6094h-48z" fill="#fefece" filter="url(#a)" stroke="#a80036" stroke-width="1.5"/><text font-family="sans-serif" font-size="14" lengthAdjust="spacingAndGlyphs" textLength="34" x="191.5" y="117.752">Carol</text><path d="m198.5 174.3555 10 4-10 4 4-4z" fill="#a80036" stroke="#a80036"/><path d="m132.5 178.3555h72" stroke="#a80036"/><text font-family="sans-serif" font-size="13" lengthAdjust="spacingAndGlyphs" textLength="31" x="139.5" y="173.499">close</text><path d="m215 147.8281v42h125v-32l-10-10z" fill="#fbfb77" filter="url(#a)" stroke="#a80036"/><path d="m330 147.8281v10h10z" fill="#fbfb77" stroke="#a80036"/><text font-family="sans-serif" font-size="13" lengthAdjust="spacingAndGlyphs" textLength="104" x="221" y="166.3232">他のオブジェクト</text><text font-family="sans-serif" font-size="13" lengthAdjust="spacingAndGlyphs" textLength="65" x="221" y="182.6748">による削除</text><path d="m201.5 169.3555 18 18" stroke="#a80036" stroke-width="2"/><path d="m201.5 187.3555 18-18" stroke="#a80036" stroke-width="2"/><path d="m75 222.8828-10 4 10 4-4-4z" fill="#a80036" stroke="#a80036"/><path d="m69 226.8828h62.5" stroke="#a80036" stroke-dasharray="2 2"/><text font-family="sans-serif" font-size="13" lengthAdjust="spacingAndGlyphs" textLength="39" x="81" y="222.0264">results</text><path d="m137 204.5313v26h73v-16l-10-10z" fill="#fbfb77" filter="url(#a)" stroke="#a80036"/><path d="m200 204.5313v10h10z" fill="#fbfb77" stroke="#a80036"/><text font-family="sans-serif" font-size="13" lengthAdjust="spacingAndGlyphs" textLength="52" x="143" y="223.0264">自己削除</text><path d="m123.5 217.8828 18 18" stroke="#a80036" stroke-width="2"/><path d="m123.5 235.8828 18-18" stroke="#a80036" stroke-width="2"/></svg>