<svg contentScriptType="application/ecmascript" contentStyleType="text/css" height="265" preserveAspectRatio="none" viewBox="0 0 243 265" width="243" xmlns="http://www.w3.org/2000/svg" xmlns:xlink="http://www.w3.org/1999/xlink" zoomAndPan="magnify"><filter id="a" height="300%" width="300%" x="-1" y="-1"><feGaussianBlur result="blurOut" stdDeviation="2"/><feColorMatrix in="blurOut" result="blurOut2" type="matrix" values="0 0 0 0 0 0 0 0 0 0 0 0 0 0 0 0 0 0 .4 0"/><feOffset dx="4" dy="4" in="blurOut2" result="blurOut3"/><feBlend in="SourceGraphic" in2="blurOut3" mode="normal"/></filter><g stroke="#a80036"><path d="m69 71.9609h10v134.4063h-10z" fill="#fff" filter="url(#a)"/><path d="m74 109.9609h10v66.0547h-10z" fill="#fff" filter="url(#a)"/><path d="m73.5 39.6094v184.7578" stroke-dasharray="5 5"/><path d="m60.5 3h23v31.6094h-23z" fill="#fefece" filter="url(#a)" stroke-width="1.5"/></g><text font-family="sans-serif" font-size="14" lengthAdjust="spacingAndGlyphs" textLength="9" x="67.5" y="24.5332">A</text><path d="m60.5 223.3672h23v31.6094h-23z" fill="#fefece" filter="url(#a)" stroke="#a80036" stroke-width="1.5"/><text font-family="sans-serif" font-size="14" lengthAdjust="spacingAndGlyphs" textLength="9" x="67.5" y="244.9004">A</text><path d="m69 71.9609h10v134.4063h-10z" fill="#fff" filter="url(#a)" stroke="#a80036"/><path d="m74 109.9609h10v66.0547h-10z" fill="#fff" filter="url(#a)" stroke="#a80036"/><path d="m57 67.9609 10 4-10 4 4-4z" fill="#a80036" stroke="#a80036"/><path d="m3 71.9609h60" stroke="#a80036"/><text font-family="sans-serif" font-size="13" lengthAdjust="spacingAndGlyphs" textLength="47" x="10" y="67.1045">DoWork</text><path d="m79 97.3125h47" stroke="#a80036"/><path d="m126 97.3125v13" stroke="#a80036"/><path d="m85 110.3125h41" stroke="#a80036"/><path d="m95 106.3125-10 4 10 4-4-4z" fill="#a80036" stroke="#a80036"/><text font-family="sans-serif" font-size="13" lengthAdjust="spacingAndGlyphs" textLength="66" x="91" y="92.4561">Internal call</text><path d="m220 141.6641 10 4-10 4 4-4z" fill="#a80036" stroke="#a80036"/><path d="m84 145.6641h142" stroke="#a80036"/><text font-family="sans-serif" font-size="13" lengthAdjust="spacingAndGlyphs" textLength="124" x="91" y="140.8076">&lt;&lt; createRequest &gt;&gt;</text><path d="m90 172.0156-10 4 10 4-4-4z" fill="#a80036" stroke="#a80036"/><path d="m84 176.0156h147" stroke="#a80036" stroke-dasharray="2 2"/><text font-family="sans-serif" font-size="13" lengthAdjust="spacingAndGlyphs" textLength="93" x="96" y="171.1592">RequestCreated</text><path d="m14 202.3672-10 4 10 4-4-4z" fill="#a80036" stroke="#a80036"/><path d="m8 206.3672h65" stroke="#a80036"/><text font-family="sans-serif" font-size="13" lengthAdjust="spacingAndGlyphs" textLength="30" x="20" y="201.5107">Done</text></svg>