<svg contentScriptType="application/ecmascript" contentStyleType="text/css" height="504" preserveAspectRatio="none" viewBox="0 0 548 504" width="548" xmlns="http://www.w3.org/2000/svg" xmlns:xlink="http://www.w3.org/1999/xlink" zoomAndPan="magnify"><filter id="a" height="300%" width="300%" x="-1" y="-1"><feGaussianBlur result="blurOut" stdDeviation="2"/><feColorMatrix in="blurOut" result="blurOut2" type="matrix" values="0 0 0 0 0 0 0 0 0 0 0 0 0 0 0 0 0 0 .4 0"/><feOffset dx="4" dy="4" in="blurOut2" result="blurOut3"/><feBlend in="SourceGraphic" in2="blurOut3" mode="normal"/></filter><g stroke="#a80036"><path d="m168 39.6094v423.2734" stroke-dasharray="5 5"/><path d="m379.5 39.6094v423.2734" stroke-dasharray="5 5"/><path d="m144 3h44v31.6094h-44z" fill="#fefece" filter="url(#a)" stroke-width="1.5"/></g><text font-family="sans-serif" font-size="14" lengthAdjust="spacingAndGlyphs" textLength="30" x="151" y="24.5332">Alice</text><path d="m144 461.8828h44v31.6094h-44z" fill="#fefece" filter="url(#a)" stroke="#a80036" stroke-width="1.5"/><text font-family="sans-serif" font-size="14" lengthAdjust="spacingAndGlyphs" textLength="30" x="151" y="483.416">Alice</text><path d="m358.5 3h39v31.6094h-39z" fill="#fefece" filter="url(#a)" stroke="#a80036" stroke-width="1.5"/><text font-family="sans-serif" font-size="14" lengthAdjust="spacingAndGlyphs" textLength="25" x="365.5" y="24.5332">Bob</text><path d="m358.5 461.8828h39v31.6094h-39z" fill="#fefece" filter="url(#a)" stroke="#a80036" stroke-width="1.5"/><text font-family="sans-serif" font-size="14" lengthAdjust="spacingAndGlyphs" textLength="25" x="365.5" y="483.416">Bob</text><path d="m368 67.9609 10 4-10 4 4-4z" fill="#a80036" stroke="#a80036"/><path d="m168 71.9609h206" stroke="#a80036"/><text font-family="sans-serif" font-size="13" lengthAdjust="spacingAndGlyphs" textLength="188" x="175" y="67.1045">Long long long dummy message</text><path d="m8 84.9609v59h151v-49l-10-10z" fill="#fbfb77" filter="url(#a)" stroke="#a80036"/><path d="m149 84.9609v10h10z" fill="#fbfb77" stroke="#a80036"/><text font-family="sans-serif" font-size="13" lengthAdjust="spacingAndGlyphs" textLength="128" x="14" y="103.4561">このノートは Alice の</text><text font-family="sans-serif" font-size="13" lengthAdjust="spacingAndGlyphs" textLength="130" x="14" y="119.8076">ライフラインの左側に</text><text font-family="sans-serif" font-size="13" lengthAdjust="spacingAndGlyphs" textLength="91" x="14" y="136.1592">表示されます。</text><path d="m385 158.0156v59h151v-49l-10-10z" fill="#fbfb77" filter="url(#a)" stroke="#a80036"/><path d="m526 158.0156v10h10z" fill="#fbfb77" stroke="#a80036"/><text font-family="sans-serif" font-size="13" lengthAdjust="spacingAndGlyphs" textLength="122" x="391" y="176.5107">このノートは Bob の</text><text font-family="sans-serif" font-size="13" lengthAdjust="spacingAndGlyphs" textLength="130" x="391" y="192.8623">ライフラインの右側に</text><text font-family="sans-serif" font-size="13" lengthAdjust="spacingAndGlyphs" textLength="91" x="391" y="209.2139">表示されます。</text><path d="m173 231.0703v42h149v-32l-10-10z" fill="#fbfb77" filter="url(#a)" stroke="#a80036"/><path d="m312 231.0703v10h10z" fill="#fbfb77" stroke="#a80036"/><text font-family="sans-serif" font-size="13" lengthAdjust="spacingAndGlyphs" textLength="128" x="179" y="249.5654">これは Alice の右側に</text><text font-family="sans-serif" font-size="13" lengthAdjust="spacingAndGlyphs" textLength="91" x="179" y="265.917">表示されます。</text><path d="m228 287.7734v42h143v-32l-10-10z" fill="#fbfb77" filter="url(#a)" stroke="#a80036"/><path d="m361 287.7734v10h10z" fill="#fbfb77" stroke="#a80036"/><text font-family="sans-serif" font-size="13" lengthAdjust="spacingAndGlyphs" textLength="122" x="234" y="306.2686">これは Bob の左側に</text><text font-family="sans-serif" font-size="13" lengthAdjust="spacingAndGlyphs" textLength="91" x="234" y="322.6201">表示されます。</text><path d="m90 344.4766v42h151v-32l-10-10z" fill="#fbfb77" filter="url(#a)" stroke="#a80036"/><path d="m231 344.4766v10h10z" fill="#fbfb77" stroke="#a80036"/><text font-family="sans-serif" font-size="13" lengthAdjust="spacingAndGlyphs" textLength="115" x="96" y="362.9717">これは Alice の上に</text><text font-family="sans-serif" font-size="13" lengthAdjust="spacingAndGlyphs" textLength="130" x="96" y="379.3232">重ねて表示されます。</text><path d="m147 401.1797v42h252v-32l-10-10z" fill="#fbfb77" filter="url(#a)" stroke="#a80036"/><path d="m389 401.1797v10h10z" fill="#fbfb77" stroke="#a80036"/><text font-family="sans-serif" font-size="13" lengthAdjust="spacingAndGlyphs" textLength="159" x="187.25" y="419.6748">これは Alice と Bob の上に</text><text font-family="sans-serif" font-size="13" lengthAdjust="spacingAndGlyphs" textLength="130" x="187.25" y="436.0264">重ねて表示されます。</text></svg>