<svg contentScriptType="application/ecmascript" contentStyleType="text/css" height="271" preserveAspectRatio="none" viewBox="0 0 315 271" width="315" xmlns="http://www.w3.org/2000/svg" xmlns:xlink="http://www.w3.org/1999/xlink" zoomAndPan="magnify"><filter id="a" height="300%" width="300%" x="-1" y="-1"><feGaussianBlur result="blurOut" stdDeviation="2"/><feColorMatrix in="blurOut" result="blurOut2" type="matrix" values="0 0 0 0 0 0 0 0 0 0 0 0 0 0 0 0 0 0 .4 0"/><feOffset dx="4" dy="4" in="blurOut2" result="blurOut3"/><feBlend in="SourceGraphic" in2="blurOut3" mode="normal"/></filter><g stroke="#a80036"><path d="m115 39.6094v190.1094" stroke-dasharray="5 5"/><path d="m199 39.6094v190.1094" stroke-dasharray="5 5"/><path d="m102 3h23v31.6094h-23z" fill="#fefece" filter="url(#a)" stroke-width="1.5"/></g><text font-family="sans-serif" font-size="14" lengthAdjust="spacingAndGlyphs" textLength="9" x="109" y="24.5332">A</text><path d="m102 228.7188h23v31.6094h-23z" fill="#fefece" filter="url(#a)" stroke="#a80036" stroke-width="1.5"/><text font-family="sans-serif" font-size="14" lengthAdjust="spacingAndGlyphs" textLength="9" x="109" y="250.252">A</text><path d="m186 3h23v31.6094h-23z" fill="#fefece" filter="url(#a)" stroke="#a80036" stroke-width="1.5"/><text font-family="sans-serif" font-size="14" lengthAdjust="spacingAndGlyphs" textLength="9" x="193" y="24.5332">B</text><path d="m186 228.7188h23v31.6094h-23z" fill="#fefece" filter="url(#a)" stroke="#a80036" stroke-width="1.5"/><text font-family="sans-serif" font-size="14" lengthAdjust="spacingAndGlyphs" textLength="9" x="193" y="250.252">B</text><path d="m187.5 81.1367 10 4-10 4 4-4z" fill="#a80036" stroke="#a80036"/><path d="m115.5 85.1367h78" stroke="#a80036"/><text font-family="sans-serif" font-size="13" lengthAdjust="spacingAndGlyphs" textLength="60" x="122.5" y="80.2803">message1</text><path d="m8 54.6094v42h99v-32l-10-10z" fill="#fbfb77" filter="url(#a)" stroke="#a80036"/><path d="m97 54.6094v10h10z" fill="#fbfb77" stroke="#a80036"/><text font-family="sans-serif" font-size="13" lengthAdjust="spacingAndGlyphs" textLength="78" x="14" y="73.1045">メッセージの</text><text font-family="sans-serif" font-size="13" lengthAdjust="spacingAndGlyphs" textLength="78" x="14" y="89.4561">左側のノート</text><path d="m126.5 137.8398-10 4 10 4-4-4z" fill="#a80036" stroke="#a80036"/><path d="m120.5 141.8398h78" stroke="#a80036"/><text font-family="sans-serif" font-size="13" lengthAdjust="spacingAndGlyphs" textLength="60" x="132.5" y="136.9834">message2</text><path d="m204 111.3125v42h99v-32l-10-10z" fill="#fbfb77" filter="url(#a)" stroke="#a80036"/><path d="m293 111.3125v10h10z" fill="#fbfb77" stroke="#a80036"/><text font-family="sans-serif" font-size="13" lengthAdjust="spacingAndGlyphs" textLength="78" x="210" y="129.8076">メッセージの</text><text font-family="sans-serif" font-size="13" lengthAdjust="spacingAndGlyphs" textLength="78" x="210" y="146.1592">右側のノート</text><path d="m187.5 194.543 10 4-10 4 4-4z" fill="#a80036" stroke="#a80036"/><path d="m115.5 198.543h78" stroke="#a80036"/><text font-family="sans-serif" font-size="13" lengthAdjust="spacingAndGlyphs" textLength="60" x="122.5" y="193.6865">message3</text><path d="m204 168.0156v42h99v-32l-10-10z" fill="#fbfb77" filter="url(#a)" stroke="#a80036"/><path d="m293 168.0156v10h10z" fill="#fbfb77" stroke="#a80036"/><text font-family="sans-serif" font-size="13" lengthAdjust="spacingAndGlyphs" textLength="78" x="210" y="186.5107">複数行に渡る</text><text font-family="sans-serif" font-size="13" lengthAdjust="spacingAndGlyphs" textLength="78" x="210" y="202.8623">記述も可能！</text></svg>