<svg contentScriptType="application/ecmascript" contentStyleType="text/css" height="143" preserveAspectRatio="none" viewBox="0 0 218 143" width="218" xmlns="http://www.w3.org/2000/svg" xmlns:xlink="http://www.w3.org/1999/xlink" zoomAndPan="magnify"><filter id="a" height="300%" width="300%" x="-1" y="-1"><feGaussianBlur result="blurOut" stdDeviation="2"/><feColorMatrix in="blurOut" result="blurOut2" type="matrix" values="0 0 0 0 0 0 0 0 0 0 0 0 0 0 0 0 0 0 .4 0"/><feOffset dx="4" dy="4" in="blurOut2" result="blurOut3"/><feBlend in="SourceGraphic" in2="blurOut3" mode="normal"/></filter><path d="m38 39.6094v62" stroke="#a80036" stroke-dasharray="5 5"/><path d="m109 39.6094v62" stroke="#a80036" stroke-dasharray="5 5"/><path d="m180 39.6094v62" stroke="#a80036" stroke-dasharray="5 5"/><path d="m8 3h57v31.6094h-57z" fill="#fefece" filter="url(#a)" stroke="#a80036" stroke-width="1.5"/><text font-family="sans-serif" font-size="14" lengthAdjust="spacingAndGlyphs" textLength="43" x="15" y="24.5332">Class1</text><path d="m8 100.6094h57v31.6094h-57z" fill="#fefece" filter="url(#a)" stroke="#a80036" stroke-width="1.5"/><text font-family="sans-serif" font-size="14" lengthAdjust="spacingAndGlyphs" textLength="43" x="15" y="122.1426">Class1</text><path d="m79 3h57v31.6094h-57z" fill="#fefece" filter="url(#a)" stroke="#a80036" stroke-width="1.5"/><text font-family="sans-serif" font-size="14" lengthAdjust="spacingAndGlyphs" textLength="43" x="86" y="24.5332">Class2</text><path d="m79 100.6094h57v31.6094h-57z" fill="#fefece" filter="url(#a)" stroke="#a80036" stroke-width="1.5"/><text font-family="sans-serif" font-size="14" lengthAdjust="spacingAndGlyphs" textLength="43" x="86" y="122.1426">Class2</text><path d="m150 3h57v31.6094h-57z" fill="#fefece" filter="url(#a)" stroke="#a80036" stroke-width="1.5"/><text font-family="sans-serif" font-size="14" lengthAdjust="spacingAndGlyphs" textLength="43" x="157" y="24.5332">Class3</text><path d="m150 100.6094h57v31.6094h-57z" fill="#fefece" filter="url(#a)" stroke="#a80036" stroke-width="1.5"/><text font-family="sans-serif" font-size="14" lengthAdjust="spacingAndGlyphs" textLength="43" x="157" y="122.1426">Class3</text><g stroke="#a80036"><path d="m49.5 51.6094-10 4 10 4-4-4z" fill="#a80036"/><path d="m43.5 55.6094h136"/><path d="m168.5 65.6094 10 4-10 4 4-4z" fill="#a80036"/><path d="m109.5 69.6094h65"/><path d="m97.5 79.6094 10 4-10 4 4-4z" fill="#a80036"/><path d="m38.5 83.6094h65"/></g></svg>