<svg xmlns="http://www.w3.org/2000/svg" width="1024" height="1024" viewBox="0 0 270.933 270.933"><defs><path id="a" d="M215.761 431.521h1284.693v1212.773H215.761z"/></defs><path d="M0 0h270.933v270.933H0z" style="fill:#323330;fill-opacity:1;stroke-width:0;paint-order:stroke fill markers"/><g aria-label="SSH" style="font-size:466.667px;line-height:1.25;white-space:pre;shape-inside:url(#a);fill:#fff" transform="matrix(.2646 0 0 .2649 -13.684 24.697)"><path d="M229.293 801.479c-1.867 1.867-2.333 5.6 0 7.933 29.867 29.4 71.867 46.2 114.334 46.2 70.933 0 115.733-42.933 115.733-96.133 0-47.133-28.467-72.333-65.333-88.2l-41.534-17.267c-26.133-10.733-44.8-18.2-44.8-37.333 0-18.2 14.467-29.867 42-29.867 24.734 0 43.4 8.867 62.534 24.734 2.8 2.333 6.533 1.4 8.4-.934l27.533-34.533c1.867-1.867 1.867-5.6-.467-7.933-24.733-24.734-61.133-40.134-98-40.134-62.067 0-108.267 39.2-108.267 91.467 0 48.067 34.067 73.267 64.867 86.333l42 18.2c28.467 12.134 43.867 18.667 43.867 39.667 0 19.6-14.467 33.6-47.6 33.6-26.134 0-54.134-13.533-75.134-33.133-2.8-2.334-6.533-1.867-8.4.466zM476.159 801.479c-1.867 1.867-2.334 5.6 0 7.933 29.866 29.4 71.866 46.2 114.333 46.2 70.934 0 115.734-42.933 115.734-96.133 0-47.133-28.467-72.333-65.334-88.2l-41.533-17.267c-26.134-10.733-44.8-18.2-44.8-37.333 0-18.2 14.466-29.867 42-29.867 24.733 0 43.4 8.867 62.533 24.734 2.8 2.333 6.534 1.4 8.4-.934l27.534-34.533c1.866-1.867 1.866-5.6-.467-7.933-24.733-24.734-61.133-40.134-98-40.134-62.067 0-108.267 39.2-108.267 91.467 0 48.067 34.067 73.267 64.867 86.333l42 18.2c28.467 12.134 43.867 18.667 43.867 39.667 0 19.6-14.467 33.6-47.6 33.6-26.134 0-54.134-13.533-75.134-33.133-2.8-2.334-6.533-1.867-8.4.466zM749.625 844.412c0 2.334 2.333 5.6 6.066 5.6h54.134c2.333 0 5.6-1.866 5.6-5.6V714.68h112.467v129.733c0 2.334 1.866 5.6 5.6 5.6h54.133c2.333 0 6.067-1.866 6.067-5.6v-305.2c0-2.333-2.334-5.6-6.067-5.6h-54.133c-2.334 0-5.6 1.867-5.6 5.6V655.88H815.425V539.212c0-2.333-1.867-5.6-5.6-5.6H755.69c-2.333 0-6.066 1.867-6.066 5.6z" style="font-family:&quot;Falling Sky&quot;;-inkscape-font-specification:&quot;Falling Sky&quot;"/></g></svg>